<svg height="400" viewBox="0 0 2400 400" width="2400" xmlns="http://www.w3.org/2000/svg"><g fill-rule="evenodd" transform="translate(794 12)"><path d="m843.225248 146.463696c-2.917492-.50495-12.862212-1.725247-15.204621-1.7533-14.026403-.238449-21.376238-1.584983-33.186469-1.641089-28.389439-.126238-56.526402-.841584-84.915841-.799505-3.127888 0-4.60066 1.94967-3.646865 4.923267 1.080033 3.352311 3.39439 5.273928 7.742574 5.400165-5.809887 1.037468-11.202135 3.714125-15.541254 7.714522-1.837458 1.711221-3.85726 3.226072-5.736798 4.895214-9.145215 8.163367-18.472773 16.14439-27.351486 24.602311-6.185643 5.905115-11.740099 12.469471-17.575082 18.7533-4.628713 4.979373-9.075083 10.141089-13.914191 14.910066-7.462047 7.363861-15.162542 14.5033-22.820958 21.670792-1.278368 1.015277-2.633653 1.929742-4.05363 2.735148l-.799505-.715346c3.54868-8.864687 6.760726-17.869637 10.702145-26.55198 4.513824-10.410831 10.243705-20.250972 17.070132-29.315182 1.402641-1.767327 2.272278-3.857261 4.740924-4.207921 1.809406-.30858 2.132014-1.472772 2.426568-3.085808.939769-5.077558-2.622937-7.419967-5.764851-10.056931-1.767327-1.486799-3.169967-1.262376-4.951321.434819-4.558103 4.430886-8.595767 9.367377-12.034653 14.713696-2.587592 4.111651-5.500372 8.009429-8.710396 11.655941-10.393564 11.30528-21.039604 22.330033-31.573432 33.551155-8.976898 9.608086-17.7434 19.412541-26.650165 29.020627-8.906766 9.608086-18.051981 19.075907-27.113037 28.585808-1.003274.883318-2.057031 1.70759-3.15594 2.468647.031365-1.652519.257346-3.295586.673267-4.895214 2.258251-5.610561 4.684819-11.052806 7.013201-16.551155 6.424093-14.727723 12.806106-29.455446 19.314357-44.155116s13.156765-29.623762 19.903465-44.351485c3.492574-7.616337 7.335809-15.05033 11.066832-22.554456.645214-1.318481 1.542904-2.510726 2.244224-3.815181 4.067657-7.490099 7.981023-15.078383 12.188944-22.442244 3.843234-6.7467 8.303631-13.170792 11.964522-20.015677 4.93301-8.940159 10.740295-17.3691785 17.336633-25.1633662 5.919142-7.1955445 9.818482-15.0222772 8.289604-24.7285478-.813531-5.259901-.925742-7.8407591-4.698845-13.6336634-.224422-.3366337-1.122112-1.7813531-1.40264-2.1179868-1.108086-1.4026403-2.174092-2.8052805-3.394389-4.0816832-2.370462-2.4826732-3.310231-5.0915841-6.115512-2.9174917-1.459228 1.1572266-2.740028 2.523098-3.801155 4.0536303-1.655116 3.4504951-3.141914 7.0132014-4.95132 10.3655116-7.574258 14.2227723-15.316832 28.3613861-22.877063 42.5841584-9.930693 18.6551158-20.113861 37.1980198-29.455445 56.1056108-9.734324 19.636963-18.64109 39.568482-27.982674 59.345709-.676392 1.609581-1.753125 3.019473-3.127887 4.09571-16.410892 11.221122-33.859736 20.492574-53.019802 26.173267-5.231849 1.556931-13.268977 3.113862-17.729373-1.080033-7.153466-6.746699 2.580858-22.975247 4.95132-29.764026.992061-2.644453 3.017617-4.771287 5.610561-5.891089 5.609828-2.868625 11.009471-6.13091 16.158416-9.762377 9.640675-6.778174 18.457452-14.658198 26.271452-23.480198 7.924917-9.285478 12.146864-20.731023.126237-28.543729-1.630487-.988255-3.372621-1.779278-5.189769-2.356436-4.712871-1.599009-10.646039-2.566831-15.120462.210396-1.305047.937995-2.504328 2.014996-3.576732 3.212047l-3.576733 3.5066c-11.319307 11.094885-18.59901 25.247525-29.609736 36.468647-16.368812 16.635314-28.740099 36.552806-44.884488 53.426568-10.197195 10.674092-20.212047 21.544554-30.268977 32.344884-4.488449 4.79703-8.906766 9.664192-13.339109 14.503301-.042322-1.243667.099476-2.486757.420792-3.688944 1.641089-3.89934 3.492574-7.714522 5.273927-11.557756 4.011551-8.69637 7.854786-17.462871 12.076733-26.04703 5.049505-10.323432 10.393564-20.492574 15.653465-30.703795 3.590759-6.943069 7.153466-13.914191 10.912542-20.759076 4.60066-8.415842 9.383663-16.621287 14.138613-24.896865 4.404291-7.649065 8.855336-15.265401 13.353136-22.84901 4.207921-7.013201 8.415841-13.80198 12.623762-20.70297 1.617712-2.627613 3.235424-5.25055 4.853135-7.868812 2.468647-3.997524 4.867162-8.023102 7.405941-11.978548 3.254125-5.068206 6.559681-10.094334 9.916667-15.0783824 1.55693-2.2863036 3.268151-4.4744225 4.923267-6.7046205 4.712871-6.3820132 9.229373-12.9323432 14.278878-19.0478548 4.488449-5.4422442 10.533828-12.0346534 9.271452-19.7772277-.483616-3.1391125-1.311489-6.2154136-2.468647-9.1732673-.80153-2.4493359-2.297556-4.6129699-4.306105-6.2277228-7.209571-5.610561-11.992575 5.4843234-15.429043 10.4917492-5.470297 7.8407591-10.505776 15.990099-15.541254 24.1254125-5.905116 9.509901-11.333334 19.2161716-19.370463 27.3234324-19.174092 19.3283824-38.75495 38.2079204-59.682343 55.6287124-13.187064 11.226616-27.655194 20.854774-43.103135 28.683994-4.348185 2.146039-4.334158 2.117987-7.60231-1.542904-1.865512-2.089934-3.604786-4.460396-7.013202-2.30033-.673267.420792-1.94967 0-2.931518-.182344-2.61327-.434266-5.25034-.71062-7.896864-.827557-6.802806.084158-13.605611.280528-20.380363.757425-15.772765 1.105635-31.430416 3.483834-46.820133 7.111386-3.997524.939769-8.009075 1.94967-12.062706 2.580858-2.80528.434819-3.169967 0-3.240099-2.721122-.15429-6.466171-.168317-12.932343-.294554-19.398514-.336634-16.018152-.54703-31.475248.841584-47.465347.575082-6.774752 1.206271-13.549505 1.94967-20.310231.715346-6.4942244 1.542904-12.9884489 2.875412-19.3844885 3.913367-18.8795379 20.632839-30.970297 37.39439-38.320132 19.917492-8.7244224 43.39769-16.8316832 64.409241-7.0132013 5.610561 2.6229373 8.415841 6.1014851 12.39934 10.6460396 1.458051 1.5810825 3.15766 2.920886 5.035478 3.9694719 2.510726 1.5148515 6.087459 3.9414192 8.752476 1.3184819 2.174092-2.1179868 2.075907-5.8209571 1.40264-8.570132-.956215-3.3823073-2.432601-6.5953401-4.376238-9.5239274-2.089934-3.5486799-2.721122-4.2079208-4.544554-7.1955446-2.406615-3.3625678-5.36045-6.2974368-8.738449-8.6823432-5.456271-4.09570957-12.623763-5.13366337-19.103961-6.3679868-15.93067-2.9492456-32.196959-3.64333692-48.320957-2.06188119-16.02286 1.09790201-31.476422 6.38451946-44.814356 15.33085809-3.478548 2.2722772-7.237624 4.2079208-10.070957 7.3217822s-5.806931 6.480198-8.682343 9.7483498c-5.302342 5.9410535-9.71944 12.6163048-13.114687 19.8193069-7.571764 16.8170641-11.056426 35.1872393-10.169142 53.6089106.883664 17.855611 1.40264 35.725248 2.14604 53.594885.411441 10.183168.841584 20.366336 1.290429 30.549505.070132 1.500825-.154291 2.370462-1.851485 2.889439-7.602311 2.384488-15.176568 4.881188-22.722773 7.490099-10.884488 3.759076-21.881188 7.237623-32.541254 11.571782-21.165841 8.640264-42.1493396 17.757426-63.1889436 26.74835-7.5742574 3.240099-15.2466997 6.325907-22.5544554 10.113036-12.9323433 6.718647-25.3737624 14.236799-37.7029703 22.021452-6.67656768 4.207921-12.91831685 13.787954-11.82425745 16.340759.57452374 1.722111 1.41198352 3.344985 2.48267327 4.811056.46071223.579585 1.08692228 1.005212 1.79537954 1.220297.97335944.591863 1.99095943 1.107697 3.04372937 1.542905 8.06080887 3.071615 16.39141927 5.382021 24.88283827 6.90099 6.0173267 1.094059 36.6089109 5.989274 42.6823432 6.718647 8.6157667 1.000134 17.2941147 1.356457 25.9628711 1.066006 3.787129-.168317 11.221122.378713 14.727723.140264 16.761551-1.150165 31.012376-2.594884 47.156766-7.616336 13.942244-4.320132 29.455445-7.44802 41.027227-16.957921 14.531354-11.936469 19.272278-30.016502 22.596535-48.236799 1.879538-10.239274.967822-21.039604.631188-31.461221 0-1.767327 0-3.54868.070132-5.316007 0-.967821.098185-2.286303.70132-2.80528 1.866815-1.882457 4.015176-3.462969 6.367987-4.684819 4.698197-2.081725 9.546303-3.807163 14.5033-5.161716 9.668867-2.543454 19.39384-4.84846 29.174918-6.915016 10.926568-2.30033 21.937294-4.207921 32.919967-6.283829 1.051694-.036121 2.103526.067647 3.127888.308581-3.141914 2.917492-6.04538 5.231848-8.415842 7.938944-5.171067 5.704071-10.178493 11.520352-15.022277 17.448845-7.013201 8.584158-13.900165 17.280528-20.773102 25.976898-1.556931 1.963696-2.805281 4.137788-4.334159 6.15759-6.662541 9.145215-6.087459 18.655116-1.781353 28.529703 3.731023 8.54208 9.523927 8.5 15.94802 6.143565 12.188944-4.474423 23.844884-15.092409 31.559406-25.34571 2.430629-3.05826 4.705784-6.236924 6.816831-9.523927 5.007426-8.205446 8.023103-17.392739 12.034654-26.089109 2.271921-5.222986 4.083529-10.634343 5.414191-16.172442.445609-1.84708 1.35295-3.550758 2.636964-4.95132 2.253481-2.133191 4.710479-4.040536 7.335809-5.69472 6.648514-4.348185 13.423267-8.5 20.099835-12.792079 9.061056-5.834984 16.915841-13.198845 24.840759-20.366337 9.818482-8.906765 19.033828-18.472772 28.557755-27.702145.406766-.406766 1.262377-.35066 1.921618-.50495l.168316-.224423v.154291c-4.965346 8.177392-9.888613 16.396864-14.938118 24.532178-13.830033 22.344059-27.926568 44.519802-41.490099 67.018152-5.905116 9.818481-10.84241 20.183993-16.116337 30.353135-1.991749 3.843234-3.534653 7.924917-5.610561 11.754125-5.476652 10.222551-9.741478 21.049371-12.707921 32.260726-1.907591 7.349835-3.5066 12.413367-.126237 19.636964 1.879537 4.067657 3.745049 8.121287 7.013201 11.557756 1.838989 2.041676 3.921035 3.850513 6.19967 5.386138 1.584983 1.009901 2.510726.659241 3.787129-.434818 3.029703-2.566832 3.127887-4.278053 5.021452-6.424092 2.216171-2.482674 3.815181-4.586634 5.414191-6.690595 4.207921-5.610561 8.331683-11.361386 12.623762-16.915841 4.29208-5.554456 8.682344-10.758251 13.072608-16.088284 4.586633-5.610561 9.075082-11.221122 13.872112-16.607261 6.35396-7.139439 12.960396-14.026402 19.440594-21.039604 4.207921-4.544554 8.331683-9.159241 12.623762-13.675742 8.415842-8.990924 10.547855-11.221122 11.34736-9.958746 0 0-.561056 2.482673-2.80528 12.764026-1.865512 8.682344 0 15.625413 4.516501 23.115512 2.56105 4.565895 6.685514 8.052761 11.613862 9.818482 10.730198 3.969472 19.398514 2.286303 28.529703-3.731023 5.106302-3.187444 9.9682-6.750648 14.545379-10.660066 6.283829-5.736799 14.026403-9.818482 19.931518-16.004126.636705-.379153 1.314287-.685006 2.019802-.911716-.967822 2.482673-1.641089 4.362211-2.426567 6.185644-4.376238 10.337458-9.004951 20.576732-13.128713 31.012376-3.540562 8.306044-6.064894 17.009339-7.518152 25.920792-.589109 4.362211-1.542904 8.962871.939769 12.988449 2.665016 4.292079 5.610561 8.415841 8.415841 12.623762 1.000293 1.757282 2.091145 3.461446 3.268152 5.105611 6.7467 8.345709 32.429043-25.54208 36.188119-30.10066 5.330033-6.452146 10.084984-13.381188 15.008251-20.155941 4.05363-5.610561 7.938944-11.221122 11.978548-16.831683 4.642739-6.424093 9.369637-12.778053 14.026402-19.160066 3.74505-5.077558 11.501651-15.2467 11.221123-15.274753.953795 1.893565-.378713 3.366337-.981849 4.965347-1.655115 4.418317-3.35231 8.822607-4.993399 13.240924-.925743 2.510726-1.486799 4.572607-.617162 7.181518 1.641089 5.021452 0 4.516502 4.44637 9.453796 1.781353 1.977722 3.54868 3.773102 6.508251 3.773102.420792 0 .841584.294554 1.276402.322607 2.805281.182343 4.376238.35066 8.415842-2.721122.659241-.50495 1.528878-.883663 2.188119-1.40264 3.688944-3.169967 7.532178-6.185644 10.940594-9.650165 3.408416-3.464522 6.70462-7.672443 10.014851-11.54373l21.334159-25.065181c-.035498 1.523009-.23775 3.037545-.603136 4.516501-4.039604 11.431519-3.590759 28.459571 2.398515 39.273928 3.929507 7.37308 12.030345 11.5242 20.310231 10.407591 5.826783-.868769 11.496513-2.579137 16.831684-5.077558 28.207095-13.493399 44.435643-42.219472 53.30033-70.931518 1.808325-6.540404 2.233484-13.385937 1.248349-20.099835-.455973-3.988796-2.280015-7.696359-5.161716-10.491749-.673267-.715347-1.486798-1.402641-2.244224-2.132014-1.627063-1.55693-1.837459-1.879538.252475-2.594884 2.599062-.683347 5.280077-1.004314 7.966997-.953795 14.320957-.575083 28.627888-.967822 42.948845-1.402641 11.922442-.378713 23.844884-.729373 35.781353-1.20627 2.636963-.098185 10.926567-.406766 13.563531-.645215 1.837459-.15429 5.610561 0 5.610561-.238449s-4.825082-1.360561-5.45627-1.458746zm-366.2434 27.575908c3.436469-4.011551 7.167492-9.594059 10.786304-13.437294 1.977723-2.10396 6.452145-7.532178 9.55198-7.7566 1.921617-.140264 4.502475 1.879538 5.30198 3.576732 1.122112 2.384489.140264 4.432343-1.290429 6.480198-3.348163 4.844627-7.167966 9.345699-11.403465 13.437294-6.353961 6.129538-13.353135 12.469472-21.039604 16.831683-2.387576 1.379239-4.998693 2.328736-7.714522 2.805281 1.711222-.981848 3.646865-5.84901 4.825083-7.560231 1.963696-2.805281 4.025577-5.610561 6.101485-8.317657 1.528878-2.075908 3.183993-4.09571 4.881188-6.059406zm-287.274752 76.30363c-2.096332 6.488605-5.521402 12.46934-10.056931 17.561056-7.181518 7.770627-16.004125 13.044555-25.429868 17.294555-22.175743 10.000825-46.385314 14.391089-70.6089109 14.896039-22.0775577.448845-43.9587458-1.332508-65.4892739-6.929042-.7614732-.126606-1.3898134-.665276-1.6312663-1.398468s-.0561396-1.539812.4811013-2.094107c8.9768977-9.818482 18.5148515-14.30693 26.8745875-19.875412 3.4547174-2.079186 7.0494183-3.916374 10.7582508-5.49835 7.2516501-3.520627 14.4471947-7.181518 21.7549505-10.617987 7.8547855-3.688944 15.6394389-7.546204 23.662541-10.856435 15.429043-6.382014 31.138614-12.357261 46.735974-18.44472 7.013201-2.80528 14.138614-5.30198 21.207921-7.924917 2.622937-.967822 17.50495-4.44637 22.147689-5.877063 1.066007-.336634 2.202146-.504951 3.478548-.785479 1.374588 14.012377.645215 27.547855-3.885313 40.55033zm128.692244-54.408416c-8.65429 22.021453-21.109736 41.139439-41.616337 54.057756-.660853.316119-1.340006.592464-2.033828.827558.097722-.912711.31464-1.80868.645214-2.665016 3.422443-5.484324 6.55033-11.221123 10.435644-16.34076 10.323432-13.619637 19.4967-28.221122 32.120462-39.947194l.953795.448845c-.021414 1.222247-.190968 2.437388-.50495 3.618811zm41.784653 92.307756c.007936.060522.007936.121821 0 .182343l-.098184.098185zm296.462047-78.856435.084158-.098185.098185.238449zm71.282178-28.333334c-2.342409 7.433994-6.620462 14.320957-10.113036 21.207921-5.724996 11.035243-13.221069 21.056859-22.189769 29.665842-5.636172 5.539489-12.812397 9.249813-20.59076 10.646039-.28731.061487-.577564.108302-.869636.140264-5.161717.603136-6.39604-.420792-6.648515-5.610561 0-.589109 0-1.178218 0-1.767327 0-7.125412 2.636963-13.563531 5.610561-19.80528 2.973597-6.241749 6.171617-12.721947 9.818482-18.767327 2.473581-3.979875 5.375649-7.676838 8.65429-11.024752 4.44637-4.684819 9.299505-9.004951 14.026403-13.423268 2.468646-2.286303 5.063531-4.432343 7.588283-6.676567 3.240099-2.903466 5.512377-6.101485 4.011552-10.842409-.771453-2.426568.15429-3.254126 2.594884-2.69307 1.823432.420792 4.656766 1.318482 5.386139 3.19802 2.65099 6.802805 5.316006 13.591584 3.85726 21.193894-.311325 1.54075-.709373 3.062698-1.192244 4.558581z" fill-rule="nonzero"/><path d="m653.223597 152.64934c-2.075907 0-4.278052.182343-6.115511-.953795-6.536304-4.011552-2.356436-17.925743 1.40264-22.638614 2.454621-3.057756 8.415842-6.915017 12.623762-6.031353 4.207921.883663 5.259901 6.269802 6.115512 9.958745.394182 1.999139.642636 4.024269.743399 6.059406.070986 3.536896-1.530077 6.900166-4.320132 9.075083-.841584.645214-1.7533 1.164191-2.580858 1.809406-2.538779 2.005775-3.787128 2.987624-7.181518 2.80528z"/></g></svg>