<svg height="400" viewBox="0 0 2400 400" width="2400" xmlns="http://www.w3.org/2000/svg"><g fill-rule="evenodd" transform="translate(726 29)"><path d="m231.653804 186.593164c-12.127894 0-23.384785.793826-34.421169 3.307608-7.53032 1.70893-14.961411 3.880926-22.436604 5.84344l-.396913.154355c-6.692393 2.370452-6.968026 2.932745-5.027563 9.658214 2.988653 9.722792 4.388497 19.864216 4.145534 30.033076-.341786 8.996692-4.895259 16.251378-11.797133 21.841235-6.046375 5.102455-12.963398 9.072647-20.418964 11.719955-10.407938 3.472988-20.760749 7.276737-31.389195 9.922823-12.4917308 3.186328-24.7409039 4.112459-37.4862182 5.512679-14.0683572 1.532525-28.7210584 1.003308-42.8224917.220507-4.0683572-.220507-8.1256891-.47409-12.1278942-.871003-6.9018743-.661522-22.0507166-2.800441-15.76626236-13.131202 3.03197354-4.983462 8.97464166-8.588754 13.71554576-11.797133 9.9228225-6.714443 19.9228225-13.417861 30.3417861-19.338479 14.123484-8.00441 28.4123484-15.788313 43.0871003-22.701213 13.6824693-6.471885 28.0154353-11.719955 42.1719953-17.40904 3.506064-1.422272 7.122382-2.601985 11.025359-4.013231-.296797-1.052935-.665166-2.084369-1.102536-3.0871-5.424476-10.055127-11.025359-20.011025-16.306505-30.16538-9.718806-18.678336-17.93656-38.100107-24.575524-58.081588-3.9691288-12.0727675-4.0132303-24.4652702-3.3076073-36.9239251 1.0033076-18.2359427 10.9592063-31.3340684 24.5093713-42.2601985 8.699008-7.0011025 18.875414-11.2899669 29.206174-15.1598677 19.506871-7.33719952 40.396696-10.26282924 61.168688-8.56670342 9.922823.78280044 19.845645 2.86659317 29.768468 4.29988975 6.369349 1.04665951 12.649866 2.57624557 18.78721 4.57552367 2.998898.9040794 4.928336 2.5027564 5.633959 5.0606395 1.204356 3.9771733 1.83911 8.1049312 1.885336 12.2601985.007719 4.7714712-.431539 9.5331755-1.312018 14.2227122-.826902 4.9944873-3.164278 8.676957-8.235942 9.3605292-3.009923-.3197354-4.057332-2.7012128-6.416759-4.0793826-3.84785-2.2601984-7.717751-4.8180816-11.962514-5.9536935-7.300486-2.1437949-14.722815-3.848427-22.227122-5.1047409-7.477065-1.2334931-15.035678-1.9079085-22.61301-2.0176405-14.332966.0661521-28.544653 1.9735391-42.127894 7.4200661-6.854198 2.8593175-13.324658 6.5630723-19.261301 11.0253583-9.481808 6.890849-14.167586 16.1962514-14.829107 27.5633959-.061425 3.8160806.585303 7.6104678 1.907387 11.1907386 5.062561 15.7350745 11.139234 31.1256305 18.191841 46.0749725 7.872106 16.207277 15.523705 32.590959 23.241455 48.952591.418964.882029.90408 1.730981 1.587652 3.031973 22.649782-6.241342 46.224738-8.428632 69.636163-6.460859l30.209482-62.061743c-5.711136 1.025359-11.025358 2.006616-16.471885 2.932746-11.400221 1.940463-22.75634 4.310915-34.377068 4.542447-5.997795.121279-12.039691-.496141-16.62624-4.895259-5.093716-4.895259-8.886439-10.606394-8.654906-18.147739 0-1.267917 0-2.535833 0-3.803749 0-1.5876517 0-1.5876517 2.282249-3.197354 2.293274 1.6868798 2.348401 4.410143 2.568908 6.791621.099541 2.629696 1.954063 4.864169 4.520397 5.446527 2.300984.667102 4.673687 1.055767 7.067255 1.157662 10.077177.518192 20-1.23484 29.922822-2.94377 11.97354-2.028666 23.980155-3.880926 35.975745-5.744212 2.79191-.235529 5.278028-1.859793 6.615215-4.3219404 6.615215-11.0253584 13.638368-21.7640574 20.551268-32.5909593 2.513781-3.9250275 4.950385-7.9162072 7.71775-11.6097023 1.973784-2.5508166 4.267506-4.8371281 6.824697-6.8026461 5.005513-3.8368247 10.518192-3.1863285 14.928335 1.3671445 4.91731 5.137817 5.51268 10.2646086 2.778391 16.9459757-2.502757 6.1190739-6.979052 10.8379273-10.474091 16.2403528-3.120176 4.7960309-6.527012 9.415656-10.121279 14.5644984 2.734289 0 5.049614.1874311 7.331864 0 18.708227-1.8880758 37.538705-2.2567948 56.306505-1.1025359 14.079382.9261301 28.147739 2.6019846 41.5656 7.4862186 1.797134.650496 3.472988 1.620727 5.810364 2.734289-2.910694 1.598677-5.281146 1.102535-7.55237.992282-2.668137-.14333-5.314223-.793826-7.971334-.90408-8.015436-.33076-16.041897-.992282-24.024256-.628445-11.025358.496141-22.050717 1.609702-33.076075 2.833517-11.179713 1.23484-22.326351 2.726939-33.439912 4.476296-5.704187.935526-11.339626 2.250462-16.868798 3.936053-1.389195.407938-2.524807 2.403528-3.307608 3.902976-3.373759 6.416759-6.471885 12.976847-9.85667 19.393606-3.197354 6.074972-6.703418 12.006615-9.922822 18.070562-2.116869 3.969129-3.980155 8.070562-5.98677 12.127894-2.205072 4.498346-4.829107 8.820287-6.835722 13.417861-2.568909 5.942668-5.788313 11.598677-8.754135 17.36494-1.85226 3.627342-3.858875 7.166482-5.633958 10.837927-2.260198 4.652701-4.277839 9.437707-6.527012 14.101433-2.491731 5.181919-5.314223 10.220507-7.651598 15.435502-1.764058 3.958103-2.943771 8.191841-4.498347 12.249173-2.359426 6.163175-4.829107 12.271224-7.232635 18.412348-1.040405 2.393255-1.70248 4.933688-1.962514 7.53032 1.455348-1.54355 2.998898-3.009923 4.410144-4.630651 14.178611-16.868798 28.235942-33.836824 42.513782-50.628445 16.383682-19.272326 32.767364-38.588754 51.499448-55.644983 9.592062-8.754135 19.779493-16.857773 29.768468-25.126792 3.205835-2.529474 6.547852-4.8814 10.011025-7.045204 4.685777-3.054024 8.820287-2.513782 12.855568 1.477398.407938.385888.848952.738699 1.488423 1.300992 2.083793 1.68688 8.059537-1.23484 9.128997-1.808158 10.496141-5.51268 21.09151-10.893054 32.524807-14.332966 6.493936-1.929438 13.009923-3.616318 19.845645-3.947079 5.722161-.286659 10.485116 1.786108 15.027563 4.707828 2.712239 1.753032 5.049614 4.101434 7.805954 5.766263 4.950386 2.965821 5.148842 7.420066 4.862183 12.447629-.683572 12.271224-5.832414 22.998898-11.025358 33.737597-.676745 1.184467-1.072787 2.508379-1.157663 3.869901 2.3043-2.205072 4.575524-4.476296 6.934951-6.615215 8.665931-7.883132 17.144432-15.997795 26.119073-23.51709 4.939361-4.134509 10.683573-7.342888 16.15215-10.826902 3.592957-2.338229 8.049389-2.929719 12.127895-1.609702 3.891951 1.102536 5.512679 4.013231 4.079382 7.717751-.507166 1.312018-.959206 2.646086-1.521499 3.936053-.210988.656616-.591266 1.246045-1.102536 1.70893-2.811467 1.808159-5.600882 3.671445-8.566704 5.20397-4.586549 2.381477-7.563395.341786-7.497243-4.89526 0-.231532-.209482-.47409-.474091-1.025358-2.662245 1.796101-5.213735 3.751139-7.640573 5.854465-11.23484 10.893054-23.153252 21.168688-33.175303 33.20838-4.509372 5.3914-8.820287 10.970231-12.877619 16.714443-6.879823 9.801543-13.439912 19.845645-20.187431 29.713341-3.307607 4.762954-5.424476 9.272326-9.426681 14.917309-.525815.738325-.993941 1.516079-1.400221 2.326351-5.148842 9.206174-8.721058 12.127894-11.863285 19.977949-.455766.855131-1.109827 1.588586-1.907387 2.13892-.507849.425814-1.214246.524282-1.819184.253583-3.583242-1.598677-5.777288-4.134509-7.861081-7.265711-1.797133-2.701213-4.233737-5.071665-6.063947-7.916207-1.416717-1.96525-1.767704-4.504749-.937155-6.780596 1.072665-3.652041 2.387598-7.228511 3.936053-10.705623 6.233002-12.657111 12.598309-25.24807 19.09592-37.772877 3.450937-6.615215 7.596472-12.866593 10.948181-19.52591 5.181918-10.330761 10-20.848952 14.862183-31.334068 2.370452-5.126792 4.674752-10.28666 6.615215-15.567806 1.265302-3.442226 2.163342-7.008515 2.679162-10.639471.507167-3.495039-.61742-4.211687-4.123484-3.660419-11.057783 1.589345-21.747699 5.120302-31.576626 10.429989-6.868798 3.803749-13.23043 8.610805-19.713341 13.020948-1.468172.939694-2.112625 2.755055-1.565601 4.410144.826902 3.991179 2.61301 6.979051 1.973539 12.127894.121207.700418.121207 1.416451 0 2.116869-1.653803 7.375964-3.109151 14.652701-7.772877 21.113561-6.560088 9.09592-12.778391 18.434399-20.28666 26.79162-4.112458 4.575524-8.665931 8.754135-13.065049 13.076075-1.697905 1.675855-3.450937 3.307608-5.270121 4.851158-4.101434 3.484013-8.996693 5.005513-14.244763 5.832415-23.417861 3.70452-21.312018-31.97354-12.888644-44.101434 4.829107-6.93495 10.066152-12.756339 9.834619-12.965821-3.450937 3.53914-7.034178 6.968026-10.33076 10.650496-3.087101 3.461963-5.777288 7.276737-8.820287 10.804851-6.427784 7.475193-13.23043 14.663727-19.393605 22.337376-5.281147 6.538038-9.922823 13.638368-14.862183 20.418964-3.528115 4.77398-7.342889 9.349504-11.025359 14.002205-3.164278 3.958104-6.361631 7.883131-9.647188 11.742007-6.273429 7.375964-12.436604 14.873208-19.084895 21.896361-3.45234 3.480056-8.238786 5.300593-13.131202 4.994487-6.019846-.187431-10.110254-4.48732-11.85226-11.312017-1.499449-5.854465-.562294-11.598677.727673-17.199559 3.583302-16.17188 8.597536-31.993096 14.983462-47.276737 2.800441-6.615215 5.788313-13.076075 8.721059-19.592061 2.138919-4.829107 4.377067-9.636164 6.835722-14.994488zm-209.007718 86.527012c1.0363837 0 1.9845645-.055126 2.92172-.143329 22.3373759-2.205072 44.7298787-4.288865 66.5821389-9.658214 13.5391401-3.307608 26.8908491-7.38699 39.2502761-13.969129 4.357031-2.312206 8.402651-5.168592 12.039691-8.500551 5.093715-4.696803 8.820286-10.584344 8.522602-17.816979-.242558-5.942669-2.579934-11.477398-5.08269-16.802647-.502157-.051844-1.008318-.051844-1.510474 0-1.238042.30522-2.45976.673207-3.660419 1.102536-24.734419 8.730206-48.9010207 18.992635-72.3594271 30.727674-11.0164918 5.788162-21.7254646 12.143624-32.0837928 19.040794-4.8952591 3.164278-14.9393605 8.324145-15.8324145 14.729878-.0318458.337339.0828965.672085.314993.918951.2320965.246867.5591362.382016.8977964.371016zm295.22602-57.497243c1.006145-.386123 1.97033-.873757 2.877618-1.455348 5.51268-4.829106 11.267917-9.382579 16.339581-14.63065 9.713341-10.055127 18.577729-20.815877 24.928336-33.439912 3.0871-6.119074 4.112458-12.756339 6.097023-19.470783-4.641676-.551268-7.717751 1.433297-10.76075 3.8258-6.15215 4.851157-10.683572 11.09151-15.170893 17.375964-1.874311 2.624036-3.969129 5.104741-5.733186 7.805954-3.153253 4.807056-5.766263 10.022051-9.283352 14.542448-4.950386 6.372657-6.670342 13.869901-8.743109 21.312017-.261075 1.366753-.445122 2.7471-.551268 4.13451z" fill-rule="nonzero"/><path d="m548.522602 177.24366c-8.386339 5.958794-16.144103 12.756074-23.153252 20.28666-4.619626 4.862183-9.570012 9.426681-14.244763 14.244763-7.05623 7.265711-13.561191 14.762954-20.385888 22.238147-2.205072 2.44763-4.134509 8.632856-6.174201 8.037487-7.133406-2.601985-10.859978-10.374863-7.71775-16.637266 4.222712-8.467475 8.610804-16.868798 13.329658-25.06064 10.363837-17.982359 21.003307-35.810363 31.477398-53.748621.683103-1.359505 1.176493-2.806286 1.466372-4.29989.893054-3.484013 2.425579-4.211687 5.832415-3.142227 4.086133 1.332228 7.36983 4.409937 8.963616 8.401323.557505 1.590213.592272 3.316969.099229 4.928335-1.458015 5.009003-3.799085 9.717279-6.9129 13.902977-4.079383 5.722161-7.640573 11.819184-11.411246 17.761852-2.039691 3.208379-4.079383 6.416759-6.074972 9.658214-.380157.672798-.448579 1.477763-.187432 2.205072 2.436605-1.99559 4.829107-4.046307 7.298788-5.997795 9.327453-7.350239 18.669606-14.663727 28.026461-21.940463 1.554575-1.201764 3.428886-2.006616 4.972436-3.219405 3.219405-2.546858 6.615215-1.929438 10.022051-.76075 1.973539.672547 3.120176 1.99559 2.756339 4.15656-.463065 2.75634-.650496 5.667035-1.686879 8.202867-2.579934 6.339581-5.600882 12.480706-8.368247 18.743109-.556133 1.58894-1.019972 3.208694-1.389196 4.851158 5.336274-5.733187 9.823595-10.782801 14.531423-15.611908 17.949283-18.456449 36.383682-36.383682 58.00441-50.595369 3.084317-1.985892 6.342871-3.68713 9.735391-5.08269 1.675724-.723364 3.542184-.878257 5.314223-.441014 5.611907 1.797133 10.429989 4.751929 13.340684 10.286659 1.129873 1.964008 1.520885 4.267071 1.102535 6.493936-1.554575 7.960309-3.076075 15.964719-6.262403 23.484013-4.266814 10.077178-8.676957 20.099228-13.131202 30.088203-1.312018 2.954796-3.076075 5.70011-4.498346 8.610805-1.278942 2.646086-2.205072 5.512679-3.605292 8.048511-4.586549 8.059537-8.412349 16.538038-12.679162 24.718854-2.205072 4.244763-2.976847 8.820286-5.358324 12.987872 3.624374-1.628986 6.943157-3.866367 9.812568-6.615215 8.467681-7.455543 16.51741-15.372766 24.112459-23.715546 9.735391-10.727674 20.264609-20.716648 30.606395-30.871003 4.035281-3.958104 8.335171-7.640573 12.348401-11.609702 1.72655-1.851517 3.287123-3.851116 4.663727-5.975745 1.521499-2.205071 2.932745-2.888644 5.159867-1.808158 5.325248 2.590959 10 5.843439 11.102536 12.293274.110254.672547.45204 1.433297.253583 2.006615-1.951488 5.832415-3.737596 11.730982-6.063947 17.409041-3.131201 7.717751-6.714443 15.148842-10.055126 22.734289-2.315326 5.281147-4.553473 10.61742-6.791621 15.942668-.354682.842548-.354682 1.792513 0 2.635061 3.649393-4.476296 7.409041-8.820287 10.937155-13.428887 11.764058-15.259096 25.038589-29.140022 38.588754-42.767365 18.428561-18.590305 38.85371-35.088679 60.90408-49.195148 3.880926-2.480706 7.298787-5.689085 11.168688-8.191842 3.63971-2.463955 7.817823-4.017986 12.183021-4.531422 1.092922-.155669 2.170153-.406531 3.219404-.749724 1.984565-.672547 2.679162-.92613 3.561191-.176406.680662.61797 1.087574 1.481297 1.131008 2.399611.043433.918314-.280178 1.816194-.899475 2.495648-.979825 1.050615-2.049689 2.013493-3.197354 2.877619-9.426682 7.563395-20.407939 13.23043-28.235943 22.745314-6.00882 7.276736-12.194046 14.332966-17.331863 22.392503-3.336954 5.178449-6.200428 10.647094-8.555678 16.339581-1.742756 4.562101-3.215353 9.222869-4.410144 13.958103-.871003 3.098126-1.367144 6.306505-2.127894 9.437707-.893054 3.715546-.110253 7.287762.970232 10.793826 1.764057 5.656009 5.887541 8.4785 11.642778 8.897464 4.22979.434467 8.50312-.089336 12.502757-1.532525 18.191841-7.07828 33.484013-17.938258 45.137816-33.792723 6.403159-8.632575 11.699809-18.033202 15.766263-27.98236 3.307607-8.257993 3.869901-16.736494-.804851-24.884233-1.455348-2.524807-2.205072-2.877619-5.115767-2.28225-6.207276 1.289967-12.436604 2.469681-18.62183 3.880927-1.730981.396912-3.307607 1.5656-4.972436 2.205071-1.102536.418964-2.679162 1.102536-3.495039.639471-1.305798-.758797-2.286867-1.971399-2.75634-3.406836-.407938-1.488423.959207-2.480705 2.436605-2.954796 4.299889-1.37817 8.522602-3.065049 12.899669-4.090408 18.412348-4.310915 36.76957-8.963616 55.347299-12.458655 22.814315-4.2796 46.109818-5.39262 69.228225-3.307607 9.029768.793826 18.02646 1.841235 26.670341 4.586549 4.542619 1.516031 8.937818 3.442391 13.131202 5.755237 1.874311.992282 3.307608 2.965821 4.674752 4.718853 2.127896 2.745315 1.488423 5.51268-.639471 8.335171-.63947-.529217-1.411246-.848952-1.598677-1.367144-2.116868-6.085998-7.331863-8.357222-12.745314-10.14333-8.763988-2.73387-17.849788-4.301921-27.023153-4.663726-13.654786-.648609-27.336219-.475566-40.970232.518191-15.164264 1.004089-30.21623 3.290837-44.994487 6.835723-2.139678.275287-4.046377 1.487172-5.203969 3.307607 2.425579 2.039691 5.259096 3.737597 7.144432 6.174201 4.718853 6.085998 5.733186 13.362734 5.203969 20.826902-.606394 8.643881-3.781698 16.538037-7.464167 24.255788-4.188606 8.954488-9.51762 17.329712-15.854466 24.91731-6.109442 7.038738-13.219482 13.142079-21.102535 18.114664-5.281884 3.403039-10.731624 6.538203-16.328556 9.393605-14.586549 7.629548-27.353914 8.732084-42.723264 3.439912-4.663726-1.576627-9.128996-3.461963-12.491731-7.177509-11.168688-12.32635-9.128996-35.336273-2.767365-49.40463 5.51268-12.271224 11.786108-24.101434 20.848953-34.178611.674699-.916521 1.254663-1.899135 1.730981-2.932745l-.683572-.61742c-.716431.200965-1.405238.489819-2.050717.859977-4.608599 3.495039-9.162072 7.034179-13.726571 10.573319-8.290312 6.569813-15.979583 13.864289-22.976846 21.797134-9.702316 10.738699-19.007718 21.841234-28.357222 32.910694-3.792723 4.476296-7.38699 9.106946-10.937156 13.770673-4.117419 5.560886-8.976971 10.531725-14.443219 14.77398-1.312136.753554-2.756987 1.247649-4.255788 1.455347-.90408.231533-1.819184.396913-2.690188.551268-3.715545.650496-7.938258-2.789416-10.540242-5.027563-.790298-.68914-1.503745-1.461732-2.127894-2.3043-.771775-1.047409-1.642779-2.017641-2.392503-3.087101-.61742-.882028-1.102536-1.874311-1.642779-2.789415-.679354-1.024424-1.283653-2.096687-1.808158-3.20838-.42668-1.047491-.604077-2.179813-.518192-3.307607.264608-4.189636 2.205072-8.886439 3.869901-12.557883 2.855567-6.119074 6.383682-11.929438 9.614112-17.883131.819753-1.370616 1.3524-2.893536 1.565601-4.476296-1.510474 1.488424-3.042999 2.943771-4.509372 4.410143-1.168688 1.223815-2.116868 2.668137-3.373759 3.781698-6.372657 5.656009-10.804851 12.943771-16.438809 19.2172-3.572217 3.969129-7.320838 7.783903-10.970232 11.68688-6.163175 6.560088-12.127894 13.23043-18.511577 19.658214-3.025558 2.957934-6.351125 5.592522-9.922822 7.86108-2.269886 1.687267-5.436311 1.44261-7.420066-.573318-2.888644-2.657112-6.218302-4.884234-8.820287-7.772878-4.512975-4.858384-6.409104-11.593337-5.093715-18.092613 1.25689-7.342889 4.355016-14.002205 7.71775-20.507167 8.467476-16.262403 17.243661-32.359426 25.600882-48.676957 4.75193-9.283351 8.974642-18.853362 13.296583-28.346196.967861-2.455485 1.788861-4.966347 2.458654-7.519294l-.826901-.661522c-2.458655 1.444322-5.049615 2.723264-7.375965 4.410144-9.404631 6.681367-18.831312 13.340683-28.037486 20.275634-2.926412 2.43943-5.62411 5.140819-8.059537 8.070562-10.407939 11.300992-21.058435 22.403528-31.003308 34.101433-6.471885 7.607497-11.962514 16.052922-17.717751 24.255788-4.597574 6.538038-8.257993 11.223815-12.855568 17.805954-1.455347 2.105844-2.932745 5.424476-4.895259 6.835722-4.785005.066152-4.840132-3.120176-7.55237-7.221609-1.675855-2.524807-4.178611-5.766263-3.770673-7.651599 6.990078-21.37817 18.566704-40.264609 29.404631-59.647189z"/><path d="m724.840132 125.975744c3.484014.76075 3.362735-.319735 6.174201 3.164278 5.259096 6.527012 8.059537 23.439912-5.633958 22.370452-6.615215-.529217-16.538038 2.767365-21.742007-3.484013-2.954796-4.807056.396913-9.084895 1.499449-10.628446 5.611907-7.982359 9.581036-11.422271 19.702315-11.422271z"/></g></svg>