<svg id="Capa_1" data-name="Capa 1" xmlns="http://www.w3.org/2000/svg" viewBox="0 0 1046.38 162.54"><path id="Buenos_Aires_Lungo_K" data-name="Buenos Aires Lungo K" d="M374.51,115.22c-.86-5,2.71-5.78,5.5-6.89a104.36,104.36,0,0,1,17.12-5.28,60.16,60.16,0,0,1,19.56-1.36c2.6.31,5.19.73,7.8.92a2.38,2.38,0,0,0,2.39-1.25.5.5,0,0,0-.08-.47A14,14,0,0,0,423.28,99c-3.87-.9-7.86-.66-11.78-.47-12.65.62-24.75,3.8-36.51,8.35-.72.28-.74,0-.84-.59-.7-4.46-.44-8.95-.58-13.43-.13-3.8,5.2-10.88,9.18-10.47,1.06.11,3.19.33,2.92.89-1.25,2.55.42,3.94,1.49,5.73.84,1.42,2.13,2.21,3.37,1.73s2.88-1.87,2.94-2.93c.12-2.24-.24-4.79-2.84-5.92s-4.95-2.1-7.45-3.07c-.88-.34-1.22-1.55-2.38-1.37q-2.93.43-5.85.83c-11,1.44-22,3.11-32.88,5.59-1.51.34-3.55,1.64-4.53.34a3.91,3.91,0,0,0-2.08-1.59,4.87,4.87,0,0,0-2.15.4c-2,.47-4.07.88-6.07,1.51a85.68,85.68,0,0,0-11.64,5,81,81,0,0,0-10.81,6.29c-5,3.42-9.69,7.29-14.32,11.19s-9.64,7.67-14.53,11.52c-3.58,2.8-7.23,5.52-10.81,8.26,3.09-5.49,6.28-10.84,9.16-16.35,2.53-4.85,5.47-9.46,7.26-14.76,1.31-3.89,1.26-5.36-2.65-6.89-2.1-.82-3.73-.23-5.59.85a152.45,152.45,0,0,0-22.73,15.83c-3.07,2.62-6.08,5.33-9.11,8a27.71,27.71,0,0,1,2.86-5.23c4-6.1,8.11-12.12,11.95-18.31,1.7-2.74,2.41-5.82-1.1-8-3.1-1.94-5.77-1.1-7.92,1.89-3.73,5.15-7.63,10.18-11.53,15.22-2.06,2.66-3.19,6.14-6.08,8-10.14,6.65-21.23,11.56-32,17.14-2.9,1.51-4.46,1.33-5-2.09-.5-3.17-.31-6.66,1.8-8.76s5.57-2.86,8.32-4.41c7.84-4.4,15.8-8.69,21.63-15.83,1.88-2.28,3.76-5,2.59-8s-4.43-3.2-7-2.89a39.7,39.7,0,0,0-17.13,6.6c-11.62,7.63-21,17.7-30.62,27.57A82.78,82.78,0,0,1,157,129.32a6.73,6.73,0,0,1-.73.32c-.07-.17-.21-.35-.18-.5a65.12,65.12,0,0,1,3.74-12c1.6-3.87,3.68-7.45,5.59-11.17.58-1.12,1-2.32,1.69-3.39a11.66,11.66,0,0,1,3-3.42c.48-.33,1.08-.42,1.59-.72A3.52,3.52,0,0,0,173.18,97a2.73,2.73,0,0,0-.18-2.51,7.24,7.24,0,0,0-3.16-2.6,4.83,4.83,0,0,0-1.85-.62,3.27,3.27,0,0,0-2.15.76c-1.11.87-1.79,2.15-2.86,3-3.89,3.23-7.82,6.41-11.71,9.64-5.37,4.45-10,9.86-16,13.46a5.27,5.27,0,0,1-1.3.32,5.37,5.37,0,0,1,.17-1.35,12.77,12.77,0,0,1,1-2c3-5.13,5.83-10.34,9-15.37,3.42-5.45,6.52-11.16,10.87-15.94,2.06-2.26,2.88-4.08.35-6.41a4.89,4.89,0,0,1-1.55-2.72c-.19-.94-.95-1.13-1.89-.84A41.65,41.65,0,0,0,140,80.26c-8.51,6.07-15.55,13.77-22.88,21.14-2.3,2.31-2.58,2.69-2.9,2.08-2.59-4.93-7-7.6-11.93-9.63a111.35,111.35,0,0,0-16.82-5c5.16-2,10.3-3.89,15.35-6A85.46,85.46,0,0,0,122.35,70.1c5.72-4.68,10.48-10.15,11-17.79.58-8.52-4.9-14.08-11-18.92-12-9.52-26.37-11.3-40.92-12.16a144.75,144.75,0,0,0-29.93.95C42.17,23.56,33,25.53,25,30.85c-.37.25-.82.36-.73,1,.22,1.86.31,3.73.45,5.6.1,1.31.11,2.7,1.78,3.08,1.47.34,3.1-1.26,3.19-1.53.9-2.87,3.62-3.63,5.69-4.56,9.55-4.3,19.85-5.39,30.16-6a136,136,0,0,1,25.67.67c11.12,1.41,21.77,3.78,30.68,11.24,4.91,4.1,6,8.49,2.82,13-6.06,8.58-15.1,13.28-24,17.91-7.29,3.77-15,6.78-22.53,10.07-3.68,1.61-7.41,3.1-11.48,4.79.42-.64.6-.94.8-1.23,3.39-4.87,6.74-9.78,10.17-14.62,4.3-6,8.46-12.21,13.08-18,2.91-3.66,5.8-7.07,6.15-12,.22-3.13-.94-4.55-3.92-3.92-3.7.79-6,3.68-8.5,6A227.32,227.32,0,0,0,60.63,69.08c-12,15.41-22.11,31.87-28.51,50.43-2.41,7-4.81,14-3.62,21.61.13.85.38,1.22,1.41,1,2.72-.69,3.7-3.19,5.12-5.05a103.18,103.18,0,0,0,10.91-17.8,212.54,212.54,0,0,1,15.59-26c1.26-1.86,1.79-1.23,2.44.24.5,1.14,1.2,2.28,2.55,1.69,3.27-1.43,6.68-1,10.07-1.17,10.12-.54,19.57,2.09,28.62,6.25,4.9,2.26,5.6,4.56,3.17,7.67-3.27,4.19-7.91,6.46-12.42,8.81-7,3.65-14.5,6-21.87,8.74-7.94,2.92-15.87,5.88-23.74,9-1,.41-3.44.78-2.58,2.4a5.94,5.94,0,0,0,5.24,2.7c8.47.07,16.18-3.18,24-5.68a118,118,0,0,0,18.39-7.46c6.31-3.25,12.75-6.36,17.2-12.24,1.89-2.48,2-5.78,4.31-8.17,5-5.29,10.11-10.47,15.43-15.43A81.76,81.76,0,0,1,143,82c-5.27,9-11.49,17.14-15.14,26.75-1.45,3.81-.6,11.47,2.25,14.4a4.46,4.46,0,0,0,5.1,1.24c7.19-2.76,11.62-8.83,16.86-13.94,1.62-1.58,3.13-3.28,5.45-5.73-.64,1.5-.82,1.92-1,2.34-3.1,6.69-6,13.48-5.81,21,.12,5.75,4.83,8.26,9.62,5.59,6.78-3.78,11.85-9.46,17.11-14.94,3.21-3.34,6.32-6.77,9.82-10.53-2.39,5.84-3.11,11.2.13,16.39,1.36,2.2,2.48,5.21,5.09,5.71,5.22,1,9.86-1.26,14.28-3.91,5.71-3.42,11.5-6.71,17.68-10.31-1.73,2.45-3.08,4.67-4.74,6.64-4.6,5.44-5,10.67-1.11,16.45,1.38,2,7.14,1.13,9.16-1.32,2.93-3.54,5.85-7.1,9-10.45,6.79-7.23,13.6-14.45,20.62-21.46a120.58,120.58,0,0,1,17.52-14.83,1.25,1.25,0,0,1,1-.2,1.09,1.09,0,0,1,.39,1,25.76,25.76,0,0,1-1.83,3.54c-5.72,8.87-11.76,17.54-16.8,26.83a6.6,6.6,0,0,0,1.34,8.49c2.54,2,6.06,3.57,9.4.8,4.18-3.47,8.41-6.89,12.43-10.54,7-6.31,13.71-12.87,20.71-19.13,3-2.71,6.46-5,9.71-7.41a14.16,14.16,0,0,1-2.5,2.83c-5.38,5.38-10.52,11-13.37,18.19-2,5.14-2.83,10.45.33,15.48,4.35,6.91,11.26,6.93,18,5.72,5.85-1.05,9.89-5.58,14.15-9.42a64.91,64.91,0,0,0,14.2-18.8c3.17-6.12,4.74-12.3,2.13-18.7-1.15-2.84-.1-3,1.85-3.44,1.23-.28,2.46-.59,3.69-.88a178.49,178.49,0,0,1,18.91-2.94c-5.19,7-5.08,14.81-4.56,22.82.12,1.87,1.66,4.66-.51,5.75a140.4,140.4,0,0,0-26.19,16.49c-2.52,2.06-4.35,6.94-2.68,10a5.91,5.91,0,0,0,3.8,2.65c6.74,1.68,15.21-.44,21.57-2.69,5-1.77,11.32-3.94,13.59-9.17C375.53,124.21,375.25,119.49,374.51,115.22ZM209.4,92.35A43.46,43.46,0,0,1,222,84.77a1.5,1.5,0,0,1,1.32.07c.64.7.16,1.53-.16,2.2C220.83,92,216.57,95.1,212.23,98a128.6,128.6,0,0,1-15.81,9.47C199.87,101.63,204.39,96.88,209.4,92.35ZM339,92.49c-.53,7-4.6,12.37-8.42,17.85A71.66,71.66,0,0,1,318.68,123c-2.12,1.86-4.35,3.6-6.46,5.47a12.25,12.25,0,0,1-6.82,3.39,2.14,2.14,0,0,1-1.3-.16,2.2,2.2,0,0,1-.84-1.86,26.23,26.23,0,0,1,2.16-10.71,49.25,49.25,0,0,1,7.25-11.94,72.38,72.38,0,0,1,9.86-10.76,35,35,0,0,1,10.27-6.27,25.77,25.77,0,0,1,2.83-.89c.56-.14,1.83-.71,2.37-.53C339.1,89.13,339.09,91.61,339,92.49Zm19.3,32c-4.64,2.28-9.44,4.22-14.17,6.32-1.39.61-2.75,1.28-4.14,1.86-.39.17-1.09.31-1.25.12a1.41,1.41,0,0,1,0-1.76c2.09-3.27,5.5-5,8.56-7a105.39,105.39,0,0,1,16.44-9.35c1-.45,1-.49,1,2.24C365.37,121.39,361.58,122.86,358.32,124.46Zm712-37.2a13.34,13.34,0,0,0-1.68-1.84c-2.4-2.08-5.31-1.26-8-1.23-10.92.11-21.84.4-32.77.5-2.69,0-7.53.67-7.53.67-3.59-8.93-13.55-6-17.33-3.08,3.55-1.93,6.64-4.69,11-4.71,1.11,0,3.38-.43,2.86-2.62-.39-1.66-1.26-3.15-3.52-2.86-5.28.68-10.07,2.69-14.77,5.08-5.37,2.74-9.94,6.55-14.6,10.29-5.54,4.46-10.52,9.38-14.19,15.52-1.36,2.28-2,5.67-4,6.75-6,3.28-12.48,5.68-19.06,8.55,1.48-2.75,3-5.14,4.11-7.69,3.28-7.54,8.47-14,12.92-20.84a24.68,24.68,0,0,1,2.9-4,28.18,28.18,0,0,1,3.64-3.09,12.92,12.92,0,0,0,1.49-1.16,6.45,6.45,0,0,0,.86-1,1.4,1.4,0,0,0,.37-1.21.62.62,0,0,0-.57-.4,5.46,5.46,0,0,0-1.89,0A10.76,10.76,0,0,0,966.43,81l-.53.38a14.34,14.34,0,0,1-1.4.88c-.24.12-.49.24-.75.35l-.4.14a2.6,2.6,0,0,0-.39.12c.44-2,.34-4.6-1.54-5.87a4.75,4.75,0,0,0-2.58-.73,29.84,29.84,0,0,0-7.35,1.34A49.18,49.18,0,0,0,939.87,82c-10.3,5.54-20.58,11.16-30.28,17.79a191,191,0,0,0-18.52,14.63c-3.91,3.45-7.77,6.95-11.66,10.43a77.32,77.32,0,0,1,4.91-8.8c3.86-6.22,9-11.65,11.81-18.49.57-1.34,1.69-3,.5-4.42-1.63-2-4.49-1.85-6.21-1.26-7,2.39-13,6.82-18.89,11.25-2,1.47-3.91,3-5.86,4.46,4.75-7,9.77-13.65,14.9-20.23,2.87-3.69,3.08-6.67.4-9.59s-6.09-3.08-9.81-.55c-5.71,3.88-11,8.29-16.3,12.71Q841.8,100.8,829.3,112.36c-4,3.67-8,7.3-12,11a164.25,164.25,0,0,1,8.87-15.08c3.14-4.85,7.3-9.12,8.57-15,.28-1.3.11-2.41-1.72-2.71-2.33-.39-4,.25-5.92,1.69-7.06,5.16-14.39,10-21.62,14.86-4.73,3.21-9.48,6.38-14.22,9.57a34.31,34.31,0,0,1,4.46-6.07c4.84-5.82,10.81-10.7,14.38-17.57,1.37-2.64.74-5.14-.66-7.31A4.39,4.39,0,0,0,804.74,84a.15.15,0,0,0-.06.26c1.72,1.51.28,3.06-.58,4-5.48,5.91-11.24,11.56-16.71,17.48-3.72,4-7.95,8-5.67,14.5.78,2.21,1.91,4,4.52,3.17,3.85-1.22,7.59-2.62,10.87-5.26,3.61-2.9,7.71-5.18,11.56-7.78,3.19-2.17,6.33-4.42,9.62-6.72-4,6.69-8.88,12.61-11.85,19.63a8.17,8.17,0,0,0,1.56,9c2.35,2.38,5.53,1.31,8.07-.55,5.77-4.22,10.48-9.61,15.67-14.48,6.53-6.11,13.1-12.18,19.63-18.29,3.47-3.25,6.81-6.64,10.34-9.82,3.2-2.88,6.57-5.58,9.87-8.35a48.18,48.18,0,0,1-3.85,5.37c-9,12.4-19.26,23.86-27.45,36.83-2.89,4.59-8.08,8.93-4.43,15.62a5.56,5.56,0,0,0,3.93,3,2.59,2.59,0,0,0,3-1.36,65.68,65.68,0,0,1,8.27-11.71c7.1-8,15.31-14.75,23.83-21.14,3.61-2.7,7.26-5.34,11.46-8.42-2.4,3.34-4.32,6.09-6.32,8.78-4.29,5.79-7.68,12.11-11.12,18.42-1.88,3.45-1,6.55,1.1,9.14s4.51.16,6.07-1.16c11-9.33,21.78-18.86,32.65-28.32,1.64-1.43,3.31-2.82,5-4.24-1.59,2.6-3.12,5.09-4.61,7.62-3.65,6.2-3.92,11.11-.42,15,1.58,1.77,3.37,3,6.15,2.16,4.34-1.36,7.07-4.67,10.19-7.58,6.28-5.84,12.69-11.56,18.94-17.44,2.12-2,10.08-8.36,11.33-8.66-6.79,8.94-12.65,18.53-18.54,28.1-.9,1.47-1.39,3.19-3.27,4-5.05,2.34-10.18,4.49-15.09,7.13-11.23,6-22.67,11.67-33.8,17.89-8.13,4.54-15.92,9.44-23.6,14.67a13.32,13.32,0,0,0-5.32,5.83l-.11.3c-1.18,3.15-.51,8.27,3,9.72,4.46,1.87,9.76,1.79,14.5,1.84a60.05,60.05,0,0,0,16.71-2.35,71.46,71.46,0,0,0,17.19-7.51C914.37,167.93,919.2,161,924,154.1c5.13-7.32,10.56-14.44,14.8-22.36,1.07-2,1.57-4.58,3.58-5.68,7.05-3.85,14.26-7.39,21.4-11.08.55-.29,1,0,.93.61-.35,4.56,1.5,8.35,4.15,11.87s8.91,5.36,12.32,4c11.59-4.77,20.75-12.82,28.81-22,5-5.69,10.14-11.56,10.8-19.75,0-.3.61-.74,1-.81,5.58-1,11.25-1,16.89-1.24,7.41-.27,14.83-.39,22.24-.44,2.73,0,5.58-.49,8.07,1.18.35.24.36,1.16,1.07.64A1.1,1.1,0,0,0,1070.29,87.26ZM952.3,90c-3.43,2.51-6.73,5.18-10,7.94s-6.38,5.61-9.49,8.51l-.47.43a83.59,83.59,0,0,1-14.91,11.59,45.79,45.79,0,0,1,6.17-10.3c4-5.26,8.23-10.41,13.37-14.6a111.94,111.94,0,0,1,9.86-7.38c1.27-.82,2.57-1.6,3.9-2.3.68-.37,1.37-.71,2.07-1s1.23-.45,1.84-.77a10.88,10.88,0,0,1,3.24-.88,2.42,2.42,0,0,1,.8-.05,2.45,2.45,0,0,1,.92.44,2.21,2.21,0,0,1,.57.48,1.58,1.58,0,0,1,.26.66,2.06,2.06,0,0,1-.65,2.07,4.86,4.86,0,0,1-1,.68,15.83,15.83,0,0,0-1.33.86Q954.87,88.06,952.3,90ZM917,150c-6.7,7.52-13.88,13.5-23,17.15s-18.59,6.86-28.77,6.28c-1.74-.1-1.21-.91-.74-1.75,2.14-3.86,5.85-6.07,9.36-8.35,10-6.54,20.58-12.19,30.95-18.17,8.11-4.68,16.59-8.59,25.6-13.4A95.22,95.22,0,0,1,917,150Zm90-66.19c1.92-.45,4-1.42,5.2,1.57-1.73-.12-3.38-.21-5-.37-.23,0-.51-.37-.61-.63S1006.87,83.83,1007.06,83.79Zm4.43,9.28A76.06,76.06,0,0,1,981,123a14,14,0,0,1-4.65,1.38c-3.05.44-4.14-1.77-2.61-6.57A49,49,0,0,1,987,96.42c4.61-4.29,9.27-8.53,13.92-12.78.37-.34.81-.6,1.42-1-.85,4.94,1.21,6.87,6.51,6.57,1.35-.07,3.4-.36,3.9.33C1013.41,90.39,1012.14,91.9,1011.49,93.07Zm-399.38-5c.55,2.49,1.86,3.05,3.82,2.81,2.63-.32,4-2,3.75-4.69-.09-.8-1.13-1.68-.95-2.28,1.18-3.92-1.79-2.5-3.09-2.22-8.49,1.84-14.54,7.69-20.69,13.22-4.58,4.12-8.82,8.62-13.4,13.14.69-1.44,1.32-2.64,1.86-3.87,2.87-6.62,6.69-12.86,8.19-20.06.6-2.84-1.2-4.32-3.17-5.35-1.67-.87-3.57.21-4.77,1.33-8.41,7.8-16.86,15.56-25,23.67-6.81,6.82-13.15,14.1-19.71,21.17-2.22,2.4-6.69,7.68-6.85,7.38s1.33-3.41,2-4.64c3.2-5.76,6.28-11.59,9.32-17.44s6.27-11.61,8.46-17.84c.29-.83-.18-1.13-.72-1.38-3.06-1.46-5.33-2.91-9.07.35-8.68,7.57-17.54,14.94-26.2,22.53-4.75,4.16-9.19,8.66-14.21,13.42.85-2.38,1.39-4.19,2.12-5.92,4.16-9.79,8.89-19.32,13.87-28.71,1.22-2.3,1.61-5.7,5.65-4.74.59.14,1.45.12,1.61-.61.06-.27-.46-.84-1.21-1.11s-2.57-.16-1.49-1.89c4.24-6.75,8.15-13.74,12.85-20.17,14.79-20.22,24.93-33.69,26-40.1.36-2.23-.44-3.54-1.66-3.54-15.52.51-35.41,13.16-44.39,20.18-14.09,11-26.58,23.75-38.9,36.66-1.22,1.28-2.1,3.3-4,3.5-3.51.39-7.09.23-10.61.57-4.75.46-9.56.93-13.94,3-1.41.65-4.06,1.26-3,3.81s4,2.25,5.56,1.51c5.64-2.62,11.58-3.28,17.73-3.86a3.46,3.46,0,0,1-.27.46c-12.48,13.53-25.05,27-37.42,40.62a184.91,184.91,0,0,1-27.83,24.58c-8.45,6.21-17.68,11.44-28.7,5.26.16,1-.48,2.18.38,3.2a13.31,13.31,0,0,0,10.37,4.41c7,0,13.81-2.06,20.07-5a84.25,84.25,0,0,0,18.67-12.19c7.52-6.46,15.1-12.77,21.45-20.5,6-7.26,12.11-14.39,17.91-21.8,4.05-5.18,8.18-10.29,12.29-15.42,1.08-1.35,1.78-3.57,3.67-3.55,9.43.15,18.85.56,28.27.89.5,0,1.09,0,.61.89-1.7,3.28-3.41,6.58-5,9.94-3.85,8.35-7.87,16.62-10.82,25.37-1.12,3.3,0,6.65,1.47,9.64a3.71,3.71,0,0,0,.8,1.15,3.39,3.39,0,0,0,1.93.68c9.24,1,14.95-8.62,20.75-14.13,6-5.66,12-11.2,18.06-16.79a38.85,38.85,0,0,1-2.68,4.93,115.71,115.71,0,0,0-7.17,14.67c-1.74,4.56-4.2,8.85-6.09,13.37-1.74,4.17.59,8.38,5.1,8.75s7.36-2.9,10-5.92c6.58-7.4,13.51-14.49,19.71-22.24a170.83,170.83,0,0,1,13.37-14.47c3.49-3.44,7.27-6.57,11-9.77-1.5,2.93-3,5.86-4.37,8.86s-2.54,6.34-3.89,9.49a68.11,68.11,0,0,0-4.25,14.09c-.47,2.44-2.09,6.14,1.23,7.26a6.13,6.13,0,0,0,5.51-.81c1.09-1,1-2.26,1.71-3.32a227.75,227.75,0,0,1,17.1-23A107.16,107.16,0,0,1,608.46,88.2C609,87.78,611.26,84.29,612.11,88.1ZM507,82.44c-8.17-.58-16.35-1.13-25.13-1.72.27,0,1.25-1.23,1.47-1.44l1.52-1.5,3-3,6.06-6c4-4,8.09-8,12.25-11.84s8.38-7.62,12.78-11.2,20.36-14.81,30.95-17.29c1-.23-1.84,3.52-3,4.86-8.22,9.81-17.52,18.71-24.71,29.39-4,5.91-8.13,11.74-11.16,18.21C510.05,83.12,508.61,82.55,507,82.44Zm223.5,24.66c1,0,2.81-.79,2.82-1.24,0-1.58-1.65-1.66-2.78-1.8a143.7,143.7,0,0,0-35.89.58c-2.9.37-4.79,1-3.49-3.34,2-6.76,1.73-14.2,6.53-20.12,3-3.74,6.16-7.13,11.14-8.12.58-.11,1.37-.17,1.12-1.15-.33-1.28-.1-3.16-2-3.17a11.73,11.73,0,0,0-4.7,1.11c-8.79,4-16.66,9.47-24.18,15.46q-19.7,15.68-39.29,31.46c-7.94,6.43-16.55,11.42-26.64,13.54-1.81.38-3.1.36-2.65-2.3a31.52,31.52,0,0,1,2.89-8.36c.84-1.76,2.12-5.9,4.19-6.48a62.46,62.46,0,0,0,25.59-14.26c3.08-2.84,7-5.61,6-10.91-.35-1.88-2.22-3.12-2.42-4.77-.38-3.32-2.27-3.74-4.87-3.38a16.79,16.79,0,0,0-6,2.2c-8.78,5-16.67,11.14-22.6,19.29-6.11,8.39-13,16.77-8.85,28.59,1.26,3.6,4.18,6.5,8.14,6.53,3.77,0,7.2-1.21,10.65-2.63a60.28,60.28,0,0,0,15.24-8.8c2.84-2.29,5.75-4.51,8.43-7s5.32-5.33,8.18-7.79c3.15-2.71,6.46-5.23,9.69-7.85,3.83-3.1,7.86-6,11.82-8.92,3.36-2.49,6.74-4.94,11-8a82.3,82.3,0,0,0-6.28,20.37c-.18,1-1,1.09-1.77,1.26-6.46,1.43-12.91,3-19.22,5-2.52.81-5,1.71-7.49,2.67a4.67,4.67,0,0,0-3.18,3.45,5.17,5.17,0,0,0,1.69,4.42,16.21,16.21,0,0,0,9.84,4.46c5.15.48,10.66.34,15.36-2l.53-.28c4.86-2.67,9.58-5.31,11.72-10.94.46-1.23.12-3.2,1.51-3.62A64.1,64.1,0,0,1,703,107.89,273.66,273.66,0,0,1,730.48,107.1ZM629.84,97c3.28-3.09,5.95-6.88,10.1-9a37.93,37.93,0,0,1,4.22-1.7c.18-.06.56.16.75.35a1.56,1.56,0,0,1,.13,2.09,44,44,0,0,1-8.25,8.55,113.59,113.59,0,0,1-17.35,11.77A100,100,0,0,1,629.84,97Zm27,26.22a3.19,3.19,0,0,1-1.16-.52,1.77,1.77,0,0,1-.8-1.8c.2-.75,1.16-1.23,1.78-1.61a29,29,0,0,1,6.58-2.53c2.39-.75,4.81-1.4,7.22-2.08l2.26-.63,2.49-.7,1.25-.35c.15,0,1.15-.22,1.19-.34-.78,2.35-2.88,4.17-4.82,5.57a29.42,29.42,0,0,1-8.21,4.07,21,21,0,0,1-5.25,1A9.33,9.33,0,0,1,656.85,123.22Zm147.54,13.14c-6.14-5.2-12.95-8.71-21.38-7.37-2.85.27-5.7.5-8.54.84a236.28,236.28,0,0,0-31.16,6.1c-6.11,1.56-12.26,3-18.41,4.39,6.93-4,13.25-8.94,19.5-13.92,1.82-1.44,3.63-2.88,5.39-4.38,1.4-1.18,2.74-2.43,4-3.71.59-.55,1.16-1.13,1.71-1.72l-.06,0c7-7.31,12.64-15.82,18.93-23.69,5.77-7.2,11.29-14.59,17-21.87,4.43-5.69,9-11.28,13.36-17,3.38-4.41,16.82-21.4,16.83-27.42,0-3,.05-5.56-2.91-6.74-2-.8-4,.46-5.72,1.6a64.11,64.11,0,0,0-9.29,7.86c-6.45,6.23-12,13.78-17.5,20.88Q776,63.37,765.76,76.4c-4.53,5.75-9.21,11.39-13.78,17.11s-9.22,11.58-13.77,17.42c-5,6.38-9.38,13.36-15.11,19.06-5.44,5.4-11.71,9.88-17.93,14.33-2.07,1.47-4.14,1.83-6.54,2.45l-.06,0h0c-.74.29-1.26.65-1.08,1.15.39,1,1.3,2.84,1.55,2.77,5.61-1.63,11.38-2.46,17.08-3.65,10.19-2.12,20.31-4.68,30.57-6.34,8.52-1.38,17.2-1.65,25.8-2.55a106.38,106.38,0,0,1,13-.72,65.58,65.58,0,0,1,14.24,1.6c1.51.37,1.55,1.72,1.17,3,0,.13.53.65.83.66a33.21,33.21,0,0,0,4.68,0c1.05-.09,2.14-.6,1.26-2A19,19,0,0,0,804.39,136.36ZM556.14,70.64A28.39,28.39,0,0,0,549.26,74c-1.33.93-5.36,3.71-3.51,5.61a3.28,3.28,0,0,0,2.27.81,10.09,10.09,0,0,0,3.69-.63,24,24,0,0,0,3-1.54c1.68-.87,3.43-1.63,4.18-3.52.25-.63,1.55-1.14.75-2C558.74,71.71,557.47,70.16,556.14,70.64Z" transform="translate(-24.21 -19.67)"/></svg>