<?xml version="1.0" encoding="UTF-8"?>
<svg width="29px" height="29px" viewBox="0 0 29 29" version="1.1" xmlns="http://www.w3.org/2000/svg" xmlns:xlink="http://www.w3.org/1999/xlink">
    <title>_brand icons/80x80/Chef recipe</title>
    <defs>
        <filter id="filter-1">
            <feColorMatrix in="SourceGraphic" type="matrix" values="0 0 0 0 0.619608 0 0 0 0 0.521569 0 0 0 0 0.380392 0 0 0 1.000000 0"></feColorMatrix>
        </filter>
    </defs>
    <g id="Symbols" stroke="none" stroke-width="1" fill="none" fill-rule="evenodd">
        <g id="module/newrecipes/card" transform="translate(-357.000000, -11.000000)">
            <g id="Text-+-icons" transform="translate(227.000000, 11.000000)">
                <g id="_brand-icons/80x80/Chef-recipe" transform="translate(130.000000, 0.000000)" filter="url(#filter-1)">
                    <g>
                        <rect id="bounding-box" x="0" y="0" width="29.7811458" height="29.7035358"></rect>
                        <path d="M14.8905729,0.891106074 C18.6447593,0.891106074 21.7625127,4.00079029 21.9712431,7.78824429 C25.7575799,7.94261737 28.8906895,11.0970383 28.8906895,14.8814714 C28.8906895,18.0710058 26.6067629,20.8912975 23.5300833,21.7074421 L23.5300833,28.5153944 L23.2292937,28.8124297 L6.55185208,28.8124297 L6.2510625,28.5153944 L6.2510625,21.7026103 C3.17860012,20.8243904 0.89045626,18.0214208 0.89045626,14.8814714 C0.89045626,11.1403513 4.0365692,8.00219585 7.80977269,7.82014821 C8.01750385,4.02530081 11.1402778,0.891106074 14.8905729,0.891106074 Z M22.9284563,26.2471061 L6.85245626,26.2471061 L6.85264165,28.218359 L22.9285042,28.218359 L22.9284563,26.2471061 Z M14.8905729,1.48517679 C11.3840979,1.48517679 8.45905032,4.50901232 8.4012235,8.1137702 L8.10292156,8.40609078 C4.52968537,8.43483211 1.4920354,11.3754561 1.4920354,14.8814714 C1.4920354,17.8186024 3.69967468,20.4507422 6.62618887,21.187835 L6.85264165,21.4756564 L6.85245626,25.2471061 L22.9284563,25.2471061 L22.9285042,21.4756564 L23.1612326,21.1863251 C26.0862495,20.5153244 28.2891104,17.8703297 28.2891104,14.8814714 C28.2891104,11.3301971 25.265151,8.3763971 21.6806741,8.3763971 L21.3799223,8.08406666 C21.3221949,4.48550505 18.4027638,1.48517679 14.8905729,1.48517679 Z M15.5897833,8.31699003 L15.5897833,21.6835811 L14.5897833,21.6835811 L14.5897833,8.31699003 L15.5897833,8.31699003 Z M10.2291771,14.8517679 L10.2291771,21.6835811 L9.22917708,21.6835811 L9.22917708,14.8517679 L10.2291771,14.8517679 Z M20.6525781,14.8517679 L20.6525781,21.6835811 L19.6525781,21.6835811 L19.6525781,14.8517679 L20.6525781,14.8517679 Z" id="Combined-Shape" fill="#000000"></path>
                    </g>
                </g>
            </g>
        </g>
    </g>
</svg>