<svg height="400" viewBox="0 0 2400 400" width="2400" xmlns="http://www.w3.org/2000/svg"><g fill-rule="evenodd" transform="translate(180 65)"><g fill-rule="nonzero"><path d="m1330.54489 152.577097c0-.106627 0-.213255 0-.319882 0 .58645-.76112.817476-1.20665 1.137358-.53735.366493-1.01849.803159-1.42943 1.2973-1.18809 1.243985-2.39474 2.470199-3.71278 3.660871-1.55938 1.510554-3.28582 2.861167-4.84519 4.389492-3.23013 3.181049-6.44169 6.699751-10.54432 8.885612-1.6209.988682-3.54947 1.409418-5.4578 1.190671-1.92585-.460223-3.42683-1.903954-3.89843-3.749727-.6766-2.026591-1.06986-4.130033-1.16953-6.255471 0-.888561-.18564-1.777122-.2042-2.630141-.01857-.853018 0-2.861167-1.41086-1.777122s-2.33906 2.203632-3.52715 3.252134-2.78459 2.363572-4.17689 3.554244c-2.71033 2.274717-5.14221 4.691603-7.64834 7.108489-2.44617 2.300376-5.03763 4.45475-7.75973 6.450954-2.65464 2.079233-5.1979 4.247322-7.79686 6.379869-5.42067 4.407263-10.1916 9.472061-15.57514 13.95041-2.38875 2.254639-5.01396 4.267506-7.83399 6.006673-2.43378 1.243185-5.13268 1.936211-7.88967 2.025919-5.03157.396749-10.02814-1.087254-13.94152-4.140695-3.1029-3.046679-5.31198-6.822571-6.40456-10.947073-1.35477-4.404818-2.13421-8.953358-2.3205-13.541671-.1021-1.870627-.1021-3.74508 0-5.615707 0-1.475011.18564-2.950023.2599-4.442805 0-.888561 0-1.777122.11138-2.701226 0-.319882.12995-1.15513-.18564-1.403927-.63117-.497594-2.09772.799705-2.59895 1.101816-1.57794.977417-3.15587 1.937063-4.65955 2.985566-2.04203 1.403926-3.87986 3.074421-5.81051 4.602746-3.91139 3.204831-8.13912 6.03787-12.62349 8.459102-4.25126 2.473394-9.08339 3.884964-14.0529 4.105152-2.32623.002668-4.62098-.514576-6.70158-1.510553-1.89974-.908057-3.63069-2.108804-5.12365-3.554245-3.52715-3.696414-4.95657-9.543146-4.95657-14.430233.18356-6.272357 1.87321-12.420045 4.938-17.966706 2.16551-4.573985 4.73675-8.961779 7.68548-13.115162 4.6114-6.491076 9.75102-12.623436 15.37094-18.339901 3.1519-3.013464 6.55408-5.777075 10.17304-8.263619 3.47888-2.762236 7.52733-4.790856 11.88093-5.953359 4.54659-.924192 9.28835.087418 12.99476 2.77231.74255.533137 1.85639 1.208444 2.22767 2.079233.22336.890568.1652 1.824591-.16708 2.683455-.57779 2.086458-1.41938 4.097623-2.50613 5.988902-2.20374 3.653212-4.83853 7.052019-7.85255 10.129597-3.06305 3.34099-6.27461 6.557581-9.67181 9.59646-3.40718 3.052317-7.02276 5.884198-10.82278 8.476873-4.02838 2.736768-8.35377 5.029256-12.56779 7.499456-1.70788.977417-3.56428 1.777122-5.17934 2.91448-1.81524 1.278734-3.20733 3.030917-4.00981 5.047028-.75247 2.025435-1.3056 4.113744-1.65219 6.237699-.2599 1.386155-.37128 2.932251 1.16953 3.554244 1.6816.42949 3.46471.310689 5.06795-.337653 2.44968-.677101 4.86018-1.477927 7.22138-2.399115 4.52435-1.713766 8.93257-3.696148 13.19896-5.935588 8.1867-4.122924 16.96744-7.961508 23.8361-14.003724 5.94046-5.224739 10.28443-11.78232 14.99967-18.002248 5.16061-6.648673 11.103-12.707011 17.71-18.055562 6.78318-6.012235 14.70333-10.7290852 23.33488-13.897096 2.09545-.6967278 4.22693-1.2898845 6.38599-1.7771222 2.1502-.6595012 4.41239-.9188896 6.66446-.7641626 4.29454.725564 8.05871 3.1774455 10.34011 6.7352938 1.82796 2.883954 1.99588 6.460528.44554 9.489832-.53836 1.190672-2.32049 3.696415-3.89843 2.932252-2.04203-.977417-2.33906-3.447617-3.58284-5.047027-.57304-.805584-1.61551-1.176254-2.59895-.924104-2.0347.306838-3.99976.943903-5.81052 1.88375-3.9679 2.244918-7.56528 5.041854-10.67426 8.299161-3.37715 3.142336-6.33859 6.669645-8.81788 10.502792-2.61751 4.122924-5.12364 8.299161-7.42557 12.582026-4.43679 8.245847-8.33521 16.811576-12.14082 25.341763-1.88246 4.089297-3.46425 8.299475-4.73381 12.599797-.29702 1.048502-2.97023 9.703087-.76112 9.507604 1.11333-.247159 2.18717-.63564 3.193-1.15513.96532-.390967 1.85639-.835247 2.80315-1.297299 2.09773-1.066273 4.17689-2.203632 6.20036-3.376532 4.0655-2.363573 7.9825-4.922629 11.76954-7.623855 7.37253-5.360622 14.44877-11.084767 21.20002-17.149229 7.42558-6.557581 15.22244-12.741967 22.90791-19.015208 3.71279-3.092193 7.57409-6.202157 11.30544-9.365435 3.73135-3.163277 7.09143-6.504267 10.6557-9.756401 3.08162-2.825624 6.49738-6.344326 10.54432-7.908194 1.86964-.703493 3.88235-.989165 5.88477-.835247.85669.034078 1.6943.252763 2.45044.639764.94676.533136 1.24379 1.386155 1.8564 2.150318 1.15096 1.279528 2.61751.941874 4.15832.639764 1.9547-.58344 4.06002-.501819 5.95903.231026 1.16952.568679 2.59895 1.421697 2.37618 2.861166-.24038.90574-.60229 1.777861-1.07671 2.594599-.59404 1.297299-1.20665 2.576827-1.85639 3.874126-4.18087 8.578742-7.89856 17.35745-11.13837 26.30141-1.5408 4.389492-2.37618 8.885611-3.71279 13.38173-.33415 1.15513-.68686 2.310259-1.02101 3.465389-.22277.853018-.38985 1.777122.74255 1.261756.81682-.319882 1.6522-1.421697 2.28337-2.008148l3.23013-3.109964 22.12822-21.325467c7.27706-7.108489 14.44274-14.216978 21.90545-21.041127 3.46147-2.880188 6.54687-6.150079 9.18915-9.73863 2.5247-3.78527 4.62242-7.819338 6.92435-11.7290068 9.94522-17.2349206 21.0126-33.854181 33.13664-49.7594229 2.55076-3.5557247 5.54287-6.8019708 8.91069-9.6675451 3.26839-2.526724 6.94192-4.5311019 10.87847-5.9355883 4.46923-1.6733057 9.38025-1.9348359 14.01578-.7463913 1.09527.2665683 2.9331.5864503 3.23012 1.8659784.38985 1.6349524-.90963 3.9096689-1.67075 5.3313667-2.33037 3.8883031-4.94838 7.6119968-7.83398 11.1425565-2.93311 3.838584-5.99616 7.588312-9.15203 11.266955-6.47881 7.5705408-13.81157 14.4302327-20.97725 21.325467-3.56428 3.5542445-7.0543 7.108489-10.69283 10.46725-3.31455 2.8099213-6.22925 6.0243778-8.66937 9.5609178-2.35633 4.038711-4.49401 8.190819-6.40456 12.439856-2.07916 4.336178-4.21401 8.654585-6.44168 12.93745-2.22768 4.282864-4.49248 8.743441-6.66446 13.168475-1.02102 2.097005-1.85639 4.247323-2.71034 6.433183-.37127.977417-.72399 1.972606-1.11383 2.932252s-1.31804 2.292487-1.02102 3.19882c1.15097-.462052 2.11629-2.381344 2.87741-3.305448 1.1324-1.403926 2.3205-2.77231 3.52715-4.122923 2.27718-2.523514 4.67812-4.9404 7.20281-7.250659 4.92779-4.455986 10.25093-8.493407 15.9093-12.06666 5.73172-3.566477 11.75343-6.686473 18.00702-9.329892 3.34151-1.421698 6.70159-2.807853 10.08023-4.122924 1.41279-.393493 2.69301-1.134951 3.71278-2.150317.84721-1.222014 1.5566-2.526612 2.11629-3.891898 12.27077-24.8797116 26.50931-49.2262864 45.24033-70.285185 4.32507-5.3006895 9.22899-10.144144 14.62839-14.4480039 2.36749-1.6703288 5.19418-2.640282 8.13101-2.7900819 3.33257-.5252977 6.73812-.4529845 10.04309.2132547.8173.1175579 1.57282.4854234 2.15342 1.0485021.55692.7819338.2042 2.1503179.11138 3.0033366-.45497 3.2714338-1.28931 6.4841512-2.48757 9.5786889-2.47093 6.1381723-5.65285 11.9918368-9.48617 17.4513405-4.01388 5.5611074-8.35237 10.9009619-12.99476 15.9941002-4.5853 5.3313667-9.09633 10.8404457-13.97865 15.9941002s-9.96884 9.9518846-13.29178 16.1007276c-3.32295 6.148843-6.70159 12.813051-10.00597 19.246234-1.65219 3.234362-3.32295 6.450954-4.97514 9.685316l-2.28336 4.549433c-.27846.550908-1.8564 2.701226-1.3923 3.429846s1.8564.373196 2.45044.373196h6.03328c3.71279 0 7.42558 0 11.28688-.124399 7.42558-.124398 14.94398-.284339 22.40668-.373196 1.69339.131097 3.39746.047441 5.06796-.248797 1.34414-.480617 2.5077-1.334588 3.34151-2.452428 2.43187-2.647913 4.86375-5.331367 7.42557-7.872652 4.64315-4.887235 9.78631-9.316638 15.35238-13.221789 5.39878-4.017479 11.3366-7.322838 17.65431-9.827486 3.15661-1.246056 6.47094-2.088553 9.85746-2.505743 2.76674-.137903 5.535.242401 8.14957 1.119587 2.7751.842134 5.1198 2.649212 6.57163 5.064799 1.46656 2.576827-.18563 5.864503-1.3366 8.263618-1.42042 2.783634-3.08476 5.447003-4.97514 7.961508-1.85418 2.671923-3.92091 5.202945-6.18179 7.57054-4.49758 4.562003-9.62536 8.514166-15.241 11.746779-5.89056 3.674826-12.10162 6.855843-18.56394 9.507604-1.61506.58645-3.24869 1.084044-4.90088 1.528325-1.47859.242209-2.9035.722937-4.21401 1.421697-1.04552.902954-1.91871 1.973386-2.58039 3.163278-1.042 1.396946-1.9669 2.870633-2.76603 4.407263-3.21443 5.805146-5.55798 12.015085-6.96148 18.446529-.27846 1.652724-.4641 3.287676-.77968 4.9404-.16708.888561-.4641 2.32803.74255 2.683455 1.42373.121504 2.85611-.111112 4.15833-.675307 1.6862-.576309 3.34054-1.234702 4.95657-1.972606 6.57164-2.896709 12.75343-6.593123 19.0466-10.022969 6.29318-3.429846 12.60492-7.001862 18.56395-10.929302 12.17794-7.925965 23.61333-16.847119 34.99303-25.768272l4.36253-3.429846c1.37373-1.066274 2.52469-2.256946 3.71278-3.394304 2.43188-2.132547 4.80807-.941875 7.18425.586451 1.34158.59001 1.9932 2.060913 1.50368 3.394303-.7942 2.879898-1.83738 5.69153-3.11874 8.405788-2.74747 6.113301-6.46025 11.693465-9.67182 17.575739-3.3972 6.237699-6.23748 12.777509-9.18915 19.210692-.72399 1.546096-1.42942 3.092192-2.13485 4.620518-.35086 1.236265-1.09743 2.336267-2.13486 3.145506-6.23748 3.554244-5.68056-6.610895-4.97513-9.8808 1.09987-3.325226 2.51023-6.548906 4.21401-9.632002 1.37374-3.163278 2.74747-6.308784 4.17689-9.436519.68687-1.528326 1.42942-3.021108 2.2648-4.49612.48266-.853018 2.15342-2.843395 1.8564-3.856355-.81682-.390967-2.45044 1.279528-3.04449 1.777122-1.15097.817476-2.28337 1.777122-3.41577 2.559056-2.56182 2.02592-5.10508 4.057763-7.62978 6.09553-2.20911 1.777122-4.34396 3.6431-6.51594 5.455765s-4.75237 3.554244-7.16568 5.331367c-2.41332 1.777122-4.28827 3.252133-6.386 4.940399-2.2083 1.697469-4.5273 3.258572-6.94291 4.673832-2.22768 1.332842-4.45535 2.665683-6.55308 4.158466-2.09772 1.492783-4.49247 3.554245-6.92435 5.08257-2.43187 1.528325-4.62242 2.790082-6.98004 4.122923-2.32338 1.455504-4.81521 2.648216-7.42558 3.554245-2.55246.636077-5.17792.964425-7.81542.977417-3.01458.368837-6.07307.236571-9.04064-.390967-5.06795-1.45724-7.42557-6.237699-9.65325-10.449479-1.39712-2.335004-2.44093-4.848044-3.10017-7.463913-.37612-2.884996-.16174-5.8125.63117-8.619043 1.41193-6.035015 3.60063-11.879001 6.51594-17.398027 1.46655-2.825624 3.10018-5.544621 4.7895-8.245847l2.74746-4.425034c.53836-.888562 2.50614-3.056651 2.0606-4.105153-.92117-.156671-1.86767-.108023-2.76603.14217l-2.61751.302111c-2.11629.231026-4.23258.479823-6.36743.693077-3.87368.402815-7.75973.687154-11.65816.853019-3.93556.159941-7.87111.231026-11.7881.319882l-5.7177.159941c-2.11255-.039705-4.22318.145061-6.29317.550908-1.29948.373196-1.8564 1.777122-2.3205 2.772311l-2.7289 5.455765c-1.5965 3.305447-3.15587 6.610895-4.64098 9.969656-.68687 1.59941-1.37373 3.216591-2.04204 4.833772-.80319 1.578544-1.16156 3.330609-1.03958 5.08257.49806 3.718806.74609 7.464397.74256 11.213641 0 7.69494-.44553 15.354336-1.11384 23.102589-.64973 7.321744-1.18809 14.625717-2.58038 21.876375-1.32942 7.311675-3.07078 14.549201-5.21647 21.680892-1.85716 5.843606-4.04474 11.586258-6.55307 17.202543-2.38518 5.636705-5.33188 11.040407-8.79931 16.13627-3.32295 4.709374-7.61122 9.578689-12.99476 12.191059-1.35758.793336-2.94538 1.148418-4.5296 1.012959-1.65801-.3379-3.24541-.938538-4.69668-1.777122-3.03068-1.22517-5.76181-3.040795-8.01963-5.331367-4.47391-5.331366-5.1979-12.297686-4.23257-18.890809 1.00909-7.140338 2.44708-14.21909 4.30683-21.201068 1.85639-7.108489 4.60386-14.216978 7.0543-21.325467 4.95038-14.311758 10.33393-28.451728 16.15063-42.419908 2.9331-7.108489 5.9219-14.216978 8.89213-21.325467 1.44798-3.447618 2.71033-7.108489 4.45534-10.360623 1.09851-1.516967 1.90916-3.207391 2.39475-4.993714.06269-.830509-.01886-1.665221-.24133-2.4702-.11092-.897549-.36773-1.772983-.76112-2.594598-.70543-.995188-2.63608-.924104-3.71279-1.101816-1.85639-.302111-3.71279-.604221-5.4578-1.066273s-1.39229-1.119587-.12995-1.777122c1.49019-.878143 3.17553-1.407818 4.91945-1.546097 1.8552-.090054 3.71398-.090054 5.56918 0 1.28091 0 3.80561.693078 4.93801-.14217.47947-.508712.82899-1.117065 1.02102-1.777122.4084-.87079.83537-1.777122 1.26235-2.594598.83537-1.777123 1.68931-3.447617 2.54326-5.153655l2.37618-4.833772c.51979-1.048502 2.02347-3.074422 1.42942-4.318407-.59404-.14217-1.29947.408738-1.85639.657535l-2.32049 1.155129-4.62243 2.32803c-2.9331 1.504631-5.81051 3.109964-8.63223 4.816002-5.41386 3.299194-10.57533 6.963417-15.4452 10.964844-9.09633 7.463913-17.07883 16.207355-20.95869 27.207742-1.9363 6.321237-3.33929 12.781099-4.19545 19.317318-1.15097 6.628666-2.00491 13.328417-3.32295 19.939312-2.69177 13.310646-5.68056 26.514664-9.74607 39.523199-1.8192 6.279066-3.98809 12.460442-6.49738 18.517614-2.5353 5.92904-5.41091 11.719438-8.61367 17.344713-1.45935 2.559668-3.22896 4.945644-5.27216 7.108489-.97738 1.101964-2.13012 2.049545-3.41576 2.807853-1.36677.65309-2.78891 1.194088-4.25114 1.617181-.5483.252556-1.1125.47216-1.68932.657535-.68711.070609-1.38183-.020912-2.02347-.266568-1.41949-.353252-2.80454-.822965-4.13976-1.403927-2.57624-1.178805-4.81295-2.94179-6.51595-5.135883-3.37943-4.348285-5.31935-9.566676-5.56918-14.98114-.40879-6.453853-.14761-12.930612.77969-19.33509 1.85639-13.36396 6.83153-26.141469 11.95518-38.634638 10.3958-25.28845 24.13312-49.084117 37.40634-73.039724.74256-1.332842 1.50368-2.665684 2.2648-3.998525.53836-.924104 2.46901-3.269905 2.07916-4.336179-.8725 0-1.85639 1.386156-2.45044 1.937064l-2.69177 2.665683-5.34641 5.331367c-3.56428 3.554244-7.13475 7.108489-10.7114 10.662733-6.85009 6.788607-13.77445 13.506129-20.42034 20.543533-3.1373 3.358761-6.25605 6.717522-9.44904 10.02297-1.15097 1.208443-2.7289 3.554244-4.62243 2.150318-1.40562-1.41282-2.38688-3.162611-2.84028-5.064799-.75558-2.148254-1.37549-4.338068-1.85639-6.557581-.66458-2.458952-.82222-5.01832-.4641-7.534998.9282-4.478348 3.1373-8.743442 4.45534-13.239561zm15.5009 133.284169c0 2.239174.98389 2.932251 3.50858 2.114775 3.37031-1.10253 6.1557-3.424509 7.75973-6.468725 3.93556-7.108489 7.83398-14.216978 11.34257-21.609806 4.31808-8.835722 7.55123-18.121006 9.63469-27.669794 1.41086-6.646437 2.89597-13.292874 4.12119-19.992625 2.46901-13.559443 2.33906-27.456539 5.2536-40.980439 0-.231026 0-.337653-.2599-.479823-.22505-.027878-.44298.087224-.53835.284339-.85333 1.343958-1.62802 2.732252-2.3205 4.158467-13.16183 29.766797-27.62314 59.302569-35.53138 90.86426-.6633 2.573338-1.18995 5.177199-1.57794 7.801567-.55692 3.838584-.85394 7.748253-1.39229 11.92449zm97.27506-88.287434h-.20421c0-1.777122 0-3.554244 0-5.331366 0-.390967-.37128-.764163-.55691-1.15513-.22411.384471-.42253.782159-.59405 1.190672-1.41086 3.803042-2.76603 7.623855-4.21402 11.409125-.55691 1.475011-1.42942 2.843395-1.96777 4.318407-1.8564 5.331367-3.71279 10.662733-5.68057 15.85193-2.85885 7.783796-5.75482 15.585362-8.74362 23.333615-3.46665 8.935173-6.12488 18.138976-7.94536 27.509853-.89107 4.638289-1.8564 9.258807-2.80316 13.897096-.11138.533136-.16708 1.101816-.2599 1.652724.69005-.060586 1.36626-.222419 2.00491-.479824 2.80005-1.494531 5.16216-3.639648 6.86866-6.237699 3.00736-4.940399 6.08897-9.827486 8.92926-14.856742 1.70003-2.915459 3.13475-5.965596 4.28827-9.116637 1.85639-5.118112 3.26725-10.342851 4.62242-15.585362 1.87049-7.044826 3.17992-14.215363 3.91699-21.449865.87251-8.334704 1.5965-16.669407 2.33906-25.00411zm23.35344-157.0442925c.33415-1.0129597-1.11384-1.0485021-1.55937-.9774173-1.91026.17229-3.78533.60309-5.56919 1.2795281-3.49833 1.641879-6.52042 4.0832667-8.79931 7.1084889-3.89014 4.8353287-7.41391 9.9309074-10.54432 15.2477089-2.469 4.3006358-5.16077 8.4768731-7.64834 12.7597377-1.72645 3.0033366-3.28582 6.1133006-4.90088 9.1877221-.09843.240262-.16697.4907839-.2042.7463913.26396-.0592988.5195-.1487986.76112-.2665683.25067-.1775371.48092-.3800824.68686-.6042216 7.20281-7.108489 14.47988-13.9681809 21.08864-21.5564928 5.78777-6.672189 11.04967-13.7468399 15.74223-21.165526.27846-.4265093.51979-.959646.94676-1.759351zm-256.90641 71.0848895c-1.04462.023737-2.0761.22845-3.04448.604222-6.53451 2.647912-12.08513 8.085906-16.70755 13.026306-5.56919 5.81119-10.87847 11.640151-14.47988 18.784182-.24133.479823-.44553.995189-.64974 1.492783.55809-.029334 1.11165-.112691 1.65219-.248797.64676-.274591 1.26781-.601587 1.8564-.977418 7.68917-4.354474 14.99642-9.299264 21.84976-14.785657 4.87739-3.945451 9.20704-8.472447 12.88338-13.470586 2.28336-3.127735-.40841-4.460577-3.36008-4.371721zm358.85958 2.594599c-.44553-.319882-.85394-.835248-1.29947-.888561-.7085-.075171-1.42558.003803-2.09773.231026-2.56391.72336-4.95009 1.931974-7.01717 3.554244-2.45044 2.097004-5.21647 3.891898-7.42558 6.166614-2.82172 2.807853-5.14221 6.077758-7.90824 8.885611-4.22808 4.545955-8.12927 9.361155-11.67672 14.412462-.19477.384049-.33823.790061-.42697 1.208443.39183-.008592.77997-.074516 1.15097-.195483 3.71278-1.777123 7.2585-3.696415 10.87847-5.562393 10.78565-5.562393 18.43399-14.057037 24.37445-24.097778.56746-1.187991 1.05121-2.411016 1.44799-3.660872zm-226.4801 6.522038c-3.11874-.373195-5.68057 1.332842-7.87111 3.412075-4.95658 4.673832-10.06166 9.205493-13.79301 14.981141-3.32295 5.153654-7.03574 10.094054-10.56289 15.158852-.6683.977418-1.31804 1.972606-1.85639 2.985566-.1117.266093-.17451.54867-.18564.835247.36917.053617.74467.053617 1.11384 0 .39429-.116338.76478-.296675 1.09527-.533136 5.71759-3.668015 10.88311-8.068832 15.35238-13.07962 5.17934-5.828961 9.91315-12.048889 14.85115-18.108876 1.31804-1.617181 2.67321-3.216591 3.99125-4.851544.13053-.257891.21821-.533701.2599-.817476-.2638-.087259-.53841-.141031-.81682-.159941-.5584.057506-1.11096.158545-1.65219.302111zm144.79875-33.2499568c.70543-.7108489 4.56673-5.6867912 4.91945-6.1310717 4.71524-5.8467322 9.61612-11.5335234 14.38705-17.3269419 3.93822-4.4362554 7.5779-9.1076569 10.89704-13.9859521 1.67075-2.6479122 3.71279-5.3313667 5.36498-8.0148213.94676-1.5638676 2.07916-2.9144805 2.95166-4.5138905.53836-.9951885 4.84519-7.4816847 2.11629-7.8904228-1.30186-.096212-2.60954.0921712-3.82417.5509079-1.61371.4540524-3.07787 1.2987119-4.25114 2.4524287-2.15342 3.3232186-3.23013 4.7626876-5.03083 7.6238544-1.15096 1.7771223-1.48512 2.4879712-2.48757 4.3717207-2.97023 5.5979351-6.3303 11.0003867-9.76463 16.3672959s-7.09143 10.1829105-9.91315 15.5498197c-.9282 1.5283251-5.38354 10.3606227-5.43923 11.0003867z"/><path d="m1920.10404 75.1718891 4.08527.2131698c10.06463.7105658 20.31495 1.3145468 30.15674 3.5528291 4.62136 1.0559793 9.11942 2.5557787 13.42569 4.4765647 4.452 1.8314891 8.58015 4.3124264 12.23725 7.3543564 1.41128 1.2790185 3.91815 3.4462442 3.17537 5.5957059-.85419 2.4869804-2.85969-.9059715-3.71388-1.5632448-1.61581-1.0304851-3.35524-1.8714318-5.18087-2.5047446-2.2747-1.0368552-4.62718-1.9097265-7.03781-2.6113294-5.12872-1.1631154-10.32485-2.0350805-15.56118-2.6113294-2.76684-.4441037-5.57082-.8882073-8.33767-1.1724337-2.76684-.2842263-5.68224-.3019904-8.52336-.3375187-2.39546 0-4.75377-.2842264-7.13066-.3375188s-5.18087-.0888207-7.74345 0c-2.6706.0914256-5.33189.3525418-7.96628.7816224-2.69257.3552829-5.4037.5329244-8.09627.8882073-2.06003.0874219-4.08346.5517443-5.96078 1.3678392-3.19394 1.7764146-16.95389 33.7518765-22.39473 46.5598255-2.09834 4.991725-4.08527 10.018979-5.86793 15.099524-1.78267 5.080546-3.71389 9.699224-5.27372 14.655421-1.55983 4.956196-2.95254 9.521582-4.79091 14.211316-.9099 2.309339-1.85694 4.618678-2.63686 6.963545-.44566 1.24349-.83562 2.522509-1.22558 3.783763l-.53851 1.776415c-.14856.497396-.55709 1.261254-.31568 1.776414.9099 0 1.85694-1.492188 2.41402-2.042876l2.61829-2.877792c1.85694-1.900764 3.50962-3.819291 5.27372-5.702291 3.45391-3.694942 6.85211-7.443177 10.34316-11.120355 7.07495-7.514234 14.59557-14.673184 22.04191-21.867663s14.85553-14.460015 22.61755-21.316975c3.71389-3.357424 7.63204-6.608262 11.45734-9.912393.85419-.72833 1.72695-1.45666 2.56258-2.220519.50137-.461867 1.02131-.888207.59422-1.563245-.4271-.675037-1.37414-1.207961-1.85694-1.882999-.64562-.838774-1.12405-1.784235-1.41128-2.788971-.20426-.621745-.50137-1.45666 0-2.025112.50137-.568453 1.74553-.692802 2.45116-.852679 2.52544-.586217 5.03232-1.243491 7.5949-1.598774 1.71472-.161366 3.4151-.440389 5.08802-.834914 1.41087-.454446 2.76774-1.049873 4.04813-1.776415 1.01254-.557812 1.95892-1.218944 2.82255-1.97182.75165-.750896 1.61517-1.3914034 2.56258-1.9007638 1.79696-.7170171 3.78181-.8845565 5.68225-.4796319 1.86468.1122583 3.6679.6811486 5.23657 1.6520657.37381.280467.70504.609291.98418.977028.24141.319754.38996.746094.74278.959264.87936.330645 1.83849.416857 2.76685.248698 10.75169-.621745 21.50339-1.367839 32.27365-1.776415 10.77026-.408575 21.22485-1.24349 31.84656-1.5099522s21.3734 0 32.06939 0c5.29229 0 10.566.3908112 15.83972.7993866 2.63685.1954056 5.27371.4085756 7.91057.5684526l3.71389.248698c1.25118.018039 2.49655.16696 3.71388.444104.76135.230934 1.337.81715 1.02132 1.634301-.4271 1.083613-1.85694 1.083613-2.84112 1.172434-2.56258.195405-5.10659.106585-7.68774 0s-5.29229 0-7.94772.30199c-2.65542.301991-5.23657.586217-7.87343.675038-2.63686.08882-5.05088 0-7.57633.142113-13.20285.746094-26.72139.675037-39.83141 2.238282-5.18086.621745-10.3803 1.012557-15.57974 1.403368s-10.34317.408575-15.4869.9415c-4.98689.283186-9.94922.876579-14.85554 1.776414-1.17129.13692-2.29162.538828-3.26821 1.172434-.33425.30199-.55709.461868-.37139.870443.18569.408575.79848.675037 1.18844.852679.85455.329755 1.65996.765767 2.39546 1.296782.79389.709593 1.42606 1.568358 1.85694 2.522509 1.90408 4.112373 2.12933 8.757786.63136 13.021119-1.31609 4.471749-3.04361 8.823202-5.1623 13.003355-2.13906 4.286147-4.55786 8.439316-7.24208 12.434902-2.71896 4.156055-5.70186 8.148642-8.93189 11.95527-3.11966 3.552829-6.3136 7.212243-9.71181 10.569666-3.19134 3.145815-6.75609 5.924026-10.6217 8.278092-8.7462 5.329244-20.29638 8.597847-25.9972-2.291574-1.24423-2.066802-2.37237-4.1956-3.37963-6.377329-1.57375-4.533805-2.06861-9.346723-1.44841-14.086967.65045-4.733322 1.89748-9.373913 3.71388-13.820506.81705-2.113933 1.72696-4.210102 2.74827-6.235215.51995-1.065849 1.0956-2.113933 1.68982-3.144254.33425-.586216 1.28129-1.776414.72421-2.48698-.87276 0-1.72696 1.332311-2.30261 1.882999l-1.85694 1.918528-4.28954 4.263395c-2.89683 2.889634-5.74414 5.850325-8.54193 8.882073-5.49655 5.921382-10.97453 11.801314-16.43394 17.639797-5.45941 5.91546-10.95596 11.830921-16.13683 17.959551-2.32118 2.788971-4.45666 5.720055-6.75927 8.52679s-4.36381 5.453593-6.64785 8.082686c-2.23949 2.611478-4.72594 5.019834-7.42777 7.194479-1.37414 1.065849-4.28954 3.819292-6.22076 2.327103-.96032-.986044-1.71646-2.13737-2.22833-3.392951-.94269-1.647187-1.99076-3.237141-3.13823-4.760792-2.02544-2.66745-3.30393-5.786213-3.71388-9.059714-.21726-3.267989.23696-6.545037 1.337-9.645931 1.09559-3.748235 2.15405-7.496469 3.34249-11.209176 2.35832-7.407649 5.18087-14.708713 7.89201-21.992012 3.11966-8.366913 6.33217-16.680533 9.7118-24.869804 1.65268-4.050226 3.3425-8.082687 5.01375-12.115148.85419-2.025112 1.67125-4.050225 2.52544-6.057573.4271-1.012557.85419-2.025113 1.29986-3.037669.31568-.72833 1.48555-2.451452 1.05846-3.233075-.64993.106585-1.29986 1.190198-1.70839 1.652066-.40853.461867-1.24415 1.403367-1.85694 2.096169l-3.71389 4.210102c-2.47592 2.723836-4.88995 5.459515-7.24207 8.207036-2.28404 2.611329-4.41953 5.329243-6.62929 8.029394-2.20976 2.70015-4.4938 5.329243-6.64785 8.118214-8.57907 10.960478-16.71248 22.134126-24.23309 33.751877-3.71389 5.648998-7.14923 11.386818-10.34317 17.284514-1.55983 2.842263-3.02682 5.720055-4.43809 8.633375-.74278 1.54548-1.44842 3.108725-2.15406 4.67197-.41375 1.234306-1.04148 2.393286-1.85694 3.42848-2.82255 2.91332-8.11484 1.492188-11.14165-.461868-2.06917-1.635913-3.62454-3.787867-4.4938-6.217451-.63136-1.367839-1.16988-2.788971-1.7641-4.174574-.6986-1.40538-1.28219-2.860483-1.74552-4.352216-.29282-1.729699-.09399-3.5029.57565-5.133838.57565-1.936292 1.13273-3.872583 1.68982-5.808875 1.09559-3.872584 2.19119-7.762932 3.30535-11.635516 1.11417-3.872584 2.17263-7.638582 3.52819-11.369053.6685-1.776415 1.35557-3.659414 2.04264-5.489121.31568-.888207.64993-1.776415.96561-2.682386.16712-.51516.94704-1.954056.57565-2.380396-.6685-.142113-1.22558.657274-1.63411 1.048085s-1.09559 1.065849-1.61554 1.634301c-1.09559 1.136906-2.07977 2.380396-3.10109 3.55283-2.06121 2.469216-4.08527 4.956196-6.16505 7.425412-2.07977 2.469217-4.21526 4.867376-6.48073 7.105659-2.40199 2.122518-4.65385 4.395416-6.7407 6.803668-1.65608 2.185779-3.69094 4.084335-6.01649 5.61347-2.12299 1.601527-4.54193 2.806756-7.13066 3.552829-1.12582.378913-2.33541.470749-3.50962.266462-1.13479-.345492-2.06501-1.132199-2.56258-2.167226-1.04265-2.285749-1.67062-4.724722-1.85694-7.212243-.28544-2.827364-.16046-5.678915.37139-8.473498.25103-1.415598.70728-2.790771 1.35557-4.085753.35032-.688825.76027-1.348399 1.22558-1.97182.50269-.527504.91619-1.126861 1.22558-1.776415-.8125.359975-1.56871.82631-2.2469 1.385604-1.07912.704561-2.10883 1.475992-3.08253 2.309339-1.44841 1.314546-2.91539 2.629093-4.40095 3.908112-4.0667 3.552829-8.39338 6.803667-12.44151 10.356497-2.09835 1.776414-4.011 3.801527-6.18362 5.524649s-4.54951 3.446244-6.85211 5.09831c-4.47524 3.233074-8.95047 7.496469-14.85554 7.993865-2.11735.42755-4.31632-.208893-5.8308-1.687594-1.5009-2.020309-2.52134-4.330417-2.98968-6.768139-1.28148-5.180732-1.28148-10.576065 0-15.756797 1.14155-5.454325 2.7756-10.803624 4.88376-15.987732 2.19119-5.293715 4.36381-10.622959 6.51787-15.987731 2.19119-5.329243 4.41952-10.782836 6.81497-16.094316 1.22559-2.70015 2.46974-5.329243 3.71389-8.118214.53232-1.24349 1.05227-2.486981 1.55983-3.730471.58815-1.213831 1.02445-2.489836 1.29986-3.801527.14856-1.101377-.57565-1.776415-1.67125-1.083613-1.09559.692802-2.04263 1.776415-3.10109 2.433688-2.30261 1.616537-4.6795 3.073197-6.9264 4.760791-4.47523 3.339659-8.59764 7.105658-12.70148 10.800601-2.06121 1.882999-4.2524 3.659414-6.33217 5.542413-2.07978 1.883-4.19669 4.050225-6.22076 6.146395-4.15955 4.263395-8.22625 8.61561-12.27439 12.967826-3.71388 3.94364-6.94496 8.189271-10.21318 12.434902-3.50962 4.512093-6.92639 9.059714-10.45458 13.554043s-6.88926 9.166299-10.47316 13.660628c-2.54345 3.633074-6.19327 6.430026-10.45458 8.01163-1.63411.497396-4.23383 1.083613-5.8308.230934-1.08322-.732006-1.87006-1.798364-2.22833-3.019905-.92628-2.991056-1.54815-6.060764-1.85694-9.166299-1.5227-8.73996.29711-15.437043 3.8253-23.573022 2.41402-5.518727 5.06326-10.948635 7.94771-16.289721 2.19119-4.014697 4.7352-7.869517 6.88926-11.901978 1.59697-3.037669 3.04538-6.146394 4.47523-9.237356 3.13823-6.785903 6.0722-13.660628 9.28471-20.428767 1.00275-2.18499 1.85694-4.8140837 4.0667-6.1286305 1.77156-1.071432 3.89306-1.4823906 5.96079-1.1546694.95988.2100796 1.88913.5322506 2.76684.9592638 1.16783.4917082 2.23149 1.1841186 3.13823 2.0428768 1.72174 2.0146513 3.29761 4.1394513 4.71663 6.3595643 1.89828 2.539556 2.98816 5.550178 3.13824 8.668903 0 3.375188-1.85695 6.288508-2.9154 9.397233-.59422 1.634301-1.13274 3.286367-1.85694 4.849612-.35282.710566-.74278 1.403367-1.11417 2.096169s-1.00275 1.545481-.51994 2.167226c.94704 0 2.00549-1.527717 2.65542-2.113934 1.07703-.977028 2.20976-1.900763 3.30536-2.824499l6.3136-5.329243c4.14099-3.55283 8.30054-7.105659 12.53436-10.40979 3.76099-3.172946 7.78522-6.048353 12.03299-8.597846 4.2524-2.380396 9.04331-4.476565 14.07562-3.712707 4.14098.639509 9.28471 2.824499 10.566 6.981309.49204 2.231496.49204 4.536645 0 6.76814-.33255 2.53283-.91069 5.030573-1.72695 7.460941-3.36107 9.752516-8.70906 18.776702-11.903 28.582511-.87277 2.70015-1.70839 5.329243-2.72971 8.011629-1.18844 3.073198-2.39545 6.164159-3.56533 9.237356-1.62632 3.811228-2.94248 7.736938-3.93672 11.742101-.2414 1.154669-.46423 2.327103-.68706 3.552829-.11142.621745-.77992 2.291574-.27855 2.895555.50138.603981 1.44842-.195405 1.85695-.479632 1.16987-.728329 2.35831-1.474424 3.50962-2.238282 4.4177-3.170959 8.65742-6.562705 12.70148-10.161091l12.79433-10.658488c8.46766-7.105658 16.93532-14.069203 25.64438-20.837343 4.21525-3.286367 8.54193-6.377328 12.99859-9.290648 2.2469-1.474424 4.53094-2.931084 6.75927-4.441036 2.22833-1.509953 3.89958-2.824499 5.86794-4.210103 3.14363-2.455989 6.89927-4.090182 10.90025-4.743027 1.69266-.242585 3.42098-.108857 5.05088.390812.67987.247687 1.30855.608536 1.85694 1.065848.55238.584604 1.03219 1.228396 1.42985 1.918528 1.68982 2.256046 2.84112-.692802 3.28679-2.096169.55978-1.856446 1.71621-3.497228 3.30535-4.689735 2.65543-2.096169 6.27647 0 8.67192 1.581009 1.35127.843569 2.56515 1.873117 3.60247 3.055433 1.1132 1.21285 1.29962 2.967692.46424 4.36998-.98418 1.776415-2.20976 3.552829-3.1568 5.489121-1.0956 2.220518-2.07978 4.494329-2.97111 6.803668-3.36532 9.401217-6.18597 18.972868-8.44909 28.671331-.6685 2.61133-1.29986 5.240423-1.85694 7.887281-.2414 1.225726-.48281 2.451452-.70564 3.694942-.11142.621745-.22283 1.225726-.31568 1.776415-.14842.667572-.14842 1.357541 0 2.025112.4271.870444 1.46698-.710565 1.85694-1.101377.79849-1.136905 1.54126-2.309339 2.32118-3.446244 1.55983-2.309339 3.11347-4.618678 4.66093-6.928017l9.28471-13.642864c2.95253-4.369979 6.42502-8.384676 9.74894-12.434902 6.79641-8.455733 13.61139-16.893702 20.79776-25.047445 7.18636-8.153743 14.22417-16.485127 21.50339-24.5855778.55708-.6395092 1.41127-1.7764145 0-1.6343014-1.41128.1421132-2.78542.3197546-4.15955.4618678-2.80399.3197546-5.57083.6928017-8.39338 1.101377l-17.00959 2.5935653c-5.36657.8349149-10.7517 1.5632448-16.09969 2.5047446-5.348.9414997-10.77027 2.2382825-16.17397 3.1975465-11.04433 1.742594-22.23426 2.497868-33.42496 2.256046-5.57083 0-11.14165 0-16.71248-.532924-5.26762-.23184-10.47199-1.195264-15.44976-2.860028-4.17475-1.383648-7.86947-3.8424273-10.67741-7.1056579-2.82256-3.7837631-3.1011-8.5800824-3.5839-13.0566471-.39001-2.4372568-.39001-4.9170996 0-7.3543564.49449-2.1755185 1.34691-4.2621341 2.52544-6.1819227 1.98871-3.8575387 5.2523-6.9796071 9.28471-8.8820728 1.26272-.5151603 2.69257-.9414998 3.04538.6928016.32901 2.2281951-.24934 4.4921512-1.61554 6.3240359-1.40512 1.8899393-2.64718 3.8861086-3.71388 5.968753-.76013 1.9435227-1.03978 4.0289655-.81705 6.093102.15571 1.72853 1.07431 3.3115906 2.52544 4.3522157.86787.5199204 1.80468.9261928 2.78541 1.2079619 1.26272.4618678 2.50687.9059714 3.71388 1.3145468 5.36827 1.4284511 10.90065 2.2160557 16.47108 2.3448672 10.96685.3883663 21.94863.0559874 32.86788-.9947922 11.29021-.7993865 22.469-2.1849899 33.68493-3.4284801s22.67326-2.6646218 34.01918-3.9258762c5.57083-.6039809 10.97453-1.1901978 16.45251-1.6343014 1.85694-.1598773 4.10384.2842263 5.57082-1.1724336.71402-.8685263 1.33605-1.8027725 1.85695-2.7889709.68707-1.1369053 1.41127-2.2382824 2.13548-3.3396594 2.93397-4.4232723 6.0722-8.7044314 9.28471-12.9678264 1.24415-1.7764145 2.39546-3.5528291 3.71389-5.1516022.98418-1.2790185 3.34249-.7993866 4.79091-.8349149 1.664-.2176584 3.31668.466762 4.28953 1.7764146 1.16889 1.8837351 1.41334 4.1637124.6685 6.2352151-.98803 1.8724704-2.15021 3.6560789-3.47248 5.3292438-.76135 1.2612543-6.25789 10.9604779-4.66092 11.5289305 1.11337.1691494 2.24768.1691494 3.36106 0h4.54951c2.2469.1243491 4.95803.1598774 7.81773.2664622zm.83562 95.2868779c-.2883 2.95688.19668 5.93593 1.41128 8.668903.98418 1.776414 1.85694 2.39816 3.97385 1.776414 2.14792-.691689 4.21421-1.596676 6.16505-2.70015 8.48623-4.938432 14.85554-12.097383 21.22485-19.203041 5.44554-6.20033 9.98692-13.078523 13.49997-20.446532 1.11416-2.309339 1.85694-4.778555 2.74827-7.105658.64448-1.628327-.03953-3.463519-1.61554-4.334452-2.35831-1.776414-4.4938-3.73047-6.83354-5.471357-2.98968-2.256046-5.25515-3.819291-8.33767-5.933224-.93613-.74533-2.29496-.74533-3.23108 0-2.30028 1.774175-4.38674 3.788028-6.22076 6.004281-.70564.959264-1.31843 1.97182-2.04264 2.895556-2.4883 3.21531-5.31085 6.252979-7.42776 9.663695-2.90799 4.734608-5.54863 9.614904-7.91058 14.619892-3.39998 6.737813-5.27309 14.08694-5.49655 21.565673zm-165.95492.444103c.55708-.444103.89133-.657273 1.18844-.923735 4.17812-4.06799 8.33767-8.171507 12.53436-12.221732l24.14025-23.288795c.79848-.763859 1.54126-1.581009 2.32118-2.362632.77991-.781622.98418-1.350075.25997-2.060641s-1.68982-1.97182-2.4326-1.900763c-4.42759.441504-8.5154 2.472948-11.43876 5.684526-3.28679 3.552829-6.38788 7.105659-9.47041 10.818365-2.43259 2.895556-4.90232 5.808876-7.07495 8.882073-2.74827 3.908112-5.25514 7.976101-7.79915 12.008562-.81876 1.365779-1.55049 2.777641-2.19119 4.227867-.1857.248698-.1857.532924-.1857 1.136905z"/><path d="m732.357006 54.5734836h2.232038c8.686347.4438625 17.447095.106527 26.04044 1.1540425 3.828235.396237 7.582501 1.2861514 11.160189 2.6454205 1.918537.7140064 3.731746 1.6629388 5.394091 2.8229655 1.116019.7989525 4.519876 2.734193 3.106253 4.3853615-1.413624 1.6511685-4.352474-.5148805-5.691697-.852216-2.475878-.5565968-4.995333-.9188143-7.533127-1.0830245-2.34364-.213054-4.668679-.5503895-7.030919-.745689-10.685832-.606669-21.404032-.4583103-32.066942.4438625-2.845848.177545-5.580094.6569165-8.481743.9764975-2.378225.1146754-4.742378.4175412-7.06812.9054795-2.157636.5858985-2.827248 2.2903305-3.534059 4.1545529-1.860032 5.006769-3.906066 9.9957835-5.970701 14.9670435-1.953033 4.6694334-4.09207 9.2500944-6.268306 13.8307554-2.176237 4.5806606-3.980468 9.3211126-5.747497 14.0970726-4.854683 13.173839-9.895368 26.312169-14.638448 39.539272-5.592494 15.62396-11.085787 31.289347-16.479879 46.996161-.688211 2.006258-2.492442 9.995783-6.398508 7.669944-2.898686-1.692132-5.676262-3.566409-8.31434-5.610422-2.659845-2.609912-6.342707-5.965512-6.342707-9.871502.17973-2.504711.565323-4.992075 1.153219-7.439136.427807-2.538893.930016-5.060032 1.469425-7.563416 2.192183-9.788553 5.024985-19.436325 8.481743-28.886572 3.478259-9.676202 6.454309-19.52995 9.876767-29.206152 3.422458-9.676203 7.142521-19.6719861 10.843984-29.47247 1.860031-4.935751 3.813064-9.8182385 5.9521-14.665217.465008-1.100779.948616-2.1838035 1.432224-3.2845825.167403-.426108.818414-1.4381145.706812-1.952995-.111602-.5148804-.279004-.4793714-.781213-.5326349-1.361757-.0446265-2.724972.0266736-4.073469.213054-5.250833.2451474-10.474237.8743179-15.624264 1.8819769-1.418324.196829-2.606443 1.1259641-3.087652 2.414612-.930016 2.237067-1.339223 4.7759605-2.083235 7.1018-7.774932 24.3059105-16.461279 48.3099945-24.757019 72.4383595-1.674028 4.882488-3.162053 9.853748-5.096486 14.629708-1.19042 2.929493-2.529643 5.823476-3.850265 8.699705-.985817 2.095031-1.599627 4.065781-4.371074 4.048026-1.458313-.058902-2.902519-.297609-4.296672-.71018-2.447566-.523514-4.848208-1.229954-7.179722-2.112785-2.93885-1.225061-6.175304-3.5509-6.286906-6.853237.086991-3.096602.529851-6.174731 1.320622-9.179077.483608-2.367267.985817-4.693106 1.506626-6.977518.279004-1.171797.520808-2.343594.799813-3.5509s.892815-2.32584.241804-3.284583c-.781213 0-1.860031 1.136288-2.325039 1.580151l-2.511042 2.077276c-1.674029 1.367097-3.366657 2.734193-5.115087 3.994763-3.366657 2.432366-7.049519 4.509643-10.267374 7.1018-6.52871 5.32635-14.043237 9.445394-21.148557 14.026055-3.57126 2.296248-7.247923 4.426788-11.029986 6.391619-1.860032.976498-3.813065 1.917486-5.747498 2.805211-1.832456.954004-3.77333 1.704581-5.784697 2.237067-3.975329.730113-8.029412.992468-12.071604.781198-4.062879-.145422-8.045951-1.120126-11.680998-2.858474-6.621712-3.142547-13.485228-8.202579-15.735866-15.251115-2.39944-7.492399.762613-15.97905 4.259472-22.672497 7.440126-14.079318 19.102523-25.104863 31.862339-34.79882 6.281703-4.826775 13.213201-8.827607 20.609148-11.895515 7.742993-3.473642 16.304739-4.9489622 24.83142-4.2788341 4.108692.5827001 8.087482 1.8126556 11.773999 3.6396725 1.780287.6720496 3.492447 1.4981156 5.115086 2.4678756 1.607275 1.161414 3.056843 2.509282 4.315273 4.012517 1.823916 2.165505 2.305527 5.092779 1.264822 7.687698-.855615 2.751948-3.720063 4.243326-6.026502 5.858985-3.184734 2.392371-6.64133 4.435149-10.304574 6.089794-3.982434 1.585715-8.078794 2.896988-12.257608 3.923744-8.290396 2.464659-16.895678 3.832659-25.575432 4.065781-1.856535-.153963-3.72356-.153963-5.580094 0-1.614517.283089-3.056727 1.139516-4.036268 2.396857-2.752847 3.107038-5.580095 6.125303-8.25854 9.338867-5.006539 6.163302-8.898071 13.082367-11.513595 20.470939-.948616 2.680929-1.320622 6.888746 1.860032 8.291351 4.061839 1.381396 8.442131 1.6761 12.666814.852216 8.667746-1.313833 15.884668-5.965512 23.157391-10.315364 7.607529-4.562907 15.233658-9.161322 22.636583-14.026055s14.564046-9.853748 21.966971-14.611954c1.834387-1.032917 3.593073-2.183696 5.263889-3.444373 1.326868-1.353194 2.279402-3.000772 2.771447-4.793715l4.668679-12.42815c3.124853-8.16707 6.324107-16.3341396 9.839566-24.3591736 1.74843-3.9592534 3.53406-7.8829979 5.31969-11.8244969.781213-1.77545 1.674029-3.5509 2.32504-5.32635.446407-1.2250605 0-1.384851-1.302022-1.42036-8.574745-.2663175-17.261092.8344615-25.668434-1.2960785-3.757883-.982177-7.32091-2.547719-10.546379-4.6339244-3.057454-1.743179-5.613902-4.1833777-7.440125-7.1018-1.858386-3.2116023-2.563944-6.9157078-2.008834-10.546173.818413-3.8882354 4.817481-11.1498259 4.910483-2.9827559 0 3.4266184.334805 7.1017999 2.864448 9.8004839s6.844916 3.4266185 10.360375 3.941499c4.319658.4930156 8.67533.6355621 13.02022.426108 4.408275 0 8.83515-.248563 13.262024-.3728445 2.157637 0 4.296673-.1242815 6.45431-.1597905 1.594693.1841249 3.178145-.4177788 4.203671-1.597905 1.041617-1.3315875 1.860031-2.911738 2.771446-4.332098.911416-1.42036 8.686347-17.7544999 9.746565-19.1215964 1.046859-1.641642 2.767761-2.7882735 4.74308-3.160301 1.562427-.4438625 5.580095 1.313833 6.658913 2.3968575s5.077886 4.1367985 5.152287 5.9832665c-.209852 1.661725-.957603 3.219559-2.139036 4.4563795-1.046788 1.5334677-1.955267 3.1490127-2.715646 4.8292239-.688212 1.526887-1.302022 3.089283-1.860031 4.651679-.260405.71018-1.488026 2.5744025-.725413 3.2490735s3.236455.1242815 4.166471 0c2.436641-.177545 4.854682-.390599 7.272723-.5503895s4.333873-.2663175 6.51011-.3018265c1.712271.1476746 3.437782-.0582063 5.059285-.603653 2.883049-1.278324 4.166471-5.148805 5.580095-7.6166804 5.580094-10.155574 5.840498-12.0553055 9.616362-17.4526735 4.12927-5.8944939 6.212505-9.9780289 11.680998-15.5884509 1.302022-1.3315875 5.468492-.7989525 7.440125-.5148805 1.864827.1589139 3.598335.983084 4.854682 2.308085l3.422458 3.8882355c1.200717 1.1070493 2.073424 2.4974625 2.529643 4.0302715.204603 1.06527-.558009 1.952995-1.023017 2.84072-4.12927 8.1670699-7.960935 16.9910564-11.513595 25.3711803-.502208 1.171797-.130202 1.77545 1.17182 1.77545 2.007282.1065727 4.019219.1065727 6.026502 0 3.087652 0 6.212505-.0532635 9.262956.0177545zm-157.619064 53.1392184c-4.536462-.200913-9.024836.960187-12.834217 3.320091-1.000475.602663-1.963137 1.260705-2.883049 1.97075-.887912.532357-1.705935 1.16417-2.436641 1.881977-2.827248 2.698684-5.617295 5.444713-8.370141 8.238088-.614567.711855-1.174054 1.465452-1.674029 2.254821 1.068897.173269 2.152452.250543 3.236455.230809 8.11341-.763294 16.093769-2.499146 23.752602-5.16656 4.881269-1.561221 9.561262-3.645905 13.950235-6.214075 2.287839-1.384851 2.157637-2.965001-.167402-4.154553-3.942561-1.707668-8.247372-2.516107-12.573813-2.361348z"/></g><path d="m1097.37243 42.2614902c-.66966-2.1562644-1.48813-4.276888-2.30659-6.3975117-1.37652-3.5640734-5.05962-4.6332954-9.39378-3.3680493-5.89334 1.948419-11.11711 5.4058915-15.10445 9.9972258-4.2594 4.6604403-8.25218 9.5384861-11.96078 14.6127008-6.82677 9.0527463-13.48612 18.2124149-20.14546 27.3720834-3.72031 5.1144453-7.27321 10.3001721-10.8633 15.5037192-5.35724 7.7340396-10.75169 15.4502576-15.97872 23.2912196-4.25975 6.397512-8.20328 13.008868-12.425825 19.44202-4.501571 6.860841-9.021744 13.703862-13.802339 20.3865-3.831916 5.34611-8.017261 10.514016-12.165404 15.664102-1.241505 1.285378-2.584812 2.476948-4.017931 3.564074-.96728.873197-.874272 1.603833.204617 2.423569 1.502779 1.106016 3.472261 1.444838 5.282836.908839 6.606841-1.234981 12.999965-3.352513 18.992167-6.290589 4.764642-2.711958 9.036829-6.148688 12.649039-10.17543 3.92493-4.169966 8.01727-8.197369 11.84918-12.474257 4.65908-5.431402 8.91086-11.172035 12.72345-17.178833 2.92664-4.395691 5.79128-8.827022 8.59391-13.293994 17.39244-27.4433648 33.98501-57.1855571 57.01371-81.0292079.82067-.7663809 1.14755-1.8964486.85567-2.9581809z"/><path d="m1194.67421 62.0558001c-1.03187-5.4435769-2.94736-10.6981999-5.67664-15.5723005-3.36471-5.3448568-7.58399-10.1492964-12.50344-14.2375318-9.5952-8.5537871-20.62751-15.4913159-32.63139-20.5198427-9.45605-3.65018807-19.30511-6.28244242-29.36639-7.8484394-12.04379-2.04311826-24.26021-3.00238706-36.49002-2.86530328-12.47247.08404731-24.90374 1.38396912-37.1022 3.87972742-11.48313 2.1712236-22.85495 4.92974539-34.20823 7.65267336-12.393195 2.8854828-24.522078 6.7303523-36.267399 11.4968069-15.573457 6.1726166-30.326282 14.100479-43.947557 23.6165059-5.676637 4.0576966-11.687193 7.723861-16.547582 12.7781848-3.3763 3.559383-4.359508 10.0730538-4.359508 12.4578404-.019617.5952464.017641 1.1909655.111306 1.7796914.704942 3.559383 1.372782 5.9263727 2.151928 9.4679587.519431 2.4025835 2.782665 4.5560102 4.674877 4.4670256 2.570966.0590307 5.118115-.4846694 7.42044-1.5839254 2.652808-1.4949409 5.231411-3.1144601 7.735809-4.805167 1.790382-1.408377 2.484829-3.7330401 1.743804-5.837388-.707004-1.3081247-1.070008-2.7622064-1.057413-4.2356658 0-3.3992107.649289-7.8662363 2.448745-9.3611771 6.158966-5.0543238 7.420441-6.5314677 14.599717-10.4111952 7.179276-3.8797274 15.267555-7.2255474 22.706547-11.2120563 1.722889-.8839167 3.508158-1.6510587 5.342717-2.295802 3.71022-1.3881593 7.42044-2.7941156 11.13066-4.0398996 6.121863-1.9932545 12.243727-4.0221028 18.439799-5.7484035 5.82504-1.6195192 11.74284-2.8831002 17.64209-4.2534626 4.25663-1.2031299 8.59583-2.1189429 12.98577-2.7407249 4.45227-.3915321 8.64482-1.6373162 12.98577-2.3135989 6.38158-.9788303 12.72606-2.1890205 19.12619-2.9720848 6.01055-.7296735 12.05821-1.245784 18.08732-1.4415501 6.84536-.2313599 13.70926-.195766 20.55462.1067815 4.48937.1957661 8.94163 1.0856118 13.41245 1.6195193 5.00931.4798487 9.97156 1.3367402 14.84088 2.5627557 8.18103 2.2780051 16.36207 4.4848225 23.597 9.0586296 8.51576 5.3458409 16.3755 11.596512 23.43004 18.6333698 4.19255 4.2178688 4.82328 11.1942593 4.67487 14.7714392-.22261 5.3390744-2.5415 10.1264445-5.00879 14.7892362-2.4848 4.9976703-5.59996 9.6836721-9.27555 13.9527812-5.48104 5.9020214-11.38207 11.4323288-17.66065 16.5511308-1.85511 1.583925-6.08476 4.342447-6.40013 4.573807s-.8719.587298-1.07596.74747c-.20407.160173-1.20583.836455-1.50264 1.085612-.98321.836455-1.74381.978831-2.78267 1.779692-2.25087 1.67291-4.56975 3.24497-6.95666 4.716182-2.02207 1.245784-3.32065 2.455974-5.30562 3.755149-.77914.498314-2.44874 1.477144-2.67136 1.67291-.679.536457-1.39825 1.024224-2.15192 1.459347l-17.28963 9.645928c-8.73757 4.769573-17.38238 9.663725-26.2127 14.237532-10.51848 5.499246-21.18536 10.767133-31.79659 16.124005-.64929.320344-1.31713.587298-1.85511.907642-6.19607 3.061069-12.57765 5.445856-18.82937 8.435738-4.29736 1.95608-8.7217 3.644355-13.24548 5.054324-2.09628.74747-6.90101 2.705131-7.77291 3.025475-2.26324.818658-9.70223 3.417008-10.351519 3.559383-1.68815.551704-6.029107 1.779691-15.082045 4.306853-6.307374 1.779692-27.937957 5.339075-34.542149 7.243345-6.989212 1.832506-13.858994 4.061032-20.573171 6.673843.853351 1.067815 6.363028 1.975457 20.276353 1.21019 7.791463-.427126 29.681761-3.559383 38.029757-5.036527 9.980492-1.779691 21.426524-4.289056 27.826654-5.783997 4.04414-.640689 9.01583-2.633944 14.21014-4.022103 4.2482-.996627 8.4593-2.36699 12.81881-3.399211 1.39133-.338141 4.80474-1.601722 6.19607-1.939863 2.35599-.551705 7.32768-2.562756 9.57237-3.399211 6.21461-2.295802 8.12538-3.559383 14.22869-6.086545 3.98849-1.655113 7.16072-4.09329 11.13066-5.855185 2.5044-1.121206 5.15721-1.922067 7.56885-3.167851 5.56533-2.829709 10.94515-5.837388 16.38062-8.791676 4.00704-2.171223 8.00789-4.372108 12.00256-6.602655 2.72702-1.548332 5.43548-3.11446 8.10683-4.769573 3.52471-2.189021 7.03087-4.413635 10.48138-6.727234 6.49288-4.342447 12.96103-8.738285 19.40445-13.187514 2.31889-1.601722 4.58212-3.310226 6.73405-5.125511 1.55829-1.281378 2.85687-2.847507 4.35951-4.200072 5.06335-4.373682 9.74749-9.135225 14.00608-14.237532.37102-.480517 1.29857-1.263581 1.85511-2.046645 2.5415-3.221242 2.26323-2.740725 3.95138-5.1433085.41889-.6198314.87736-1.214198 1.37278-1.7796915 3.22789-3.6661644 4.45227-7.6704703 5.93636-12.0841051 2.18902-7.0297814 4.06269-14.4510948 2.20758-22.1749558z"/><path d="m452.133067 29.1481586c7.652021.3732799 14.263962.4799313 20.820184 1.0842894 9.968419.6995534 19.820429 2.4887194 29.363702 5.3325708 4.719979 1.4508037 9.067597 3.837116 12.75956 7.0034431.485248.365422.905479.8036219 1.244382 1.2975922.344791.5551458.371681 1.23981.071406 1.8181607-.300275.5783508-.886683.9713586-1.557236 1.0436524-1.745298.0930874-3.495998-.0023156-5.218975-.2844038-5.144684-.9243123-10.215077-2.2041293-15.359761-2.9684645-3.714573-.5510323-7.429147-.6754589-11.032283-.8887618-3.603136-.2133028-6.946252-.3910552-10.419378-.5332571-2.247317 0-4.476061-.2488533-6.704805-.1777523-9.843619.302179-19.724384.0888762-29.475139 1.9197255-1.446706.1628497-2.674695 1.0906802-3.175961 2.3996569-.482894 1.208716-1.17009 2.3285559-1.522975 3.5550472-2.264869 6.7275518-5.168147 13.2426697-8.673529 19.4638837-18.777168 37.025817-36.774276 74.869295-47.657976 114.810251-.222874.764335-.482894 1.510895-.668623 2.293005-.037934.378336-.037934.759279 0 1.137615.345825-.149649.670359-.340785.965789-.568807.965789-1.030964 1.857287-2.115253 2.78593-3.163992 5.757589-6.576838 11.515178-13.1596 17.272766-19.748288 4.290333-4.92374 8.432082-9.971907 12.796706-14.824547 6.314774-7.015293 12.722413-13.96541 19.222917-20.850352 4.996101-5.332571 10.066493-10.451839 15.434052-15.357804 5.367558-4.905965 11.14372-9.580852 16.882736-14.2201889 1.04008-.8532113 1.857286-2.0974779 3.491699-2.2219045 4.884664-.3377295 9.435016 3.7861254 7.429146 8.0521824-3.528844 7.287846-9.119277 25.311936-10.586534 28.333726-.263743.641324-.450665 1.309198-.557186 1.990827.012162.240739.075352.476596.185729.693234.189523-.072685.365227-.174781.52004-.302179 1.430111-1.528671 2.878795-3.057341 4.27176-4.639337 9.101689-10.488584 19.036804-20.288222 29.716586-29.311364 13.316746-11.0917478 30.51522-20.210444 48.103725-22.8767294 3.971775-.6734268 8.050045-.4973917 11.942353.5154818 2.984649.9022242 5.588454 2.6964509 7.429147 5.1192681 1.021508 1.2264913.278593 2.2396797-.482894 3.1817672-.761488.9420876-1.541548.4443809-2.191599 0-4.048885-3.235093-8.74782-2.4707578-13.242454-1.6708722-3.773625.7611202-7.461888 1.8682959-11.01371 3.306194-25.389108 9.5986275-43.107623 26.7695055-60.417535 46.2156145-7.320254 7.951359-13.796855 16.579183-19.334354 25.756317-4.958956 8.478788-10.215077 17.775236-14.858294 26.662854-.958585 1.497518-1.701995 3.111808-2.210171 4.799314-.984362 2.737386-3.714573 4.088304-5.999036 2.381882-2.668532-1.642965-4.900526-3.85822-6.519076-6.470186-2.109892-3.558433-2.377408-7.851813-.724342-11.625005 2.612583-6.434635 5.225167-12.863346 7.83775-19.286131 3.268825-7.987006 6.550031-15.968087 9.843619-23.943243 1.318674-3.199543 2.674493-6.399085 3.993167-9.598628.057528-.365292.057528-.736773 0-1.102064-.265593.132915-.514786.293897-.742915.479931-3.956021 3.732799-7.96776 7.430049-11.830916 11.251724-4.049617 4.055382-7.809813 8.366708-11.255157 12.904822-3.101669 3.999428-6.909107 7.5367-10.215077 11.411702-2.934513 3.412845-5.57186 7.110094-8.413509 10.505164-2.841648 3.39507-5.943317 6.772365-8.933549 10.14966-.528309.46661-1.024616.965352-1.485829 1.49312-4.022754 5.557487-8.363027 10.898184-13.001007 15.997712-3.457588 4.004184-7.179792 7.792149-11.14372 11.340601-1.399301 1.478487-3.209531 2.545108-5.218975 3.075116-6.574795 1.777524-13.001007-.515482-18.108545-4.621561-2.433046-2.737387-5.776162-5.083718-5.014674-9.278674.687196-3.786125 1.448683-7.554475 2.470191-11.269499 2.563056-9.219423 5.237548-18.42107 8.023478-27.604942 1.721086-5.664376 3.621709-11.287275 5.701871-16.868699 3.584563-9.527527 7.187699-19.072829 11.14372-28.440378 3.56599-8.496563 7.596302-16.8331491 11.496604-25.2052853 3.56599-7.6611268 7.113408-15.3222537 10.827981-22.8945043 2.488765-5.0837175 5.274695-10.0252332 7.930614-15.0378498.278593-.5154819.631478-1.0131885.891498-1.5464456.631478-1.3331427.445749-1.6530969-.984362-1.5642208-2.674493.1955276-5.348985.3910552-8.004905.675459-4.606071.4977066-9.286434 1.0665142-13.781068 1.6353218-13.92965 1.7775236-28.565069 3.6794738-42.866176 4.6037861-5.560173.4233482-11.139143.5775968-16.71558.4621562-4.723307-.0581176-9.425662-.6124725-14.022514-1.653097-4.362828-.9037743-8.224494-3.3149192-10.846555-6.772365-2.945396-3.6164887-4.933459-7.8609374-5.794734-12.3715644-.705769-4.5682357 1.058653-8.3010353 3.510272-11.9271835.148583-.2133028.612904-.4799314.705769-.4088304.332049.1843671.577894.4832452.687196.8354361.39003 3.4128453 1.04008 6.8612412 1.355819 10.2740865.092864.8887618.222875 1.653097.408603 2.6129597.37095 1.4770697 1.06052 2.8635831 2.024443 4.0705291.178522.2487938.430808.4407166.724341.5510323 2.462056 1.0782263 5.0588 1.8488847 7.726313 2.2930055 6.033683.7701413 12.137694.9012853 18.201409.3910552 6.444785-.5865828 13.001007-.8354361 19.3715-1.5464455 8.060625-.8709866 16.084103-2.0441522 24.144727-3.1284416 5.57186-.7465599 11.14372-1.5997713 16.808445-2.328556 7.039116-.8887618 14.05966-2.0441521 21.135922-2.4529826 3.562597.0046066 6.803175-1.9728013 8.302071-5.0659423 4.253187-7.1100945 9.416444-17.2242039 15.434053-23.10780705.854351-.85321134 1.764422-1.65309697 2.693065-2.41743213 3.343116-2.79071208 3.714574-2.91513873 6.983398-.31995425 2.507337 2.0086017 6.760524 5.51032323 9.082132 7.71445252.597728.55056361.916241 1.32237741.872925 2.11525311-.392994 2.0834746-1.015565 4.1212286-1.857287 6.0791308-1.021508 2.2219045-3.714573 7.1100945-4.847518 9.2431228-.947216 1.7775236-.092865 2.1152531 1.04008 2.0441522 3.844584.1244266 7.856323.0888762 10.605107.0888762z"/><path d="m145.186956 6.03659889c8.663977-.21295128 17.326603.47162738 25.83658 2.04177919 13.143731 2.12280372 25.642771 6.97071522 36.620382 14.20368132 4.537096 3.1123705 8.406125 7.0303499 11.396308 11.5404912 3.712152 5.5394357 7.424304 11.2031536 8.389464 17.9143931.928038 6.0365646 1.986001 12.1263929 1.020842 18.1629575-.733855 3.6725508-2.048179 7.2167646-3.89776 10.5107242-3.712152 7.1018407-9.781521 12.6057672-15.442554 18.2872398-3.670525 3.5641878-7.589661 6.8860108-11.730401 9.9425768-3.91632 2.947264-8.166735 5.503927-12.250102 8.273645-2.728432 1.77546-5.382621 3.817239-8.092492 5.699227-1.410618.958748-2.895479 1.77546-4.324658 2.769718-4.824676 3.298479-9.844436 6.327721-15.034216 9.072601-1.20645.603656-1.466301 2.041779-.556823 3.55092 1.113645 1.864234 2.375777 3.639694 3.712152 5.326381 2.654189 3.55092 5.568228 7.101841 8.018249 10.777043 6.793239 10.137878 12.992533 20.044945 21.029343 29.419375 2.301534 2.716454 4.510265 5.5927 6.978846 8.167117 3.712152 3.870503 7.684155 7.598969 11.674719 11.203154 1.689029 1.526895 3.712152 2.787472 5.568228 4.190086 2.475019 2.037759 5.058405 3.951887 7.739838 5.734736 3.307538 1.940001 6.770695 3.626055 10.356905 5.042307 6.310658 2.592172 11.730401 1.136294 17.855452-.639166.779552-.213055 2.227291-1.331595 3.081086-.940994s.798113 1.77546.668188 2.6987c-.704371 3.611755-2.37318 6.987894-4.844359 9.80054-5.401181 5.024552-12.695561 7.101841-24.12899 7.101841-11.117677-.056309-22.015327-2.968989-31.553294-8.433436-14.700123-7.741007-26.114991-23.542602-37.121523-35.722259-8.932939-9.835981-17.297734-20.131221-25.057028-30.839743-6.477705-9.250148-11.600476-16.866872-15.553918-25.992737-1.856076-2.112798 5.085649-7.101841 7.758399-8.131608 2.190169-.869975 4.3989-2.325852 6.644752-2.965018 4.788677-1.331595 7.981128-2.876245 13.920571-4.722724 4.009125-1.77546 11.470551-5.326381 13.994814-6.888786 6.440584-3.870503 7.05309-4.136822 13.270945-8.309153 6.217855-4.1723315 12.342906-8.5932274 18.170985-13.2626876 8.072772-6.1520007 15.240115-13.3185938 21.307754-21.305522 4.5192-6.0265456 6.039616-13.6490504 4.157611-20.8439024-.40602-1.3196938-.959868-2.5935768-1.651908-3.7994848-1.952621-4.3648453-4.954133-8.2275099-8.760679-11.2741721-3.220388-2.2716663-6.68635-4.2061591-10.338345-5.7702455-9.28038-3.9415216-19.061902-5.2020983-29.01047-6.285129-6.733933-.6589846-13.513707-.7777631-20.268351-.3550921-8.556511.4261105-17.075901 1.5268958-25.59529 2.5033989-26.7059298 3.0337014-52.4213934 11.5096969-75.4123735 24.8564423-7.849965 4.7121986-15.264173 10.058065-22.1615491 15.9791416-4.5473865 3.8527485-9.1504554 9.0903561-15.38687119 10.3331782-1.04883403.2907322-2.14960005-.2671773-2.48714202-1.2605768-.85001813-1.8778118-1.57532869-3.8050555-2.17160909-5.7702455-.5753836-2.0772884-.68674817-4.278859-1.22501025-6.373902-.86275495-2.8670333.16240909-5.949037 2.5985066-7.8120248 8.17491165-6.9252809 17.16282545-12.9191284 26.78317865-17.8611293 7.0345286-3.7107117 14.0319356-7.4746873 21.2520718-10.8125524 10.7331574-4.7803618 21.9708745-8.4469 33.5207351-10.9368347 11.0805872-2.6498347 22.317765-4.6597339 33.65066-6.01880994 7.55423-.85222088 15.182703-1.18955832 22.774055-1.77546017 1.429178-.08877301 2.876918 0 4.306096 0z"/><path d="m38.5358122 221.199632c-6.0173849 1.33047-10.8611003 3.689837-16.5431511 4.488119-.4843715 0-.9687431.159656-1.4531146.195135-.4843716.035479-1.0432618 0-1.3227069-.603146-.2474437-.666427-.2926405-1.385767-.1304077-2.075533.5918828-2.120581 1.6810886-4.085739 3.1856743-5.74763 1.2295585-1.77396 2.2728203-3.54792 3.4464898-5.32188 2.1424126-3.210867 4.4711219-6.315297 6.7625719-9.437466 9.4079857-12.807991 18.6296746-24.835439 27.9445119-37.803085 5.439865-7.663507 10.4139881-15.610847 15.3694816-23.558188 4.9554934-7.94734 9.8550979-16.604264 14.9037397-24.835438 5.8869772-9.73904 10.3022099-20.1521841 15.2763329-30.2992346 4.694678-9.6326021 9.054022-19.3893815 13.562403-29.1106816.223612-.4386113.404458-.895847.540261-1.3659491.167667-.8160215 5.961496-15.9656389 10.935619-19.0168499 2.104487-1.2986565 4.907495-.8084159 6.389978 1.1175947 1.243449 1.5709849 2.346459 3.2384281 3.297453 4.9848273.23363.4383689.29317.9423268.167667 1.4191679-.57752 2.3771062-1.229559 4.7364729-1.862968 7.0958395-.521631 2.0932727-.856965 4.2575037-1.564892 6.279818-2.924859 8.3730906-5.793829 16.7816604-9.035392 25.0483135-3.241564 8.266653-7.060647 16.9058376-10.637545 25.3498863-1.11778 2.643201-2.198301 5.32188-3.40923 7.894122-.782446 1.77396-1.862968 3.281826-2.608155 4.984827-1.862967 4.310723-3.576897 8.781101-5.775199 12.967647-3.465119 6.581391-7.2842025 13.003126-10.9728781 19.513558-2.4963764 4.381681-5.2535682 8.639185-7.4518698 13.145043-2.9939328 5.912879-6.3724703 11.642078-10.1159133 17.154192-3.725935 5.534755-7.5636479 9.632602-11.4758796 15.04318-3.1856744 4.4349-3.3533414 4.612296-11.792584 14.351335-5.2163089 5.694412-5.1417902 5.038046-15.630297 8.142476z"/><path d="m287.294927 149.359526c1.390507-6.610686 25.696556-13.773746 29.793914-14.807223l2.391671-.623649c1.029249-.198128 1.76321-1.076122 1.742768-2.084772.908464-7.127423 1.854008-14.254847 2.929333-21.382271.537662-3.385526 1.612987-6.699778 2.410211-10.067486.018599-.337376-.025345-.6752437-.129781-.997839-.257816.131505-.505634.2803641-.741603.445464-27.606184 25.23108-49.557643 55.52263-77.256527 80.664617-4.50524 4.098269-9.084641 9.604204-15.684911 10.156579-.723063 0-1.854008 0-2.929333.12473-1.815495.422605-3.713482-.280073-4.764801-1.764037-1.983789-2.369869-3.837797-4.864467-5.803046-7.252154-3.411376-4.116087-4.597941-8.53509-2.280431-13.542105 1.149486-2.47678 2.22481-5.007015 3.429916-7.465976 1.650067-3.385526 3.300135-6.771053 5.154143-10.067486 1.854008-3.296434 4.041738-6.610686 6.099687-9.907119 2.336051-3.777535 4.727722-7.519432 7.008152-11.332604 1.056785-1.781856 1.854008-3.688441 2.799552-5.523753 1.260726-2.47678 2.577072-4.900104 3.856338-7.359065.118179-.266409.21729-.540264.296641-.819654-.370802 0-.815764 0-1.093865.142549-2.16919 1.300755-4.282759 2.726239-6.470489 3.991357-4.4895 2.928508-8.821115 6.074578-12.978058 9.426018-2.639804 1.848155-5.415755 3.509649-8.305957 4.971378-1.312719.557383-2.73672.831099-4.171519.801835-1.606498.227247-3.127443-.762724-3.504076-2.280776-.48538-1.346193-.031684-2.840164 1.130945-3.724078.636033-.645166 1.324162-1.240975 2.057949-1.781856 8.157637-5.523754 16.278193-11.100963 24.528531-16.499986 4.629805-2.960209 9.682099-5.259001 14.998927-6.824508 2.303327-.789103 4.873576-.071015 6.377789 1.781856 2.535133 2.875014 4.394431 6.24224 5.450784 9.871481.53255 2.245629.083553 4.602904-1.242186 6.521593-1.724227 3.029155-3.708016 5.93358-5.283923 9.03401-2.632692 5.220837-4.931662 10.602042-7.527274 15.840699-1.483207 3.011336-3.281595 5.862306-4.857502 8.909279-1.575907 3.046974-3.077654 5.987036-4.54232 9.016191-1.001165 2.031316-1.854009 4.116087-2.873713 6.200859-.059654.251423-.090736.508327-.092701.766198.28616-.031616.563209-.116338.815764-.24946 2.26189-2.013497 4.54232-4.009176 6.74859-6.05831 8.652039-7.923319 17.242278-15.864457 25.770716-23.823414 13.181999-12.205713 26.215678-24.589611 39.601618-36.581502 5.932827-5.3455675 12.514556-9.9427557 18.966505-14.700311 2.691337-1.9712701 5.180811-4.1848644 7.434574-6.6106855 8.250337-8.9092796 16.259653-9.1231023 23.675686-10.833684 1.034044-.1269345 2.08069-.1269345 3.114734 0 3.708017.9800208 4.56086 1.9244044 5.339544 3.9022645.352262 2.0134972.0927 2.6015096-1.483207 3.5637118-.444962.2494599-.444962.2494599-1.612987.8018352-2.28043.6592867-8.713839 1.5858518-10.586387 2.2985941-8.046397 3.0647922-12.588717 9.1231023-15.777611 16.4643489-3.967578 9.176558-3.318675 18.495664-5.562025 27.903863-.444962 1.888768-.092701 2.031316 1.854008 1.781856 4.264219-.659286 8.491358-1.496759 12.774117-2.031315 3.244515-.409827 6.52611-.481101 9.807704-.677106.259562 0 .982625.178186 1.056785.677106-.280677.193595-.604408.321708-.945544.374189-4.709181 1.372029-9.436902 2.672784-14.127544 4.08045-3.040573.908747-6.006987 1.995679-9.04756 2.886607-2.16919.62365-2.632692 1.995679-2.836633 3.991357-.376125 4.411738-.994994 8.801245-1.854008 13.150097-.536965 2.286807-1.464145 4.472402-2.743933 6.468137-2.632691 4.276454-6.118227 7.66198-11.624632 8.196537-1.116684.157252-2.255631.078196-3.337215-.231641-5.168959-1.616933-10.033149-4.02357-14.405645-7.127424-2.984953-2.262957-7.749754-4.846648-10.178505-7.572887-.669363-.701682-.95157-1.667507-.760144-2.60151zm24.213349 2.458961c1.112376-.257561 2.119447-.828361 2.892253-1.639307 2.984954-2.156046 3.856337-5.505935 5.117063-8.606364.114268-.37113.182718-.753889.203941-1.140388-.454244-.072123-.917723-.072123-1.371966 0-4.394 1.621489-8.82508 3.189522-13.163459 4.953559-1.283294.621872-2.443972 1.453981-3.429916 2.458961-.852844.801836-.537662 1.639308.648903 1.924405 2.892253.748379 8.361578 2.066953 9.103181 2.049134z" fill-rule="nonzero"/><path d="m1606.26986 112.27548c-.08931-.955993-.00608-1.919123.24627-2.849657.45202-1.61662 1.00228-3.208174 1.64813-4.767018.77522-1.633846 1.78874-3.160933 3.01209-4.538341 2.10278-2.6561615 9.98348-2.9024281 12.48408-.5628954 1.8944 1.8645904 3.94035 3.7467704 5.94841 5.5761794.79565.7388.73882 1.301695.28416 2.269171-1.55855 3.195392-3.69903 6.117202-6.32729 8.636921-3.90246 3.957857-7.57759 2.849657-13.14712 2.462666-3.35309-.228676-4.14873-3.570865-4.14873-6.227026z"/><path d="m268.33533 69.0153327c7.131606 2.361179 6.913292 4.5961881 9.096436 9.0121334 1.691937 3.4967078-1.928444 8.5435025-4.238939 10.9587542-3.638575 3.8211445-10.00608 4.3438483-12.553082-.7389949-3.42026-6.8492214-2.037602-14.4194134 5.676176-18.8353588.595809-.3865139 1.31984-.5286856 2.019409-.3965339z"/><path d="m692.703633 151.801337c.346963-7.180165 2.60293-14.155186 6.552717-20.259755 6.274272-9.719689 13.291063-18.833012 22.869538-25.841888 10.40465-7.5688559 21.298182-14.4965041 32.61508-20.7412807 8.167692-4.5655785 20.771926-9.55918 29.218063-2.4076293.610386.5123307 1.181157 1.0666576 1.70779 1.6585891.90618 1.185028.796628 2.8239443-.259881 3.8878755-1.188028.9095488-2.02336-.2140115-3.025759-.5171944-5.036984-1.1623443-10.345518-.4419467-14.850349 2.0152749-4.510794 2.4432978-9.281469 4.6012471-13.569507 7.2763908-9.485661 5.8318131-19.602462 11.0929291-27.213266 19.2432001-8.127985 8.910676-14.794422 18.959836-19.769527 29.801101-1.633539 3.459852-5.903014 18.012634 2.487433 16.550222 2.273065-.347481 4.496775-.945919 6.626969-1.783429 2.640771-1.107985 5.180382-2.426379 7.592241-3.941379 12.245689-7.359421 23.515499-16.120784 33.561789-26.091568 3.83579-3.854149 7.302499-8.03236 10.358119-12.484003 2.765878-4.191059 7.573678-10.504398 6.274273-15.801182-.352696-1.408909-1.856294-2.9069899-1.336532-4.440739.309745-1.1796836 1.492536-1.9474963 2.747315-1.7834291 8.354582-.2190201 16.689929-.8858707 24.96715-1.9974406 14.089269-1.4624119 61.554699-2.4968008 78.873919-1.9796063 1.429346 0 2.877255.1070057 4.306601.2853486 2.087819.4857876 3.69865 2.0819688 4.139535 4.101887 0 .8382117-2.598811 1.3375719-3.898217 1.3732404-5.187948.2584848-10.386355.2584848-15.574304 0-9.281468-.6420344-54.018146 1.8904349-63.113985 2.853487-3.322154.354116-6.619698.896029-9.875482 1.62292-1.501849.321608-2.921796.927924-4.176661 1.783429 1.755448 1.299208 3.051748 3.086382 3.712587 5.118442 3.805402 7.971928-.31557 16.050862-4.603608 23.006235-5.249716 8.777245-11.93771 16.684128-19.806654 23.416425-9.006149 7.371534-18.54684 14.118042-28.549797 20.188417-5.163429 3.045194-10.742381 5.386051-16.576702 6.955374-10.859318 3.138835-20.994682-.891715-27.268954-10.878918-1.627234-2.454646-2.924572-5.097284-3.861091-7.864922-.389318-1.513252-.668438-3.050723-.835332-4.601247-.403211-2.55467-.552387-5.140415-.445511-7.722248z"/><path d="m704.494526 143.101856.339839-.339838"/></g></svg>