<svg enable-background="new 0 0 2400 400" viewBox="0 0 2400 400" xmlns="http://www.w3.org/2000/svg"><path d="m1097.5 259.9c30.5-21.4 57.1-44.8 85-68.6 2.7-2.3 6.2-3.4 9.7-3h.4c4 .5 6.3 4.8 4.4 8.4-15.5 29.4-30.8 58.4-46.3 88-1.6 3-5.2 4.2-8.3 2.8-6-2.8-7.9-6.1-6-12.3 2.1-6.5 4.7-12.9 7.8-19.1 5.5-10.9 11.4-21.6 15.8-33.5-7 6.3-14.1 12.6-21.1 19-10.6 9.7-20.2 20.8-33.1 27.7-2.4 1.3-4.9 2.7-7.5 3.3-12 2.8-26.6-5.8-22.5-21.8 4.6-18.1 11.6-35.3 20.7-51.6 1.7-3 3.4-6 4.5-9.4-12.5 8.9-20.2 22.1-29.5 33.8-9.5 11.8-18.9 23.7-27.5 36.1-7.3 10.5-14 21.4-20.8 32.2-4 6.3-13.8 3.5-13.8-4 0-.2 0-.4 0-.6.2-6.2 1-12.3 1.8-18.4.5-3.7 1.4-7.3 2.3-11.9-1.9.7-6 4.3-6.9 4.9-12.9 8.4-25.3 13.8-39.2 22.6-19.6 12.5-43.5 23.3-66 28.9-36.1 9-72.1-4.3-84.2-41.1-12.9-39.3 14-83 36.6-113.7 23.7-32.3 54.6-59.4 89.9-78.3 24.7-13.2 50.5-21.7 78.5-24.2 15.2-1.3 30.2 1.7 43.1 10.9 5.6 3.9 7 8.6 5.3 15.3-2.1 8.2-7.3 13-14 17.1-3.3 1.9-7.2-1.2-6-4.8l.9-2.7c1.9-5.8-1.9-11.9-7.9-12.8-19.2-2.9-37 3.1-54.6 9.7-36.6 13.8-68.2 39.1-91.9 70-25.3 33-36.6 69.5-47.8 108.8-.7 2.6-.6 5.5-.5 8.2.1 5.8 2.9 10 8.7 11.2 5.7 1.2 11.5 2.2 17.3 2.3 28.2.4 55.3-6 81.5-16 18.6-7.1 36.7-15.4 55-23.3 3.8-1.6 7.1-3.7 8.5-8.2 9.6-30 26-56.8 40.9-84.3 17.5-32.5 38.4-62.8 59-93.3 5.3-7.9 9.7-8.7 17.7-2.8 1 .7 1.9 1.6 2.9 2.5 3.3 3.2 4.3 8.1 2.7 12.5-2.4 6.2-6 11.8-9.5 17.3-9.4 14.4-20.1 27.9-29 42.6-17.2 28.2-33.6 56.8-50 85.4-3.8 6.6-6.2 14-9.6 20.7-.3.7.5 1.2 1 .7 3.4-3.9 6.9-7.7 10.3-11.7 13.7-15.9 27.3-31.9 41-47.8 2.7-3.1 5.8-5.9 8.8-8.7 7.2-6.6 14.5-7.5 22.3-2.7 3.4 2.1 3.1 5.1 1.5 8.1-3.8 7.3-7.5 14.7-11.8 21.8-9.5 15.4-15.6 32.1-19.4 49.7-.7 2-.7 4-1.1 8.1z"/><path d="m1397.1 204.3c12.6-12.4 23.4-23.5 34.7-33.9 7.4-6.8 16-11.8 26.8-11.3 9.2.4 11.8 4.5 7.7 12.5-1.5 2.9-2.7 6.9-5.3 9.2-3.6 3.3-8.4 2-9.2-3.5-.3-2.2.4-4.5 1.2-7.5.3-1.1-.8-2.1-1.9-1.7-1.7.7-3.1 1.2-4 2.2-8.9 8.6-18.3 16.8-26.2 26.2-16.2 19.2-28.8 41-41.9 62.4-5 8.2-10.3 16.2-15.7 24.4-2.3 3.6-6.9 5-10.8 3.3-5-2.1-9.5-4.3-11.9-10.4-2.2-5.5-2.9-10.8-1.3-16 3.2-10.5 7.1-20.8 10.7-31.2 1.4-4.1 3-8.2 2.9-13.2-7.6 9.1-15.1 18.4-22.9 27.3-8 9.2-15.9 18.4-24.1 27.4-7.2 7.9-13.9 15.3-24.2 19.1-1 .4-2 .7-3.1.6-2.2-.2-3.8-2.3-4.6-4.4-3.3-9.2-3.7-19.7.7-28.5 5.2-10.3 10.2-20.7 14.5-32-2 1.5-4.2 2.8-5.9 4.5-8.2 7.9-16.3 15.8-24.2 23.9-9.8 9.9-21.2 17.5-33.7 23.4-12.7 6.1-26.3-3.2-25.9-17.1.4-15.9 6.5-29.1 17.8-40.4 22.4-22.4 47-41.2 78-50 6.9-2 13.8-3 21.2-1.2 2.2.5 2.7 3.5.8 4.7-8 4.9-17.9 4.8-25.4 10.3-12.4 9-20.1 14.8-28.8 23.9-13.9 14.5-24.1 31.2-34.8 48.1-.4.7-.3 1.6.2 2.2.6.6 1.5.7 2.2.3 3.4-2.1 7.1-4 10.1-6.7 18.2-16.2 36.3-32.7 54.4-49.1 5.9-5.3 11.8-10.5 17.4-16.2 1.9-2 3.9-3.1 5.9-3.5 4-.8 7.1 3.6 5.1 7.2-13.9 25.3-27.7 51.8-37.1 79.2-.5 1.3 1.1 2.6 2.3 1.8 6.6-4.2 12.3-13.4 17.1-18.7 7-7.8 14.1-15.6 21.1-23.4 14-15.6 28-31.3 41.8-47.2 6.7-7.7 11.4-17.2 17-25.8 2.4-3.7 4.8-7.6 7.5-11.1 4.8-6.4 11.1-8.3 18.9-6.1 7.6 2.1 9.5 5.7 6.5 12.9-6.4 15.5-12.9 31-19.3 46.5-.6 1.7-1.1 3.3-2.3 6.6z"/><path d="m1684.1 166.1c1.1 1.4-.4 3.3-2 2.5-3.1-1.5-6.3-3.1-6.7-3.3-5-2.3-10.3-3.9-15.7-5-11.1-2.3-22.5-2.6-33.8-3.3-27.3-1.8-51.1 2-77.5 9-6 1.6-10.6 3.5-17.1 6.8-1.3.6-1.5 2.3-.5 3.3 2 1.9 3.6 3.6 5.8 5.5 5.1 4.3 7.1 9.2 6.6 16.2-2.7 34.9-29.4 64.9-57.9 82.8-4 2.5-8.5 4.4-13 6.1-12 4.9-22.5 1-31.2-7.2-8.8-8.2-10.4-18.8-7.4-30.4 5.5-21.8 21-42.7 36.2-58.9 11.2-11.9 27.3-17.9 42.4-23.3 17-6.1 34.7-10.4 52.4-14.1 27.2-5.6 54.6-5.9 82-1.9 11.2 1.6 22.3 4.2 32.2 10 1.7 1.1 3.6 3.1 5.2 5.2zm-223 102.8c-.2 2.1 2 3.6 3.8 2.6 25.4-14.9 43-36.8 56.2-62.7 4.7-9.2 6.7-18.5 1.7-27.8-.7-1.3-2.3-2-3.7-1.7-9.5 2.3-15.3 9.3-21 17.2-11.5 15.9-21.9 32.3-30.7 49.9-3.5 7.1-5.5 14.1-6.3 22.5z"/><path d="m1177.8 152.4c-4.1-.2-5.9-5.4-2.7-8h.1c8.1-6.2 16.4-12.2 24.8-18 3.9-2.8 8.4-2.6 11 1.4 2.5 3.9 6.8 12.1 2.1 15.8-4.3 3.4-12 4.6-17 6.8-6 2.6-11.9 2.3-18.3 2z"/></svg>