<?xml version="1.0" encoding="utf-8"?>
<!-- Generator: Adobe Illustrator 27.5.0, SVG Export Plug-In . SVG Version: 6.00 Build 0)  -->
<svg version="1.1" id="Layer_1" xmlns="http://www.w3.org/2000/svg" xmlns:xlink="http://www.w3.org/1999/xlink" x="0px" y="0px"
	 viewBox="0 0 32 32" style="enable-background:new 0 0 32 32;" xml:space="preserve">
<path d="M24,19h-1.81l0.69-5H24c2.17,0,2.5,1.57,2.5,2.5S26.17,19,24,19z M24,13h-0.98l0.28-2h-1.01l-2.1,15.14
	C20.12,26.63,19.69,27,19.19,27h-8.89c-0.5,0-0.92-0.37-0.99-0.86L7.21,11H6.2l2.12,15.27C8.46,27.26,9.31,28,10.31,28h8.89
	c0.99,0,1.84-0.74,1.98-1.73L22.05,20H24c2.58,0,3.5-1.81,3.5-3.5S26.58,13,24,13z"/>
<polygon points="20.31,18 21.28,11 8.22,11 9.19,18 "/>
<path d="M23.5,10V9.5c0-1.61-0.98-2.5-2.75-2.5c-0.71,0-1.28,0.15-1.72,0.42C18.3,5.92,16.77,5,14.75,5c-2.02,0-3.55,0.92-4.28,2.42
	C10.03,7.15,9.46,7,8.75,7C6.98,7,6,7.89,6,9.5V10H23.5z"/>
</svg>
