<svg height="400" viewBox="0 0 2400 400" width="2400" xmlns="http://www.w3.org/2000/svg"><g fill-rule="evenodd" transform="translate(819 70)"><path d="m337.073465 90.4057018c.287291-.0181047.575359.0198823.848136.1118421 2.307308.59976 4.0053 2.5609777 4.26864 4.9303728.309658 1.3904662-.033674 2.8461941-.932017 3.9517544-1.212326 1.3330779-2.51729 2.5788679-3.905154 3.7280699-1.491228 1.463268-2.926535 2.982456-4.352522 4.510965-2.721491 2.945176-5.396381 5.936952-8.322916 8.677083-5.857335 5.297771-11.33553 11.000202-16.394189 17.065242-2.469847 3.084978-4.809211 6.281798-6.971491 9.59046-2.192421 3.512046-4.108818 7.189034-5.731908 10.997807-1.688605 3.673352-3.099894 7.467943-4.22204 11.351974-.521929 1.864035-.932017 3.72807-1.304824 5.638706-.149123.866776-.288926 1.733553-.400768 2.609649-.111842.876097-.456688 2.09704.279606 2.851974 1.155701 1.183662 3.299342-.149123 4.473684-.689693 1.771487-.850723 3.47033-1.845091 5.079495-2.973136 3.212283-2.208718 6.196993-4.731361 8.910088-7.530702 5.936952-6.039474 10.718202-12.927083 15.732456-19.721491 2.640717-3.572734 5.27522-7.148575 7.903509-10.727522 2.525768-3.439145 5.191338-6.813048 7.45614-10.429276 2.059759-3.299342 3.662829-6.859649 3.728071-10.820724.143202-1.728235-.148367-3.464832-.848136-5.051535-.400768-.699013-.820176-.932018-.615132-1.798794.241366-.829019.713263-1.572418 1.360746-2.14364 5.955592-5.8530705 13.048245-10.5504389 19.833333-15.3969301 6.36568-4.5575658 12.722039-9.1430921 19.385965-13.2532895 6.800352-4.342869 14.097434-7.853729 21.734649-10.4572368 9.851425-3.1875 35.994518-11.2308114 38.044956 5.9649123 1.137062 9.5158991-2.264803 20.0942982-5.415022 28.9671051-2.441886 6.859649-6.841009 12.489035-9.991228 18.966557-.304647.506944-.522032 1.061433-.643092 1.640351-.065241.801535.932018 1.761513 1.686952 1.985197.932017.298246 1.398026-.298245 2.003837-.932017.605812-.633772 1.192983-1.220943 1.780154-1.864035 1.491228-1.59375 2.963816-3.215461 4.455044-4.818531 5.590398-6.129994 11.570864-11.892536 17.904057-17.2516447 2.796052-2.3580044 5.759868-4.6600877 8.705044-6.8596491 1.704403-1.2423918 3.531331-2.3073191 5.452302-3.1781798 1.966557-.9320176 4.343202-1.9199562 6.570724-1.6403509.816041.0616637 1.570894.4559392 2.087719 1.0904605.352327.5220436.663921 1.0704492.932018 1.6403509 2.65625 4.939693 1.08114 9.2269737-.596491 14.3717101-1.276864 3.914474-3.057018 7.540022-4.613487 11.342654-1.597537 3.70581-2.927514 7.521316-3.979715 11.417215-.205044.820175-.065241 1.686952.932017 1.705592.633772 0 1.155702-.54057 1.59375-.932018 1.553439-1.387122 2.987578-2.902321 4.287281-4.529605 10.913926-13.048245 23.067434-24.8848683 35.705592-36.2275218 3.224781-2.8985746 6.440241-5.8251096 9.786184-8.5745614 2.991777-2.4512061 6.468202-4.1567982 8.602522-7.5213816 1.686952-2.65625 2.917215-3.0942982 5.992873-2.7308114 2.584501.2432358 5.124085.8358053 7.549342 1.7615132 2.298471.7919393 4.201915 2.4415904 5.3125 4.6041666 1.770834 3.9890351 1.276864 7.2044957-.223684 11.1376097-5.377741 14.1480263-10.979167 28.4078947-15.909539 42.7143637-.745614 2.180921-1.453948 4.361842-2.264803 6.524123-.85101 2.034118-1.542782 4.131248-2.069079 6.272478-.211065.652895-.04637 1.368958.428728 1.864035.792215 1.090461 1.752193 2.563049 3.290022 1.864035 1.537829-.699013 3.066338-2.1716 4.464364-3.22478l5.200658-3.914474c6.691886-5.014254 13.421053-9.953947 20.504386-14.436952 7.083333-4.483004 14.632675-8.611842 22.126096-12.619517 3.728071-1.994518 7.456141-3.877193 11.379935-5.508224 2.7118-1.228276 5.483357-2.320101 8.304276-3.271382 4.712892-1.5688648 9.561694-2.6952595 14.483553-3.3645829 1.645999-.1492769 3.304653-.0740261 4.930372.2236842 1.714913.2702851 3.588268.9320176 5.331141.7735746 2.255482-.2050439 3.783991-2.1156798 4.837171-3.9331141 1.094742-2.0996128 2.077836-4.2555757 2.945175-6.4588815.432647-.9667158.934118-1.9011337 1.500548-2.7960527.400768-.6430921.848136-1.6683114 1.537829-2.0597587.499427-.2006309 1.057043-.2006309 1.55647 0 .992733.1604162 1.975931.375102 2.945175.6430921.740789.3247707 1.454493.7081136 2.13432 1.1463815 1.230263.6990132 2.460527 1.4259869 3.662829 2.1809211 2.162281 1.3514254 5.209978 2.9172149 5.936952 5.5921053.456689 1.6589912 0 3.6628289-.111842 5.3591008-.158443 2.0504383-.382127 4.0915573-.726974 6.1047153-.810247 3.994689-2.080022 7.882204-3.783991 11.584978-1.658991 3.9269-3.277595 7.863121-4.855811 11.808662-1.578217 3.945541-3.203034 7.95943-4.874452 12.041667-1.526448 3.767709-2.772528 7.643017-3.72807 11.594298-.932018 3.961074-1.864035 7.931469-2.982456 11.855263-1.183663 4.110197-2.358005 8.229715-3.373904 12.386513-.55921 2.302084-1.258224 4.566886-1.864035 6.859649-.605811 2.292764-1.370066 4.883772-.829496 7.139255.130483.54057.205044.885416.792215.932017.677597-.067844 1.322981-.322771 1.864035-.736294 1.742873-1.1091 3.467106-2.246162 5.228619-3.327302l11.296052-7.008772c14.83772-9.236294 29.451755-18.808114 44.447917-27.783443 14.725877-8.807566 29.405154-17.708333 44.671601-25.611842 15.206315-7.853517 31.043867-14.419242 47.346491-19.62829 8.169254-2.64747 16.533266-4.651218 25.015351-5.992873 8.547646-1.3957822 17.256217-1.5025973 25.835526-.316885 1.994518.307565 3.970395.726973 5.927632 1.211622 2.020804.415629 4.008266.97947 5.946272 1.686952 1.445817.540295 2.614296 1.638263 3.243421 3.047697.428728 1.351426-.932018 2.180922-2.059759 2.479167-1.808114.475329-1.864035-1.304824-2.982456-2.264803-1.276864-1.1091-3.1875-1.146381-4.79057-1.342105-2.024561-.158587-4.055852-.21458-6.086075-.167763-2.246162 0-4.492324-.046601-6.738487.065241-4.266631.354526-8.512692.923778-12.722039 1.705592-4.203399.652413-8.388158 1.55647-12.470395 2.600329-4.082237 1.04386-8.220395 2.208882-12.265351 3.550987s-8.080592 2.935855-12.116228 4.315241c-1.864035.643093-3.858552 1.137062-5.722587 1.864036-1.864036.726973-3.895834 1.705592-5.862391 2.525767-3.970395 1.658991-7.906615 3.401864-11.808662 5.228618-3.821272 1.798794-7.633224 3.616229-11.389254 5.536185-3.756031 1.919956-7.064693 4.063596-10.625 6.058114-3.560307 1.994517-7.008772 3.877193-10.373356 6.095394-3.541666 2.339364-7.167215 4.557566-10.783443 6.775768-7.334978 4.492325-14.399671 9.320175-21.380482 14.297149-6.980812 4.976974-13.887062 9.683662-20.597588 14.85636-1.59375 1.230263-3.159539 2.488487-4.818531 3.616228-1.658991 1.127741-3.616228 2.330044-5.377741 3.560307-3.336623 2.311403-6.524123 4.846491-9.692982 7.390899-4.660088 3.72807-9.469299 7.381579-14.259869 11.007127-2.059758 1.556469-4.128837 3.094298-6.253837 4.557566-1.688612 1.279046-3.521733 2.355145-5.461623 3.20614-3.066338 1.155702-6.822369.52193-9.758224-.717653-1.602472-.731307-3.058412-1.748254-4.296601-3.001097-3.779407-3.531077-7.189531-7.437729-10.177631-11.659539-1.453028-1.95512-2.702222-4.053765-3.728071-6.263158-.776759-1.855311-1.117914-3.863982-.997258-5.871711.158443-5.182017 1.360745-10.354714 2.563048-15.378289.372807-1.537829.671053-3.019737.932017-4.566886.149604-.841971.342476-1.675678.577851-2.497807.279606-.932018.745614-1.864035.997259-2.842654.121162-.475328.298246-1.649671-.466009-1.724232-.307565 0-.801535.54057-.997258.699013-.447369.372807-.932018.736294-1.370066 1.099781-3.050679 2.210567-5.918157 4.663507-8.574562 7.334978-2.712171 2.945175-5.209978 6.058114-8.024671 8.910088-2.814693 2.851973-5.778508 5.592105-8.844846 8.136513-1.453948 1.220943-2.945176 2.376645-4.399123 3.578947-1.460704 1.303378-3.018574 2.493591-4.660088 3.560307-2.701733 1.5079-5.702489 2.402081-8.788925 2.618969-1.33086.184443-2.68674.030584-3.942434-.447368-1.296367-.649043-2.355973-1.689087-3.029057-2.973136-.700413-1.252873-1.322938-2.547726-1.864035-3.877193-.841994-1.809383-1.549146-3.678507-2.11568-5.592105-1.04386-3.886513-.186404-7.344298 1.202302-11.016448 2.812449-7.006347 6.575831-13.592267 11.184211-19.572368 4.412806-5.875401 9.119265-11.524396 14.101425-16.925439 2.693531-2.954495 5.517544-5.778508 8.388158-8.50932 1.351426-1.267544 2.796053-2.488487 4.100877-3.72807.631953-.572909 1.23243-1.179609 1.798794-1.817434.51261-.577851 1.472588-1.472588 1.55647-2.264803-.559211-.736294-2.413926.782895-2.907895 1.07182-1.329679.782895-2.653143 1.59375-3.970395 2.432566-2.423246 1.528509-4.79989 3.140899-7.139254 4.809211-4.79057 3.420504-9.413377 7.083333-13.905702 10.895285s-8.863487 7.800987-13.150768 11.864583c-4.128837 3.914474-7.98739 8.313597-12.535636 11.743421-2.161347 1.632288-4.485 3.037724-6.93421 4.194079-2.413926 1.146382-5.070176 1.957237-7.745066 1.276864-5.424342-1.388706-7.847588-8.183114-10.578399-12.414473-2.730811-4.23136-4.76261-9.152413-4.660088-14.408992.065242-5.936951 1.528509-9.543859 3.122259-15.191886 1.24733-3.928155 2.850848-7.734171 4.79057-11.370614 1.60307-2.945175 3.345943-5.806469 5.116777-8.649122 1.770833-2.842654 3.560307-5.8064698 5.163377-8.8075663.754934-1.4259868 1.481908-2.870614 2.16228-4.3338816.385234-.8139619.758041-1.6341374 1.118422-2.4605263.242324-.5498903.736293-1.3421052.167763-1.8640351-1.006579-.1025219-2.274123 1.4446272-2.973136 2.0224781-1.176611.9200403-2.29704 1.9097522-3.355263 2.9638158-2.171601 2.2648026-4.25 4.6600877-6.449562 6.8596491-4.25 4.3245613-8.5 8.6491233-12.647478 13.0482453-8.473252 8.90393-16.180395 18.506681-23.039474 28.706141-3.485745 5.247258-6.878289 10.559758-10.578399 15.657894-1.864035 2.572369-3.802631 5.060856-5.592105 7.707786-1.595349 2.579902-3.367308 5.046319-5.30318 7.381578-.889327 1.008546-1.858671 1.943605-2.898574 2.796053-.932018.782895-1.938597 1.621711-3.243421 1.090461-1.090461-.438049-1.603071-1.677632-1.957237-2.721492-.51261-1.500548-.932018-3.047697-1.388706-4.557565-.447369-1.351426-.932018-2.702851-1.435307-4.026316-.50329-1.323465-1.416667-2.889255-1.02522-4.483005.48958-1.418919 1.078199-2.801706 1.761513-4.138157.596492-1.472588 1.137062-2.982457 1.640351-4.492325 1.864035-5.750548 3.383224-11.631579 5.592106-17.279605 2.376644-5.992873 5.219298-11.799342 7.605263-17.792215 1.155701-2.907895 2.292763-5.797149 3.597587-8.639803l1.864036-3.998355c.735835-1.326186 1.305547-2.737945 1.696271-4.2033992.083882-.4846492.093202-.8201755-.503289-.8574562s-1.295504.8574562-1.677632 1.2489035c-1.08114 1.1184209-2.149853 2.2461619-3.20614 3.3832239-2.097039 2.274123-4.147478 4.576206-6.263158 6.822368-4.063596 4.324562-8.52796 8.183114-12.367873 12.72204-3.998355 4.743969-7.782346 9.665022-11.631579 14.520833-4.007675 5.060855-8.01535 10.11239-12.116228 15.070724-4.100877 4.958333-8.248355 9.609101-12.209429 14.539473-7.800987 9.711623-14.763158 19.991777-21.902413 30.188049-1.714912 2.460526-3.467105 4.893092-5.051535 7.45614-.754934 1.230263-1.444627 2.488487-2.10636 3.774671-.715366 1.247718-1.589422 2.397462-2.600328 3.420504-.700251.976-1.575653 1.81348-2.581689 2.469847-1.031389.46039-2.171347.621857-3.290022.466009-1.118421-.102522-2.255482-.158443-3.038377-1.05318-.752056-1.096818-1.278013-2.3325-1.547149-3.634869-.857456-2.898574-1.360746-5.89035-2.330044-8.751644-.548648-1.278934-.864283-2.645637-.932018-4.035636.078294-1.436749.538367-2.826618 1.332785-4.026316 3.345943-5.442982 6.924891-10.736842 10.308114-16.151864 1.677632-2.693531 3.290022-5.433662 5.098136-8.043311 1.696272-2.460527 3.513707-4.837172 5.191338-7.316338 1.677632-2.479167 2.963816-5.042215 4.436404-7.577303 1.472587-2.535088 3.1875-5.154057 4.874451-7.670504 7.092654-10.59704 13.682018-21.529605 19.851974-32.685855 3.150547-5.608194 5.982167-11.389677 8.48136-17.3168864 2.432565-5.8717105 4.660087-11.8366228 6.524123-17.904057.933799-2.7571225 1.38468-5.6547409 1.332785-8.5652413 0-1.1836622-.083882-2.712171-1.621711-2.5816886-1.537829.1304825-3.234101.4846492-4.79989.7735746-5.974233 1.0625-11.836623 3.5696272-17.242325 6.2724781-5.271932 2.7148482-10.362123 5.7689633-15.238487 9.1430921-5.078969 3.395133-9.921104 7.1318287-14.492872 11.1842105-2.171601 1.9572368-4.194079 4.0449561-6.253838 6.104715-1.864035 1.910636-4.21272 3.895833-3.206141 6.89693.447369 1.332785 1.481908 2.395285 2.143641 3.634868.652762 1.205512 1.117902 2.503505 1.379386 3.849233.464117 2.57677.355934 5.224076-.316886 7.754386-1.323465 5.452302-4.315241 10.345394-7.111294 15.135964-3.234101 5.480264-6.663926 10.830044-10.252193 16.086623-3.588268 5.256579-7.074013 10.419956-11.016447 15.303728-3.848585 4.724623-7.975424 9.215595-12.358553 13.449014-7.45614 7.316337-17.782895 14.511513-28.827303 13.141447-2.663931-.424597-5.257243-1.211685-7.707785-2.339364-6.757127-2.842654-10.047149-7.148575-12.116228-14.101426-1.134533-3.710089-1.617012-7.588839-1.425987-11.463815.428728-7.586623 3.392544-14.781799 7.046053-21.352522 3.87764-6.752341 8.170042-13.257867 12.852522-19.479167 4.726062-6.554608 9.944949-12.739378 15.611294-18.500548 5.651252-5.690112 11.980509-10.6639937 18.845394-14.809759 1.649672-.9879386 3.336623-1.9199561 5.042215-2.7960526.487464-.3350562 1.040024-.5637016 1.621711-.6710526zm218.781798 90.7691882c.680373.083882 3.989035-2.637609 5.759869-4.212719 4.771929-4.25932 9.320175-8.733004 14.138706-12.983004 6.841008-6.095395 14.148026-11.640899 21.063596-17.652413 11.724781-10.177631 19.283443-21.967653 26.217654-35.873355.335734-.664726.62232-1.353155.857456-2.059759.689152-1.721353.134601-3.690966-1.351426-4.79989-.456063.023602-.910394.073391-1.360745.149123-4.315241.885416-8.043312 3.029057-11.631579 5.470943-4.082237 2.796052-7.558662 6.272478-11.184211 9.57182-3.625548 3.299342-6.747807 7.074013-10.065789 10.64364-8.052632 8.639803-15.685855 17.195724-22.517544 26.879386-2.889254 4.100877-5.806469 8.239035-7.558662 12.917763-1.127742 2.963816-4.688049 11.67818-2.367325 11.948465z" fill-rule="nonzero"/><path d="m156.401864 127.201754c1.216427-.795189 2.563667-1.369422 3.979715-1.696272 1.966557-.615131 3.895833-1.342105 5.84375-2.022478 3.902047-1.366959 7.813414-2.715277 11.734101-4.044956 7.884868-2.66557 15.685855-5.498903 23.36568-8.733004 15.173245-6.38432 30.048245-13.5794958 44.885965-20.7187501 7.185855-3.4577851 14.306469-7.064693 21.166118-11.1189693 6.524123-3.877193 13.26261-8.1551535 18.640351-13.5515351 9.804824-9.7302632 2.208881-25.9939693-6.253838-33.8881579-10.354715-9.6557018-24.884868-13.6447369-38.641447-15.1173246-8.10065-.7562729-16.241804-.9866535-24.372259-.689693-8.388158.1957237-16.776316.6244518-25.164474 1.3421053-16.348943 1.3877558-32.546267 4.1943773-48.408991 8.3881579-16.189145 4.2779605-31.828399 10.252193-47.3651315 16.4314693-14.7175878 5.8235785-28.8277003 13.078424-42.127193 21.6600877-12.2560307 7.9501097-24.2324561 16.9347588-32.7044956 28.9950658-8.024671 11.379934-12.65679823 25.50932-9.189693 39.377741.7581416 3.288802 2.1754141 6.38968 4.1661185 9.115132.8205107 1.051124 1.7586332 2.004882 2.7960526 2.842653.9320175.801535 2.1716009 1.724233 2.497807 2.991777.2466899 1.189767-.3032576 2.402664-1.3607456 3.001096-1.1463816.661733-2.600329.335526-3.7280702-.065241-2.4396579-.829805-4.7097079-2.092698-6.70120613-3.72807-8.24835526-6.87829-9.38541667-19.488487-8.68640351-29.470395.93201755-13.346491 6.58936404-25.5279605 14.85635964-35.9013158 9.189693-11.5383772 20.7280702-21.2686404 32.7604167-29.694079 12.3672082-8.5563429 25.4301567-16.0605236 39.0515351-22.4336622 29.152968-13.8173939 60.384053-22.73516301 92.4375-26.39473688 16.39435-1.88371175 32.917154-2.39810092 49.39693-1.53782894 15.685855.82949561 31.530153 2.70285087 46.600877 7.45614035 12.610197 3.97971487 25.164474 10.00986837 33.878838 20.19682017 8.032803 9.2124257 11.710457 21.4373115 10.09375 33.5526316-3.317983 23.6359649-26.273575 38.0169956-46.302632 46.8059207-14.851194 6.505478-30.039953 12.211374-45.501096 17.093202-7.782347 2.460526-15.769737 4.007676-23.654606 6.067434-6.207236 1.621711-11.780701 5.340461-12.815241 12.116228-.54989 3.606908.158443 7.297698 1.137062 10.774123 1.09046 3.895834 2.469846 7.717105 3.942434 11.482456 2.516447 6.412281 5.116776 13.001645 8.695723 18.910636 5.536185 9.152413 13.504935 16.655154 22.368421 22.564145 18.960809 12.463373 41.303424 18.777237 63.983005 18.08114 5.07728-.173876 10.1266-.829227 15.080044-1.957236 6.151316-1.407347 12.20943-3.728071 16.664473-8.388158.739818-.979611 1.633755-1.832628 2.64693-2.525768.471634-.303743 1.074878-.313136 1.555739-.024224.480862.288913.755804.82594.709064 1.38497.055921 2.171601-1.864035 4.566886-3.075658 6.253837-3.914474 5.592106-9.450658 9.320176-15.574013 12.116228-27.485198 12.516996-58.922149 6.291119-84.692434-7.45614-23.710527-12.684759-43.338816-33.207785-52.500549-58.717105-1.146498-3.224051-2.1111-6.509923-2.889254-9.842105-.407939-1.601557-.719173-3.226201-.932018-4.865132-.214364-1.919956-.149122-3.858553-.447368-5.769189-.205044-1.276864-.53125-2.535087-1.929276-2.879934-1.398027-.344846-11.612939 2.180921-15.490132 2.935855-4.687741 1.000488-9.266916 2.455086-13.672697 4.343202-1.71925.622545-3.301725 1.57203-4.660088 2.796053-2.126489 2.20535-4.065577 4.584006-5.797149 7.111294-3.970395 5.284539-7.98739 10.531798-11.948465 15.844298-9.245614 12.367873-17.9413377 25.164474-28.5942982 36.404605-5.2006579 5.489584-9.9446272 11.622259-15.7883772 16.46875-8.3881579 6.990132-19.2554825 13.188048-28.7993421 18.547149-3.2434211 1.817435-6.635965 3.299342-9.7955044 5.265899-2.0386375 1.31852-4.2292481 2.385661-6.5241228 3.17818-.5405702.167763-1.752193.717654-2.3207237.419408-.5685307-.298245-.6151316-1.09978-.6430921-1.58443.0597018-1.688003.5471636-3.333187 1.4166666-4.78125 1.0232614-1.988606 2.1881799-3.901066 3.4857457-5.722587 2.0411184-2.926535 4.3338815-5.648027 6.5241228-8.46272 2.1902412-2.814693 4.1661184-5.536184 6.4029605-8.211074 2.5816886-3.084978 5.2565789-6.104715 7.8569079-9.180373 5.4895833-6.524123 10.4572368-13.467654 15.5833333-20.271382 10.6312135-14.116959 21.2997076-28.209064 32.0054825-42.276315 10.6436402-13.949196 21.3463082-27.854898 32.1080042-41.717106 10.559759-13.560855 21.091557-27.1589909 32.108005-40.3470391 10.738631-13.0445039 22.214997-25.4637488 34.372807-37.1968202 2.796052-2.6282895 5.657346-5.5175438 8.975329-7.4561403 3.19662-1.7421669 6.924752-2.2401364 10.466557-1.3980263 2.796052.6058114 6.011513 1.864035 7.717105 4.2872807 1.705592 2.4232456.932017 5.5921052-.549891 8.1458333-1.817434 3.1408991-4.529605 5.5921053-7.195175 8.0339912-2.898575 2.600329-5.703947 5.2938597-8.388158 8.1458333-5.357105 5.8746464-10.337782 12.0818149-14.912281 18.5844299-10.084429 14.0641447-19.730811 28.4731355-28.69682 43.2922145-.932017 1.59375-1.864035 3.224781-2.991776 4.75329-.726974 1.034539-2.413926 2.898574-2.171601 4.27796z"/></g></svg>