<svg height="400" viewBox="0 0 2400 400" width="2400" xmlns="http://www.w3.org/2000/svg"><g fill-rule="evenodd" transform="translate(760 54)"><path d="m509.26087 112.230216c-1.729566-6.752518-6.78374-12.2517987-12.279913-16.4417268-6.51699-5.0441433-14.336823-8.2414271-22.599653-9.2402878-4.996521-.7294964-9.993043-1.3654676-15.008782-2.0014388-8.148174-1.010072-16.296348-2.1510791-24.502174-2.9366907-4.631391-.4676259-9.243565-.7482014-13.894174-.8791366-1.364435 0-3.363044-.3553957-4.400783.6546762-.635541.9946093-1.066318 2.1000155-1.268348 3.2546763-1.479739 4.152518-3.286173 8.2302158-4.34313 12.513669-.451943 2.3555053-.657977 4.7494612-.614956 7.1453242-.115305 2.094964-1.710348 3.310791-3.17087 4.676259-1.921739 1.870503-3.843478 3.741007-5.765217 5.49928-7.956 7.631655-15.373913 15.880576-22.907131 23.905036-7.533217 8.024461-14.586 15.48777-21.773304 23.343885-3.676928 4.002878-7.366667 7.993285-11.069218 11.971223-1.69113 1.870504-3.38226 3.628777-5.092608 5.42446-1.710348 1.795684-3.305392 4.264749-5.400087 5.08777-2.325305-.804316 7.187304-23.51223 8.263478-26.411511 3.288285-8.785849 7.192182-17.341682 11.684174-25.607194 2.613565-4.769784 10.704087-14.234532 2.805739-18.42446-1.652046-.74627-3.406096-1.256565-5.207913-1.515108-1.918516-.251374-3.838584.451211-5.111826 1.870503-1.345217 1.215828-2.248435 2.824461-4.247044 2.094964-1.191478-.430215-2.267652-1.421582-3.45913-1.870503-1.215186-.503343-2.467926-.916042-3.747391-1.234532-3.84687-1.166177-7.982033-1.060951-11.761044.29928-4.612174 1.870504-9.012956 4.021583-13.759652 5.611511-8.243916 2.665714-16.220279 6.059204-23.829565 10.138129-15.047218 8.230216-29.863826 15.936691-43.700348 25.92518-7.776638 5.611511-15.39313 11.435012-22.849478 17.470504-3.670522 2.974101-7.321826 5.985611-10.857826 9.090647-3.156596 3.161753-6.506522 6.135033-10.031479 8.903597-1.268347-.953956-1.768-4.732374-2.267652-6.284892-1.729565-5.31223-2.555913-8.305036-4.304695-13.598561-2.863392-8.772662-16.757566-57.985611-17.295653-59.612949-.538087-1.627339 1.287566-2.749641 2.594348-3.741008 1.768-1.384172 3.439913-2.917985 5.169478-4.339568 3.518285-2.673593 7.174335-5.1708392 10.953914-7.4820144 4.535304-2.9928057 9.032173-6.0604316 13.567478-9.0532374 7.994435-5.2748201 15.892782-10.7179856 23.848782-16.0489208 15.54687-10.36259 31.497305-20.3697842 48.850609-27.6460432 8.013652-3.3482014 16.392435-5.4431655 24.521391-8.4546763 3.678407-1.1990385 7.103173-3.0368765 10.108348-5.4244604 4.708261-4.1338129 7.129652-16.5352518-.903217-19.07913669-3.209305-1.02877698-7.168087 1.49640289-9.781652 2.95539569-7.302609 4.0964029-14.797392 7.8-22.042348 11.9338129-14.739739 8.4172662-29.056696 17.5266188-43.219913 26.8230216-14.509131 9.5395684-28.979826 19.1726619-43.219913 29.086331-6.982319 4.8882494-14.003073 9.6580335-21.062261 14.3093525-3.363044 2.2446043-6.726087 4.4892086-10.089131 6.6964025-2.613565 1.720864-6.226434 3.254677-7.417913 6.284892-.829631 2.903949-.993642 5.949851-.480434 8.922303.326695 3.871942-.230609 7.83741-.269044 11.728057-.070775 8.159235.417146 16.313993 1.460522 24.410072 2.369869 15.928072 5.9934 31.6554 10.838609 47.043166 4.054869 13.897841 9.262782 27.141007 18.794608 38.401438 9.240098 11.421749 22.95187 18.579488 37.839044 19.752518 9.004489.737193 18.069848-.267231 26.673739-2.955395 8.949259-2.68971 17.722178-5.906679 26.270174-9.633094 7.926226-3.832072 15.500032-8.319032 22.638087-13.411511 3.843478-2.6 7.514-5.34964 11.203739-8.09928s8.128956-5.181295 10.627217-8.810072c-.480435-.617266-8.993739 5.27482-10.166 5.985611-4.112521 2.48777-8.263478 4.93813-12.472087 7.276259-7.977525 4.471617-16.202235 8.511799-24.636695 12.102159-8.090437 3.683085-16.66601 6.257669-25.482261 7.650359-7.802261.991367-16.565392 1.178418-22.426696-4.713669-5.861304-5.892086-11.530435-12.158273-15.162522-19.378417-1.921739-4.040288-3.843478-8.174101-5.534608-12.326619-.96087-2.300719-1.921739-4.620144-2.824957-6.939568-1.103896-2.020462-1.937039-4.17037-2.479043-6.397122-.384348-3.105036 4.323913-6.415828 6.360956-8.417266 3.559529-3.42706 7.326458-6.643835 11.280609-9.633094 7.264174-5.611511 14.989565-10.680576 22.676522-15.693525 8.878434-5.761151 17.545478-11.802878 26.385478-17.620144 2.479043-1.627338 24.540609-16.965468 26.135652-14.683453-.768696 2.52518-3.843478 5.087769-5.553826 7.145323-2.190783 2.712231-4.42 5.405756-6.63 8.117986-4.381565 5.405755-8.76313 10.848921-12.779565 16.516547-3.757373 5.55972-7.029377 11.41619-9.781652 17.507913-2.594348 5.368346-4.592957 11.858993-.653392 17.320864 3.939566 5.46187 10.031479.673381 13.874957-1.870504 5.246348-3.535252 9.608695-8.174101 14.605217-12.083453 5.304-4.189928 10.435044-8.454676 15.373913-13.093525 2.562319-2.394245 5.086203-4.807194 7.571652-7.238849 1.518174-1.458993 5.400087-6.677698 7.686957-6.303597-.412164 2.31876-1.055794 4.592843-1.921739 6.789928-.557117 2.343774-1.309072 4.639585-2.248435 6.864748-2.113913 4.601439-9.243565 25.364029-7.686956 31.23741.580265 2.53189 2.395996 4.627528 4.862 5.611511 3.810954 1.128295 7.778018 1.677205 11.761043 1.627338 6.975913.467626 8.91687-2.6 12.414435-5.966907 7.206522-6.920863 12.529739-15.412949 18.967565-22.988489 13.452174-15.805755 25.732087-32.415827 39.049739-48.296403 3.324609-3.965467 6.822174-7.76259 10.281304-11.597122 2.229218-2.469065 5.150261-7.332374 8.99374-7.313669 6.91826 0 13.874956.18705 20.793217 0 9.724-.280576 19.428783.879137 29.133565 1.384173 2.940261.14964 5.899739 0 8.84 0 1.614261 0 4.016435-.542446 5.438522.505036 1.729565 1.234532 1.095391 2.394244-.192174 3.460431-4.016435 3.310792-8.455652 6.378418-12.74113 9.352518-8.925125 6.544559-17.434794 13.609293-25.482261 21.155396-8.03287 7.107914-16.104174 14.159712-24.348435 21.02446-16.699913 13.916547-31.535739 29.797123-46.525304 45.397123-3.516783 3.741007-7.072 7.276259-10.473479 11.054676-1.575826 1.758273-3.094 3.553957-4.612174 5.34964-1.518173 1.795684-3.266956 3.142446-3.170869 5.480576.115304 2.992806 2.344522 7.014388 5.630696 7.482014 1.832868.140007 3.676547-.050226 5.438521-.561151 2.517479-.635971 4.862-2.63741 7.321826-3.610072 9.916174-3.890647 19.428783-8.735252 29.633218-11.933813 5.515391-1.739568 10.857826-3.890647 16.334782-5.779856 5.623917-1.83613 11.354254-3.34763 17.161131-4.526619 5.765217-1.271942 11.41513-2.581295 17.295652-3.292086 6.232748-.586101 12.496633-.798492 18.756174-.635971 7.244956 0 14.566782-1.122302 21.773304 0 1.037739.130935 9.109044 2.431655 9.109044 2.375539-.941652-3.235971-4.381566-5.23741-7.398696-6.135251-4.481681-1.294632-9.046075-2.300645-13.663565-3.011511-9.53587-1.40915-19.192096-1.891621-28.826087-1.440288-9.9004.457497-19.749745 1.658186-29.460261 3.591367-4.34313.841727-8.628609 1.870504-12.89487 3.048921-4.612173 1.271942-9.320434 3.105036-14.047913 3.946762-1.479739.261871-3.574434-.505036-3.132434-2.525179.345913-1.515108 4.170174-3.423022 5.284782-4.320864 3.843478-2.992805 7.360261-6.191367 10.992348-9.352518 14.086348-12.083453 28.441739-23.905036 41.855478-36.717985 6.226435-5.929497 13.586696-10.587051 20.332-15.899281 7.360261-5.798561 14.720522-11.597122 22.61887-16.684892 3.843478-2.431655 7.533217-4.863309 11.184522-7.482014 3.651304-2.618705 8.494087-5.405756 8.68626-10.568346.048863-.778096-.015839-1.559005-.192173-2.319424zm-180.220696 25.569784c-9.302985 10.744567-19.468992 20.752123-30.401913 29.928058-8.19942 6.683932-16.43087 13.330455-24.694348 19.939568-1.464981 1.037613-2.985275 1.999146-4.554522 2.880575 1.619019-5.853659 4.13945-11.434921 7.475566-16.553956 2.093714-3.491724 4.390734-6.864128 6.879826-10.10072 6.649217-8.866187 13.54826-17.545324 20.101391-26.467626 4.746696-6.453237 11.069217-11.223021 17.122696-16.348201 4.900434-4.096403 13.26-4.769784 18.122-1.870504.670209.48174 1.311818 1.000078 1.921739 1.552518-3.415561 6.071484-7.459391 11.787484-12.068522 17.058993z" fill-rule="nonzero"/><path d="m319.354609 156.448921-.230609-.056115.057652.26187z"/><path d="m882.443391 135.05036c-3.478348-.841727-4.458434-1.047482-5.188695-1.309353-3.393211-.90306-6.857975-1.528735-10.358174-1.870503-2.402174-.224461-2.517479-.299281-7.456348-.467626-9.839304-.467626-8.109739 0-17.295652 1.515108-12.779565 2.094964-22.542 8.922302-32.304435 16.965467-9.762435 8.043166-14.489913 15.207194-23.34913 24.316547-6.272461 6.750006-12.051802 13.919085-17.295653 21.454676-5.342434 7.257554-10.608 14.028777-15.988869 21.267626-3.843478 5.05036-7.917565 9.838849-11.934 14.702158-1.691131 2.038849-14.144 1.122303-16.757565.261871-2.701836-.587356-4.825791-2.618415-5.476957-5.23741.010964-.099475.010964-.199806 0-.299281-3.843478-7.369784-2.306087-14.365467.980087-21.529496 5.150261-11.223022 9.877739-22.726619 14.778174-34.117986l9.147478-21.342446c-1.523352-1.392073-3.895952-1.392073-5.419304 0-3.074783 2.038849-5.957391 4.320864-8.955305 6.471943-10.45426 7.482014-18.660086 17.376978-26.769826 27.122302-8.109739 9.745324-16.161826 19.060431-24.559826 28.412949-4.131739 4.601439-8.398 9.184173-14.701304 11.223022-4.25776 1.467985-8.966031-.439471-10.896261-4.414388-.450415-.725719-.978645-1.402888-1.575826-2.020144-.647465-.64165-1.244861-1.329409-1.787217-2.057554-4.112522-6.995684-6.26487-14.178418-3.651305-22.333813 3.100434-10.26066 7.026521-20.267636 11.741826-29.928058 1.076174-2.132374 1.787218-4.433093 2.652-6.640288l-.672608-.430215c-1.921739 2.020144-4.05487 4.002877-5.976609 6.097841-3.190087 3.441727-6.360957 6.902159-9.416522 10.43741-5.131043 5.966907-9.608695 12.457554-14.778174 18.349641-4.496869 5.050359-11.85713 13.093525-19.217391 13.448921-3.065805.055461-6.007316-1.178393-8.071304-3.385612-2.584189-2.736544-4.746297-5.823931-6.418609-9.165468-4.650609-8.716546-3.132435-16.928057 1.018522-25.289208 4.473742-8.581396 9.983216-16.612716 16.411652-23.923741.494723-.659983.950278-1.346955 1.364435-2.057554l-.691826-.654676c-1.306783.972661-2.709653 1.870503-3.843479 2.9741-3.516782 3.235972-7.014348 6.490648-10.435043 9.838849-3.420696 3.348202-6.437826 6.471943-9.608696 9.764029-8.398 8.660432-17.103478 17.040288-25.251652 25.92518-3.843478 4.096403-7.129652 8.529496-10.877043 12.625899-7.503099 8.119265-16.522097 14.777755-26.577653 19.621583-2.13313 1.028777-3.958782 0-5.765217-1.178417-3.626627-2.748531-6.307777-6.506453-7.686957-10.774101-2.591982-6.764764-2.502919-14.226609.249827-20.930935 1.921739-5.106475 4.189391-10.06331 6.418608-15.37554-4.247043 3.142446-8.128956 6.228777-12.222261 9.015827-6.149565 4.189928-12.433652 8.192806-18.717739 12.176979-1.155663.680451-2.423449 1.161389-3.747391 1.421583-6.360957 1.421582-9.435739-.392806-11.645739-6.397123-3.132435-8.473381-1.633478-15.730935 5.034956-22.202877 7.080864-6.866509 14.757926-13.124786 22.945566-18.705036 5.765217-3.890648 11.530434-7.76259 17.487826-11.092087 5.131043-2.82446 10.780956-4.732374 16.065739-7.294964 5.284782-2.56259 7.821478-2.48777 13.605913-4.564029 2.094695-.748201 7.110435-3.01151 7.110435-3.01151 1.952559-1.500348 4.530357-1.988223 6.91826-1.309353 2.306087.430216 3.266957 3.198561 4.958087 4.694964 1.029988 1.094853 1.956191 2.278084 2.767305 3.535252 1.268348 1.552518-1.172261 3.928058-2.805739 6.584173-5.054174 8.155395-6.168783 10.792805-10.569566 19.228777-2.997913 5.742446-5.630695 11.671942-8.436434 17.507913-.787913 1.646043-6.610783 14.776979-4.304696 16.385612 1.921739-1.664748 6.918261-7.238849 8.859217-9.015828 2.824957-2.63741 5.573044-5.368345 8.417218-7.98705 4.727478-4.358273 9.378087-8.828777 14.297739-12.981295 6.471896-5.827272 13.252058-11.321566 20.312782-16.460432 13.087044-8.978417 26.52-17.451798 39.972174-25.887769 7.686957-4.86331 15.777479-9.352518 23.810348-13.785612 4.331719-2.4070689 8.826077-4.5255932 13.452174-6.341007 5.554866-1.5655683 11.531667.2800704 15.143304 4.676259 2.082434 2.979232 2.568544 6.750517 1.306783 10.138129-.999304 2.843166-2.056261 5.611511-2.824956 8.585612-.03099.933512.433676 1.816866 1.229913 2.338129 2.382956 1.047482 2.382956 2.787051 2.459826 4.956835-.005938 6.142257-1.314397 12.217205-3.843479 17.844604-4.112521 10.343885-7.456347 20.987051-10.877043 31.574101-2.363739 7.294964-4.323913 14.720863-6.457044 22.090648 1.40287 1.458992 2.498261 2.225899 4.266261.617266 9.608696-8.847482 17.526261-19.341007 26.308609-28.992806 15.220174-16.834532 34.072435-31.985612 55.864957-39.766907 1.114608-.392805 2.824956.411511 4.112521.991367 5.054174 2.26331 8.167392 6.434533 10.646435 11.054677.270334.965593.131903 1.996357-.384348 2.86187-2.094695 3.909353-4.400782 7.72518-6.533913 11.634533-1.306782 2.375539-2.402174 4.863309-3.651304 7.257553-.691826 1.346763-1.575826 2.6-2.267652 3.946763-3.382261 6.565468-4.477652 7.482014-7.091218 14.515108-1.133826 2.974101-2.709652 5.779856-3.593652 8.941007 2.555913-3.460431 5.015739-6.995683 7.686957-10.36259 4.131739-5.2 6.687652-8.248921 10.896261-13.411511 4.208608-5.162589 7.514-7.612949 12.203043-12.719424 4.074087-4.433094 8.686261-8.398561 13.202348-12.420144 5.682395-4.805837 12.186727-8.604389 19.217391-11.223021 8.6877-3.784618 17.987686-6.063453 27.48087-6.733813 10.800174-.467626 13.62513-1.458993 24.348434.935251 4.550744.740454 8.970159 2.107137 13.125479 4.058993 3.209304 1.739569 9.685565 5.218705 6.706869 7.033094zm-275.923304 55.928057c.005267.135012.052138.26536.134522.374101 2.21 2.45036 28.633913-25.158273 29.863826-26.411511 6.783739-6.808633 13.26-13.897842 19.89-20.83741 4.496869-4.732374 17.872174-20.68777 21.542695-25.289209 1.710348-2.132374 7.379479-9.782733 2.555913-11.541007-2.344521-.860431-11.107652.710792-14.643652 3.516547-5.650576 4.324563-10.880518 9.14583-15.623739 14.402878-13.951826 15.300719-21.965478 24.054676-32.227565 42.030216-3.843478 6.733813-8.282696 13.29928-10.992348 20.575539-.330355.810945-.512461 1.671875-.538087 2.543885-.005246.21266.00761.425377.038435.635971zm-125.912348-10.830216c9.166696-1.084892 40.625565-25.457554 63.206-48.633093-3.194021.914337-6.274634 2.168931-9.185913 3.741007-7.302609 4.638849-14.432261 9.539568-21.504261 14.515108-9.653687 6.745727-18.560773 14.449961-26.577652 22.988489-1.998609 2.207194-3.689739 4.620144-5.938174 7.388489z" fill-rule="nonzero"/><path d="m2.8633913 78.2431655c2.11391305-.8978418 4.8812174 1.3093525 7.2257391 1.8705036 3.6897392 1.0100719 7.3794783.1683453 11.05-.5798562 9.0151996-2.144336 17.79421-5.1388283 26.2125218-8.9410071 33.9571304-13.991367 67.9526958-28.076259 102.0443478-41.7870504 14.240087-5.723741 37.57-9.857554 48.889043-20.33237411 2.36374-2.1884892 4.112522-5.14388489 7.072-6.64028776 2.807343-1.22037169 5.971447-1.41949316 8.91687-.56115108 3.632087.78561151 10.492696 2.41294964 10.492696 7.03309352 0 6.99568343-8.321131 14.66474823-12.664261 19.43453233-5.861305 6.4532375-12.529739 12.2705036-18.122 18.9482015-4.708261 5.6115108-8.494087 12.1956834-12.683478 18.1812949-5.938174 8.4546763-11.857131 16.8345324-17.449392 25.6258993-11.011565 17.152518-20.985391 34.941007-30.344261 53.010072-9.051391 17.358273-17.507043 35.165468-25.885826 52.897842l-6.418608 13.823021c-1.5181743 3.254677-2.8826091 9.071943-6.1880004 11.092087-2.2676522 1.384172-7.859913 1.683453-9.9353913 0-5.5369413-4.862646-9.5812904-11.12353-11.6841739-18.08777-.6535198-1.46847-1.0995784-3.016367-1.326-4.601439.0487454-4.552112 1.1731549-9.032241 3.2861739-13.093525 4.4392174-10.007194 10.8578261-19.135252 17.1803478-28.057554 17.7184349-25.008633 32.9962609-51.607194 50.0805219-77.0273383 9.973826-14.8517985 20.120609-29.6100719 30.959217-43.8820144 1.671913-2.1884892 4.919652-6.9208633 4.919652-6.9208633-5.587481.9652634-11.097507 2.3154201-16.488521 4.0402878-8.91687 3.4230216-16.008087 6.3597122-24.982609 9.352518-16.123391 5.3309352-31.535739 12.6258993-47.3708696 18.7050359-17.0073913 6.5841727-33.2460869 14.5899281-49.9652174 21.6417267-7.2833913 3.0676259-15.028 6.5467625-23.0608695 7.2388489-3.8434783.3366906-8.99373915 0-12.33756524-2.2446043-2.61356522-1.7769785-4.80434783-6.3971223-2.53669565-9.352518.30344195-.3429626.68516461-.6120128 1.11460869-.7856115z"/></g></svg>