<svg height="400" viewBox="0 0 2400 400" width="2400" xmlns="http://www.w3.org/2000/svg"><g fill-rule="evenodd" transform="translate(480 24)"><path d="m881.698292 126.745731c-.925369.528021-1.801717 1.137654-2.618596 1.821631-12.054079 11.655598-24.193548 23.240038-36.062618 35.094877-8.183112 8.168881-15.967742 16.750474-23.980076 25.104364-2.127851 2.229007-3.419951 5.124919-3.657495 8.197344-1.295067 17.077799-1.42315 34.155598-5.393738 50.948766-2.020873 8.368122-4.881405 16.551234-6.475333 24.976281-1.935483 10.218217-7.115749 19.098672-10.559772 28.676471-1.99241 5.521822-5.351044 10.517078-7.841556 15.868121-4.511385 9.620494-11.171727 17.803606-17.348197 26.285579-2.358482 2.80885-4.974211 5.391227-7.813093 7.713473-1.178717 1.181562-3.000778 1.431877-4.454459.611954-1.864327-.925047-4.098672-1.42315-5.564516-2.746679-4.781784-4.383302-10.232448-8.183112-13.1926-14.316888-1.734593-3.436557-2.436507-7.302025-2.020873-11.129033 1.764706-15.896584 6.774194-30.868121 12.580645-45.626186 5.564516-14.14611 11.000949-28.334914 16.736243-42.395635 6.774194-16.622391 16.081594-31.99241 24.350095-47.860532 7.59962-14.573055 15.355787-29.060721 22.542694-44.018026-.725806.66888-1.423149 1.309298-2.163187 2.020873-10.517078 11.385199-21.347249 22.443074-31.309298 34.240986-3.08415 3.700119-6.412257 7.189876-9.96205 10.445921-3.657495 3.287476-7.542694 6.446869-11.499051 9.350095-1.878558 1.42315-4.909867 3.429791-7.357685 1.70778-2.943712-1.835464-5.552364-4.160149-7.713472-6.873814-3.187856-4.682164-3.230551-8.866224-1.181215-16.963947.836846-4.062046 2.195355-7.998851 4.041746-11.712524 1.010569-1.923284 1.440709-4.098705 1.23814-6.26186-.89844.72764-1.753776 1.506945-2.561669 2.333966-9.412995 11.091926-19.620181 21.484612-30.540797 31.095826-3.201807 2.627026-6.780799 4.757149-10.616699 6.318785-4.724857 2.020873-10.075901-1.565465-11.114801-6.64611-.931181-4.455452-.872882-9.061007.170778-13.491461-1.354735.722674-2.670588 1.515986-3.942125 2.37666-4.482922 3.344403-8.795066 6.902277-13.349146 10.132828-10.929791 7.770398-21.674573 15.825427-33.002846 22.969639-11.426557 7.360093-23.740092 13.241898-36.64611 17.504744-9.819735 3.13093-19.924099 4.639469-30.199241 2.049336-21.219165-5.351044-35.037951-19.340607-37.40038-41.48482-1.622391-15.28463 2.148957-29.587286 8.325427-43.306451 11.05056-24.983625 27.185688-47.390563 47.376661-65.7922206 12.386271-11.4743767 25.855285-21.7215033 40.218216-30.597723 4.116659-2.5400249 8.395267-4.8076871 12.808349-6.788425 14.644213-6.4468691 29.003795-13.6480076 45.099621-15.654649 12.43833-1.5654649 34.582542.1280835 38.652751 15.1850095 2.049336 7.585389-2.689753 16.3377609-5.991461 22.7703985-.170778.341556-9.250475 15.654649-15.298862 12.4525617-4.08444-2.1631879-10.673624-7.1157495-9.962049-9.9620494 2.09203-8.3538899 8.026565-15.1423149 10.787476-23.3111954.782733-2.3055029-9.250474.7115749-9.691651.8254269-5.365275 1.4231499-10.602466 3.4155598-15.925047 5.0521822-9.84353 3.2421606-19.291004 7.5816019-28.164137 12.9364326-8.382353 4.7960152-15.469639 11.1574953-22.656546 17.4620494-12.695458 11.3884468-24.6015 23.6273256-35.635674 36.6318786-4.042365 4.940832-7.714578 10.173259-10.986717 15.654649-4.013283 6.333017-7.400379 13.050285-11.499051 19.297913-4.480438 7.158545-8.209884 14.760511-11.129032 22.685009-2.945921 7.457306-4.810247 15.085389-2.8463 23.396585 2.148956 9.264705 12.993358 17.817836 22.514231 17.19165 10.574004-.711575 20.308349-4.440227 29.800759-8.538899s25.132828-11.997154 34.283681-17.291271c13.519925-7.827325 26.76945-16.195446 40.018976-24.478179 6.119544-3.828273 12.011385-8.012334 17.817837-12.296015 3.955064-2.921669 7.755278-6.047345 11.385199-9.364326 7.798861-7.11575 15.38425-14.516129 24.59203-19.796015 4.127135-2.348198 7.11575-5.536054 11.755218-6.845352 3.742885-1.067362 6.304554-.56926 7.656547 1.067363 1.08824 1.45175 1.920864 3.078496 2.462049 4.810247.060839.18066.216952.312603.405224.342488.188272.029884.377569-.047232.491361-.200173 1.793169-2.476281 3.287476-4.525617 4.75332-6.589185.628156-1.083186 1.312191-2.13299 2.049336-3.145161 3.301708-3.643264 4.696395-3.742884 9.49241-.967742 3.714421 2.163188 4.796015 4.881404 3.330171 8.851993-.696765 1.782802-1.499918 3.522173-2.405123 5.208728-6.268944 11.449438-11.35224 23.509153-15.170778 35.991461-1.70778 5.97723-3.942126 11.812145-5.834915 17.732448-.49661 1.913978-.895607 3.851962-1.195446 5.806452 4.184061-1.921253 48.017078-46.494308 52.770398-53.510437-5.521821.967742-10.630929 1.537002-15.498102 3.429792-5.080645 1.99241-5.6926 2.220114-8.538899-1.152752-.941654-1.065639-1.046861-2.63205-.256167-3.814041 1.204468-1.616071 2.828746-2.871195 4.696394-3.629033 8.311196-3.700189 17.077799-5.166034 26.072107-6.034155 3.828273-.384251 6.788425-1.42315 8.880455-4.682164 2.504417-3.505679 4.831806-7.134507 6.973434-10.872865 10.983171-21.4323206 23.64608-41.9613662 37.870019-61.3946867 8.937382-12.0967742 16.907021-24.1935484 27.452562-35.0521822 1.99241-2.0398481 4.008539-4.05597718 6.048387-6.04838705 3.472486-3.44402277 10.104365-6.26185958 14.060721-1.89278937 3.529412 3.88519924 5.6926 13.98956352-.868121 21.75996202-1.821632 2.1489564-3.600569 5.1518027-5.536053 7.1157496-1.935484 1.9639468-15.654649 18.6432637-20.706831 24.8197343-10.218217 12.4810247-20.507591 24.8908918-30.75427 37.329222-6.07687 8.0950184-11.725044 16.5031484-16.921252 25.1897534 1.028121.154589 2.063741.25435 3.102467.298861 10.559772 0 21.105313-.270398 31.665085-.185009 2.198564.122004 4.367062-.555335 6.105313-1.907021 7.955408-5.920304 12.808349-14.231499 17.575901-22.5142314 9.364327-16.1812145 18.500949-32.4905124 28.135674-48.5578748 8.033089-13.110515 17.740016-25.1185915 28.875712-35.7210626 6.322915-6.21940015 14.335857-10.44116622 23.040797-12.13946872 1.56593-.27173838 3.164385-.30053936 4.739089-.085389 2.8463.25616699 7.542694 3.0740038 6.902277 5.86337761-1.203192 6.13029001-3.451302 12.00811071-6.64611 17.37666031-6.570398 10.3117323-13.835802 20.1637733-21.745731 29.4876661-6.204933 7.1157495-12.637571 13.889943-19.212524 20.5929791-5.692599 5.8206831-14.046489 11.8263757-20.351043 16.9781784-4.93833 4.0132827-7.870019 9.1366224-10.474383 14.573055-3.045541 6.333017-3.942126 8.538899-6.7315 14.943074-.281678.931235-.491029 1.88283-.626186 2.8463l17.718217 2.333966-.085389 1.266603c-4.81018.371596-9.636313.4951-14.459203.370019-4.539848-.298861-6.774194 1.42315-8.809298 5.422201-10.403226 20.151803-19.924099 40.73055-29.074953 61.480076-1.921252 4.383302-3.486717 8.937381-5.080645 13.448767-.853558 2.571982-1.049267 5.316803-.56926 7.983871 2.234346 15.398482 3.330171 30.925047.782733 46.323529-2.001525 12.30536-5.342045 24.35509-9.96205 35.934535-2.590133 6.375712-16.166983 35.906072-22.88425 34.6537-4.397533-.825427-7.11575-3.956356-9.648957-6.219165-4.383301-3.856736-5.464895-9.535104-6.219165-15.327324-.968575-9.103616-.444607-18.304293 1.551234-27.239089 4.985229-25.441629 12.50862-50.319356 22.457305-74.259962 9.535105-23.040797 19.36907-45.996205 32.205883-67.5 2.66129-4.468691 4.75332-9.278938 7.115749-13.94687zm-123.814042 207.352941 1.42315.597723c2.46403-2.463182 4.755952-5.092711 6.859583-7.870019 5.132827-7.713473 10.104364-15.536053 14.914611-23.467742 17.077799-28.021822 25.075901-58.57685 25.075901-91.295067 0-1.850095-.241935-3.685958-.370019-5.521821l-.981973-.113852c-19.615904 40.990183-35.330359 83.7356-46.935484 127.670778zm116.072107-206.797913c-2.220114.199241-3.714422.313093-5.194497.498102-2.518976.313093-5.02372.711575-7.542695.996205-6.034156.697344-12.082543 1.266604-18.088235 2.077799-2.518976.327325-4.909867.996205-6.190702 3.799811-7.030361 15.38425-14.231499 30.697343-21.26186 46.038899-.339401.930186-.619843 1.880836-.839658 2.8463zm52.258064-46.3662239c.668881 0 1.024668 0 1.181215-.0996205 1.081594-.9535104 2.134725-1.9354839 3.173624-2.8462998 15.38425-14.772296 28.377609-31.5654649 40.659393-48.8994307 3.287476-4.6394687 5.60721-9.9620494 8.16888-15.0996205.796964-1.5939279 1.665086-3.5578748-.142315-5.39373817-2.90942-.11363089-5.719244 1.06972743-7.670778 3.23055027-4.475451 4.5161463-8.681025 9.2919678-12.594876 14.3026566-4.824479 6.503795-8.837761 13.6195446-13.47723 20.2656546-6.604773 9.5807624-12.37999 19.7076282-17.262808 30.2703985-.654649 1.3092979-1.309298 2.6897533-2.049336 4.2694497zm-90.740038 239.5161289c4.696395-5.265655 6.859583-10.047438 10.3463-15.241935 3.486717-5.194498 5.777989-12.694498 7.386148-18.927894 1.60816-6.233397 3.187856-12.409867 4.26945-18.685958 1.139124-6.28819 1.91838-12.636276 2.333966-19.013283.355787-6.204934 1.095825-12.466793-.085389-19.440228-8.681215 17.533207-25.502847 80.578748-24.264706 91.309298zm-136.907021-128.325427c-.213472.384251.56926 1.152752 1.053131.896585 2.53337-1.571597 4.958194-3.311765 7.258065-5.208729 5.692599-5.336812 11.271347-10.858634 16.764706-16.437381 11.114801-11.271348 22.016129-22.770399 31.565465-35.393739 2.419354-3.202087 2.518975-3.415559-.156547-6.389943-.308877-.33572-.816385-.396137-1.195446-.142315-23.695446 16.252372-42.72296 36.603416-55.289374 62.675522zm215.279887-178.2922199-.640418-.9819735c-1.949715-1.2950664-9.720114 6.8026566-11.242884 8.126186-8.92315 7.699241-15.498103 17.6185958-21.759962 27.4952562-2.533207 4.0132827-4.966793 8.0834914-7.357685 12.1963947-1.124289 1.9070208-2.248577 3.8140417-3.23055 5.7922201-.483871.9535104-.939279 1.9354838-1.42315 2.8462998-.573296 1.0551634-1.072601 2.1488776-1.494308 3.2732448.920363-.8953021 1.785341-1.8458284 2.590133-2.8462998l2.675522-3.0740038c7.329222-8.439279 14.658444-16.8500949 21.774193-25.3889944 3.586338-4.3833017 7.11575-8.8377609 10.460152-13.3918406 1.053131-1.4373814 10.374763-12.9791271 9.648957-14.0464895z" fill-rule="nonzero"/><path d="m1247.0351 104.758065c-6.81688.526565-12.69449.967741-18.50094 1.423149-13.9611 1.110057-27.90797 2.504744-41.86907 3.244782-6.38932.23737-12.78696-.11038-19.11291-1.038899-6.11954-.782733-11.78368-3.244782-15.48387-8.5388997-4.02751-5.6925996-3.71442-12.0683112-1.66508-18.3728652.42694-1.3235294 1.42315-3.2163188 2.8463-3.4582543 2.50474.4411765 2.94592 2.4193548 3.23055 5.0237192.3782 3.4640068 3.20931 6.1445267 6.6888 6.333017h.07116c6.85958.341556 13.71916.5265655 20.57875.3842505 7.82732-.1565465 15.65464-.5834914 23.45351-1.1812144 14.70113-1.1100569 29.37381-2.4905123 44.11764-3.7144213 1.3093-.0996205 2.63283-.0996205 3.94213-.1565464 1.55622.0794059 2.96582-.9131921 3.41556-2.4051234 1.19544-2.9743833 14.85768-23.1546489 17.60436-25.1470588 1.28159-1.1263248 3.06853-1.4793685 4.68217-.9250474 5.21744 1.576914 9.52729 5.2821486 11.86907 10.2039848 2.39089 4.6110057-6.56073 16.2381404-3.79981 16.3235294 11.66982.341556 23.33965.6404174 34.99525 1.3092979 9.60916.4268864 19.0607 2.5968823 27.89374 6.4041746 3.66971 1.9019341 7.14862 4.1513138 10.38899 6.7172675.85389.6119545 1.22391 1.8927894 1.90703 2.988615-7.25807-.9535106-13.96111-1.963947-20.67837-2.6897535-4.26945-.455408-8.61006-.683112-12.9222-.7258065-5.57875 0-11.1575.0711575-16.72202.28463-7.79886.28463-15.60246.6736243-23.41081 1.166983-2.02086.0881263-4.01042.5313225-5.87761 1.3092979-1.57318.8247131-2.88072 2.0779771-3.77135 3.6148011-2.8463 5.479127-5.40797 11.1148-8.15465 16.650854-4.52561 9.136622-9.17931 18.216318-13.66224 27.381404-7.00189 14.302656-14.14611 28.548387-20.74952 43.050284-4.95256 10.858634-9.10816 22.087287-13.66224 33.13093-2.49051 6.034156-5.06641 12.039848-7.59962 18.059772-.36263.7157-.36263 1.561341 0 2.27704 1.69355-1.537002 3.48672-2.974383 5.05218-4.639468 7.35769-7.78463 14.90038-15.426945 21.91651-23.524668 18.28074-21.425235 37.86232-41.70548 58.63378-60.725807 5.79222-5.237191 10.83017-11.385199 16.39468-16.835863 2.44918-2.506864 5.20312-4.69663 8.19735-6.518027 2.16247-1.25464 4.76035-1.517798 7.1305-.722299 2.37015.795498 4.28323 2.572677 5.2509 4.877897.92505 2.447818.71158 4.539848-1.62239 5.279886-7.65655 2.419355-11.66983 8.880456-16.08159 14.530361-7.00662 8.884557-13.43359 18.211271-19.24099 27.922201-4.68122 8.191917-7.98878 17.095403-9.79127 26.356736-1.42315 6.873814.78273 8.894687 7.37191 6.333017 5.03116-2.019895 9.86641-4.497067 14.44498-7.400379 17.76091-11.029412 31.30929-25.787477 38.42504-45.683112 1.72201-4.724858 2.13473-9.96205 3.07401-14.943074.80464-2.731473-.53278-5.637322-3.13093-6.802657-6.84596-3.242423-12.61939-8.378744-16.63663-14.800759-1.42315-2.27704-3.25901-3.785579-3.45825-6.546489-.01018-.700446.49088-1.304136 1.18121-1.42315 2.51105-.165058 5.03274.036294 7.48577.597723 4.78065.526553 9.37674 2.142976 13.43454 4.724857 2.4914 1.860354 4.69696 4.075503 6.54649 6.574953 2.06357 2.604364 4.35484 8.538899 6.03415 8.92315 2.94592.754269 5.86338 1.622391 8.83776 2.262808 23.22581 5.109108 48.1594 10.773245 71.94023 9.962049 9.44532-.130147 18.83278-1.498554 27.9222-4.070208 9.50664-2.8463 16.69355-7.983871 18.94213-18.301708.09263-.295353.24798-.567209.45541-.796964.07115-.085389.25616-.099621.38425-.142315 4.59677 6.389943 3.67172 9.962049-.19924 15.555028-3.87097 5.59298-10.10437 8.5389-16.72202 10.460152-15.28463 4.26945-30.92504 4.739089-46.62239 3.98482-9.72011-.455408-19.46869-1.152751-29.11764-2.419355-9.64896-1.266603-18.87097-3.387097-28.30646-5.037951-2.59013-.455408-5.25142-.583491-7.74193-.853889-.92505 4.824478-1.42315 9.12239-2.59013 13.192599-3.20209 10.673624-6.85959 21.048387-13.57685 30.327325-6.06432 8.042492-13.19307 15.223902-21.19071 21.347248-7.13054 5.987916-15.51543 10.297089-24.5351 12.609108-5.20125 1.199837-10.66711.200005-15.10681-2.763389-4.4397-2.963393-7.45965-7.627629-8.3467-12.89126-1.21357-7.11901-.6015-14.429522 1.77894-21.247628.69734-2.248577 1.42315-4.497153 2.37666-7.59962-1.00919.600413-1.96186 1.291097-2.8463 2.063567-8.45351 9.810247-16.87382 19.634725-25.26091 29.473435-4.26945 4.981024-8.28274 10.090133-12.4241 15.142315-4.6537 5.692599-9.00854 11.612903-14.04649 16.892789-6.68881 7.016129-13.13568 14.388046-21.84535 19.155598-3.52941 1.921252-10.55977.298861-13.60532-3.728653-2.77623-3.360668-4.41108-7.517565-4.66793-11.86907.00271-3.19671.28366-6.387118.83966-9.535105 1.63662-10.317836 5.35104-20.03795 8.89469-29.800759 12.40987-34.326375 27.63757-67.414611 43.30645-100.332068.79696-1.508539 1.40892-3.116698 2.41935-5.521821z"/><path d="m178.107211 149.103416c-8.866224 1.423149-16.864327 2.632827-24.762809 4.269449-10.047438 2.020873-20.009487 4.383302-30.014231 6.574953-2.988615.654649-5.97723 1.223909-8.965845 1.835863-2.988614.611955-3.942125.213473-5.479127-2.647059-.768501-1.42315-1.52277-2.846299-2.504744-4.75332-2.163187 3.130929-3.956356 5.948766-5.962998 8.538899-3.572106 4.724858-7.8557872 9.008539-10.7447815 14.103416-3.6148007 6.318785-8.5388994 11.456356-12.9222011 17.077799-6.6230741 8.797365-14.2988284 16.750326-22.8557875 23.681214-3.8282732 3.031309-7.727704 5.962998-11.6271347 8.894687-4.1316031 2.927885-8.7975338 5.016675-13.7333966 6.148007-1.9212524.498103-3.8282732 1.053131-5.6925996 1.579697-.597723.156546-1.2808349.56926-1.7647059.412713-6.3683486.574317-12.78451198.311164-19.08444023-.782732-.68240092-.227977-1.34031731-.523563-1.96394687-.882353.47502677-.7924 1.03321208-1.531876 1.66508539-2.205882 7.03036053-5.863378 14.23149901-11.555978 21.14800761-17.533207 13.327968-11.538161 25.9235612-23.896102 37.7134725-37.001898 18.9228869-21.146558 34.9853913-44.687673 47.7751425-70.018975 5.79222-11.2998103 11.513283-22.6565466 16.821632-34.1555978 3.742884-8.126186 6.731499-16.6223909 9.962049-24.9620494.180576-.6570501.30437-1.3283989.370019-2.0066413-3.629032-.5265655-6.745731.9250474-9.805503 1.9354839-9.257607 3.2015455-18.127054 7.4310022-26.4421251 12.6091081-8.7666034 5.2798862-17.6612903 10.3747628-26.2144213 15.9819734-8.9231499 5.8633777-18.0313093 11.5702088-25.4032258 19.4686907-.9658144 1.1561907-1.6741454 2.5049305-2.0777988 3.9563568-1.1812145 3.6290326-3.9990513 4.5113856-6.8880456 2.0208726-2.8889943-2.4905121-3.1736243-5.3225804-.370019-7.8130927 6.0626186-5.3795067 12.0256167-11.0009488 18.7144213-15.512334 18.1832255-12.5060531 37.5105972-23.260954 57.7229603-32.1204934 6.987666-2.9886148 14.53036-4.6821631 21.831119-6.9449715 1.750475-.540797 3.529412-1.0673624 5.30835-1.5227704 4.838709-1.2096774 8.06926 1.8500949 7.286527 6.7599621-.896584 5.5787476-1.42315 11.2571157-2.703985 16.7220113-1.949951 8.7955596-4.387297 17.4759317-7.300759 26.0009488-4.556685 12.2476185-9.743882 24.2513238-15.540797 35.9629978-3.942125 8.055029-8.311195 15.896585-12.666034 23.738141-.38425.711575-.66888 1.42315-1.280835 2.718216 2.305503-.313093 4.112903-.426945 5.877609-.811195 21.717268-4.710627 43.648008-8.111955 65.678368-10.929792 2.442426-.11793 4.605654-1.613427 5.578748-3.856736 6.987666-13.790322 13.847249-27.651803 21.048387-41.2713472 9.634725-18.2874762 19.539848-36.418406 29.316888-54.6347248 2.333966-4.3690702 4.625237-8.7808349 7.030361-13.4060721.707627-1.3393504 2.340285-1.8898254 3.714421-1.2523719.487969.2143178.963145.4566573 1.42315.7258064 3.102467 1.9354839 6.276091 3.8282733 9.179317 6.0483871 1.35747 1.2260874 2.56166 2.6118621 3.586338 4.1271347.161399.2463139.161399.5648816 0 .8111955-19.041746 32.9174573-39.022771 64.8387097-52.884251 100.2039853l30.75427 1.223908.085388 1.195446-14.046489 2.533207c-6.276091 1.13852-12.808349.910816-18.742884 3.771347-1.868069.68555-3.398165 2.067737-4.26945 3.856737-3.13093 7.115749-6.404175 14.231499-9.59203 21.347248-5.422202 12.125237-11.086338 24.193549-16.13852 36.418406-4.468691 10.858634-8.339659 21.987666-12.296015 33.045541-1.42315 4.184061-6.26186 5.877609-9.549336 2.718216-3.4025-3.297993-6.525189-6.872901-9.335864-10.687855-.891055-1.58114-1.096728-3.457904-.56926-5.194498 1.859816-7.252518 4.169796-14.382085 6.916509-21.347248 5.777988-13.462998 12.182163-26.655598 18.387097-39.933586 2.19165-4.710627 4.568311-9.321632 7.300759-14.829222z"/><g fill-rule="nonzero"><path d="m1108.94687 135.28463c-4.26945 3.79981-8.75237 7.428842-12.80835 11.385199-13.02182 12.808349-25.27514 26.214421-37.0019 40.147059-5.56451 6.589184-11.3852 12.993359-16.55123 19.924099-4.55408 6.119544-8.3112 12.808349-12.49526 19.212523-.50072.927767-1.32701 1.637462-2.31973 1.99241-1.96578.406898-3.98499.488628-5.97723.241936-1.15076-.385097-2.11549-1.187345-2.70399-2.248577-1.25219-1.841652-2.28391-3.823901-3.074-5.906072-.81245-1.8777-1.16847-3.921174-1.0389-5.962998.50782-3.797754 1.48789-7.517232 2.91746-11.072107 6.70303-15.555028 13.63377-31.024667 20.57875-46.480075 4.71062-10.488615 9.8055-20.820684 14.23149-31.408919 2.43359-5.692599 3.9279-11.826376 5.86338-17.746679.46964-1.42315 1.02467-2.8463 1.62239-4.568311 4.05598-2.376661 9.87666 2.433586 13.80456 5.692599 2.36243 1.89279 4.48292 4.08444 6.84535 5.97723 2.24932 1.69344 3.10312 4.673047 2.09203 7.300759-.51746 1.85197-1.20343 3.652659-2.04934 5.379507-6.13377 12.054079-12.28178 24.093927-18.50095 36.07685-3.24478 6.190702-6.73149 12.25332-9.49241 18.956356.95351-.882353 1.96395-1.70778 2.8463-2.66129 9.23625-9.962049 18.27325-20.137571 27.70873-29.886148 8.9935-9.119705 18.74377-17.460752 29.14611-24.933586 3.42979-2.504744 6.83112-2.405124 10.44592-1.565465 3.03131.711575 5.62145 5.934535 4.62524 9.962049-1.18749 4.63222-2.69004 9.177907-4.49715 13.605313-3.37287 8.410816-7.11575 16.679317-10.48862 25.090133-2.3055 5.6926-3.41556 11.669829-5.32258 17.56167-1.21993 3.23715-2.17189 6.569036-2.8463 9.962049 2.18349-.991137 4.29074-2.142279 6.30456-3.444023 8.83776-7.115749 17.98861-13.918406 26.28557-21.617647 12.34646-11.396977 25.55986-21.817336 39.52088-31.166983 4.9241-3.301707 11.04364-5.60721 16.69355-5.22296 6.40417-.241935 6.40417-.241935 8.04079-2.163188.55503-1.423149 1.13852-2.732447 1.8074-4.340607.34943-.84418 1.1644-1.402375 2.0778-1.42315 2.23766-.113177 4.47961-.113177 6.71727 0 1.8074.142315 2.54744 2.390892 1.56546 4.127135-2.36242 4.127135-2.12049 3.870968-4.26945 8.126186-1.87216 3.678191-3.3968 7.523152-4.55408 11.48482-2.76091 9.962049-5.35104 20.03795-7.685 30.128083-1.25238 5.422201-1.75048 11.000949-2.76092 16.480076-.62618 3.315939-1.537 6.574953-2.31973 9.705883-.09962.398481-.45541.796963-.83966.683111-14.07495-3.885199-14.78653-7.21537-12.80835-22.613852.56926-4.397533 2.13473-8.638519 2.60437-13.349146-2.6186 2.647059-5.10911 5.422201-7.87002 7.898482-4.14137 3.714422-8.39659 7.343454-12.80835 10.787477-1.49164 1.044772-3.15981 1.811361-4.9241 2.262808-2.38701.727893-4.91761-.58802-5.6926-2.960152-1.69668-5.088649-1.22844-10.650862 1.29507-15.38425 1.42315-3.002847 2.8463-5.777989 4.59677-8.666983.5408-.896585 1.537-3.216319 1.537-3.216319s-4.95256 6.133776-8.28273 9.463947c-2.8463 2.94592-5.52182 6.219165-8.5389 9.122391-3.99905 3.89943-17.74668 17.37666-19.08444 19.141366-7.0019 6.347249-16.11006 9.165085-22.55693 6.802657-1.67605-.552538-3.15801-1.575092-4.26944-2.945921-5.25143-7.471537-5.03796-18.714421-1.86433-27.495256 5.13757-14.231499 9.96205-28.662239 16.69355-42.267552.15212-.425541.26642-.863672.34155-1.309298zm86.81214 6.873814c-9.18722 3.251022-17.26498 9.039177-23.29696 16.693548-4.62524 5.891841-9.22201 11.812145-13.4203 18.002847-2.19475 3.158195-3.74698 6.717187-4.56832 10.474383-.0564.271796.05039.551582.27356.716664s.52196.185319.76534.051837c11.05788-6.133776 35.86338-33.159393 41.04365-45.142315.06966-.217464.01542-.455604-.14155-.621452-.15696-.165847-.39176-.233104-.61272-.175512z"/><path d="m1001.1148 160.91556c-4.425995 4.340607-8.154648 8.026565-11.911764 11.68406-8.324149 8.150149-17.499095 15.383232-27.367173 21.574953-5.920303 3.728653-11.96869 7.300759-18.130929 10.63093-7.300759 3.927894-14.971537 5.208728-22.955408 1.907021-.59303-.242639-1.207737-.428481-1.835864-.555029-7.713472-1.608159-11.499051-6.902277-13.121442-14.117647-2.353144-10.199269-1.411427-20.882032 2.689753-30.512334 6.105546-14.539212 16.022714-27.160616 28.704934-36.532258 10.985003-8.294289 22.78701-15.447021 35.22296-21.347248 5.11792-2.692414 10.952669-3.7080187 16.679317-2.903226 5.466211.951437 9.86343 5.025413 11.228656 10.403226.07115.298861.19924.611954.25616.925047.34156 2.120493 1.55124 4.625237.82543 6.290323-1.18262 2.816348-3.087322 5.270855-5.521821 7.115749-11.541746 8.325427-23.92315 15.085389-37.998102 18.202087-2.006642.455408-4.070209.683112-6.119545.953511-3.199587.267125-6.080311 2.043131-7.756167 4.781784-3.757116 5.906072-7.841556 11.598671-11.940228 17.277039-3.557874 4.938331-4.767552 10.759014-6.660341 16.337761-.595783 1.811996-1.071202 3.661375-1.42315 5.536053-.370019 1.807401-.555029 3.657496-.953511 6.375712 2.396876-.274277 4.773677-.702101 7.11575-1.280835 9.962049-3.187856 19.013283-8.296964 27.90797-13.67647 19.6537-11.869071 36.660341-27.296016 55.118595-40.773245.8296-.481282 1.53603-1.148735 2.06357-1.949716.973-2.298466 3.43282-3.590911 5.87761-3.088235 3.60057.355788 7.01613 1.309298 9.27893 4.26945.56926.754269.14232 2.746679-.44117 3.814042-1.82163 3.315939-4.14137 6.347248-5.92031 9.677419-7.31499 13.662239-12.93643 28.078747-18.33017 42.566414-.66888 1.778937-1.82163 3.372865-2.64706 5.109108-.93927 2.006641-2.63282 1.921252-4.454455 1.949715-2.09203 0-3.017077-1.081594-3.942125-2.8463-3.102288-5.52281-3.470198-12.171467-.996205-18.002846 2.433587-6.247628 4.724858-12.523719 7.457305-19.796015zm-11.641365-48.173625c-.139607-.393071-.542772-.627749-.953511-.555028-5.863378 1.053131-11.171727 2.647059-15.512334 6.674573-4.995256 4.6537-10.104364 9.165085-14.985768 13.932638-1.223909 1.195446-3.244782 2.220113-2.8463 4.810246.593297.129394 1.203476.163026 1.8074.099621 10.599251-3.003089 20.572692-7.886171 29.444972-14.416509 3.700189-2.832068 4.596774-6.034155 3.045541-10.545541z"/><path d="m509.089184 20.7779886c-5.493359-1.3235294-10.901328-2.2485768-16.636622-.1850095-11.3852 4.0986718-20.649905 11.1432638-28.676471 20.0094877-5.553032 6.3216676-10.601718 13.0691107-15.09962 20.1802656-9.071497 13.5260741-17.248352 27.6311488-24.478179 42.2248576-2.09203 4.26945-4.027514 8.880456-7.243833 12.1537-14.53036 14.701139-28.648007 29.686907-43.505692 44.117647-5.507591 5.30835-14.743833 14.800759-20.151803 20.222961-9.734345 9.69165-19.240987 19.739089-28.818786 29.558823-.725519.658207-1.490711 1.271312-2.291271 1.835863.943967-3.510533 2.186641-6.93384 3.714421-10.232447 1.935484-4.995257 3.98482-9.96205 6.204934-14.829222 4.354839-9.549336 8.937381-18.98482 13.448766-28.462998 2.945921-6.190703 5.891841-12.395636 8.92315-18.500949 4.639469-9.421253 9.364327-18.799811 14.04649-28.206831 1.295066-2.590133 2.590133-5.194498 3.828273-7.827325 2.760911-5.906072 5.379507-11.8975331 8.240038-17.7466792 2.547438-5.1944971 5.436433-10.2182163 8.040797-15.3842504 2.604364-5.1660342 4.596774-10.2751424 7.329222-15.1565465 3.472486-6.2049336 6.176471-12.8083492 10.588235-18.5009488 3.41556-4.4117647 8.809298-6.0626186 4.354839-10.4886148-3.730553-3.5881399-7.946244-6.634935-12.523719-9.0512334-3.771347-1.9924099-4.127135-2.1631879-6.304554 1.6793169-.384251.6688804-.725807 1.3519924-1.081594 2.0351044-4.74666 9.1490415-9.021707 18.5351455-12.808349 28.1214421-5.493359 14.060721-11.285579 28.0075901-17.703985 41.6698292-6.816888 14.5018975-9.350095 19.4117645-16.565465 33.3017075-20.877609 22.172676-45.085389 54.079697-64.625237 77.74668-.611955-.483871-.241936-.967742-.170778-1.209678 3.458254-12.196395 8.709677-23.723909 13.434535-35.436432 1.209677-2.960152 2.148956-6.034156 3.429791-8.965845 2.020873-4.568311 4.041746-9.165085 6.432638-13.548387.882361-1.492226.882361-3.346483 0-4.83871-2.17742-3.387096-5.607211-4.739089-9.193549-5.692599-4.682163-1.337761-5.166034-1.053131-7.713472 3.031309-.278193.367645-.592891.706184-.939279 1.010436-3.458254-.697343-7.115749-.811195-10.232448-2.220113-2.946281-1.324215-6.318424-1.324215-9.264706 0-9.762808 3.643263-19.269449 7.870019-27.509487 14.43074-9.011896 6.860752-17.303941 14.61875-24.748577 23.154649-4.924099 5.934535-8.937382 12.424098-10.203985 20.265654-1.42315 8.681215 4.155598 14.701139 12.808349 14.103416 4.131767-.382043 8.074832-1.909981 11.385199-4.411765 5.6926-4.055977 11.129033-8.538899 16.750475-12.808349 5.854423-4.181448 11.245527-8.976191 16.081594-14.302657 2.148956-2.462049 4.724857-4.568311 7.115749-6.831119.046438 1.559877-.285608 3.107795-.967742 4.511385-2.134725 5.075901-4.278937 10.151803-6.432637 15.227704-2.419355 5.6926-3.472486 11.214421-1.665086 17.732448 1.60816 5.6926 4.981025 9.3074 9.122391 12.666034 2.27704 1.864326 3.202087 2.177419 5.6926 1.181214 3.970588-1.295066 5.094876-2.775142 5.863377-2.960151 4.710627-3.814042 4.895636-5.820683 7.78463-9.421253 8.5389-10.73055 16.807401-21.759962 25.132828-32.732448 4.08444-5.351043 8.183112-10.673624 12.1537-16.095825 3.429791-4.724858 6.774193-9.506641 10.118596-14.231499-4.027514 7.329222-8.197344 14.573055-11.997154 22.016129-6.048387 11.826376-11.797913 23.809298-17.390892 35.849146-3.088235 6.64611-5.820683 13.47723-8.311195 20.365275-2.020873 5.607211 3.500949 19.013283 10.787476 18.814042 7.68501-.241935 15.654649-13.704934 20.308349-18.685958 4.127135-4.454459 7.756167-9.364327 11.698292-13.989564 4.966794-5.806451 10.075902-11.499051 15.028463-17.305503 6.461101-7.556926 14.089184-15.370019 20.749526-22.770398 7.813093-8.624289 11.100569-11.385199 19.212524-19.696395 3.486717-3.557875 7.115749-6.119544 10.744782-9.506641l.626185.66888c-.811195 1.636623-13.733396 27.196395-14.573055 28.818786l-14.402277 8.183112c-6.318785 3.870968-9.819734 16.650854-9.819734 16.650854-.084429.195385-.052806.421549.081977.586283.134782.164734.350206.240516.558441.196449l14.573055-7.115749c-5.265655 10.531309-9.122391 18.685958-14.060721 29.373814-6.347249 13.747628-12.722961 27.495256-18.671727 41.413662-5.810089 13.178494-10.203811 26.936903-13.107211 41.043643-1.461692 6.55793-2.413304 13.219213-2.8463 19.924099-.06245 6.326197.504862 12.642905 1.693549 18.856736.350676 3.135653 1.211149 6.192978 2.547438 9.051233 3.273245 5.393739 4.582543 7.11575 11.143264 10.203985 1.798877.89011 3.806094 1.273843 5.806451 1.110057 8.5389-2.419355 16.537002-5.977229 20.294118-14.914611 2.718216-6.446869 5.422201-12.936432 7.628084-19.568311 1.791322-5.67561 3.278259-11.442836 4.454459-17.27704 2.262808-10.431689 4.554079-20.863377 5.393738-31.551233.355787-4.568311 1.181214-9.10816 1.337761-13.676471.483871-15.128083.66888-30.270398 1.166983-45.398482.011921-5.040143.536441-10.066006 1.565465-15 1.280835-5.265654 7.001897-18.842505 7.5-19.041746 6.759962-2.604364 9.962049-3.6148 16.850094-5.692599 15.981974-4.724858 32.604365-7.556926 49.041746-10.275142 10.261135-1.928264 20.76623-2.187768 31.110057-.768501.725807.113852 2.746679.839658 3.301708-.839659-.327325-2.348197-3.244782-3.002846-4.767552-3.79981-1.934824-.918169-3.949941-1.656569-6.019924-2.205882-6.83112-2.120494-13.918406-1.864327-20.920304-1.921253-18.201134-.137812-36.354415 1.882935-54.079696 6.019924-1.978179.441177-6.290323 1.764706-6.290323 1.764706.085389-.782732 8.681214-19.611006 12.950664-28.39184.996205-2.063568 2.234346-4.013283 3.244782-6.062619 2.8463-5.891841 5.550285-11.883302 8.610057-17.66129 1.391856-2.719158 3.196988-5.206016 5.351044-7.371917 4.710626-4.5825426 9.791271-8.7808348 14.672675-13.206831 12.43833-11.2713472 25.616698-21.759962 37.001898-34.2694497 6.403188-7.1358446 12.254945-14.7478859 17.504743-22.7703985.927162-1.406177 1.655138-2.9339692 2.163188-4.5398482.668881-2.2485768-1.679317-6.959203-3.913662-7.528463zm-234.335863 123.4155594c-12.111006 14.04649-24.976281 27.352942-39.606262 38.809298-5.060792 3.696959-10.330439 7.099185-15.782733 10.189754-1.42315.910816-4.739089 2.305502-4.981024 1.892789l-.512334-.811195c-.335249-.809653-.438724-1.696588-.298862-2.56167 1.266604-5.834915 3.088236-7.428843 5.094877-10.645162 2.429214-4.218397 5.384568-8.111048 8.795066-11.58444 7.827325-7.528463 15.654649-14.957305 24.819735-20.920303 3.439957-2.236842 7.035464-4.224834 10.759013-5.948767 3.70019-1.736243 7.613852-3.031309 11.669829-4.596774 1.380456 2.106262 1.89279 4.027514.042695 6.17647zm114.250474 91.081594c-1.110057 13.263757-2.148956 26.584441-4.26945 39.705883-3.486717 21.105313-9.59203 41.442125-20.849146 59.914611-1.42315 2.220114-2.8463 4.354838-4.425996 6.432637-1.323529 1.764706-2.960152 3.145162-5.6926 2.518976 0-8.5389-.981973-17.291272.768501-25.830171 1.522771-7.471537 3.458255-14.857685 5.550285-22.186907 2.518975-8.780835 5.592979-17.419355 8.055028-26.214421 4.639469-16.537002 12.367173-31.89279 18.13093-47.988615.725807-2.035105 1.593928-4.027515 2.390892-6.048387l.498103.09962c-.071158 6.475332.38425 13.050285-.156547 19.539848zm61.70778-151.7077796c3.970588-8.2258064 7.03036-15.6546489 10.986717-22.5711575 6.418406-11.2144212 14.231499-21.3472485 25.815939-27.8225806 2.971066-1.423885 6.032727-2.650451 9.165086-3.6717268l1.053131 1.3092979c-12.936433 19.5256167-29.928843 35.4648957-47.020873 52.756167z"/></g><path d="m1025.43643 102.310247c.36837-.406294.7733-.777875 1.20968-1.110057 3.87097-3.0313095 8.65275-.953511 12.56641.939279.92862.485399 1.77799 1.109233 2.51898 1.850095 1.56937 1.473799 1.73099 3.910589.37002 5.578747-1.71052 2.224816-3.86778 4.06697-6.33302 5.40797-3.48672 1.70778-8.38235.711575-12.06831.241935-1.30429-.17104-2.53318-.708988-3.54364-1.551233-.51234-.56926-.14232-2.419355.41271-3.372865 1.537-2.604365 2.76091-5.721063 4.86717-7.983871z"/></g></svg>