<svg height="400" viewBox="0 0 2400 400" width="2400" xmlns="http://www.w3.org/2000/svg"><g fill-rule="evenodd" transform="translate(250 72)"><path d="m1161.27482 195.754286c-1.61955-.38-2.64242-1.954286-3.63689-3.338572-2.85274-4.327555-4.25076-9.385479-4.00625-14.494285.51143-4.532858 1.76161-9.092858 2.5856-13.571429 0-.135714-.22731-.352857-.36938-.515714-.14206-.162857-.25571 0-.34095 0-.23322.089491-.45297.208145-.65351.352857-.19814.122766-.37949.268653-.53985.434286-1.32475 1.649887-2.82966 3.160309-4.48928 4.505714-2.50036 2.388571-4.83024 4.912857-7.44425 7.22-1.68757 1.701655-3.59749 3.188644-5.68263 4.424286-2.84132 1.438571-6.84758 3.637142-10.00144 2.714285-2.50036-.705714-3.40958-3.501428-4.60294-5.428571-2.50522-3.695863-3.95492-7.953436-4.20515-12.35 0-.895714 0-1.818572 0-2.714286-.39778 0-.82398 0-1.02287 0-1.443 1.049692-2.7925 2.21176-4.03467 3.474286-6.10883 6.812857-14.37707 11.318571-21.02575 17.615714-3.59245 4.05123-8.06113 7.31077-13.09847 9.554286-9.85937 3.42-22.95785 3.962857-29.09509-5.7-1.25018-1.954286-2.1594-4.098572-3.26752-6.107143-2.86767-4.976323-4.79151-10.397903-5.68263-16.014286-.0935-.317705-.21714-.626603-.36937-.922857-.28413 0-.56827 0-.73875 0-2.38203 1.757505-4.64981 3.651965-6.79074 5.672857-1.70479 1.764286-3.92102 3.04-5.68264 4.641429-1.76162 1.601428-2.84132 2.714286-4.34721 3.99-6.44979 6.107143-15.05899 13.191428-24.037549 15.444286-3.95021.692582-8.025842.277787-11.734641-1.194286-7.444251-2.225714-9.035389-7.192857-11.109551-13.842857-1.148332-4.061387-1.834224-8.229356-2.045748-12.431429-.056248-.283175-.240498-.528182-.503467-.669489s-.57783-.164497-.860366-.063368c-6.773473 3.264791-13.966794 5.664873-21.395119 7.138571-2.187815.488572-6.733923 1.357143-8.154581-.95-.219854-.519971-.35404-1.069345-.397785-1.628571 1.179949-.828245 2.523522-1.41921 3.949431-1.737143 9.033947-3.233919 17.882772-6.921438 26.509491-11.047143.767156-.325714 1.534312-.651428 2.329881-.922857 1.785734-.4595 3.20097-1.760252 3.750539-3.447143 3.835778-6.785714 7.870449-13.571428 12.274491-19.977143 4.087655-5.501405 8.954864-10.434185 14.462304-14.657142 5.13198-4.422657 11.07545-7.901083 17.53093-10.26 6.72275-2.185237 14.05034-1.943859 20.59955.678571 1.13968.35496 2.16625.980728 2.98338 1.818571 1.48215 1.85448 2.37033 4.079352 2.55719 6.405715 1.02287 6.785714-3.15386 10.612857-8.69443 14.087143-12.24324 8.048626-25.12507 15.172617-38.52827 21.307142-2.725386 1.020111-4.885913 3.074215-5.966762 5.672858-1.557724 3.632635-2.92328 7.337788-4.091497 11.101428-1.667617 5.089656-2.417042 10.413163-2.216228 15.742857.098912.242332.300279.433538.554544.526563.254266.093025.537819.079229.780875-.037991 14.718028-5.971429 26.964098-17.371429 39.352248-26.79 2.52877-1.954286 5.14278-3.827143 7.69997-5.754286 2.55718-1.927143 4.88706-3.745714 7.3306-5.618571.94976-.755453 1.74043-1.676583 2.32988-2.714286 2.84131-4.532857 5.96676-8.93 9.09221-13.327143s7.07488-9.038571 10.85383-13.381429c4.87963-5.825247 10.53425-11.01719 16.8206-15.444285 5.18271-3.5796215 10.94057-6.3298385 17.04791-8.1428574 2.04575-.5971429 4.17673-.95 6.27931-1.4385715 5.22802-1.2214285 15.7409-1.7642857 17.92871.38 3.69371 3.6642858 6.42138 10.5857139 1.36383 13.7071429-1.42065.868571-12.70068.407143-16.53646 1.547143-3.85533 1.203837-7.51753 2.911971-10.88225 5.075714-6.7181 4.432137-12.58207 9.942104-17.33203 16.285714-4.4457 5.947256-8.46129 12.177449-12.01878 18.647143-4.00881 6.771344-7.14748 13.980135-9.34793 21.47-.8524 3.148572-3.32434 11.942857 1.10811 13.571429 2.53766.582363 5.20989.274105 7.52949-.868572 6.34461-2.811657 12.39536-6.192548 18.07078-10.097142 7.48973-5.054339 14.68871-10.490802 21.5656-16.285715 1.64797-1.33 3.12545-2.877143 4.77341-4.234285 6.62027-5.428572 13.43944-10.64 19.88923-16.285715l7.07488-5.862857c5.68263-4.587143 13.78039-13.082857 21.56559-13.707143 4.26198-.352857 9.94462 4.451429 10.71177 4.777143.34394.098582.71667.027367.99446-.19.40421-.421878.75691-.886289 1.05129-1.384286 1.44907-2.442857 2.84132-8.142857 6.84757-6.975714 2.84692.595324 5.49938 1.84363 7.72839 3.637143 2.24587 2.1299 3.30027 5.151658 2.84132 8.142857-.06693.453002-.25263.882493-.53985 1.248572-3.81661 6.061563-6.96822 12.483195-9.40477 19.162857-4.29038 9.771428-8.52395 19.624285-11.76305 29.857143-.08809.216635-.13616.446232-.14207.678571 0 0 0 .244286.17048.271429.17048.027142.51144.244285.62509.162857 1.20822-.743676 2.366-1.55959 3.46641-2.442857 3.69371-3.148572 7.27377-6.432858 10.88225-9.662858 6.08042-5.428571 11.6494-11.372857 17.67299-16.855714 5.00072-4.505714 9.88778-9.12 14.83168-13.571428.68191-.651429 1.33542-1.33 2.04575-2.035715 12.41655-14.358571 14.71802-18.62 17.38886-22.962857 2.07416-3.392857 4.68817-7.817143 6.36455-11.3999999 1.22177-2.7142857 2.61401-5.1571428 3.83578-7.79 6.60429-13.2884559 14.20074-26.1058237 22.73054-38.3528571 3.42482-5.5280864 7.16194-10.8740818 11.19479-16.0142857 2.04574-2.47 4.09149-4.9671429 6.22248-7.3285714 4.74119-5.5777556 10.42668-10.3576667 16.8206-14.1414286 2.01765-1.0502815 4.14028-1.9050174 6.33614-2.5514286 3.18227-.95 8.35347-2.44285713 11.67781-1.62857141 9.31952 2.30714281 8.23982 10.28714281 4.11991 17.07285711-8.63654 13.5702618-18.72011 26.2501933-30.08955 37.8371429-4.26197 4.5328571-8.32506 9.2285714-12.53021 13.7885714-3.80736 4.0985714-7.07488 8.4957143-11.10955 12.4314286s-9.12063 8.5228571-13.49626 12.9742857c-.11673.193155-.11673.431131 0 .624286.13112.177878.3408.288043.56827.298571 2.1594-.19 4.3188-.298571 6.4782-.597143 9.31952-1.248571 18.58222-2.47 27.95856-3.392857.60811-.04025 1.20902-.149592 1.79003-.325714.45809-.138418.86329-.4027699 1.16494-.7600001 1.44908-2.2257143 16.08186-26.6542858 18.66746-30.97 3.40958-5.6728572 6.70551-11.4271429 10.08668-17.1271429 1.0797-1.7914286 2.41512-3.42 3.55164-5.1571429 3.31747-5.0034149 6.99145-9.7828012 10.9959-14.3042857 1.98892-2.3071428 3.77895-4.7228571 5.68264-7.0028571 3.89007-4.9321671 8.18453-9.5610397 12.84275-13.8428572 3.17711-2.65814753 6.99392-4.52319835 11.10955-5.42857139 3.15386-.67857142 9.29111-2.14428571 12.04719.21714286 7.24536 6.24285713-9.14905 20.14000003-12.89958 24.67285713-2.84132 3.3928572-5.96677 6.7314286-9.12063 9.88-1.44908 1.4657143-2.84132 3.0942857-4.06309 4.6414286-1.22176 1.5471428-2.98338 2.7142857-4.40404 4.1528571-3.35275 3.3114286-7.30218 6.1071429-10.51287 9.5-4.43642 5.5940733-8.49813 11.4505186-12.16084 17.5342857-2.24464 4.0714286-8.52395 14.44-8.89333 15.77-.36937 1.33-1.33541 2.7142858-1.9605 4.0714286-.18315.4698861-.33499.9503694-.45461 1.4385714.7523.1168451 1.51142.189363 2.27305.2171429 12.3029-.2442857 24.77629-1.4928571 36.93712-1.1128571 2.55719 0 5.02914-.6514286 7.58632-.7871429 6.50662-.3528571 12.18925-2.2257143 18.89476-1.1942857 3.88053.5069717 7.69153 1.4171252 11.36527 2.7142857 5.68264 2.2528571 7.1033 5.157143 6.56345 10.857143-.5981 4.844663-2.50773 9.456742-5.54057 13.381428-6.19408 8.414286-15.68408 14.032858-24.00914 20.302858-4.85865 3.664285-9.77413 7.274285-14.8885 10.585714-4.51895 3.092899-9.378 5.705054-14.49072 7.79-1.45842.541509-2.82701 1.282062-4.06308 2.198571-2.41512 1.9-5.02913 14.602857-5.25644 15.824286-.28413 1.764286-3.38117 13.354286 1.10812 10.857143 1.25018-.705714 2.50036-1.411429 3.6653-2.198572 11.66865-7.809119 22.62756-16.543843 32.76038-26.111428 4.60294-4.397143 9.14905-8.875714 13.83722-13.191429 6.2509-5.781428 12.3029-11.725714 18.98-17.072857 1.16262-1.154646 2.39603-2.242277 3.69371-3.257143.75884-.56689 1.70957-.847088 2.67084-.787143 1.42066 0 2.84132.461429 4.29039.597143 1.96051.217143 2.84132.57 2.98338 3.148572.71033 7.138571-3.77895 15.417143-7.01805 21.714285-6.23827 11.367618-11.00871 23.416731-14.20659 35.882858-.25572 1.031428-2.5856 7.328571-4.17673 6.351428-1.59114-.977143-3.23911-5.428571-4.48929-7.301428-1.80382-2.194953-2.8555-4.867738-3.01179-7.654286.40585-3.006204 1.31734-5.930048 2.69925-8.658572 2.49952-6.362099 5.3447-12.595328 8.52395-18.674285.19379-.410412.34602-.837597.45461-1.275715 0 0-.2273-.352857-.36937-.57-.14206-.217142-16.79218 16.285715-18.26967 17.751429-4.9723 5.13-9.74572 10.45-15.03057 15.308571-5.49925 4.849474-11.29636 9.381329-17.36045 13.571429-5.48374 3.908571-13.35419 8.902857-20.287 5.428571-3.33596-2.230533-5.87488-5.385457-7.27378-9.038571-1.58902-4.204962-2.49918-8.616378-2.69925-13.082857-.4805-7.587131.23788-15.200128 2.13099-22.582857 1.85059-6.512491 4.42229-12.818083 7.67156-18.81 2.70114-5.11171 5.67908-10.085587 8.92173-14.901429 3.41451-5.415445 7.59252-10.35651 12.41656-14.684286.93764-.868571 2.04575-1.601428 3.04021-2.442857.35745-.377719.6896-.776607.99446-1.194285-1.53431-.352858-33.4423 2.198571-36.4541 2.714285-.56475.16994-1.04804.525821-1.36383 1.004286-3.38117 5.428571-5.68264 11.237143-8.80809 16.665714-3.43799 5.89-5.37009 12.322857-8.23982 18.484286-1.50589 3.23-2.84131 6.378571-4.06308 9.717143 2.62484 7.959274 4.4515 16.138942 5.45533 24.428571.53985 4.831429.90922 9.69 1.05129 14.548572.29548 9.894517-.40864 19.793196-2.10258 29.558571-2.04228 10.520987-5.11494 20.835372-9.17745 30.807143-2.51958 6.297731-5.69907 12.336041-9.49 18.022857-2.79518 4.597886-6.15254 8.862085-10.00144 12.702857-4.80183 4.56-13.75198 10.395715-20.74162 7.084286-5.28485-2.524286-6.44979-8.142857-8.32506-12.838571-1.38245-3.289435-2.39214-6.71085-3.01179-10.205715-.11636-.91331-.28711-1.819541-.51144-2.714285-.12953-.348945-.31137-.678088-.53985-.977143-.28413.271428-.62509.461428-.73874.705714-.99446 2.714286-2.69926 4.858571-3.69372 7.491429-1.85776 4.36009-4.38594 8.431074-7.50107 12.078571-2.75753 3.489383-5.77731 6.782371-9.03539 9.852857-4.28954 4.12622-9.70308 7.022267-15.62725 8.36-9.66048 1.954286-13.04165-5.89-15.05898-13.3-2.01417-7.067953-2.58335-14.44053-1.67638-21.714286 1.55967-13.734586 4.49009-27.295306 8.75126-40.497142 1.9321-5.835715 3.55165-11.725715 5.25644-17.615715 2.21622-7.681428 5.68263-14.928571 8.52395-22.42 4.60293-12.485714 10.54129-24.428571 15.85455-36.642857 1.36383-3.094286 2.84132-6.161428 4.06308-9.255714.09949-.318781.09949-.658362 0-.977143 0-.217143-.88081 0-1.19335.298571-4.11448 4.735714-8.66975 9.105489-13.60991 13.055715-4.745 4.18-8.8365 8.957143-13.12689 13.571428-6.56344 7.057143-14.20658 13.571429-21.33829 20.194286-1.63943 1.546992-3.37584 2.997289-5.19961 4.342857-1.81844 1.33-4.54611 3.827143-6.98964 3.854286-.30161-.00189-.60024-.057106-.88081-.162857zm37.19284 98.555714c1.10812.38 2.84132-.19 5.68264-2.334286 15.88296-12.241428 23.69659-31.322857 30.48733-49.074285 1.65739-3.97504 3.05237-8.045399 4.17674-12.187143 1.55763-6.878444 2.50807-13.869657 2.84132-20.9.55401-7.119702.55401-14.26887 0-21.388572-.46586-5.159588-1.24378-10.28911-2.32988-15.362857-.77397-3.24729-1.72233-6.454387-2.84132-9.608571-.24709-.521843-.57253-1.006468-.96605-1.438572-.10122-.136396-.26538-.217451-.4404-.217451s-.33918.081055-.44041.217451c-.19889.271429-.51143.57-.51143.868572-.38289 2.149096-1.20342 4.205553-2.41512 6.052857-4.0915 9.228571-7.47267 18.728571-10.91066 28.201428-8.04093 21.985715-15.9682 44.107143-20.57114 67.042858-1.19335 5.971428-2.10257 12.024285-3.01179 18.022857-.48303 2.795714-2.38671 10.748571 1.25017 12.105714zm88.90483-129.498571c-.14207 0-.34096 0-.34096.19-1.16494 3.365714-5.19961 13.571428-6.0236 15.118571-.36937.705714-4.20515 11.128571-5.68263 15.145714-.99446 2.524286-1.9321 5.102857-2.84132 7.681429-.90922 2.578571-2.13099 5.645714-3.21069 8.468571-.82398 2.09-1.50589 4.234286-2.47194 6.297143-.96476 1.94222-1.69861 3.981616-2.18782 6.08-.68191 3.012857-1.93209 5.862857-2.84131 8.821429-3.35276 12.485714-9.17746 26.6-7.27378 39.655714.39779 2.714286.68192 5.428571 1.05129 8.142857.0206.834124.53967 1.583203 1.33542 1.927143.30206-.174566.58732-.374398.85239-.597143 2.09513-1.911135 4.07763-3.931861 5.93836-6.052857 3.06862-3.827143 6.08042-7.735714 8.77967-11.834286 4.93833-8.00365 8.59669-16.667454 10.85383-25.704285.59668-2.035715 1.36383-4.017143 1.84686-6.08.48302-2.062858.88081-4.315715 1.27859-6.487143 1.69393-9.749247 2.48309-19.622376 2.35829-29.504286 0-5.184286-.25571-10.368571-.56826-15.552857-.17048-2.877143-.4262-5.727143-.36937-8.631429 0-2.062857 0-4.125714-.25572-6.215714-.04502-.296085-.12117-.587081-.2273-.868571zm-34.35153 25.188571c.68191-.217143.85239-.814286 1.0797-1.302857 1.44907-3.04 2.84132-6.107143 4.3188-9.12.58612-1.005458 1.09878-2.048421 1.53431-3.121429 2.30147-7.165714 5.99518-13.897143 8.95015-20.818571 5.68264-13.218572 13.04165-25.541429 19.88922-38.19 1.27893-2.275283 2.23446-4.703358 2.84132-7.22-.77766-.649709-1.83509-.902246-2.84132-.678572-3.06862.271429-5.54057.515715-8.35347.922858-5.37009.787142-10.11509 1.167142-16.13868 1.872857l-3.86419.488571c-1.74814.089303-3.48649.30709-5.19961.651429 0 0-1.36384 3.175714-1.81845 4.505714-3.0048 8.455369-6.80891 16.63195-11.36527 24.428571-.84006 1.433419-.84006 3.180868 0 4.614286 1.91644 3.200608 3.31504 6.659739 4.14833 10.26.12793.557358.30863 1.102457.53985 1.628572 2.04325 5.657737 3.44355 11.509009 4.17673 17.452857.68196 3.507299.96773 7.074411.8524 10.64.02076 1.107747.46549 2.169875 1.25018 2.985714zm17.9003-108.87c.37986-.1070392.74299-.2622302 1.0797-.4614286.88081-.8142857 1.70479-1.6285714 2.50036-2.4971428 5.08596-5.4285715 10.22874-11.0471429 15.25787-16.6385715 8.50855-9.0356988 16.34149-18.6317436 23.44087-28.7171428.99446-1.4928572 1.9321-2.9857143 3.0118-4.4514286s4.00625-4.6414286 3.18227-6.7585714c-1.7332-4.4514286-13.78039 5.1571428-15.25787 6.5414286-3.45422 2.905496-6.65644 6.0734712-9.57524 9.4728571-3.7143 4.4340936-7.09449 9.114423-10.11509 14.0057143-4.43246 7.7085714-7.21695 16.2857143-11.36527 23.94-.71033 1.33-1.33542 2.7142857-1.9321 4.0985714-.16313.500519-.2399 1.0230635-.2273 1.5471429zm76.40302 66.662857c.62509.217143 1.87527-.841428 2.24464-1.085714 1.73321-1.14 3.438-2.334286 5.11437-3.555714 3.63689-2.714286 7.1033-5.428572 10.59812-8.142858 4.67563-3.56258 9.00275-7.523625 12.92799-11.834285 2.8227-3.153539 5.45064-6.461526 7.87045-9.907143.88081-1.33 1.76162-2.714286 2.55719-4.071429.48302-.841428 1.70479-3.094285.76715-4.017143-2.32988-2.28-9.12063 1.682858-11.02431 2.714286-3.97214 2.399497-7.52857 5.375683-10.54129 8.821429-3.32434 3.447143-6.19407 7.22-9.17745 10.857143-2.3583 2.958571-4.14833 6.27-6.36455 9.337142-1.0797 1.492858-6.2509 8.794286-5.22803 10.64.01203.146715.11165.273605.25572.325715zm-180.5373-19c-6.22249-1.845714-11.99036 6.84-15.39994 10.422857s-6.33614 6.677143-9.17746 10.07c-2.94611 3.778264-5.66857 7.71108-8.15458 11.78-1.30701 1.981429-6.96123 8.631429-4.54611 11.074286.76716.787143 1.61955 0 2.24464-.434286 1.14319-.63329 2.22692-1.359804 3.2391-2.171428 3.23236-2.414543 6.30675-5.016088 9.20587-7.79 3.21069-2.931429 6.27931-6.025715 9.37635-9.092857 1.84686-1.845715 3.72213-3.664286 5.34168-5.645715 2.84131-3.365714 5.31326-6.84 7.87045-10.341428 1.02287-1.411429 1.79003-2.985715 2.61401-4.397143.82398-1.411429-.8524-2.714286-1.73321-3.067143zm-128.37072-9.364286c.01647-.098901.01647-.199669 0-.298571-1.36383-2.714286-7.58632-.95-9.60366-.298571-3.52457 1.279429-6.79961 3.114396-9.68889 5.428571-2.26455 1.729443-4.37442 3.636031-6.30772 5.7-1.74393 2.021216-3.32988 4.16223-4.745 6.405714-.73874 1.085715-1.56273 2.144286-2.30147 3.23-.73874 1.085715-1.87527 2.714286-.96605 3.555715.90922.841428 3.04021-.977143 3.80737-1.384286l4.65976-2.497143c5.68263-3.067143 10.93907-6.324286 16.13868-9.907143 2.84928-1.77384 5.38188-3.973269 7.50108-6.514286.51144-.705714 1.76162-2.334285 1.5059-3.42zm314.6759-77.5471424c.36882-.2292329.72013-.4832054 1.05128-.76 6.73803-7.0102408 13.09212-14.3486085 19.03683-21.9857143 1.83918-2.1774872 3.29762-4.6247982 4.3188-7.2471429.39779-1.3028571-.76715-1.92714283-1.98892-1.95428569-5.8247 0-11.36527 8.14285719-14.20659 12.37714289-1.90354 3.1115948-3.62978 6.3191225-5.17119 9.6085714-1.91935 2.869701-3.16944 6.1005224-3.6653 9.4728571 0 0 .31254.2714286.62509.4885715z" fill-rule="nonzero"/><path d="m199.545719 188.67c.60139.202398 1.269817.089109 1.761616-.298571 9.021459-6.596067 16.927474-14.47818 23.440869-23.37 4.858652-6.297143 9.688892-12.648572 14.206586-19.244286 2.528773-3.772857 4.972306-7.627143 7.359012-11.508572.71033-1.167142.937635-2.714285 2.074162-3.555714 2.429899.41123 4.809851 1.056917 7.103293 1.927143 1.522849-.508627 2.903175-1.344369 4.034671-2.442857 4.745-3.745714 9.49-7.491429 14.206587-11.318572 5.682635-4.668571 10.882245-9.635714 16.65012-14.114285 2.095142-1.709454 4.096215-3.521404 5.995179-5.4285717 5.682635-5.4285714 11.166378-10.8571429 16.337575-16.8828572 1.960509-2.2528571 19.406198-20.6557142 24.662635-28.5 4.290389-6.3514285 7.756796-13.1371428 11.990359-19.5157142.590536-.7280107 1.104461-1.5098912 1.534312-2.3342858.915277-2.0651393 2.498394-3.796243 4.517694-4.94.376574-.056011.759953-.056011 1.136527 0 3.6653 1.2214286 7.813623 1.0042858 11.592575 2.1985715.915191.2122139 1.660845.8438393 1.990897 1.6864414.330053.842602.201614 1.7866841-.342933 2.5207014-9.802545 13.1642857-18.099192 27.5771429-27.077754 41.3928572-5.057545 7.79-9.660479 15.9328571-13.922455 24.1571428-2.045749 4.0442856-4.517695 7.9799996-6.364551 12.1871426-8.523952 19-18.639042 37.511429-25.855988 57.162857-.340958.977143-.62509 1.981429-.880809 2.985715 0 .271428 0 .624285.170479 1.167143.767156-.624286 1.449072-1.085715 2.017336-1.655715 1.960509-2.035714 3.977844-4.044285 5.682634-6.161428 5.512156-6.279048 10.986427-12.612381 16.422815-19 3.466407-3.99 6.875988-8.142857 10.257155-12.078572 3.381168-3.935714 6.847575-8.36 10.285569-12.512857 3.068623-3.691428 6.194072-7.355714 9.291108-11.047143 3.097036-3.691428 5.966766-7.247143 9.006976-10.8571426 7.501078-8.8757143 15.058982-17.7242857 22.56006-26.6 3.245468-3.8746555 6.225583-7.9455095 8.921736-12.1871428 5.37009-8.3328572 10.541288-16.8014286 16.252336-24.9442857 1.001801-1.2906609 1.867862-2.6725922 2.585599-4.1257143.735203-1.685177 2.694623-2.5563369 4.517694-2.0085715 1.765469.3324023 3.48928.8418914 5.142785 1.52 1.546412.6246871 3.15529 1.0975939 4.801826 1.4114286 1.658849.3551035 3.176967 1.1555633 4.375629 2.3071429.778514.6904353 1.113994 1.7242451.880808 2.7142857-.185754.8960159-.521552 1.7575521-.994461 2.5514286-1.392245 2.1442857-2.841317 4.2071428-4.404042 6.3242857-6.591856 9.4457143-12.331317 19.2985714-18.496976 28.9885714-6.455016 10.5512561-12.316452 21.423836-17.559341 32.571429-2.273054 4.668571-4.745 9.228571-6.819162 13.978571-1.591138 3.582857-2.841317 7.247143-4.489281 10.857143-5.682635 12.92-12.132426 25.46-17.047905 38.651428-3.977844 10.694286-7.330598 21.714286-10.285568 32.761429-.393854 1.204497-.604371 2.456834-.62509 3.718571-.073734 1.079684-.244848 2.151277-.511437 3.202858.53985-.217143.966048-.244286 1.136527-.488572 2.187814-2.877143 4.375628-5.781428 6.478203-8.74 2.557186-3.61 5.029132-7.328571 7.529491-10.857143 2.500359-3.528571 5.029132-7.328571 7.586318-10.857143 6.137245-8.685714 12.473383-17.235714 19.320958-25.46 5.540569-6.677142 11.137964-13.327142 17.047904-19.76 5.337757-5.850801 11.030167-11.397469 17.047904-16.611428 2.841317-2.47 5.682635-4.912857 8.779671-7.192857 4.461069-3.545576 9.450271-6.436365 14.803263-8.577143 2.461441-.951083 4.998225-1.713491 7.586318-2.28 2.859273-.6701322 5.881796-.1576946 8.325059 1.411428.487345.322923.918766.716738 1.278593 1.167143.42659.441481.527942 1.086955.255719 1.628572-.738743 1.465714-1.505898 2.877143-2.32988 4.288571-8.523953 14.494286-18.923174 28.31-26.679971 43.428572-.423087.877545-.774562 1.785007-1.051287 2.714285-.264424.566675-.101865 1.23221.397784 1.628572.437546-.145166.856847-.33634 1.25018-.57 3.132549-1.943551 6.105589-4.112204 8.893323-6.487143l6.705509-5.808572c.434072-.401856.889271-.782349 1.363833-1.14 4.745-3.392857 8.921736-7.41 13.467844-11.02 2.244641-1.764285 4.546108-3.42 6.819162-5.13 1.420658-1.058571 5.682635-6.84 8.268233-6.378571 2.585599.461429 6.250899 0 9.347934.542857 1.137003.064297 2.072433.878724 2.244641 1.954286 0 .57.312545 1.112857.511437 1.791428.653503 2.09-3.381167 4.614286-4.205149 6.405715-5.37009 11.807143-12.44497 22.935714-16.678533 35.285714-.483024 1.411429-.767156 2.904286-1.16494 4.342857-.142066.57 0 1.194286.369371 1.14.341463-.028667.671717-.130737.966048-.298571 3.667359-3.001211 7.087072-6.268032 10.228742-9.771429 5.682635-6.46 11.232675-13.001428 16.65012-19.624286 4.688174-5.7 9.177455-11.562857 13.780389-17.344285 6.506617-8.142857 12.984821-16.285715 19.519851-24.4285717 4.631347-5.7814286 9.262694-11.5357143 13.950868-17.2357143 2.585599-3.1757143 5.313263-6.27 7.984102-9.4185714.369371-.4071429.880808-.8142857.738742-1.4657143 0 0-.198892-.19-.284132-.19-1.534311 0-3.097036.2442857-4.631347.4342857-7.78521.9771429-15.570419 2.2528571-23.412455 2.7142857-6.351091.6325779-12.741287.8321306-19.122066.5971429-2.074162-.2171429-4.148323-.4885715-6.222485-.5971429-4.382842-.2072431-8.696861-1.1250929-12.757515-2.7142857-2.845754-1.0574785-4.968726-3.379604-5.682635-6.2157143-.653503-2.2257143-1.051287-4.5057143-1.534311-6.7585714-.281553-1.5805921-.204033-3.2005402.227305-4.75.167208-.419142.440545-.7921654.795569-1.0857143.255719-.2171429 1.051288.38 1.335419.9771429.284132.5971428.539851 1.2757142.795569 1.9271428.302331.7703994.982505 1.3490959 1.818443 1.5471429 3.315819.9491163 6.768446 1.388885 10.228743 1.3028571 13.183712-.38 26.339012-1.6014286 39.437485-3.0942857 6.53503-.7328571 13.098473-1.5471429 19.633503-2.3342857l9.830958-1.1671429c1.733204-.19 6.961228 0 8.126168-.9228571 1.561017-1.4360282 2.978349-3.0080816 4.233563-4.6957143 2.642425-3.3114286 4.631347-6.9757143 7.415838-10.2057143.960407-1.3204408 1.797099-2.7191878 2.500359-4.18.284132-.4885714.511437-1.0314286.852395-1.52.586839-1.1668022 1.665144-2.0403521 2.966014-2.402809 1.30087-.362457 2.701696-.1796589 3.853148.502809 1.326905.5398768 2.721194.9139181 4.148323 1.1128572 1.79003.2442857 3.58006.4885714 5.341677.8414285 2.77872.1437984 5.039644 2.1887542 5.341677 4.8314286.170479.7871429.45461 1.5742857.53985 2.3614286.130638.672119.071801 1.3653371-.170479 2.0085714-.909222 1.8728571-1.16494 3.0671429-2.557186 5.6728571-.030443.2161691-.030443.4352595 0 .6514286.454611.5157143 1.079701.38 1.676378.4071429l16.280748.38c1.307006 0 2.642425.1357143 3.977844 0 2.286417-.0728113 4.575332.0179182 6.847575.2714285 5.407642.3865753 10.786942 1.0753736 16.11027 2.0628572 5.961065.9621644 11.598738 3.2596572 16.451227 6.7042857 1.221767.95 2.528773 1.7642857 3.750539 2.7142857.407949.2590648.68923.6644037.780152 1.1242343.090922.4598307-.016207.9352557-.297128 1.3186229-.555853 1.4662944-2.004551 2.450181-3.636886 2.47-4.776376-.0812279-9.533628-.5993079-14.206587-1.5471429-4.783956-.7411622-9.616765-1.1583922-14.462305-1.2485714-5.313264-.1357143-26.168533 2.5242857-31.396557 3.0128571-4.11991.38-8.097755 1.4385714-12.132425 2.1714286-2.793055.5040593-5.11458 2.3521701-6.137246 4.8857143-1.875269 3.9628571-4.546108 7.4914285-6.790748 11.2371428-2.244641 3.7457143-4.233563 8.5228572-6.250899 12.8385715-5.114371 10.8571431-9.94461 21.7142861-14.604371 32.8700001-1.591138 3.745714-3.58006 7.355714-5.114371 11.128571-.937635 2.361429-1.818443 4.722857-2.841317 7.084286-1.022875 2.361429-1.960509 4.722857-3.04021 7.03-5.99518 12.648571-12.132425 25.052857-17.047904 38.162857-2.841318 7.545714-5.682635 15.118572-7.78521 22.908572-.21183.779316-.692269 1.467755-1.363832 1.954285-2.443533 1.465715-11.081138.977143-13.325779.298572-1.430187-.342061-2.571092-1.370265-3.011796-2.714286-.506313-1.53793-1.382015-2.941475-2.557186-4.098571-1.609009-1.605973-2.371437-3.820926-2.074161-6.025715.350941-3.326477 1.192734-6.5888 2.500359-9.69 2.273054-5.564285 4.517695-11.047143 7.16012-16.475714 1.449072-2.985714 2.24464-6.215714 3.693712-9.201429 3.437994-7.138571 6.961228-14.25 10.370809-21.415714 3.750539-7.871428 7.160119-15.905714 10.825419-23.804286 3.977844-8.631428 7.557904-17.425714 11.649401-26.0299996.040638-.3880792.040638-.7790636 0-1.1671428-.426198.1628571-.767156.2171428-.937635.4071428-.710329.7871429-1.278593 1.6828572-2.045748 2.4157143-1.16494 1.1942853-1.903683 2.7142853-3.125449 3.8814283-3.835779 3.637143-6.591857 8.387143-10.086677 12.322857-2.841317 3.012858-5.313263 6.134286-7.813623 9.282858-10.740179 13.571428-21.565599 26.871428-32.646736 40.09-6.421377 7.654285-12.871168 15.905714-22.417994 20.167142-1.711291.594436-3.565159.707477-5.341677.325715-.446025-.148023-.846402-.399899-1.16494-.732857-1.449072-1.248572-2.841317-2.497143-4.347216-3.827143-3.43142-3.092724-5.512064-7.31036-5.8247-11.807143-.105831-3.236766.444101-6.462571 1.619551-9.5 1.905302-5.471399 4.2615-10.789953 7.046467-15.905714.449801-.808788.848304-1.642672 1.193353-2.497143.066622-.322606.066622-.654538 0-.977143-.198892 0-.340958 0-.426198.135714-3.153862 2.714286-6.648682 5.265714-9.717305 8.142857-2.496869 2.449377-5.164325 4.734594-7.984102 6.84-4.517694 3.284286-9.035389 7.545715-14.973742 8.142857-2.715118.415589-5.40092-.889202-6.648683-3.23-1.782701-2.934412-2.115548-6.47178-.909221-9.662857 1.600748-4.343281 3.548031-8.562811 5.8247-12.621428 4.745-8.55 10.342395-16.638572 15.229461-25.107143.340958-.597143.62509-1.221429 1.079701-2.035714-.53985 0-.909222-.162858-1.079701 0-1.988922 1.33-4.03467 2.578571-5.853114 4.071428-3.182275 2.62381-6.307724 5.338095-9.376347 8.142857-18.89476 17.262857-35.175509 37.62-50.120838 58.031429-6.705509 9.174286-12.501797 19-19.889222 27.685714-2.697199 3.105145-5.147563 6.398612-7.330599 9.852857-.447382.683622-.931037 1.34496-1.449071 1.981429-.795569 1.004286-1.647964 1.981428-2.41512 3.012857-1.904495 1.915936-4.510932 3.053901-7.273773 3.175714-.767155-.162857-12.189251-3.148571-12.89958-3.447143-1.013154-.478294-1.854013-1.234308-2.41512-2.171428-.62509-.841429-.823982-1.33-1.591138-2.361429-1.533463-2.072429-2.183633-4.624769-1.818443-7.138571.198892-2.28.511437-4.587143.909222-6.84 1.464579-7.71338 3.544812-15.308405 6.222485-22.718572 3.523233-10.178571 7.330598-20.248571 11.507335-30.21 2.841317-6.622857 5.682635-13.164285 8.523952-19.732857 2.017335-4.56 4.11991-9.092857 6.165659-13.571428.361826-.570018.521275-1.236421.45461-1.9-.909221 0-1.16494.787143-1.477485 1.302857-1.652956 2.408984-3.505769 4.687261-5.540568 6.812857-4.432456 5.075714-9.03539 9.961429-13.07006 15.308571-5.483743 7.247143-11.052725 14.44-17.047905 21.388572-3.551646 4.207143-6.762335 8.577143-10.399221 12.73-5.341677 6.08-12.274491 16.285714-21.792904 15.444286-.601928-.066958-1.172505-.292503-1.647964-.651429-6.279818-4.303564-9.146544-11.850772-7.216946-19 3.807365-17.507143 12.331317-34.118571 20.230179-50.214286 3.608473-7.41 7.302186-14.792857 10.967485-22.2028569.268385-.5076506.496336-1.033903.681916-1.5742857.098833-.3096293.098833-.6403706 0-.95 0-.2714285-.710329 0-1.193353.3528572-1.136527 1.0585714-2.216227 2.1171428-3.324341 3.1757143-1.960509 1.8457142-3.807365 3.8542861-5.938354 5.4285711-8.097754 6.487143-15.93979 13.272857-23.781826 20.004286-3.239102 2.714286-6.705509 5.428571-9.802545 8.142857-1.305396 1.263511-2.502588 2.625021-3.58006 4.071429-.403629.566863-.657139 1.218874-.738742 1.9-.341229 1.349013-.91753 2.633596-1.704791 3.8-5.556935 8.946702-11.588378 17.616557-18.070778 25.975714-5.682635 7.491429-10.797006 15.39-18.156018 21.388571-7.359012 5.998572-16.56488 17.317143-27.560778 12.675715-11.649402-4.912857-15.854551-14.168572-12.473384-25.894286 1.713307-6.521654 4.722874-12.667917 8.864911-18.104286 5.414782-7.359433 11.368008-14.343548 17.815059-20.9 3.313254-2.965098 6.856018-5.687113 10.598114-8.142857 2.812949-2.19207 5.91819-4.017553 9.234282-5.428571 1.221766-.461429 2.471946-.895715 3.722125-1.302857 1.945021-.813861 3.9372-1.520731 5.966767-2.117143 3.693712-.787143 4.489281-1.737143 5.682635 1.872857.322346 1.855313-.18249 3.754847-1.392246 5.238571-1.089336 1.384045-2.499504 2.508194-4.11991 3.284286-10.853832 5.428571-18.951587 15.037143-26.878862 23.75-3.381168 3.718571-24.321677 32.49-16.365988 34.96z"/><path d="m1697.97126 32.5714286c1.53314-1.7606434 3.72477-2.8805015 6.10883-3.1214286 2.39273.4541026 4.60616 1.5348303 6.39296 3.1214286.66872.5240787.95717 1.3719212.73875 2.1714285-1.34426 3.5727755-3.12783 6.9804385-5.31327 10.1514286-1.70615 3.0880713-3.24255 6.2590446-4.60293 9.5-.12832.4229949-.18585.8627039-.17048 1.3028572.25572.1628571.45461.4071428.6535.4071428 1.31337.1221908 2.63606.1221908 3.94943 0 4.80175-.5019502 9.6336-.6923867 14.46231-.57 13.27549-.5513888 26.57239.4145051 39.60796 2.8771429 4.3783.8606895 8.61959 2.2659971 12.61545 4.18 2.12555 1.0458168 4.04762 2.432098 5.68264 4.0985714.518.6169711.93915 1.3027443 1.25018 2.0357143.25572.4614286-.39779 1.2214286-.96605 1.1942857-.47301-.0036124-.9426-.0768533-1.39225-.2171429-6.67709-2.5514285-15.91137-1.1942857-23.04308-1.4657142-6.22249-.2442858-12.41656-.1357143-18.63904.19-12.41656.7057142-24.74788 2.3071428-36.93713 3.8814285h-1.0797c-5.54057.7057143-8.52395 10.45-10.5697 14.4942857-4.61554 8.6325872-8.76921 17.4835079-12.44497 26.5185719-3.06862 7.545714-6.4782 14.928571-9.60365 22.447142-4.11991 9.988572-7.7568 20.112858-12.33132 29.857143-.6535 1.411429-5.34168 9.635715-3.63689 11.047143.4965.54684 1.21697.860955 1.97472.860955s1.47822-.314115 1.97472-.860955c1.42065-1.411428 2.84131-2.904286 4.09149-4.37 5.68264-6.215714 11.10955-12.485714 16.8206-18.592857 11.90625-12.423503 24.47192-24.255247 37.64746-35.448571 4.37563-3.8 8.92173-7.41 13.46784-11.02 3.78842-3.04 7.57685-6.034762 11.36527-8.9842861 2.24464-1.71 4.63135-3.2842858 6.93281-4.9671429 3.49482-2.5514286 7.18854-5.89 11.87671-5.6728571 2.84132.1357142 3.92102 2.2257142 3.18228 4.6142857-.31255.9771428-.71033 1.9271428-1.10812 2.9857143.32399.1464037.66856.2469816 1.02288.2985714 3.23709.2630282 6.49419.199343 9.7173-.19 4.78192-.7169598 9.51449 1.53808 11.79147 5.6185717 1.75746 3.271134 3.12055 6.722274 4.06308 10.287143.17048.57.25572 1.14.39779 1.682857.19797.572527.76111.956783 1.39224.95h.36937c2.04575 0 4.0915-.217143 6.13725-.434286 26.11171-2.714286 52.13817-6.46 78.10781-10.26 6.08042-.841429 12.16084-1.71 18.26968-2.524286 2.13098-.271428 4.3188-.325714 6.4782-.461428.17048 0 .34096.217143.6535.434285-1.72552 1.322435-3.78202 2.192453-5.96676 2.524286-.90923.217143-1.81845.515714-2.84132.732857-1.90368.461429-3.83578.732857-5.68264 1.031429-5.00072.787143-9.91619 1.954286-14.8885 2.714286-2.84132.461428-5.68263.76-8.52395 1.248571-2.18782.352857-4.3188.95-6.50662 1.33-2.18781.38-4.83024.705714-7.24536 1.031429-2.41512.325714-4.57452.814285-6.87599 1.302857-4.745.977143-9.60365 1.682857-14.40548 2.47l-26.19694 4.342857c-2.13099.38-4.26198.651428-6.42138.95-1.80304.314335-3.35984 1.392299-4.23356 2.931428-.31013.61793-.46575 1.296233-.45461 1.981429-.49044 4.560979-1.24933 9.09196-2.27306 13.571429-2.84131 16.285714-13.52467 29.857142-23.81024 42.451428-7.27377 8.93-16.50805 18.782857-28.41317 21.714286-4.43686 1.221593-9.14463 1.221593-13.5815 0-2.86668-.72266-5.62583-1.789746-8.2114-3.175714-2.30682-1.6293-4.13646-3.797742-5.31327-6.297143-3.94943-7.111429-8.12616-13.571429-8.52395-21.714286-.53985-14.032857 6.9044-27.142857 14.46231-38.814286.62509-.977143 1.19335-1.981428 1.76161-3.012857 0 0 0-.407143 0-.624286 0-.217142-.62509-.244285-.93763 0-.49424.325105-.95987.688216-1.39225 1.085715-1.30045 1.355664-2.69591 2.625261-4.17673 3.8-1.76748 1.328217-3.42073 2.789558-4.9439 4.37-10.82541 12.187143-23.725 22.637143-33.32865 35.801428-3.58006 4.94-7.69997 9.472857-11.36527 14.222857-4.77341 5.998572-12.58703 19.705715-22.38958 17.751429-1.59114-.325714-2.41512-2.035714-2.84132-3.338571-2.4767-6.177413-3.03895-12.90546-1.61955-19.38 1.51339-5.039307 3.41273-9.965454 5.68264-14.738572 2.47194-6.134286 4.94389-12.241428 7.58632-18.321428 3.15386-7.22 6.56344-14.358572 9.68889-21.714286 3.55164-8.142857 7.47266-16.285714 11.02431-24.428572.73874-1.764285 1.61955-3.474285 2.44353-5.2114281 1.61955-3.42 2.84132-7.03 4.34722-10.4228572 1.90368-3.9085714 3.43799-8.1428571 5.54057-11.9157143.1086-.3242212.15668-.6641572.14206-1.0042857 0-.2714286-1.19335-.4342857-1.44907-.4071428-.25572.0271428-10.62653 14.2771428-12.35973 16.5028571-5.25644 6.7857143-10.17192 13.761429-15.17264 20.71-3.49482 4.858571-7.38742 9.445714-10.65494 14.44-3.72212 5.672857-7.52949 11.291429-11.36526 16.91-2.84132 4.125714-5.68264 8.305714-8.35348 12.458571-4.46087 6.758572-7.92727 14.005715-12.78593 20.574286l-2.84131 3.908572c-1.76162 2.415714-3.75054 4.641428-5.54057 7.002857-1.12945 1.786311-2.57097 3.374531-4.26198 4.695714-1.53479.52869-3.10009.972754-4.68817 1.33-.62398.37976-1.42177.37976-2.04575 0-4.71659-3.012857-14.77485-17.154286-15.88296-18.728571-.90238-1.384665-1.28326-3.021988-1.07971-4.641429.22654-2.638375.76996-5.243108 1.61956-7.762857.62509-2.09 1.16494-4.207143 1.76161-6.324286 0 0-9.14904 9.934286-10.54128 11.237143-3.81349 3.995235-8.34611 7.304762-13.38261 9.771429-2.55719 1.14-3.77895-.814286-4.71659-2.714286-1.42066-3.012857-2.30146-6.161429-3.43799-9.282857-1.09447-2.513244-1.80266-5.164501-2.10258-7.871429-.05052-.228943-.15769-.443004-.31254-.624286 0 0-.19889 0-.34096-.217142-.85239-.461429-5.68263 5.781428-6.2509 6.514285-.56826.732857-1.64796 1.818572-2.44353 2.714286-4.25718 4.926382-8.82102 9.603416-13.66674 14.005714-3.26751 2.877143-7.69997 7.03-12.10401 8.142857-.83771.217401-1.73272-.022414-2.32988-.624285-8.52395-7.491429-10.54129-20.52-7.47266-30.807143 2.52877-8.387143 6.87599-16.095714 9.94461-24.428572 1.76161-4.75 3.49482-9.554285 4.80182-14.44 0-.298571 0-.651428-.19889-1.058571-.34365.11785-.67631.263125-.99446.434286-7.34075 4.910892-13.94612 10.755221-19.6335 17.371428-3.09704 3.745715-5.68264 7.925715-8.52395 11.725715-2.84132 3.8-6.56345 7.952857-9.43318 12.214285-2.04575 3.04-4.54611 5.808572-6.67709 8.794286-3.49482 4.967143-6.9044 9.907143-10.25716 14.955714-5.28485 8.142857-11.19479 15.335715-15.99662 23.668572-.63032 1.376429-1.34179 2.717627-2.13098 4.017143-1.61955 2.225714-3.89261 3.121428-6.10884 1.248571-2.06987-2.112831-3.75099-4.544709-4.9723-7.192857-.79082-1.761574-1.44606-3.575913-1.96051-5.428572-1.17-3.287919-1.55826-6.783603-1.13653-10.232857.46675-4.477207 1.51669-8.881251 3.12545-13.11 3.30236-8.823714 7.213-17.428746 11.70623-25.758571 4.23356-8.36 8.12617-16.91 13.04165-24.917143 2.32988-3.772857 4.37562-7.708571 6.59185-11.508571.88081-1.52 1.9321-2.931429 2.84132-4.424286 1.64796-2.714286 2.35829-4.885714 5.68263-6.134286 1.03507-.364185 2.18416-.28507 3.15387.217143 1.67817.667222 3.05646 1.878169 3.8926 3.42 2.6561 7.016968 3.0909 14.625666 1.25018 21.877143-1.16494 4.234286-2.24464 11.21-4.46087 17.588571 1.12353-1.056127 2.14136-2.210186 3.04021-3.447143 3.15386-3.664285 5.37009-5.835714 8.52395-9.445714 5.02808-5.40479 10.41903-10.491253 16.13869-15.227143 2.84131-2.388571 5.68263-4.777143 8.52395-7.057143 2.41512-1.9 4.9723-3.664285 7.52949-5.428571 3.15872-2.003049 7.155-2.36954 10.65494-.977143.43523.176744.84566.404696 1.22177.678572 1.16494 1.004285 2.30146 2.035714 3.43799 3.067142 1.6094 1.451966 2.23446 3.641383 1.61955 5.672858-1.70479 8.658571-6.36455 17.1-9.83096 25.242857-3.72212 8.767143-7.9841 17.371428-11.36527 26.301428-.85768 2.401074-1.36443 4.903725-1.50589 7.437143 0 .19 0 .542857.19889.597143.31967.119566.67479.119566.99446 0 .99087-.581361 1.94008-1.225169 2.84132-1.927143 5.93835-4.722857 11.59257-9.744286 17.0479-14.874286 6.76234-6.242857 13.21213-12.811428 19.66192-19.352857 1.67637-1.655714 3.12545-3.501428 4.65976-5.428571 2.67084-3.121429 5.28485-6.297143 8.01251-9.364286 1.40564-1.582588 2.92466-3.069978 4.54611-4.451428 5.00397-4.339401 10.39447-8.253747 16.11027-11.698572 3.28867-2.154641 7.00021-3.650444 10.91066-4.397143 1.91907-.37584 3.90547.21908 5.25644 1.574286 1.19335 1.14 4.68817 3.908571 5.00071 4.397143.65563.830024 1.57137 1.438579 2.61402 1.737143 1.38072.359184 2.68081.957166 3.83577 1.764285 3.52324 2.931429 2.27306 7.002858 1.98893 10.857143 0 .325715-.17048.678572-.17048 1.004286.2273 5.428571-4.57452 21.985714-5.31327 24.862857-.73874 2.877143-3.75054 17.751429-3.8926 18.782857 0 .461429-1.39225 5.428572-1.9321 7.654286 0 .19 0 .57.17048.624286 2.74825-3.003883 5.27368-6.187331 7.55791-9.527143 16.33757-24.021429 24.09437-36.344286 35.06185-51.001429 7.29272-9.735238 14.39601-19.6061902 21.30988-29.6128569 1.64797-2.3885714 3.38117-4.75 5.05755-7.1385714.09847-.2069551.09847-.4444734 0-.6514286 0-.1628571-.34096-.4071428-.51144-.38-13.63832 2.0357143-27.50395 2.7142858-41.22751 4.4514286-7.38036 1.1802017-14.84972 1.7793585-22.33276 1.7914286-1.53431 0-3.09703-.2171429-4.65976-.38-7.72838-.8685714-15.08739-2.7142857-20.59955-8.3057143-4.85865-4.8585714-8.52395-11.9971429-6.96123-19 .17597-1.1490605.79392-2.1942216 1.73321-2.9314286.27046.2529221.50888.5353356.71033.8414286 1.70479 4.0171429 2.58559 8.1428571 7.18853 10.26 4.5164 1.6990293 9.35777 2.4667665 14.20659 2.2528571 9.73507-.0580316 19.45873-.6470858 29.1235-1.7642857 11.36527-1.2485714 22.73054-1.9542857 34.09581-3.0942857 3.12545-.3257143 6.25089-.6785714 9.37634-1.0857143 4.28801-.7722347 8.62651-1.2619605 12.98482-1.4657143 1.1038.0524101 2.16473-.4138019 2.84132-1.2485714 3.80737-4.4242857 7.41584-8.9842857 10.88225-13.5714286 2.52877-2.5785714 4.51769-7.4914285 7.61473-10.7214285zm43.75628 78.4971424c-.95506.334723-1.73182 1.018173-2.1594 1.9-1.39224 2.171429-3.35275 3.962858-4.57452 6.242858-2.27305 4.261428-4.46087 8.522857-6.9044 12.73-6.76233 11.508571-12.64386 24.835714-14.20659 38-.17047 1.438571-1.25017 10.232857 1.87527 8.93 11.22321-4.722858 19.88923-16.285715 26.96411-25.405715 2.92862-3.834665 5.63204-7.821758 8.09775-11.942857 3.28995-5.166074 6.05848-10.619165 8.26823-16.285714.29551-.521618.23974-1.160872-.14206-1.628572-.91163-.530343-1.97697-.768126-3.04021-.678571-2.99941.306378-6.03105-.123365-8.80809-1.248571-2.91477-1.001397-4.94783-3.53788-5.19961-6.487143 0-.814286 0-1.628572 0-2.415715 0-.787142-.02841-1.058571-.17048-1.71zm-151.55586 0c-.51144-.597142-2.18782.298572-3.0118.488572-1.25553.270293-2.48977.624011-3.69371 1.058571-4.06053 1.764315-7.71918 4.272657-10.7686 7.382857-3.29592 3.012858-6.96122 5.808572-10.00143 9.011429-1.5805 1.789937-3.05098 3.665945-4.40404 5.618571-2.12533 2.703672-4.02537 5.56244-5.68264 8.55-1.45041 3.252174-2.59154 6.622431-3.40958 10.07-1.06912 2.588863-1.56261 5.361931-1.44907 8.142858 0 .298571.68191.217142 1.22176-.217143 1.98893-1.682857 4.11992-3.23 5.93836-5.075715 3.72212-3.745714 7.27377-7.681428 10.71176-11.698571 6.10884-7.165714 12.16084-14.521429 17.70141-22.094286 1.36383-1.872857 2.52877-3.881428 3.80737-5.781428.96604-1.411429 2.84131-2.931429 3.12545-4.641429.11552-.250777.11552-.536365 0-.787143zm168.26281 5.292858h2.21623c1.44907 0 1.81844-.352858 2.18781-1.791429.93764-3.447143 1.81845-6.894286 2.69925-10.341429.0156-.225945.0156-.452626 0-.678571.03457-.576153-.28799-1.118056-.82398-1.384286-1.50189-.726939-3.17744-1.063916-4.85865-.977143-.99953-.079421-1.9985.159155-2.84132.678572-1.98657 1.265591-3.83344 2.720679-5.51215 4.342857-1.892 1.602059-3.25451 3.695923-3.92102 6.025714-.21232.420416-.23859.904769-.07289 1.343896s.50942.796073.9537.99039c.49966.311636 1.04565.549547 1.61955.705714z" fill-rule="nonzero"/><path d="m799.347814 216.6c-4.489281-2.334286-4.773413-7.491429-6.762335-11.481429-.312545-.624285-.511437-1.275714-.795569-1.927142-.296946-.705547-.385401-1.475437-.255718-2.225715 1.770932-9.171152 4.424624-18.166486 7.927275-26.871428 8.381886-21.497143 18.866347-42.478572 28.413174-63.541429 2.841317-6.161428 5.682634-12.2957141 8.86491-18.2942856 2.699251-5.0485714 5.682635-9.9885714 8.32506-15.0642857 1.932096-3.6914286 3.921018-7.3557143 6.137245-10.8571428 6.137246-9.7714286 11.194791-20.0585715 17.587755-29.6942858 1.477485-2.2528571 3.011796-4.4514285 4.517694-6.6771428.223028-.3427476.254434-.7686107.083913-1.137844-.170521-.3692334-.520955-.6341694-.936308-.7078703-.596676 0-1.193353-.1357143-1.79003-.19-2.961882-.4327422-5.953827-.6505081-8.950149-.6514286-5.682635.5157143-11.535749-.5428571-17.246797-.4614285-4.326287.1449786-8.641587.5073847-12.927994 1.0857142-3.949431.4885715-7.955689.4614286-11.90512 1.0042858-14.935991 2.1787812-29.598314 5.8169084-43.756287 10.8571428-2.107562.7504983-4.150127 1.6580539-6.108832 2.7142857-2.699252 1.5471429-5.45533 3.04-8.069342 4.6685715-2.929959 1.8459159-5.661467 3.9643376-8.154581 6.3242857-1.036228 1.4420279-2.347068 2.6850544-3.864191 3.6642857-.852395-.4614286-2.358294-9.6085714-1.505898-14.1142857.176027-1.1172307.849515-2.1070409 1.846856-2.7142857 7.688402-4.7174646 15.891244-8.6218647 24.463742-11.6442858 24.719214-8.1043543 50.589625-12.5528344 76.715569-13.1914285 6.478204-.2171429 12.927994 0 19.406198 0 2.41512 0 4.801826.38 7.188533.5157143h3.352754c1.161004-1.1074949 2.121199-2.3916669 2.841318-3.8 1.581492-3.06391002 3.365663-6.02848266 5.341676-8.87571433l1.619551-.92285714c.540894-.32550972 1.19482-.43287825 1.818443-.29857143 1.591138.29857143 4.261976.78714286 5.199611 2.14428571 2.054986 3.83821798 3.665136 7.87930659 4.801826 12.05142859 0 .5428571.397785 1.0585714.62509 1.71 1.16494.2714286 2.301467.6242857 3.466407.8414286 5.682635 1.0314285 11.649402 1.9 17.417276 3.0671428 9.432461 1.8538243 18.653459 4.580988 27.532365 8.1428572 13.420103 5.1808276 25.88915 12.3735846 36.937126 21.3071428 3.471398 2.9484541 6.358769 6.4698588 8.523952 10.3957143 2.042566 3.5749784 3.617108 7.3763719 4.688178 11.3185714.54256 2.2181833.9411 4.4662776 1.19335 6.7314286.73802 12.8321862-3.67175 25.450609-12.331318 35.285714-2.019784 1.993662-4.154068 3.878477-6.392964 5.645715-4.915479 4.288571-9.632066 8.468571-14.916917 12.377142-5.28485 3.908572-10.598113 6.487143-15.826137 9.852858-5.824701 3.718571-11.024312 8.142857-17.047905 11.698571-3.324341 1.927143-6.847574 3.555714-10.058263 5.672857s-6.336138 3.447143-9.518413 5.238572c-10.512874 5.917142-21.480359 11.02-32.1353 16.692857-9.166152 4.631016-18.970704 8.002849-29.123503 10.015714-7.501077 1.655714-14.433892 5.157143-22.048622 6.378571-2.033798.199381-4.054301.507483-6.052006.922858-.35859.041494-.721111.041494-1.079701 0-1.534311 0-2.273054 0-2.187814-.57.085239-.57.966048-.922858 1.534311-1.275715 7.07488-4.207143 14.036108-8.604285 21.082575-12.838571 3.182275-1.9 6.421377-3.718572 9.575239-5.645714 21.764491-13.571429 42.619761-28.011429 62.992006-43.428572 11.564162-8.794286 23.241976-17.452857 34.095809-26.871428 12.757515-10.8571433 34.720898-25.6500004 27.674431-44.8400004-4.915479-13.3542857-27.162994-22.2028572-39.948922-26.1114286-6.591856-2.0357143-13.553084-2.7142857-20.258593-4.3157143-2.982133-.9378601-6.095169-1.441128-9.234281-1.4928571-2.043608.0935727-4.076525.3385949-6.08042.7328571-.627453.018835-1.217979.287816-1.628297.7416801-.410318.4538642-.602931 1.0511331-.531104 1.6468913-.142066 5.2657143-3.068623 10.0971429-8.182994 18.5928572-3.722126 6.2157143-9.973024 16.2857143-14.007694 22.3114286-9.234282 13.9242857-18.042366 28.1200001-26.76521 42.3971431-2.841317 4.641428-5.512156 9.364285-7.955689 14.195714-6.108832 12.187143-11.848293 24.862857-17.388862 37.212857-2.005406 4.915531-4.340118 9.702581-6.989641 14.331429-4.404042 7.03-5.398503 14.82-9.319521 21.985714-1.534311 2.714286-2.24464 5.808571-3.608473 8.631429-.784139 1.312866-1.738807 2.525808-2.841317 3.61-.360339.293991-.846425.405032-1.307006.298571-2.065212-.588671-4.071512-1.351678-5.99518-2.28z"/><path d="m1.33541916 114.135714c.91954107-.491757 1.95804184-.744454 3.01179641-.732857 3.00100243-.009834 5.94441273-.78777 8.52395213-2.252857 2.9833832-1.52 5.9383533-3.067143 8.836497-4.695714 6.1088323-3.474286 12.0755988-7.1928574 17.9287125-11.1014289 8.5239521-5.7542857 17.0479042-11.5085714 25.5718563-17.5071428 4.4608683-3.1757143 9.0069761-6.1885714 13.411018-9.4185714 2.5855988-1.9 5.0859581-3.8542858 7.6999701-5.7 3.4948203-2.47 6.875988-5.0757143 10.4276347-7.4642858 6.1088327-4.1257142 11.9051197-8.6314285 18.0991917-12.5942857 6.194072-3.9628571 12.871168-8.5228571 19.491437-12.54 5.028298-3.1770915 10.225392-6.1033883 15.570419-8.7671428 2.922103-1.923596 6.000535-3.6209094 9.205868-5.0757143 4.489282-1.33 10.313982 2.7142857 12.217665 6.3514286 1.514491 2.4287067 2.880606 4.9390926 4.091497 7.5185714 1.334414 3.3356879 1.484164 6.997895.426198 10.4228571-2.358294 5.7542857-4.148324 11.6171429-6.364551 17.3985715-1.392246 3.61-3.011797 7.1114285-4.290389 10.8571428-1.278593 3.7457143-3.182276 7.0028572-4.375629 10.64-5.029132 15.1728572-10.228743 30.5628573-15.911377 45.5457143-11.102427 28.856479-18.635686 58.853858-22.446408 89.381429-.11371 1.608644-.11371 3.222784 0 4.831428 0 0 .397785.244286.568264.19.234251-.066509.435836-.210938.568263-.407143 4.233563-5.998571 8.523952-11.97 12.700689-18.05 5.682635-8.142857 10.825419-16.285714 15.996617-24.7 5.171197-8.414285 9.944611-16.584285 14.803263-24.944285 4.460869-7.654286 8.836497-15.362858 13.240539-23.017143 4.404042-7.654286 8.95015-14.494286 13.808803-21.524286 5.938353-8.5771429 12.501796-16.6928571 19.292544-24.6457143 11.717318-13.6096489 24.279609-26.5348181 37.619042-38.7057143 4.716587-4.3157143 10.001438-7.9528571 14.973743-11.97 3.98639-3.1711368 8.233687-6.0303821 12.700689-8.55 4.520504-2.5982751 9.274925-4.8056177 14.206586-6.5957143 7.275226-2.5509312 14.981909-3.7932902 22.730539-3.6642857 4.339133.1633704 8.628877.9408842 12.729102 2.3071429 1.883794.7650283 3.563638 1.9245226 4.915479 3.3928571.427668.5584662.727751 1.1965313.880809 1.8728572.296829.5296051.166658 1.185279-.312545 1.5742857-.429626.203624-.934207.203624-1.363833 0-1.441022-.5989055-2.921699-1.106667-4.432455-1.52-4.940997-1.1045358-10.06724-1.2246522-15.058982-.3528572-2.036939.1650788-4.053448.5103686-6.023593 1.0314286-.577858.1521956-1.146912.3333996-1.70479.5428572-3.04021 1.3842857-6.279311 2.3885714-9.319521 3.7185714-2.748054 1.1782387-5.381775 2.5860922-7.870449 4.2071428-4.471335 2.7175508-8.786866 5.662257-12.927994 8.8214286-5.304414 3.4096692-10.252265 7.3000565-14.77485 11.6171429-5.171198 4.6414285-10.257156 9.4185714-15.314701 14.1957143-37.675868 35.4757142-63.247725 77.9000001-89.586737 121.1928571-3.182275 5.265714-6.137245 10.667143-9.40476 15.905714-1.477485 2.388572-3.068623 4.722857-4.375629 7.192857-.681916 1.275715-14.433892 24.157143-17.047904 25.541429-.901292.366136-1.863144.577471-2.841317.624286-1.562725.217143-3.125449.38-4.688174.461428-1.33536.063347-2.654831-.299519-3.750539-1.031428-4.103548-2.382826-7.842189-5.296651-11.109551-8.658572-1.748497-1.917813-2.9173608-4.254239-3.3811675-6.758571-1.6585462-10.013014-1.3211378-20.235266.9944611-30.128572 2.1594014-11.454285 4.6881734-22.881428 7.1601194-34.308571 7.103294-32.788571 19.349372-64.1657143 30.174791-95.9228571.994461-2.9585715 2.358293-5.7814286 3.381167-8.74 1.022875-2.9585715 2.187815-5.5914286 3.267515-8.4142858.194137-.6650512.317881-1.3470432.369372-2.0357142 0 0-.284132-.3528572-.483024-.38-.233344-.0039877-.462049.0625061-.653503.19-1.25018.7057142-2.528773 1.3571428-3.693713 2.1714285-15.769311 10.6128572-31.254491 21.7142857-46.9669759 32.2728572-11.3652695 7.79-22.5884731 15.8242857-34.0958084 23.6142857-9.9161976 6.7857147-19.8892216 13.5714287-30.0043114 19.9771427-2.1937644 1.422356-4.491677 2.692292-6.875988 3.8-2.8670968 1.492364-6.0828909 2.267372-9.3479342 2.252857-2.16304576-.124646-4.27840207-.65983-6.22248498-1.574285-.65350299-.298572-1.19335329-.787143-1.87526946-1.031429-2.00289921-.700114-3.24634551-2.616368-3.01179641-4.641429 0-.325714 0-.678571 0-1.031428s.22730539-.298572.31254491-.461429z"/><path d="m764.996287 76.76c2.386707.6242857-2.699251 1.5471429-3.153862 1.71-1.199264.3376096-2.424969.5826829-3.665299.7328571-2.585599.4342858-29.748593 5.6185715-40.858144 8.3871429-10.228742 2.5242857-20.656377 3.61-30.88512 5.8628571-8.182994 1.8185715-16.280748 3.9085715-24.605808 4.9671429-1.163886.0340764-2.249629.5677149-2.955325 1.4525308-.705696.8848162-.956092 2.0264542-.681561 3.1074692 1.074186 5.432736.683063 11.037272-1.136527 16.285714-.994461 2.334286-2.074162 4.668572-3.182276 6.948572s-2.528772 4.261428-3.665299 6.432857c-1.847988 3.529689-4.086457 6.860116-6.677096 9.934286-5.604538 6.940367-11.689086 13.514585-18.212844 19.678571-1.221767 1.112857-2.670839 1.927143-3.892605 3.04-3.977844 3.745714-9.205868 5.428571-14.206587 7.6-1.982828.79881-4.036853 1.425621-6.137245 1.872857-11.052725 3.012857-26.76521 1.845714-29.862246-11.02-.97818-3.773609-1.464886-7.648158-1.449072-11.535714.047956-1.961288.20921-3.918551.483024-5.862857.730295-5.180903 2.232458-10.235406 4.460868-15.01 2.207705-4.885285 5.011613-9.504416 8.353474-13.761429 1.155378-1.452051 2.398185-2.838678 3.722125-4.152857 2.585599-2.714286 5.37009-5.157143 7.813623-7.952857 1.193353-1.357143 2.528772-2.714286 3.864192-3.854286 5.63531-5.1318893 11.76143-9.7482432 18.298083-13.7885713 1.633682-.9838014 3.390059-1.7680147 5.228024-2.3342857 1.936547-.6825244 4.038604-.8145107 6.052006-.38 1.278593.3257143 2.614012.4614286 3.921018.6785714.957054.1756184 1.786758.740352 2.273054 1.5471429 1.649096 2.2443842 1.411285 5.288589-.568263 7.2742857-4.546108 4.7771429-11.36527 7.627143-16.877425 11.155714-5.538374 3.641022-10.503992 8.019037-14.746437 13.001429-1.761617 2.035714-3.437994 4.125714-5.171198 6.188571-1.814981 2.093202-3.512677 4.276734-5.085958 6.541429-2.4369 3.67925-4.546854 7.547061-6.307725 11.562857-1.051287 2.442857-6.165658 13.245714-2.273054 14.982857 2.465836 1.015318 5.235899 1.131211 7.78521.325714 1.272987-.322539 2.517516-.740011 3.722126-1.248571 3.715102-1.364907 7.192495-3.259227 10.313982-5.618571.823982-.705715 1.818443-1.248572 2.699251-1.927143.993099-.676888 1.941973-1.411113 2.841318-2.198572 3.58006-3.175714 6.591856-6.867143 10.001437-10.205714 1.988922-1.954286 4.006257-3.881429 5.881527-5.944286 5.028907-5.601007 9.419774-11.697218 13.098473-18.185714 1.562724-2.714286 2.841317-5.591429 4.205149-8.414286.409383-.958677.695602-1.961228.852396-2.985714.361718-1.281171-.299249-2.6243669-1.562725-3.1757143-1.605673-.797075-3.026313-1.8957-4.176736-3.23-.862574-.8535776-1.08823-2.1254272-.568264-3.2028571.252019-.3940539.434408-.8250553.53985-1.2757143.17753-1.3962512 1.043552-2.6271161 2.329881-3.3114286.960052-.7682668 2.333448-.8454429 3.381167-.19.598513.3878296 1.248204.6981518 1.932096.9228572.773922.3000055 1.586019.5007981 2.41512.5971428 1.447815.0815305 2.8994.0815305 4.347215 0 3.494821-.3257143 6.961228-.7328571 10.427635-1.1128571.4821-.0403731.966973-.0403731 1.449072 0 3.139641.0542185 6.277956-.1638182 9.376347-.6514286 2.841318-.3528571 5.682635-.5971429 8.523952-.9771429 6.194072-.8414285 12.416557-1.71 18.610629-2.7142857 5.483743-.7871428 10.939072-1.6828571 16.422815-2.47 4.432455-.6242857 8.836497-1.14 13.268952-1.7371428 4.432455-.5971429 8.523952-1.1942857 12.89958-1.71 4.773414-.5428572 8.95015-.7328572 13.751977-1.14 2.34266-.4448241 4.767652-.2760049 7.018053.4885714z"/><path d="m1436.31434 83.6542857c.88294.5135693 1.57011 1.2841879 1.96051 2.1985714.70941 1.7954042 1.66484 3.4930484 2.84132 5.0485715.8044.9902681 1.30597 2.1740283 1.44907 3.42.29588 2.2671301-.24683 4.5617657-1.53431 6.4871424-1.39225 2.008572-6.2509 2.958572-8.52395 2.877143h-.48303c-6.62027.434286-14.77485-5.265714-10.22874-11.9428569 1.08373-1.6168441 2.25993-3.1753983 3.52323-4.6685714.95137-.9954717 1.9977-1.9041559 3.12545-2.7142857.38711-.2730203.83398-.4586269 1.30701-.5428571 1.13589-.3093982 2.29467-.5362363 3.46641-.6785715 1.0632-.1321877 2.14335.0476769 3.09703.5157143z"/></g></svg>