<svg id="Capa_1" data-name="Capa 1" xmlns="http://www.w3.org/2000/svg" viewBox="0 0 851.43 167.18"><path d="M375.57,49.52a220,220,0,0,1-20,30.58c-5.74,7.35-11.55,14.63-16.54,22.49-6.43,10.13-12.5,20.48-18.68,30.77a30.18,30.18,0,0,0-1.63,3.77c-.53,1.23-1.16,2.29-2.75,2.39a3.73,3.73,0,0,1-3.42-1.91c-2.35-3.27-1.95-6.74-.84-10.28,3.74-11.9,10.28-22.39,16.45-33.08,9.09-15.72,19.51-30.55,30.21-45.19,3.53-4.83,6.65-10,10.3-15.47-12.91,1.88-25,3.74-37.17,5.36a97.62,97.62,0,0,1-17.75,1.19c-10-.5-17.91-10.81-15.55-20.3.54-2.15,1.32-4.51,3.69-4.47,2.77.05,2.4,3,2.64,4.81.85,6.16.71,6.23,6.86,6.38,14.24.33,28.09-2.84,42.07-4.85,18.5-2.68,37-5.56,55.77-4,8,.65,15.67,2.88,22.31,7.77A31.07,31.07,0,0,1,434,27.52a2.76,2.76,0,0,1,.95,3.29c-.63,1.29-1.93.83-3.05.63-10.7-1.92-21.5-1.71-32.28-1.24-6.48.28-12.94,1.17-19.41,1.7-1.59.13-2,.49-1.43,2.16C380.76,39.79,378.12,44.82,375.57,49.52ZM297,97.07c.65,1.66-1.15,2.44-2.31,2.91-4.62,1.87-17.48,10-34.76,19-4.62,2.4-9.51,4.24-14.86,4.41a9.06,9.06,0,0,1-7.33-3.21A17.23,17.23,0,0,1,235.62,99c.73-1.22,1.44-2.45,2.82-4.8-13,9.09-26,15.63-38.32,23.34A15.5,15.5,0,0,1,189,120.15a5.16,5.16,0,0,0-1-.06c-1.18,0-2.74,1.75-3.36.17-.41-1.05,1.76-1.56,2.77-2.27,8.74-6.16,17.92-11.73,25.65-19.21,5.16-5,9.72-10.41,11.47-17.7,2.2-9.16-6-20-15.43-20.24-1.53,0-2.29,1-3.15,1.9-5.06,5.44-6.77,13-10.11,19.37C191.27,91,186.79,99.9,182.56,109Q169,137.89,153.62,165.87c-3.8,6.92-10.23,8-16.82,8.82-2.43.32-3.67-1.44-1.94-3.81,17.25-23.67,29-50.46,43.1-75.9,3.18-5.73,6.86-11.2,10.3-16.79.4-.66.74-1.34,1.6-2.9-8.16,6.58-14.6,13.42-21,20.31-6,6.43-11.72,13-17.94,19.22-2.81,2.8-15,16.66-19.41,12.56-3-2.77-5.4-6.54-4.12-11.3,1.45-5.38,4.06-10.25,7-16-3.36,2.59-6.06,4.52-8.57,6.66-3.44,2.94-7.43,4.94-11.4,6.94-2.83,1.42-6.83-.67-7.86-3.83-.74-2.26-.55-4.61-.65-7.48-4.43,3.33-8.55,6.32-12.56,9.44-11.14,8.68-22.08,17.7-35.11,23.51-8.74,3.89-17.44,6-26.71,2.17a29.48,29.48,0,0,1-15.95-16.17c-3.51-8.8-1.14-18.86,1.86-27.44C28.81,61.52,52.91,34.3,82.48,17c7.69-4.5,16-8.44,24.84-9.3s18.48,1.79,24.22,8.61a13.17,13.17,0,0,1,3.4,7.75c.13,3.37-1.56,6.53-3.43,9.33a58.91,58.91,0,0,1-11.95,13.11c-1.39,1.13-3.08,2.26-4.84,1.9s-3.07-2.41-3.09-4.33a11,11,0,0,1,1.83-5.39,51.29,51.29,0,0,1,10.85-13.16,4.94,4.94,0,0,0,1.79-2.27,3.76,3.76,0,0,0-.43-2.53c-2.32-4.9-8.43-7.06-13.8-6.35s-10.15,3.68-14.62,6.74C72.82,37.86,51.64,60.05,38.1,86.53c-5,9.68-9.13,19.64-10.22,30.51a18.69,18.69,0,0,0,1.93,10.17,7.58,7.58,0,0,0,6.34,4.35c8.93,1,16.84-2.06,24.51-6,12.69-6.55,24-15.28,35.83-23.14,12.8-8.49,25.35-17.32,38-26.08,3.65-2.53,7.8-4.35,11.79-6.36,3.12-1.56,5.8-.68,8,1.91a18.18,18.18,0,0,0,4.12,3.74c3.2,2,3.47,5.09,1,8.33-7.24,9.51-14.28,19.15-19.14,30.17-.45,1-.79,2.09-1.56,4.14,23.34-18.39,40-42.4,64-59.58-10.33-3.16-19.78-3.37-29.25-.25-2.19.72-4.51,1.14-5.78,3.64-.68,1.36-2.27.31-2.85-.37a2.62,2.62,0,0,1,.37-4.06c6.55-5,16.25-6.17,24.24-6.27,12.36-.15,28.34,3,37.14,12.48,8,8.6,7.92,21.26,1.23,30.6-.44.62-1.25,1.07-1,2.25,6-3.71,11.8-7.56,17.86-11C251,82.17,255,75.58,261.75,72.57c4.17-1.86,8.22-3.84,13.11-2.38,7.72,2.3,9.81,8,3.88,13.42-7.83,7.19-16.61,13.24-27.21,16-1.89.5-4.35-1-5.61,1.19-2.27,4-5.28,7.7-5.32,12.61,0,3.64,1.73,4.9,5.35,4,7.73-2,14.64-5.85,21.63-9.49,18.19-9.47,23.55-10.31,26.21-11C294.8,96.61,296.42,95.48,297,97.07Zm-48-.43c5-1.33,8.18-4,11.5-6.32,5.49-3.87,10.92-7.84,14.78-13.49.46-.67,1.18-1.52.41-2.42a2.62,2.62,0,0,0-2.66-.81,6.75,6.75,0,0,0-2.73,1A100.5,100.5,0,0,0,249,96.64ZM145.54,84.08c2.66-2.31,5.45-5,5-9.28a.8.8,0,0,0-1.19-.6,143.45,143.45,0,0,0-14,9A137.5,137.5,0,0,0,114,102.68c-1.32,1.49-3.59,4-2.06,5.41s4.06-.91,5.9-2.11C127.76,99.53,136.67,91.81,145.54,84.08ZM533.75,97.91c-.64.94-2.25,2.16-6.89,5.91-3.61,2.91-9.06,7.35-17.32,14.37-3.08,2.62-6,5.65-9.92,7.32-2.7,1.14-4.71,1.57-7.06-.55-2.65-2.4-4.88-4.84-4.05-8.77,1.42-6.76,5.47-12.28,8.81-18.11,4.15-7.24,8.55-14.34,13.15-22-4.32,1.9-7.13,4.92-10.33,7.38-9.45,7.27-16.22,17-23.61,26.11A8.17,8.17,0,0,1,475.2,111c-2,1.5-3.34,5-6.79,2.73s-4.41-6.4-2.65-10.37c3.23-7.28,8.41-13.29,12.85-19.77,2.77-4,5.6-8,8.46-12l4.43-6.16,2.18-3c.47-.66,1.8-2,1.75-2.74-3.31.87-6.31,3.25-9,5.25a56.86,56.86,0,0,0-4.46,4.2c-1.41,1.33-2.82,2.68-4.23,4a178.61,178.61,0,0,0-13.23,14c-4.24,5-7.83,10.39-11.64,15.73l-2,2.82c-2,2.66-4,5.28-6.14,7.8a38.7,38.7,0,0,1-3.3,3.71,29.34,29.34,0,0,1-3.34,3.06,5.91,5.91,0,0,1-3.46,1.1c-.86,0-1.72-1.11-2.25-1.74a8.7,8.7,0,0,1-2.05-5.75,62.72,62.72,0,0,1,3.16-17.11c-2.91,3.25-5.72,6.6-8.75,9.74-6.32,6.54-11.9,13.78-18.89,19.69-3.09,2.61-6.17,3.85-9.91,1.61a9.23,9.23,0,0,1-4-10.66c3.31-10.41,9.13-19.56,14.81-28.77,3.45-5.6,6.81-11.26,10-17.16-5.59,3.94-12.16,6.25-16.26,12.54-6.14,9.41-11.26,19.63-19.85,27.29a67.92,67.92,0,0,1-6.92,5.39c-3.41,2.3-6.71,2.11-10-.14-3.51-2.41-4.49-5.91-3.72-9.86,1.19-6.09,4.63-11.09,8.57-15.67a95,95,0,0,1,12.83-12.46c4.46-3.53,9.86-7.77,15.62-8.68,1.56-.24,3.07-.38,4.33.69.4.34,2.78,3.69,2.38,4a178.34,178.34,0,0,1,19.76-11.11c.94-.45,1.46-1.71,2.26-2.5,1.8-1.77,4.17-2.64,6.36-1.63,2.4,1.1,6.11,1.56,5.26,5.78a5.32,5.32,0,0,1-.81,1.95c-10,14.46-16.45,29.68-25.84,44.51a5.67,5.67,0,0,0-.62,2.26c4.86-5,9.24-9.64,13.77-14.12,5.9-5.84,11.93-11.55,17.86-17.35a12.13,12.13,0,0,0,2.9-3.57c.95-2.24,2.58-2.4,4.53-2.24,3.94.32,4.7,1.89,2.89,5.39-4.62,9-9.25,17.89-12.22,27.57-.18.59-.27,1.21-.43,2,1.48-.19,2.15-1.19,2.89-2,4.46-4.75,8.53-9.86,12.52-15,2.63-3.39,5.09-6.9,7.77-10.25s5.47-6.4,8.34-9.44,6.09-6,9.26-8.89a57.66,57.66,0,0,1,10-7.21l1.19-.65a17.66,17.66,0,0,1,6.42-2.29c2-.21,3.78-.49,5.7.45,2.84,1.39,2,4.82,1,7.18-2.85,6.84-8.24,12.08-11.57,18.61-1,1.94-2.21,3.75-3.59,6.06,5.23-4.43,10-8.6,14.95-12.63,3.22-2.63,6.59-5.14,10.57-6.46,2.4-.79,5-1.1,7,1.07s.8,4.34-.29,6.26c-3.08,5.43-6.49,10.68-9.52,16.15-4.55,8.19-9.59,16.17-12.86,26.33,14.26-10.63,26.27-17.79,34.15-21C533.56,97.34,533.87,97.73,533.75,97.91ZM399.35,76.55a2.74,2.74,0,0,0-2.47.27c-6.87,3.09-12,8.46-17.39,13.43s-9.8,10.58-12.19,17.58c-.32.92-1.11,2.14,0,2.91s2-.26,2.83-.86a56.94,56.94,0,0,0,4.89-4C384.4,97.13,390.61,85.72,399.35,76.55Zm222.58,36.8a16.28,16.28,0,0,0-5.52-2.47,50.68,50.68,0,0,0-21.79.29c-7.29,1.54-14.57,3.16-22.65,4.92C576.36,109.7,580,104,584.1,98.52c7.07-9.47,13.83-19.17,21.33-28.33,7.08-8.65,13.88-17.56,22.21-25.08,4.83-4.35,6.35-9.55,5-15.71-.54-2.47-4.31-6-7-5.4a6.05,6.05,0,0,0-1.93.89C616.35,29.5,612.08,38,606.82,44.66,596,58.4,586,72.68,577.6,88c-5,9.23-11.15,18-13.19,28.65-.24,1.26-1.29,1.3-2.22,1.52-2.53.59-5.07,1.12-7.57,1.81-.83.22-1.75.78-1.7,1.83,0,.89.86,1.3,1.62,1.65a5.56,5.56,0,0,0,4.22.54,48.59,48.59,0,0,1,6.78-1.76c8.34-1.36,16.66-2.83,25-3.81,9.73-1.14,19.49-2.86,29.32-.65.94.21,2.1.66,2.64-.86C623,115.59,623.43,114.34,621.93,113.35Zm242.9-49.88c-.5,1.17-1.52.78-2.32.75a185.1,185.1,0,0,0-38.63,2.49c-.63.11-1.25.29-3,.7,4.5.89,7.43,2.52,8.17,6.28a18.35,18.35,0,0,1-1.27,10C824,94.1,817.88,103,810.32,111a55.14,55.14,0,0,1-16.76,11.89c-6.61,3.21-11.72,1.54-14.19-5.4a6.54,6.54,0,0,0-2.14-3.29c-1.28-.9-3-.65-4.37-.21s-2.62,1.13-3.94,1.66a17,17,0,0,1-5.16,1.17c-2.09.15-2.66,1.57-3.3,3a116.66,116.66,0,0,1-9.9,17.41,91.46,91.46,0,0,1-27.44,26.27c-10.63,6.53-22.41,10.53-35.31,9.44-2.52-.21-4.25-1.87-6.11-3.26-1-.76-.52-1.85-.23-2.91,2.94-10.85,10.7-18.11,18.74-25.14,14.28-12.48,31.45-19.29,49.2-24.92a4.94,4.94,0,0,0,2.89-2.43c4.26-8.2,8.57-16.37,12.63-24.71-3.2,2.51-5.63,5.67-8.29,8.64-4.8,5.33-8.87,11.46-15.56,14.87-2.56,1.31-5.35,3.25-7.93,1.38-3.06-2.22-3.77-6-3.41-9.68.17-1.83.66-3.64,1.12-6-3.9,2.77-7.36,5.37-11,7.75a79.86,79.86,0,0,1-8.64,5c-2.49,1.22-5.49,2.26-7.86.28-2.82-2.35-4.58-5.6-3.55-9.54a82.52,82.52,0,0,1,9.59-22.07c.65-1.07,1.19-2.2,2.2-4.09a111.53,111.53,0,0,0-20.11,15.38c-9,8.61-16.33,18.71-24.55,28-1.25,1.41-2.89,3.48-4.57,2.26a6.76,6.76,0,0,1-2.91-6.29c.55-3.6,2.46-6.7,4.14-9.84,5.29-9.89,10.12-20,15.93-29.69a153.24,153.24,0,0,0-14.94,13.27c-7.71,7.49-13.35,16.79-21.21,24.14a8.94,8.94,0,0,1-1.7,1.38c-2.57,1.42-5.09,3.79-8.26,1.77a9.8,9.8,0,0,1-3.89-11.14,96.41,96.41,0,0,1,7.3-14.82c-4.51,3.39-8.31,6.37-12.24,9.17-2.5,1.8-5.14,3.43-7.8,5-3.2,1.85-5.84.65-6.46-3-.69-4.15,1.86-7.25,4.43-10.18,3.2-3.64,6.36-7.31,9.4-11.09a87.84,87.84,0,0,0,7.88-10.59c2.68-4.64,4.51-5.51,7.39-4.39,2.31.9,3,2.33,1.13,4.47Q629,83.49,617.4,97.22c-.5.59-.93,1.24-1.87,2.5,5.2-2.29,9-5.29,12.9-8.18,8.25-6.18,16.68-12.14,23.77-19.78,1.72-1.86,4.17-.47,6,1s1,2.37,0,3.84c-6.38,9.09-13,18.08-16.76,29.92,8-7.86,14.45-15.7,22.09-22.4,7.84-6.87,16-13.43,23.32-20.79,3.56-3.57,6.33-2.79,9.66-.9,2.35,1.33,2.76,3,1,5.53-6,8.64-11.67,17.46-16.92,26.64,4.46-3.92,8.84-8,13.39-11.76,6.24-5.22,12.68-10.17,20.08-13.71,2.51-1.2,5.32-1.33,7.13.3s1.51,4.65.25,7c-4.24,8.06-8.55,16.08-11.89,24.56-.59,1.49-1.54,2.87-1.38,5,5.8-2.52,10.77-6.23,16.29-8.76,9.33-4.28,14.22-13.07,21.28-19.64,9.59-8.93,20.36-15.73,34-16.24,2.72-.1,5.61-.53,7.56,2.21.54.76,1.19,1.43.44,2.36a2,2,0,0,1-2.66.44c-7.2-3.41-13.34-.83-19.53,3-10,6.16-16.68,15.36-23.62,24.35a37.18,37.18,0,0,0-5.15,9.62,1.43,1.43,0,0,0,2,1.77,34.31,34.31,0,0,0,7.9-6.29c9.87-9.86,20.72-18.82,28.41-30.72a3,3,0,0,1,4.33-.81c1.31.84,1.28,2.25.7,3.88-4.76,13.32-10,26.44-15.9,39.28a2.28,2.28,0,0,0-.33,1.43c.31,1,2.39.4,3.1.31a29.54,29.54,0,0,0,3.61-.6A10.92,10.92,0,0,0,776.9,108c1.46-1.87,2.17-4.3,3.29-6.26a59.41,59.41,0,0,1,4.11-6.85c7.13-9.46,15.85-18.94,27.62-22.29a9.21,9.21,0,0,1,4.82-.23c1.32.35,3.15.23,3.36,2.2a3.66,3.66,0,0,1-2.75,3.9c-6.55,1.73-10.33,7.63-15.12,11.91a65.8,65.8,0,0,0-14.57,19.13,14,14,0,0,0-1.33,3.34c-.19.83-.47,2.7.23,3.39,1.45,1.42,6.17-2.13,7.44-2.92a59.51,59.51,0,0,0,7-5.15,82.48,82.48,0,0,0,11.84-12.79,61.79,61.79,0,0,0,8.42-14.66c1.1-2.76,2.22-6.17.41-8.36-2.35-2.84-5.21-6.26-10.1-4.29-2.54,1-5.38,1.29-7.92,2.31-1.73.69-3.14.86-3.88-.89-.88-2.1,1.32-2.15,2.37-2.46,8.21-2.42,16.76-3.17,25.14-4.8a232.35,232.35,0,0,1,33.89-4C864.59,58,866.2,60.32,864.83,63.47ZM748,121.13c-1.47.41-2.23.57-3,.83a192.15,192.15,0,0,0-21.87,8.94,101.18,101.18,0,0,0-33.63,26.94c-.86,1-2.22,2.42-1.5,3.57s2.43.25,3.69.06c12.15-1.86,22.52-7.67,32.34-14.65C733.55,140.06,741,131.33,748,121.13Z" transform="translate(-13.89 -7.55)"/></svg>