<svg height="400" viewBox="0 0 2400 400" width="2400" xmlns="http://www.w3.org/2000/svg"><g fill-rule="evenodd" transform="translate(708 37)"><path d="m949.556851 137.168367c-4.968932-3.23061-10.330078-5.813453-15.953352-7.68586-27.115161-7.838192-54.798105-7.519679-82.550292-4.91618-8.918367.844752-17.79519 2.24344-27.156706 3.44825.651495-.767543 1.179447-1.63189 1.564869-2.561953.429301-2.229592 1.46793-4.888484.650875-6.619534-.60933-1.384839-3.836006-2.284985-5.650146-1.98032-3.3742.432519-6.612396 1.600161-9.486151 3.420554-8.706388 5.956473-17.096072 12.36314-25.13484 19.193877-17.822886 15.63484-35.258018 31.726677-52.748542 47.804665-11.452624 10.552478-22.586735 21.451166-33.970117 32.072886-1.301749 1.218659-3.28207 1.703353-6.13484 3.115889 1.883382-4.694606 3.046648-7.948979 4.445336-11.078717 4.514577-10.109329 9.001457-20.218659 13.696064-30.217201 4.597667-9.790816 7.935131-20.523324 17.338192-27.101312 3.115889-2.174198 2.132653-3.503644.567784-5.733236-3.434402-4.943878-9.070699-5.456268-14.06997-7.007289-1.204811-.373906-3.572887 1.232508-4.625365 2.548105-2.67274 3.365161-4.930029 7.076531-7.311953 10.663266-4.694607 7.034985-8.46137 14.942419-14.222303 20.952623-9.458455 9.84621-20.094024 18.5707-30.397231 27.572158-16.853498 14.720845-33.817784 29.317055-53.039358 40.949708-8.72449 5.276239-17.684403 10.040088-28.735423 11.978863.318513-4.48688-.110787-8.613702 1.024781-12.255831 5.73812-18.188681 13.918735-35.514256 24.317785-51.502186 8.433673-13.197522 20.052478-35.424198 35.895043-40.631195.872449-.276968 13.349854-2.50656 13.059038-.969388s-1.163265 3.198979-.720116 4.445335c.789358 2.201895 2.132653 5.539359 3.739067 5.816327 2.886026.321469 5.794904-.358084 8.239796-1.924928 2.534256-1.55102 4.320699-4.348396 7.464285-7.713556.166181-2.575802-3.392857-8.225948-7.505831-10.580175-8.599854-4.888484-17.822886-4.154519-26.782799-2.409621-15.745626 2.991253-28.610787 11.632653-40.714285 21.880466-10.137026 8.586006-21.049563 16.258018-31.726677 24.1793-15.551749 11.535715-31.200437 22.932945-46.821428 34.371721-2.24344 1.63411-4.583819 3.129737-6.924198 4.694606l-1.218659-.941691c3.143586-8.184402 5.899417-16.534985 9.513848-24.497813 7.395044-16.354957 15.524053-32.377551 22.725219-48.80175 1.731049-3.932944 6.314869-8.309038 2.631195-13.12828-3.871858-4.8486-8.102938-9.399095-12.657434-13.612973-2.243441-2.174199-4.694607-1.634111-6.342566 1.384839-1.647959 3.018951-3.268222 5.539359-4.916181 8.392129-2.769679-1.883382-4.874635-4.154519-7.436589-4.93003-7.104227-2.257288-17.712099 1.966473-22.337463 5.733237-28.541545 23.251457-46.405977 48.70481-70.626822 79.36516-11.286443 14.277697-21.880467 30.895773-31.643586 45.159621-3.281656 5.615327-6.941464 11.000935-10.954082 16.119533-.212543-1.245337-.179613-2.520211.096939-3.752915 7.838192-17.781341 15.676385-35.576531 23.736151-53.260933 8.599855-18.847668 16.881196-37.861516 26.311954-56.30758 12.86516-25.245627 26.68586-50.020408 40.021866-75.0306123 5.303936-9.9154519 8.03207-13.8483965 11.854227-26.8520409.595481-2.7696793 1.010933-6.3287172 1.204811-7.3119533.432777-2.280997.590851-4.605612.470845-6.9241983-.34621-6.2594752-3.739067-10.4970845-8.696793-14.4023323-3.794461-3.0051021-6.702624-2.7696793-9.5-.1246356-3.900776 3.4018589-7.291484 7.3475794-10.067784 11.7157434-16.06414 28.0983965-31.754373 56.4183674-47.666181 84.6137023-3.97449 7.048834-7.034985 13.848397-16.978134 16.230321-23.694607 5.719388-43.345481 19.803207-60.725219 36.421283-9.541545 9.112245-16.908892 20.495627-25.522595 30.632653-6.924198 8.129009-10.732507 17.033528-5.539358 27.087463 4.957726 9.513849 8.309038 13.239068 15.413265 8.959913 12.532799-7.561224 24.580904-15.953353 36.656706-24.248542 4.680758-3.212828 8.904519-7.090379 14.153061-11.341837-2.215743 5.276239-4.043732 9.541545-5.802478 13.848397-5.193149 12.643586-11.327989 24.996355-12.35277 38.94169-.733965 9.970846 2.201895 18.459913 10.497085 24.636298 3.046647 2.271137 6.093294 4.528426 9.126093 6.813411 5.276239 3.97449 10.317055 3.752915 14.582362-1.260204 6.273323-7.381195 9.693877-15.897959 15.011661-23.66691 0 .069242 19.387755-33.153061 31.851312-48.469388 4.376094-5.373177 13.848397-18.612244 13.654519-18.459912-4.154519 10.233965 2.76968 16.479592 8.613703 22.905248.95337 1.073397 2.482733 1.42376 3.808309.872449 2.924316-.975868 5.612814-2.551233 7.893586-4.625365 4.75032-4.746009 9.248015-9.738313 13.47449-14.956268 6.924198-8.475219 13.612973-17.172012 20.398688-25.771866-.037648 1.950187-.283701 3.89076-.733965 5.78863-4.265306 12.297376-8.6414 24.608601-7.60277 37.875364.720117 9.029155 6.924198 12.574344 12.906706 18.1414 12.311224 11.438775 22.697521-7.145773 31.43586-14.734694 11.909621-10.330904 23.985422-20.481779 36.005831-30.701895-.412159 1.483453-.902148 2.944173-1.46793 4.376093-2.298834 5.220846-5.345482 10.206268-6.924199 15.63484-4.085277 14.056122-6.924198 28.555393 4.154519 40.783527 4.860787 5.35933 11.604956 9.043003 17.559767 13.377552 4.154519 3.074344 8.738338 3.282069 13.848396 1.855685 12.034257-3.392857 22.517493-9.776968 32.225219-17.213557 8.392128-6.453353 15.787172-14.208455 23.736152-21.257289 9.250729-8.212099 27.267492-30.757288 29.081632-32.142128-1.717201 7.215014-3.157434 14.540816 2.894315 20.46793 3.273692 3.455775 7.132036 6.306167 11.397231 8.419825 2.894314 1.260204 7.118075.844752 10.27551-.235423 3.558474-1.382102 6.792818-3.484897 9.5-6.176385 8.766035-8.309037 17.241253-17.00583 25.827259-25.536443l12.588193-12.532799c-1.38484 7.713557-3.586735 15.385569-3.836006 23.140671-.761662 23.708455 21.894315 40.16035 43.400874 35.091837 10.834897-2.481584 20.887473-7.605401 29.261662-14.914723 20.46793-17.919825 37.390671-38.041546 40.049563-66.596939.886297-9.209184-1.066327-17.199709-10.137026-21.838921-1.647959-.858601-3.226677-1.855686-4.846939-2.76968.747813-2.368075 1.38484-3.572886 6.079446-4.320699 33.845481-5.483965 67.427843-7.630467 100.982507 2.645043zm-635.392128 92.784257-5.345481 2.700437c10.026239-23.874635 60.171283-72.524052 79.129738-76.276968-4.805394 8.80758-7.976677 17.87828-13.848397 24.691691-16.950437 19.844752-36.282799 37.113703-59.93586 48.88484zm61.583819 43.899417v-.304665l.166181.152332zm116.215744-93.365889.235422.304664c-.070502-.107472-.149211-.209331-.235422-.304664zm-46.419825 33.028425c1.81617-9.719652 6.200899-18.776006 12.698979-26.228863 10.19242-12.061953 21.008018-23.625364 32.04519-34.939504 5.013119-5.123907 11.078717-9.209184 16.867347-13.585277 2.409621-1.827988 5.193148-3.157434 7.893586 1.952624-22.572887 24.359329-42.085277 52.208455-69.505102 72.80102zm230.561953-11.327988h-.304665.276968zm155.102041-43.068513c-9.084548 23.542274-22.697522 43.511662-44.494898 57.041545-3.588538 2.082225-7.379393 3.794374-11.31414 5.110058-7.228863 2.645044-8.793732 1.454082-8.946064-7.187317.475856-10.990771 3.885156-21.653797 9.873906-30.881925 3.877551-6.120991 8.03207-12.061953 12.172741-18.002915 4.653061-6.661079 8.655248-14.51312 15.233236-19.470846 6.024053-4.500728 13.585277-5.87172 20.772595-7.367347 3.600583-.747813 5.539359.969388 6.730321 4.071429 2.200075 5.346803 2.190115 11.347848-.027697 16.687318z" fill-rule="nonzero"/><path d="m341.639942 29.2616618c5.788629 5.8855685 10.400145 10.4278426 14.845481 15.1086006 7.893586 8.3090379 9.278425 18.5983965 8.392128 29.372449-1.578717 19.3877551-9.029154 36.6844026-18.515306 53.3994166-14.206531 24.784956-30.911585 48.051384-49.854228 69.43586-13.379272 15.441758-29.0208 28.767406-46.392128 39.523324-10.257328 6.355992-20.930872 12.014313-31.948251 16.936589-13.474489 5.95481-27.821428 8.849125-42.376093 4.334548-6.992029-2.024058-13.633065-5.106395-19.69242-9.139942-17.933673-12.574344-30.868075-28.416909-32.419096-51.723761-1.20481-18.002915 4.306851-34.344023 11.217201-50.158892 10.441161-24.063857 24.751124-46.256229 42.362245-65.6967928 2.373206-2.3915777 4.455656-5.0550687 6.204082-7.9351312-.913203.3666928-1.7974.8018473-2.645044 1.3017493-13.419096 9.1676385-26.893586 18.2798834-40.16035 27.5860057-7.491982 5.234694-14.623906 10.981779-22.157434 16.188776-13.751458 9.541545-27.9322159 18.487609-41.4344025 28.389212-15.3024781 11.23105-29.8571428 23.542275-45.159621 34.759476-5.8693469 4.20501-12.3154245 7.539992-19.1384839 9.901603-2.83892131 1.010933-7.2427114-.747813-10.28935863-2.409621-1.15712022-.693339-1.75791194-2.035657-1.5040862-3.360504.25382574-1.324846 1.30820859-2.350052 2.63965472-2.56661 9.13994171-.761661 15.37172011-6.924198 22.06049561-11.854227 14.4300292-10.774052 28.3338193-22.254373 42.75-33.056122 45.7966469-34.260933 90.9424199-69.491254 140.0903789-98.9190966 19.581633-11.7295918 40.437318-21.2988338 60.71137-31.85131192 9.555394-4.99927114 20.121721-5.24854228 30.466473-6.07944607 2.049562-.16618076 5.6086 2.64504373 6.287172 4.77769679 1.218659 3.79446065-1.38484 6.5087464-4.999271 8.5167639-7.447075 3.9348854-14.656091 8.3046865-21.589651 13.0867346-10.62172 7.6166181-21.658892 14.9839651-30.923469 24.0823616-14.997813 14.7623906-30.383382 29.6217201-42.514577 46.6552478-14.443878 20.2879009-27.309038 42.0021869-35.618076 65.8768219-2.201895 6.273324-2.769679 13.12828-4.154519 19.678572-2.93586 13.432944-3.01895 27.045918-1.744898 40.561953.526239 5.539359 3.323615 11.217201 6.120991 16.244169.997085 1.772595 5.082362 2.603499 7.727406 2.534257 15.233236-.401604 28.486151-6.730321 41.309766-14.236152 38.290817-22.406705 66.887755-54.576531 91.482508-90.803936 11.078717-16.271866 21.451166-32.931487 27.295189-51.7653059 2.711734-9.4495108 4.283154-19.1895263 4.680758-29.0123907.512391-8.3090379-3.836006-15.2332361-10.012391-20.7725947-4.154518-3.7390671-9.126093-3.351312-14.222303-2.1603499-9.232264 2.1603499-18.515306 4.1960641-27.849125 6.1071429-4.653061.9555393-6.619534-.8586006-6.924198-4.7915452 13.848396-3.5036443 27.696793-6.6472303 41.28207-10.4693878 40.838921-11.5080175 82.231778-19.76166179 124.635568-21.71428569 15.622529-.66358308 31.253547 1.09759259 46.336735 5.22084548 4.930029 1.38483965 9.693877 3.32361511 12.643586 8.12900871-27.918368-7.7827988-56.155248-6.1902332-84.322886-3.7529154-28.167639 2.4373178-56.002916 6.8411079-82.979592 16.521137z"/><path d="m720.573615 116.783528c0-14.305394 5.636298-12.186589 13.848397-19.7755105 2.769679-2.5065598 4.389941-1.3848397 7.131924.2631195 8.682944 5.137755 8.544461 8.03207 10.690962 16.49344 1.537172 6.259475-3.392857 10.663266-4.223761 10.774053-6.494898.830904-9.389213.304664-15.842566-.069242-7.298105-.443149-9.749271-.761662-11.604956-7.68586z"/></g></svg>