<svg width="288" height="89" viewBox="0 0 288 89" fill="none" xmlns="http://www.w3.org/2000/svg">
<path d="M41.3668 16.8375C34.5249 28.9109 11.9888 61.6415 9.84964 64.5243C7.71047 67.407 6.93629 68.6037 5.8667 68.1591C4.79712 67.7145 1.45253 65.8384 0.773428 64.678C0.0943248 63.5177 0.664772 62.0721 2.65794 59.88C4.65111 57.6879 19.717 36.5106 26.1311 26.867C32.5453 17.2234 40.2735 5.05775 40.2735 5.05775C40.2735 5.05775 39.1054 5.53867 36.5384 7.77831C33.9714 10.018 28.9019 14.8635 26.0802 18.5431C23.2585 22.2227 21.3469 25.1642 21.4182 25.9079C21.4963 26.7468 20.1143 26.3944 18.5422 25.9471C16.97 25.4997 18.1619 23.7102 22.2772 18.6606C26.3926 13.6109 32.569 7.47634 36.6572 4.69427C40.7455 1.91219 43.5603 -0.623832 45.9915 0.136695C48.4227 0.897222 48.2088 4.76696 41.3668 16.8375ZM282.194 41.5211C277.216 42.606 271.063 44.5968 255.539 51.8917C240.015 59.1866 234.596 60.9369 229.614 57.2042C221.445 51.0696 224.416 41.5267 231.652 34.6764C232.792 33.5973 234.022 32.5846 235.332 31.6454C233.295 31.925 230.541 32.3836 226.579 33.2112C221.434 34.3015 216.501 35.9806 211.924 38.1994C211.071 39.5219 208.99 44.4318 208.99 44.4318C208.99 44.4318 213.251 53.2394 212.966 61.7338C212.681 70.2282 208.708 84.8795 200.284 84.5664C191.86 84.2532 191.347 73.4437 194.444 62.5139C197.54 51.5841 202.216 40.7047 202.216 40.7047C202.216 40.7047 202.294 40.5033 200.8 41.3785C199.306 42.2537 198.566 40.6907 197.819 40.1734C197.072 39.6561 196.674 39.3346 198.566 38.4538C200.457 37.5731 203.849 37.218 204.24 36.6112C204.966 35.4816 205.677 34.3893 206.372 33.3343C201.924 35.4872 192.81 40.0448 190.613 41.3254C190.613 41.3254 190.654 46.0144 188.79 58.6609C186.926 71.3075 181.191 88.2152 177.211 88.8583C173.232 89.5014 168.804 88.0642 167.853 82.296C166.902 76.5277 167.103 69.4341 171.432 58.577C173.228 54.0754 174.828 50.5943 176.128 47.966C173.697 50.0155 171.035 52.2048 168.94 53.751C163.83 57.5453 162.964 57.7214 160.59 58.5519C158.217 59.3823 156.702 57.4335 155.551 55.2973C154.4 53.1611 157.28 47.295 159.728 43.8586C159.728 43.8586 153.68 48.6594 150.298 51.4443C146.916 54.2292 142.119 56.6422 140.601 54.8024C139.083 52.9626 136.132 50.6083 138.078 47.5718C139.327 45.6574 140.771 43.8334 142.394 42.1195C142.394 42.1195 134.19 46.8029 124.689 53.0856C115.189 59.3683 105.834 65.1757 98.4183 64.7591C91.0025 64.3425 82.8499 58.4177 85.023 45.7459C87.1961 33.0742 98.4183 19.7874 111.664 10.236C124.91 0.684722 135.338 0.0332412 139.514 0.0444254C143.049 0.0444254 150.023 2.00166 151.68 4.07354C153.337 6.14542 154.679 10.7589 151.738 11.6844C150.815 11.964 149.796 11.2706 148.733 8.88835C147.67 6.50611 147.959 6.98423 147.035 6.82486C146.112 6.66548 139.226 5.84344 123.25 15.213C107.274 24.5826 97.2638 40.8221 95.6136 50.3622C93.9634 59.9024 97.6272 61.7981 99.0668 61.3843C100.507 60.9705 106.697 60.7328 121.956 50.0658C137.215 39.3989 148.01 34.8917 156.071 31.9894C159.164 30.8038 161.035 29.677 163.697 30.2111C166.359 30.7451 169.025 33.0071 169.025 33.0071C169.025 33.0071 172.553 33.6586 171.975 35.0818C171.398 36.505 167.154 43.2603 164.777 48.1785C162.4 53.0968 162.692 54.4612 162.692 54.4612C162.692 54.4612 173.109 47.376 178.651 43.3357C179.551 41.8147 180.05 41.1548 180.05 41.1548C182.963 35.5152 188.359 26.5343 196.532 15.3165C203.235 6.11746 207.282 3.85265 211.781 1.98768C216.535 0.0108727 219.221 1.21877 220.015 1.81433C220.884 2.4714 222.124 3.78834 219.706 7.04575C217.289 10.3032 214.07 14.0387 207.618 19.4686C201.167 24.8986 192.678 32.9121 192.678 32.9121L189.432 39.1808C189.432 39.1808 193.876 36.9104 197.241 35.3474C199.836 34.1479 205.642 31.1338 208.81 29.6658C218.012 16.0658 224.256 9.17354 229.336 5.35693C235.214 0.939163 240.412 1.00906 242.874 2.81532C244.84 4.25808 243.96 8.05792 238.996 12.4449C230.796 19.6923 218.735 26.263 218.735 26.263C217.265 28.3517 214.375 34.092 214.375 34.092C224.901 31.4413 234.032 30.7367 236.619 30.6556H236.809C242.779 26.8418 248.982 25.592 253.05 26.9872C258.32 28.7963 257.515 33.0798 249.828 38.2637C242.14 43.4476 234.375 44.0543 234.375 44.0543C229.519 51.1228 230.86 55.6915 232.616 56.1137C234.371 56.5359 242.932 54.3047 255.393 48.4553C267.855 42.606 278.388 38.7474 284.255 38.5657C290.122 38.3839 287.175 40.4362 282.194 41.5211ZM222.093 21.1239C231.964 14.6231 233.978 12.9063 236.578 10.3563C239.974 7.02338 239.702 5.52749 237.794 5.63654C235.886 5.74558 233.556 7.40644 230.664 10.9043C227.771 14.4022 222.11 21.1239 222.11 21.1239H222.093ZM195.5 27.0208C212.399 11.0833 214.358 8.13062 215.088 6.66548C215.818 5.20035 212.596 5.12206 208.464 9.43078C204.331 13.7395 195.5 27.0208 195.5 27.0208ZM166.767 33.667C164.22 32.4507 162.492 31.7377 159.945 33.3315C157.398 34.9252 152.567 39.2032 148.546 43.1372C144.526 47.0713 142.794 51.6876 142.947 51.6876C143.1 51.6876 147.069 48.5867 154.349 42.8017C161.629 37.0167 166.767 33.667 166.767 33.667ZM186.532 45.7096C183.157 52.3812 180.262 59.2107 177.863 66.1627C173.673 78.1438 174.413 86.1545 175.194 86.7613C175.975 87.368 179.099 82.7965 180.359 79.3657C181.619 75.935 185.527 64.0629 186.532 45.7096ZM207.306 47.7311C207.306 47.7311 202.892 58.8818 200.128 69.3167C197.364 79.7516 200.722 82.3603 201.71 82.2764C202.698 82.1925 214.09 67.9662 207.306 47.7311ZM236.286 41.1436C236.286 41.1436 242.884 38.8928 248.171 34.8917C253.458 30.8905 254.551 29.1374 252.076 28.567C249.6 27.9966 249.386 27.8875 246.982 29.7469C244.578 31.6063 238.415 36.8573 236.286 41.1436ZM250.344 23.618C250.588 24.9852 252.171 24.8007 252.49 24.1492C254.354 20.3829 252.612 16.7481 252.49 15.817C252.368 14.8859 249.332 13.7143 248.038 13.2166C246.745 12.7189 246.341 13.2166 247.108 14.8943C247.875 16.5719 250.103 22.2507 250.344 23.618ZM77.5121 11.6592C74.6803 15.3109 56.8877 29.9175 51.3666 33.8767C51.3666 33.8767 45.8625 42.413 43.4381 49.9792C41.0137 57.5453 40.8032 61.2417 41.3431 61.2864C42.0425 62.0553 52.8878 55.7838 57.7672 52.4733C62.4666 49.2774 59.706 52.3307 57.3869 54.3019C52.7995 58.1604 48.1918 61.7142 46.0323 63.2213C42.7522 65.5085 39.0918 65.0891 36.8983 63.2213C32.7728 59.7094 33.7133 52.7361 38.3992 42.0468C38.3992 42.0468 35.608 43.5874 31.4485 45.8522C27.289 48.117 25.3128 49.104 28.053 46.9566C30.7932 44.8093 36.1785 41.1353 39.9373 38.5908C39.9373 38.5908 43.5026 28.8606 53.8963 17.2905C64.29 5.72042 71.2134 2.28966 76.3746 2.99147C81.5358 3.69328 80.344 8.00759 77.5087 11.6592H77.5121ZM67.3833 11.3293C60.324 18.3194 54.7418 28.6117 54.7418 28.6117C71.4579 15.0425 75.8721 8.31795 76.4289 6.90874C76.9858 5.49953 74.429 4.32798 67.3833 11.3293Z" fill="#17171A"/>
</svg>
