<svg enable-background="new 0 0 2400 400" viewBox="0 0 2400 400" xmlns="http://www.w3.org/2000/svg"><path d="m1128.5 68.4c-.5 1.2-1.1 2.4-2 3.4-5.9 7-26.3 17.4-26.3.9 0 0-.1-.9-.3-2-.4-3.2-3.5-5.3-6.6-4.4-6.9 2-13.4 4.4-20.5 6.8-10.7 3.5-21.1 8.7-31.1 13.8-20.3 10.3-39.5 22.6-57.3 36.7-23.8 18.8-45.1 40.9-63.1 65.3-18.1 24.7-35.5 52.2-34.6 84 .3 10.1 4.3 15.5 14.3 16.5 8.3.8 17.2.9 25.3-.9 13.6-3.1 27.2-7.1 40.2-12.3 52.4-21.1 96.2-49.1 140.8-83.3 5.5-4.2 10.9-8.6 16.4-13 3.2-2.6 7.5-2.9 11.3-1.5 2.2.8 7.6-2.2 10.7-4 10.9-6.5 22.3-12.4 33.9-17.6 8.6-3.9 17.8-6.4 26.7-9.6 5.7-2 11 0 16 2.3 5.3 2.5 6.5 6.8 5.9 12.8-1.3 11.7-6.2 22-10.9 32.4-1.3 2.9-2.5 5.8-3.6 8.4 10.9-8.1 21.5-16.2 32.3-23.9 3.7-2.6 7.9-4.9 12.1-6.3 2.8-.9 6.3-.6 9.3.1 4.4.9 6.1 4.2 3.7 8.1-2.4 3.8-5.2 7.7-8.6 10.5-5.9 4.9-8.8 3.4-11.4-5.3-14.7 8.8-26.7 20-36.4 33.6-15.7 21.8-30.2 44.4-41.9 68.7-1.5 3.2-3.7 6.2-6 8.9-3.4 4-7.1 4.8-11.1 1.9-6.3-4.6-11.7-10.5-9.6-18.9 1.9-7.9 4.4-15.8 8.1-22.9 15-29.1 30.5-57.9 45.8-86.9 2-3.7 3.6-7.6 6.1-12.8-11.4 2.9-14 4.6-23.1 9.3-5.2 2.7-10.6 5.6-16.9 10.6-7.4 5.8-9.3 11.1-11.5 19.4-7.3 28.2-22.6 52.1-40.6 74.4-9 11.2-22.6 17.1-37.1 15.1-16.4-2.3-19.7-20.4-13.6-33.4 4-8.5 12.4-19 17.3-27.1 1.8-3 6.2-7.3 7.2-11.1-4.4 3.1-14.3 10-18.6 13.2-19.6 14.7-36.1 27.1-55.7 41.8-12 9-23.4 19.1-36.3 26.7-18.3 10.9-37.1 21.9-59.5 22.7-16.4.6-29.6-6-41.1-17.2-17.5-17.1-19-38.1-14.1-60.2 5.8-25.7 19.7-47.6 34.4-69 13.4-19.6 30.2-36.2 47.8-51.9 20.4-18.1 41.8-34.8 65.4-48.4 23-13.3 46.4-25.6 72.4-31.9 7.5-1.8 15.5-1.4 23.3-1.4 11.4-.2 27.1 17.1 22.7 28.9zm10.9 120.4c-17.7 3-52.2 40.9-63.5 72.6-2.4 6.8 3.5 15.8 12.7 11.3 26.1-12.8 45.4-54.5 50.8-83.9z"/><path d="m1397.9 90.6c8.7 0 15.4-.1 22.1 0 25.9.7 51.6 3.6 76.8 9.8 10.8 2.7 21.2 6.8 30.1 13.9 1.9 1.5 3.6 3.2 5.3 5 1.8 1.9 0 5-2.6 4.3-2.4-.7-4.8-1.4-7.3-1.8-26.4-5.2-53.2-6.4-80-6-11.8.2-23.6 0-35.4.4-9.5.3-18.9 1.2-28.4 2-4.9.4-8.1 3.4-11.1 7.2-14.6 18.6-26.9 38.7-38.5 59.2-12 21.3-23.2 43.2-34.1 65.1-3.8 7.5-5.7 15.9-8.7 23.8-1.1 3-2.3 6-3.5 8.9-1.5 3.7-5.8 5.3-9.4 3.5-9.5-4.7-10.2-10.7-7-26.8 1.6-7.9 3.7-15.7 6.6-23.2 12.9-34 30.8-65.5 49.7-96.5 2-3.3 4-6.6 6.4-10.6-3.1 0-5.2-.1-7.4 0-28 1.8-56.1 4.5-83.6-4-12.8-3.9-22.2-11.4-25.3-24.8-1.2-5.3-1.6-11.2-.5-16.5 1.6-7.9 7.1-11.7 14.2-13.5 2.3-.6 4.6 1 4.7 3.4.2 3.3-1.2 6.4-2.4 9.7-1.3 3.5.6 7.5 4.2 8.7.9.3 1.7.5 2.6.6 23.1 3.3 46.4 2.2 69.6 1.1 14.7-.7 29.4-1.1 44.1-1.3 5.3-.1 9.3-1.7 12.8-5.8 6.5-7.8 13.1-15.6 20.1-22.9 9.4-9.8 16.1-8.8 20.9 3.8 2.6 7.3 4.1 15.7-5 23.3z"/><path d="m1434.1 184.9c1.1 3.5 2.3 7 3.5 11.1 5.1.6 10.1 1.8 15.2 1.9 27.9.6 49.3 1 77.2 1.4 2.9 0 5.8.2 8.7.4 1 .1 1.1 1.5.1 1.7-15.3 3.1-31.7 3.4-47 4.3-17.9 1-35.9.2-53.6.2-4.6 8.7-8.8 17.3-13.4 25.6-11.9 21.9-28.9 38.6-51.2 49.5-5.6 2.7-12 4.3-18.3 5.2-12 1.8-25.2-7.5-28.5-19.9-2.1-8.1-1.5-16.1.9-24.1 6-19.3 18.1-34.3 33.2-47.2 10-8.5 21.2-15.2 34-18.7 7.9-2.1 15.5-2.6 22.7 2 3 1.9 3.4 3.4 1.1 5.7-3.8 3.8-7.3 7-13.8 6.8-4.9-.1-10.1 3.3-14.8 5.9-15.7 8.7-27 21.8-36.4 36.8-5.6 8.9-9.7 18.2-11.4 28.6-1 6.7 1.5 10.3 8.3 9.5 6.2-.8 12.7-2.4 18.3-5.1 16.3-8 29.1-20.2 39.4-35 6-8.7 10.8-18.2 16.2-27.3 1.6-2.7 1.7-5.2.6-8.4-1.8-5.6-.2-10 4.1-12.7 1.9-1.1 4.3-.2 4.9 1.8z"/></svg>