<svg id="Capa_1" data-name="Capa 1" xmlns="http://www.w3.org/2000/svg" viewBox="0 0 854.3 184.25"><path d="M481.13,81.93c-1.72-1.23-4.16-.63-6.14.7-5.31,3.54-9.85,8.12-14.28,12.69-.74.77-1.56,1.5-2.23,2.33-.45.56-1.21,1.25-1.7,1.78-1.55,1.68-2.79,3.18-4.39,4.81q-4.77,4.86-9.13,10.11c-.51.62-1,1.24-1.57,1.82a11.63,11.63,0,0,1-2.24,2c-.19.13-1,.72-1.19.52s.22-1.14.28-1.37c.59-2.22,1.15-4.44,1.74-6.66a80.39,80.39,0,0,1,4.34-12.89c.84-1.85,1.65-3.73,2.61-5.53.84-1.55,2.38-2.81,2.48-4.7S448.53,85,447.29,84C444.52,81.9,440,82,436.64,82.29A24.72,24.72,0,0,0,424,87.82c-9.33,8.45-11.81,13.54-20.88,23.78-1.5,1.68-3,3.34-4.63,4.91-5,4.82-9.44,10.11-14.49,14.85-3.15,2.94-11,9.1-10.76,6.3.31-3.35,2.44-7.31,4.1-11.07,2.87-6.49,6.22-12.72,9.51-19,3.49-6.69,7.62-13.11,9.45-20.57.53-2.17,1.23-4.74-.72-6.18-1.54-1.14-4-1.87-6-.69-2.46,1.43-4.72,3.2-7,4.84a200.91,200.91,0,0,0-17,13.58c1.72-5.94,4.63-11.22,7.24-16.62,1.33-2.75,2.27-6.12,4.45-8,9.28-7.88,19-15.28,27.86-23.64,7.62-7.16,14.82-14.7,20.38-23.61,1.34-2.15,4-6.63,1.79-9.43-1.65-2.09-8.59-3-14.05.29A67.23,67.23,0,0,0,397,31c-8.38,9.79-15.61,20.45-22.81,31.13-6,8.86-11,16.76-14.15,21.5-8.46,6.15-12.53,7.16-16.51,9.6,2.43-6.06,4.62-11.15,6.49-16.35a4.41,4.41,0,0,0-2-5.63c-1-.49-3.05.36-3.8,2.44-.21.58.6,5.14-3.34,2.31-4.21-3-8.55-.62-12.73,1-6,2.32-10.59,7.12-16,10.08-13.88,7.53-25.73,17.4-36.89,28.29-3.79,3.71-7.49,7.5-12.06,12.08,2.6-6.14,4.71-11.21,6.91-16.23,3.75-8.59,7.6-17.13,11.33-25.73.83-1.94,1.7-4.18-.47-5.8-1.51-1.13-3.55-1.86-5.31-.87C269,82.57,263.32,87.64,258,93.05c-1.3,1.32-2.75,2.5-4,3.85s-2.3,2.75-3.44,4.13c2.95-9,7.52-16.88,9.2-25.93.21-1.12,1-2.62-.6-3.19a10.37,10.37,0,0,0-10.82,1.9,176.77,176.77,0,0,0-17.22,16.74,266.59,266.59,0,0,0-18.54,21.76,152.34,152.34,0,0,1,9.43-25.8c1.7-3.56,2.12-7.45-2.8-9.86-.33-.16-.76-.33-.66-1,.46-3.25-2.09-4.28-4.25-4.1-7,.59-13.08,3.81-18.53,8.1-13.68,10.79-23.8,25-36,37.23-3.38,3.36-6.54,6.94-10.39,11,.9-3.28,1.44-5.72,2.23-8.07,2.84-8.4,5.8-16.76,8.63-25.17,1.79-5.31-.67-6-5.2-5.6-3.43.31-5.57,3.32-8.06,5.44a139.17,139.17,0,0,0-15.27,15.25c-2.63,3.06-5.22,6.13-8.46,9.94.75-1.71,1.07-2.5,1.44-3.26C136,92.61,148.42,69.32,161.43,46.31c4.45-7.88,9.13-15.63,13.63-23.48.86-1.51,2.27-3.17.46-5s-3.8-4.26-6.78-2.23c-1.36.93-2.21,2.63-3.23,4a281.17,281.17,0,0,0-19.86,31.9c-3,5.46-5.82,11-8.62,16.53q-2.09,4.16-4.15,8.31c-.95,1.93-1.47,5-3.92,5.57-12.27,2.6-24.32,6-36.31,9.61a1.74,1.74,0,0,1-2.09-.5A119.59,119.59,0,0,1,73.25,68.6c-2.44-4.23-4.28-8.91-2.73-13.78,2.26-7.17,6-13.35,12.34-18a63.57,63.57,0,0,1,14.56-8.44A117.26,117.26,0,0,1,112.23,24c4.45-1.07,9.67-3.33,14-.74,5.5,3.31,5.58,9.95,1.49,14.33-1.4,1.5-3.19,3.22-.79,5.21,1.74,1.43,3.18,0,4.53-1.06,1.69-1.27,3.31-2.64,5.05-3.85,5.35-3.71,7.08-10.06,4-14.16a22.67,22.67,0,0,0-11.28-7.77c-10.43-3.5-24.47-.84-34.69,2.37-9.69,3.06-19.74,7.6-27.08,14.93-9.05,9-10.93,21.26-6.88,33.22,3.8,11.19,11.4,20.09,18.84,29,.5.59.76.79-.13,1.12C67.36,101,56.22,107,45,112.85s-20.86,13.94-32,19.68c-2.39,1.23,0,3.35,1.36,4.34,2.16,1.56,5.77,2,8.35,2.42,11.82,1.72,23.72-1.61,35.21-4,6.42-1.35,16.87-3.75,23.25-5.28,5.78-1.38,11.43-2.76,16.58-5.84,4.69-2.8,6.77-8.19,5.81-11.83C102,106.46,99,101.56,95.47,96.82c-.29-.39-.58-.76.13-1,1.94-.77,3.82-1.72,5.81-2.33,7.61-2.32,15.24-4.56,22.87-6.77a19,19,0,0,1,3-.38,27.42,27.42,0,0,1-.87,2.84c-.64,1.54-1.45,3-2.09,4.57-3.52,8.54-7.09,17.07-10.5,25.67-1.75,4.42-3.68,8.87-3.46,13.79.09,2.05.7,4.23,2.72,5a3.33,3.33,0,0,0,3.87-1c6.23-8.44,11-17.84,17.53-26.11C139.3,105,144.83,99.73,150.8,94c2.9-.55-13.29,29.83-10,39.91,2,6,6.78,7.57,11,2.94,4.76-5.2,8.93-10.93,13.38-16.41,4-4.88,7.92-9.74,12.23-15-.25,1-.35,1.59-.51,2.12-1.39,4.66.37,8.4,4.38,8.93,3.13.41,5.67-1.21,7.83-3.17,4.74-4.31,9.32-8.79,14.17-13.39-1.33,3.69-2.82,7.11-3.77,10.69-.73,2.72-2.46,5.5-1.72,8.41a14.21,14.21,0,0,0,4.81,7.06,4.31,4.31,0,0,0,2.85,1.19,4.67,4.67,0,0,0,2.11-.85c2.58-1.62,5.48-3.64,7.13-6.23,1.82-2.87,3.54-5.81,5.53-8.57.43-.61.88-1.2,1.34-1.79,4.44-5.59,9.24-10.9,13.94-16.28a160.13,160.13,0,0,1,17-16.92c-3,7.29-5.86,14-8.49,20.79-2,5.24-6,9.85-5.51,15.93.13,1.58.72,3.17,2.49,3.71,1.29.39,1.94-.79,2.62-1.54,1.37-1.5,2.59-3.14,3.9-4.71a204.69,204.69,0,0,1,27.32-26.65c-2.37,6.24-6,11.29-8.54,16.88-3.79,8.43-10.42,15.58-11.24,25.37-.28,3.26,1.56,5.36,3.47,7.27,1.75,1.74,4.15,1.45,6.26.1,4.46-2.86,7.57-7.22,11.18-11,7-7.37,14.64-14.19,22-21.2-2.42,4.5-4.6,7.89-5.13,11.89-.58,4.39-.6,9.1,3.09,12,3.95,3.13,9.62,2.37,13.71-.68,9-6.67,16.52-14.74,23.85-24.06-4.51,11.75-9.81,22.35-15,33-1,2-1.35,5-3.54,5.7A202.14,202.14,0,0,0,281.74,153c-13.05,6.75-25.32,14.5-34.92,25.88-3.59,4.25-4.71,8.92-2.38,12.45s6.13,3.3,9.67,3.11c6.58-.35,12.88-2.33,19.06-4.35a76.9,76.9,0,0,0,32.35-20.79,95.15,95.15,0,0,0,14.7-21.11c1.44-2.72,3.86-7.25,5.21-7.67a166,166,0,0,1,17-4.25c5.41-1.07,10.9-1.17,17.51-1.46a.13.13,0,0,0,0-.26c-12.09-2.49-22.73.2-33.53,1.69.48-1.16.81-2.2,1.31-3.15,4.5-8.71,8-17.83,11.76-26.87,1.9-4.6,3.22-8.48,3.22-8.48S353,92.3,358.91,87.11c-1.65,3.34-3.16,6.4-4.66,9.47-1.65,3.39-3.66,6.7-4.51,10.41a12.92,12.92,0,0,0-.12,5.5c.38,1.78,1.25,4.34,2.82,5.4a3.22,3.22,0,0,0,1.42.55c2.23.26,3.69-2.31,5-3.75l4.9-5.37,9.78-10.75,1.27-1.4C379,92.54,384.12,89,389.67,85c-1.11,2.1-1.89,3.68-2.75,5.2-5.83,10.34-12.67,20.1-17.71,30.89-2.35,5-5.93,13.63-4.58,19.63.58,2.58,4.05,6.35,9.3,3.88,7.88-4.46,34.71-34.19,38.87-39a25.74,25.74,0,0,1,.12,3c-.05,3.55,1.19,6.6,4.05,8.44,2.36,1.52,4.77-.14,7.06-1.21a18.07,18.07,0,0,0,5-3.79c.73-.74,1.44-1.51,2.17-2.26.25-.27.85-1.06,1.4-1.59a29.23,29.23,0,0,0-.92,7.28A36.71,36.71,0,0,0,432,120c0,.13,0,.26,0,.39v-.05a5.77,5.77,0,0,0,1.52,3.74,4.39,4.39,0,0,0,3.35.93c3.7-.36,6-2.86,8.59-5.43.62-.61,1.17-1.28,1.74-1.94.38-.46,1.22-1.18,1.88-1.9a5.36,5.36,0,0,0,.45-.54c2-2.37,7.56-8.61,9-10.11,4.43-4.74,8.93-10.47,14.26-15.37-1.52,3-2.67,5.33-3.84,7.63-3.92,7.72-7.95,15.38-11.74,23.17-2.22,4.56-5.89,9-1.29,14.43,2.34,2.74,8.06,3.8,9.54,1.06a136.91,136.91,0,0,0,5.85-12.44c4.48-10.75,8.95-21.5,13.14-32.36C485.92,87.53,484.14,84.1,481.13,81.93Zm-95.7-23.45c3.88-6,7.55-12.2,11.84-17.9,5.12-6.81,10.3-13.7,17.78-18.24,1.82-1.1,3.4-1.47,4.41-1,2.09,1,.39,4-.66,5.59-7.89,12.17-21,26.59-39.27,41.47,0-.09.1-.39.23-.56C381.65,64.72,383.46,61.55,385.43,58.48ZM89.65,114.19c-5.27,3.4-11.25,5.13-17.13,7.15C63.07,124.58,53.69,128,44,130.58q-6.69,1.78-13.46,3.2-3.39.72-6.8,1.33c-4.05.71-5-.85-4.57-1.1,4.46-2.88,8.88-5.82,13.45-8.52,9.82-5.79,19.61-11.66,30-16.36,6.71-3,13.49-5.92,20.22-8.92,1-.46,1.41.29,1.89.77a68.31,68.31,0,0,1,6.46,7.23C93.51,111.15,92,112.67,89.65,114.19ZM199.9,95.47c-5.25,5.48-10.18,11.37-16.85,15.3-.51.3-1.38.87-1.74.57s-.17-1.37.08-1.91c3.25-7.13,6.77-14.07,12.32-19.83A75.35,75.35,0,0,1,209.6,76.5c2.45-1.44,5.14-1.13,8-.62a13,13,0,0,0-5.29,5.61C209.29,87.14,204.22,91,199.9,95.47Zm100,67a79.87,79.87,0,0,1-20.74,16.62,63.71,63.71,0,0,1-21.84,6.75c-2.07.28-4.15.51-6.22.74a.68.68,0,0,1-.57-.25,6.11,6.11,0,0,1,0-5c1.81-3.81,5.15-6.26,8.25-8.9,9.83-8.33,21.12-14.22,32.81-19.4,6.8-3,13.7-5.8,21.43-9.06A95.47,95.47,0,0,1,299.88,162.43Zm37.19-72.95A226.4,226.4,0,0,1,309.24,116a48.43,48.43,0,0,1-6,3.61.86.86,0,0,1-.84,0c-.23-.34.11-.87.27-1.28a57.26,57.26,0,0,1,12.69-19.73c5.89-6,12.05-11.67,19.76-15.3,1.34-.63,3.31-1.22,4.47-.93a2,2,0,0,1,.48.28C340.62,83.29,338.83,87.52,337.07,89.48Zm94.5,9.43c-1.87,2.12-4,4-5.85,6.14a31.54,31.54,0,0,1-4.82,4.43c-.32.19-.6.25-.79.12-.84-.56.26-3.28.45-4.08.38-1.54.79-3.06,1.28-4.57a27.82,27.82,0,0,1,4.42-7.89,21.41,21.41,0,0,1,5.62-5.53,12.84,12.84,0,0,1,8-2.32c1.43.05,3.48.32,2.18,1.68s-2,2.86-3.22,4.12C436.26,93.56,434,96.2,431.57,98.91ZM864.17,84c-17.61-6.14-35.87-8.53-54.37-9.34-18.07-.79-35.9,1.32-53.59,4.84a1.3,1.3,0,0,0-1.13,1.62c.72,4.85,4.37,2.58,6.68,2.46,4.08-.22,8.12-1.18,12.52-1.88-5.62,3.71-11.25,6.65-16.13,10.88-7.92,6.87-14.78,14.35-17.95,24.61a1.15,1.15,0,0,1-.77.67c-3.54.6-7.09,1.14-10.72,1.71.08-.24.12-.43.2-.61,3.82-8.94,7.27-18,10.19-27.3,1.21-3.83,2.38-7.67,6.48-9.51.58-.26,1.18-.45,1-1.19S745.54,78.57,744,79a7.43,7.43,0,0,0-.25-4.36c-1.33-2.7-3.32-4.24-7.92-4a29,29,0,0,0-8.66,2.23,58.94,58.94,0,0,0-22.61,15.21c-5.88,6.19-9.39,14.19-17.5,18.77-6.38,3.6-11.39,7-17.41,10.81A59.57,59.57,0,0,1,673.9,105c3.89-8.41,7.77-16.84,11.55-25.3.83-1.85,2.23-4.16.28-5.81a6.2,6.2,0,0,0-6.7-.75,45.83,45.83,0,0,0-8.85,5.68C662.74,84.38,656.26,91,649.71,97.5c-2.32,2.31-4.87,4.4-7.36,6.54.24-.36.44-.75.66-1.14,5-8.89,10.14-17.71,15-26.67,2.38-4.38.88-5.8-4-6.34-2.79-.31-3.27,1.27-4.85,2.4a262.53,262.53,0,0,0-22.24,18.07c-6,5.35-11.9,10.85-17.84,16.28a48.06,48.06,0,0,1,4-10.16c2.48-4.57,4.17-9.59,7.56-13.62.89-1.06,2.1-1.91.64-3.19-1.69-1.49-4.74-2.79-5.8-1.33-2.44,3.37-6,5-9,7.47-2.77,2.24-5.56,4.44-8.36,6.64s-5.69,4.45-8.55,6.66l-4.28,3.31a31,31,0,0,1-4.17,2.94,1.52,1.52,0,0,1-.46.18.49.49,0,0,1-.45-.16.73.73,0,0,1,0-.7,11.26,11.26,0,0,1,1.19-2.25c.45-.66,1-1.25,1.55-1.88l1.71-2.1,3.42-4.21c2.28-2.8,4.57-5.6,6.84-8.41s4.54-5.63,6.79-8.46c1.52-1.92,3.39-4.25,1.83-6.85a4.17,4.17,0,0,0-3.06-1.81,13.36,13.36,0,0,0-1.89-.14,6.57,6.57,0,0,0-1.88.12.76.76,0,0,0-.4,1.31c.51.58,1.64.7,1.79,1.57a2.65,2.65,0,0,1-.63,1.68A40,40,0,0,1,594.14,78c-5,5.92-10.06,11.73-15,17.71-1.87,2.28-4.19,4.56-4.5,7.59-.68,6.52,3.49,9.2,9.65,5.72,6.9-3.89,12.21-10,18.37-15.11-2.83,5-6,9.69-8.17,15-1.69,4.2,0,7.39,2.56,10.31,1.23,1.4,3.41,2.32,5.06,1.65a20.35,20.35,0,0,0,7.36-5.32c7.83-8.64,14.66-18.18,23.43-26,3.76-3.34,7.6-6.6,11.4-9.9-2.65,5.41-5.66,10.47-8.61,15.56-6.22,10.74-12.61,21.39-17.24,33a3.75,3.75,0,0,0,.59,4.05c1.7,2.36,3.45,4,6.43,3.88,15.38-20.41,30-41.76,51.59-57.39-2.06,3.69-4,7-5.77,10.36-4,7.44-8.21,14.79-9.06,23.46-.36,3.64.09,8.39,4.7,10.61,3.16,1.51,5.73-.06,8.07-1.76,6.32-4.57,12.51-9.32,18.8-14.05,0,.4,0,.81.06,1.22.1,4.68,3.67,7.28,8.14,5.65,7.31-2.65,12.44-8.35,18-13.35C724.45,97,728.71,93,733,89c-4.47,9.56-7.53,19.61-12.67,28.73-1.55,2.74-2.57,5-6.48,6.25-3,1-6,1.73-8.94,2.9-16.53,6.65-32.13,15-46.16,26-4,3.14-8.64,5.6-11,10.33a5.11,5.11,0,0,0-.62,3.81,4.93,4.93,0,0,0,2.58,2.56c3.41,1.77,7.12,1.45,10.82,1.12a90.15,90.15,0,0,0,12.31-2.08,78.09,78.09,0,0,0,25.59-10.58c9-5.91,15.56-14.17,21.45-23.11,3-4.56,4-11.35,11.28-12,1.06-.09,2.45-.6,3.64-.64,3.27-.13,5.07-1.89,4.8,3.44-.33,6.74,5.6,11.84,10.46,10A94.73,94.73,0,0,0,761.64,131a80.73,80.73,0,0,0,12.73-8.68c8.54-7,16.3-14.7,21.73-24.6,3-5.45,3.12-12-1-16.55-.79-.86-.56-1.27.38-1.37,2.68-.31,5.37-.54,8-.75a144.69,144.69,0,0,1,21.13,0c11.33.79,22.64,1.9,33.73,4.54,1.14.27,2.28.52,3.43.72s2.3.3,4.5.58C864.91,84.29,864.55,84.13,864.17,84ZM707.61,103.89c-1,.72-2,1.39-3,2-.5.33-1,.65-1.52,1a2.51,2.51,0,0,1-1.39.57.8.8,0,0,1-.46-.1.61.61,0,0,1-.25-.53,5.69,5.69,0,0,1,.79-2c.32-.66.65-1.31,1-2q1-1.94,2.19-3.78A76.62,76.62,0,0,1,712.72,89,48.24,48.24,0,0,1,728,77.36a32.43,32.43,0,0,1,5.94-2.22c1.46-.35,4.18-1.17,4.79.8v0a4.32,4.32,0,0,1-.08,2.05A20,20,0,0,1,737,81.8c-1,1.82-2.34,1.72-4,2.82q-2.82,1.84-5.53,3.83c-3.62,2.64-7.12,5.42-10.62,8.22C713.76,99.1,710.72,101.53,707.61,103.89Zm-15.5,46.9c-7.11,4.23-14.83,6.88-22.64,9.42-1.16.38-2.34.71-3.53,1-2.27.56-4.57,1-6.88,1.32q-1.74.25-3.48.48c-.61.08-2.18.7-2.37-.32a.87.87,0,0,1,.22-.68,6,6,0,0,1,1.18-1c3.62-2.91,7.17-5.91,11-8.55a198.75,198.75,0,0,1,46.26-24.18c.69-.25,1.42-.4,2.29-.64C708.43,137.13,701.57,145.17,692.11,150.79Zm98.95-61.15c-3.82,9.85-11.68,16.43-19.13,23.31a103.25,103.25,0,0,1-15.72,12.19c-2.59,1.6-5.49,2.2-8.34,3-.83.24-.9-1.8-.82-2.25a20.48,20.48,0,0,1,1.32-3.71,64.08,64.08,0,0,1,10.21-16.7,102.41,102.41,0,0,1,8.86-9.42A92.17,92.17,0,0,1,781.37,85.7c2-1.28,4.54-2,6.82-3,1-.46,1.38-2.85,2.41-1.67C792.8,83.58,792.17,86.76,791.06,89.64ZM475.13,71.43a2.62,2.62,0,0,1,.43-2.47,54.61,54.61,0,0,1,6.25-7.73,64.52,64.52,0,0,1,7.53-7.44c3-2.38,6.11-.32,8.56,1.36,1.46,1,.67,4-.31,4.85-5.58,5.09-12.54,10.12-20,11.94-.82.2-1.82.31-2.37-.33ZM606.62,17.56a37.45,37.45,0,0,1-2.7,4.77c-.44.64-.93,1.26-1.43,1.86-2.15,2.57-4.19,6.17-6.12,8.94-5.3,7.59-9.44,15.1-14.54,23.57q-8.43,14-17,27.94c-7.22,11.84-16,22.51-24.77,33.22-2.21,2.71-5.21,4.78-8.22,7.48,6.89-1.31,13.19-3,19.6-3.66,14.2-1.59,28.49-3.12,42.19,2.91a12.54,12.54,0,0,1,5.06,3.45c.61.77,1.09,1.83.12,2.56-.8.61-1.28.17-2.14-.71-2.34-2.38-5.67-2.85-8.94-3.27-12-1.55-24-1.82-35.75.63-11,2.29-21.75,5.54-32.62,8.33-4.86,1.25-9.75,2.34-14.85,2-1.26-.09-3.13-.89-3.67-2.14-.78-1.81,4-3.21,5.08-3.5a37.13,37.13,0,0,0,6.32-1.72c5.55-2.55,8.68-7.47,12.26-12.14,4.2-5.5,8.09-11.23,11.87-17,2.64-4.06,5.23-8.15,7.84-12.23,6.69-10.47,13.1-21.12,19.69-31.65,3.17-5.07,6.27-10.18,9.57-15.16h0c1.2-1.8,2.46-3.57,3.74-5.33,2.83-3.88,11.95-17.29,20.25-24.53C603.71,6.68,608.4,14.37,606.62,17.56Z" transform="translate(-11.98 -10.23)"/></svg>