<svg width="733" height="208" viewBox="0 0 733 208" fill="none" xmlns="http://www.w3.org/2000/svg">
<path d="M157.245 97.2357C158.641 96.3715 159.178 96.0828 158.318 94.9895C157.459 93.8961 154.938 91.8808 151.611 93.6075C148.284 95.3341 143.667 100.402 143.667 100.402C143.667 100.402 145.761 95.9691 145.975 92.9742C146.188 89.9793 144.686 89.4055 142.594 89.981C142.594 89.981 140.676 90.4218 136.637 95.9691C131.243 103.372 123.745 116.262 123.745 116.262C123.745 116.262 124.174 111.311 126.535 105.669C128.897 100.028 131.265 94.6151 128.145 92.8885C128.145 92.8885 128.735 90.009 124.495 89.6066C120.255 89.2043 112.158 94.5451 107.107 101.35C107.099 101.355 88.2074 119.253 76.1931 120.478C68.8397 121.227 67.1763 119.731 66.7995 115.354C66.4228 110.977 72.377 93.3328 88.0982 80.0988C103.819 66.8648 111.474 66.5849 111.474 66.5849C111.218 66.9767 110.096 69.809 110.866 72.0901C111.636 74.3713 112.66 74.2524 113.396 73.6226C114.131 72.9928 117.062 69.2212 115.486 66.6636C113.911 64.106 112.114 60.6073 104.635 62.0627C97.1558 63.5182 75.469 74.4833 64.5669 95.8257C53.6648 117.168 65.2013 127.377 77.4978 123.842C89.7942 120.306 105.259 105.211 105.259 105.211C105.259 105.211 102.161 112.985 107.366 113.561C112.572 114.136 115.256 111.603 119.443 105.958C119.443 105.958 118.37 109.298 117.564 111.831C116.758 114.364 117.618 116.204 118.154 117.933C118.691 119.661 119.764 122.423 122.341 120.754C124.917 119.085 126.242 115.226 129.696 109.55C135.387 100.196 139.205 95.8502 141.459 93.7771C141.459 93.7771 136.467 107.536 135.019 111.567C133.571 115.597 134.321 116.64 135.286 118.706C136.252 120.772 137.165 119.799 137.755 118.246C138.346 116.692 142.264 107.018 147.578 101.376C152.891 95.7347 153.158 95.446 153.695 95.9656C154.232 96.4852 155.843 98.0981 157.245 97.2357ZM115.398 105.501C109.87 110.248 108.32 108.358 108.32 108.358C111.063 99.5711 120.361 92.4529 123.309 92.0575C126.258 91.6621 125.756 93.9521 125.756 93.9521C123.813 95.565 120.928 100.757 115.398 105.501ZM201.726 93.1649C204.929 91.9928 215.782 89.8096 216.73 89.4055C217.677 89.0014 216.391 88.718 209.985 89.4457C203.579 90.1734 199.797 90.9676 199.797 90.9676C201.896 88.0077 211.865 77.4572 215.883 72.8266C219.902 68.196 220.74 62.9847 218.282 61.7199C215.825 60.4551 211.389 59.7746 204.725 69.5466C198.062 79.3186 193.962 92.1135 193.962 92.1135C193.962 92.1135 190.646 92.8255 189.144 93.1229C187.642 93.4203 187.597 93.8226 187.729 95.1487C187.861 96.4747 188.657 97.1412 189.894 96.856C191.132 96.5709 191.618 96.7616 191.618 96.7616C186.093 103.068 178.536 110.417 178.536 110.417C179.332 106.339 181.232 98.6107 182.248 96.5709C183.264 94.5311 182.823 93.4902 181.453 92.5893C180.083 91.6884 179.425 92.3129 179.425 92.3129C176.419 86.1481 167.846 90.4638 160.593 98.5249C153.341 106.586 154.103 110.277 155.831 114.283C157.183 117.413 162.1 116.899 167.777 109.385C173.304 102.069 175.977 97.624 175.977 97.624C174.902 100.374 173.989 103.194 173.244 106.067C172.008 110.83 173.63 112.072 174.981 114.185C176.331 116.299 177.414 116.297 180.503 113.274C183.591 110.251 189.692 103.477 189.692 103.477C189.692 103.477 186.734 110.401 184.178 123.959C181.623 137.517 184.446 143.199 187.001 146.019C189.557 148.839 198.968 146.162 199.505 130.297C200.041 114.432 195.428 104.168 195.428 104.168C195.428 104.168 198.067 95.8816 198.254 95.3953C198.442 94.909 198.522 94.3387 201.726 93.1649ZM209.672 67.4158C213.161 61.7566 218.564 61.9385 217.287 65.1801C216.011 68.4217 211.58 74.1702 201.886 84.8973C201.886 84.8973 206.183 73.0698 209.672 67.4158ZM165.236 107.58C160.892 112.688 157.933 112.551 157.933 112.551C159.215 106.103 165.094 98.2328 170.4 94.155C175.705 90.0772 177.603 92.6855 177.603 92.6855C175.778 94.0973 170.106 101.865 165.236 107.58ZM195.666 127.663C195.624 139.438 191.157 144.231 190.093 144.14C189.03 144.049 188.816 137.795 190.257 126.704C191.697 115.613 194.334 107.58 194.334 107.58C194.334 107.58 195.717 115.887 195.672 127.663H195.666ZM227.5 109.48C216.968 113.645 213.165 113.664 210.873 112.922C210.153 112.688 210.094 112.109 210.309 111.022C210.524 109.936 211.63 106.343 212.583 105.949C213.535 105.556 222.475 101.378 226.176 96.7108C229.876 92.0435 227.573 89.3407 224.625 88.7809C221.676 88.2211 215.9 89.5716 209.972 97.0852C204.044 104.599 202.698 114.054 208.667 117.29C214.636 120.527 228.858 112.709 234.343 109.534C239.827 106.359 245.555 101.983 246.085 101.254C246.615 100.524 238.04 105.314 227.506 109.48H227.5ZM221.59 91.9753C224.66 90.0317 227.58 90.8557 225.46 93.3276C223.339 95.7994 221.128 98.1698 213.97 102.521C213.97 102.521 218.517 93.9206 221.59 91.9753ZM382.879 102.583C380.806 103.458 378.076 103.819 373.536 105.3C370.732 106.215 369.555 106.077 368.568 105.3C367.581 104.524 366.331 102.795 369.383 102.195C372.436 101.595 378.793 101.137 381.227 101.137C383.66 101.137 384.943 101.7 382.87 102.583H382.879ZM505.148 88.8387C499.369 90.6475 492.152 100.535 492.152 100.535C492.152 100.535 495.805 93.3625 496.301 89.4474C496.797 85.5323 493.958 83.092 491.296 84.5492C488.635 86.0064 490.169 87.8013 490.169 88.7687C490.169 89.7361 486.562 97.3406 486.562 97.3406C475.472 108.51 467.605 115.452 462.163 115.009C460.612 114.882 459.774 114.173 459.774 111.367C459.774 108.561 461.261 105.759 461.261 105.759C465.951 103.861 472.214 100.705 476.769 96.4484C481.323 92.1922 479.825 88.0514 476.354 87.4462C472.812 86.8234 469.56 89.7781 469.56 89.7781C469.56 89.7781 468.256 90.3869 465.366 90.8067C462.476 91.2266 459.684 90.4778 459.684 90.4778C459.819 89.5454 458.691 89.4125 457.654 89.7518C456.616 90.0912 455.671 91.4417 453.686 94.05C451.701 96.6584 444.486 107.118 444.486 107.118C444.801 106.121 448.544 94.7813 449.762 89.974C450.98 85.1667 449.581 83.9439 447.823 83.1917C446.065 82.4394 444.576 82.1963 442.321 84.2011C441.057 85.3259 437.257 89.5367 434.166 93.0214C435.396 90.5033 436.364 87.8474 437.051 85.102C437.541 83.1462 437.736 81.2166 437.991 79.2119C438.351 76.3639 437.795 72.1146 435.337 70.535C434.377 69.9174 433.38 69.2107 432.346 68.7628C430.088 67.7884 426.868 68.0841 424.546 68.6001C423.043 68.936 421.736 69.578 420.733 70.8638C420.59 71.051 420.621 71.149 420.676 71.3344C420.913 72.1391 421.863 72.0009 422.364 71.6388C422.916 71.2048 423.491 70.8058 424.086 70.444C424.771 70.0461 425.546 69.8607 426.324 69.9087C427.302 69.9892 428.281 70.0259 429.245 70.3058C430.81 70.7606 432.146 71.4796 433.077 73.0016C433.498 73.6873 433.783 74.2961 433.694 75.1393C433.578 76.2292 433.618 77.326 433.297 78.4001C432.911 79.6912 432.679 81.0242 432.307 82.3292C431.069 86.6344 429.274 90.4516 426.983 94.225C424.365 98.5354 421.492 102.69 418.176 106.413C415.092 109.873 411.216 113.856 406.981 115.545C405.128 116.283 403.393 117.196 401.357 116.979C400.696 116.932 400.04 116.815 399.4 116.629C394.997 115.189 395.411 109.584 396.056 105.792C397.227 98.8363 399.749 92.1642 403.254 86.1884C406.915 79.9692 411.593 74.5105 417.062 70.0749C418.856 68.6246 420.724 67.673 422.323 65.9901C422.494 65.8456 422.613 65.6423 422.661 65.4145C422.663 65.2882 422.63 65.1641 422.566 65.0578C422.503 64.9514 422.411 64.8674 422.304 64.8162C422.085 64.7185 421.846 64.6894 421.612 64.7323C420.471 64.8792 419.329 65.621 418.225 65.9848C416.376 66.5919 414.73 67.512 413.057 68.5879C409.47 70.9083 406.152 73.6777 403.174 76.838C396.674 83.6938 390.635 92.5071 389.748 102.536C389.095 109.971 392.003 118.456 398.908 121.316C400.079 121.8 401.266 122.246 402.548 122.448C410.175 123.648 417.724 116.85 422.547 111.295C425.156 108.257 427.506 104.975 429.571 101.488C431.282 99.3891 439.286 89.5926 441.818 86.8986C444.659 83.8704 445.696 83.6745 445.923 84.2745C446.15 84.8746 442.449 93.1684 440.015 99.8825C437.58 106.597 437.986 112.315 441.052 114.586C444.118 116.857 445.246 114.815 449.349 107.167C453.453 99.5186 458.776 91.9473 458.776 91.9473C462.248 93.1719 466.982 91.6482 466.982 91.6482C460.94 97.1115 456.285 106.292 455.566 110.618C454.847 114.945 456.382 119.631 463.874 118.067C472.32 116.304 485.34 100.636 485.34 100.636C485.34 100.636 480.875 111.414 480.335 114.901C479.795 118.387 481.056 119.573 483.491 119.624C485.926 119.675 485.746 116.409 491.156 107.233C496.565 98.0579 503.602 92.3636 505.135 91.7269C506.668 91.0901 506.939 94.1655 509.013 94.0658C511.088 93.9661 512.216 91.4417 511.675 90.3764C511.133 89.311 510.913 87.0316 505.14 88.8387H505.148ZM470.617 92.138C473.049 89.9495 475.378 91.3683 475.108 92.6436C474.839 93.9188 472.38 96.6461 462.735 103.01C462.735 103.002 466.595 95.7469 470.617 92.138ZM617.503 119.057C616.796 118.678 612.339 117.151 604.555 118.183C603.142 118.349 601.732 118.566 600.325 118.833C602.179 114.198 603.29 109.971 604.371 107.009C606.266 101.812 608.668 96.9313 609.427 95.6665C610.185 94.4017 607.364 94.092 606.225 94.5819C605.087 95.0717 604.921 96.389 600.749 100.231C596.577 104.072 588.11 111.696 588.11 111.696C588.11 111.696 591.184 103.427 595.481 96.242C597.352 93.1141 596.409 91.8581 595.398 91.1811C594.387 90.5041 591.69 92.0383 581.916 100.579C572.143 109.119 568.015 115.448 568.015 115.448C568.015 115.448 569.32 110.568 572.65 103.428C575.98 96.2892 583.603 84.9008 583.603 84.9008C583.603 84.9008 588.405 82.3695 600.79 81.1502C613.174 79.9308 616.798 82.5497 617.514 82.5059C618.23 82.4622 616.209 79.6142 605.382 78.89C594.555 78.1657 587.099 79.7034 587.099 79.7034C587.099 79.7034 588.952 76.677 589.668 75.0938C590.384 73.5106 590.596 72.0674 588.741 72.4278C586.887 72.7881 585.582 73.7398 584.403 75.1848C583.224 76.6298 580.106 81.0137 580.106 81.0137C565.8 83.5975 565.083 83.071 564.227 82.9713C563.37 82.8715 563.602 80.9367 562.839 80.7128C562.076 80.4889 562.053 82.4255 562.376 84.2116C562.699 85.9977 563.191 86.6607 566.678 87.0106C570.165 87.3604 576.608 86.1761 576.608 86.1761C571.808 93.1561 563.887 108.024 562.723 111.518C561.559 115.011 561.076 119.51 564.445 121.519C567.814 123.527 568.602 119.351 574.817 110.673C581.032 101.994 592.042 93.7229 592.042 93.7229C592.042 93.7229 586.05 104.648 584.777 107.66C583.503 110.673 584.328 112.034 585.002 114.289C585.675 116.544 588.371 116.176 591.93 113.564C595.488 110.953 600.888 104.186 600.888 104.186C599.351 110.604 597.21 115.833 594.749 120.105C583.094 123.268 572.482 129.018 567.762 132.841C561.738 137.721 563.044 140.524 563.044 141.698C563.044 142.872 565.95 145.357 573.028 143.958C580.106 142.558 588.616 137.993 594.555 129.632C596.563 126.773 598.273 123.687 599.655 120.429C610.216 117.819 615.877 119.236 616.573 119.341C617.687 119.512 618.21 119.428 617.503 119.049V119.057ZM567.482 139.147C565.913 139.403 565.672 136.156 575.404 130.61C582.254 126.704 588.26 124.061 593.414 122.287C583.208 137.935 568.692 138.949 567.482 139.147ZM665.15 104.492C659.332 107.417 644.904 116.388 638.175 119.187C631.446 121.986 627.932 120.292 632.175 110.994C632.175 110.994 637.327 109.173 641.691 104.426C646.055 99.6778 649.693 94.2792 644.176 93.1124C638.659 91.9456 635.629 95.8432 635.629 95.8432C635.629 95.8432 623.325 107.025 614.53 112.098C614.53 112.098 622.168 93.8926 629.018 82.7089C635.867 71.5251 638.23 68.273 639.08 66.842C639.93 65.411 639.747 64.2407 638.716 63.7211C637.686 63.2016 636.776 61.5099 632.775 66.1265C628.775 70.7431 620.288 82.6441 614.226 95.1277C608.164 107.611 609.195 110.408 610.286 112.097C611.377 113.785 613.439 116.39 616.894 113.918C620.35 111.446 631.745 100.848 631.745 100.848C631.745 100.848 625.797 109.245 625.316 116.188C624.949 121.464 628.931 125.268 634.352 123.835C637.836 122.913 644.953 119.621 654.901 112.418C664.919 105.159 670.366 102.473 672.246 102.018C674.127 101.564 670.969 101.565 665.15 104.492ZM641.631 94.9982C643.873 94.4122 644.367 95.2974 642.358 98.0544C639.749 101.63 634.357 106.247 634.357 106.247C634.357 106.247 639.388 95.5825 641.631 94.9982ZM559.16 69.027C568.811 64.4261 576.764 67.3021 576.764 67.3021C576.764 67.3021 577.927 68.8346 575.334 70.7519C572.741 72.6692 574.977 73.4092 577.211 72.3823C580.339 70.9443 581.5 70.2725 582.127 68.0683C582.753 65.8641 578.552 61.6446 568.274 61.0708C557.997 60.497 547.809 63.2733 544.503 74.3958C542.193 82.1665 545.8 93.5007 548.664 101.009C542.02 102.199 532.592 104.59 524.567 108.064C513.05 113.05 509.874 119.017 519.721 121.116C525.247 122.294 535.03 123.765 546.201 121.272C557.372 118.779 557.819 114.369 557.283 110.251C557.04 108.376 555.944 104.793 554.646 100.832C555.443 100.64 558.023 99.7548 558.853 99.5606C558.853 99.5606 556.002 99.8965 554.414 100.126C552.876 95.4426 551.229 90.7367 550.223 87.245C548.346 80.7216 549.508 73.6278 559.16 69.027ZM551.474 108.14C552.547 111.302 552.591 114.422 542.326 117.191C532.455 119.853 523.818 119.274 518.431 117.836C515.178 116.962 514.517 111.12 549.119 102.204C550.239 105.096 551.174 107.254 551.474 108.14ZM287.614 94.9125C286.309 95.6332 285.058 95.7872 284.083 96.1493C271.904 100.173 284.887 79.8801 264.901 115.368C262.308 119.857 260.64 127.85 255.305 120.763C252.062 118.379 271.992 89.9163 280.218 76.9184C281.252 75.2513 282.175 74.0862 282.861 72.5975C283.269 71.3414 283.224 69.9472 284.393 69.6743C286.741 71.03 289.086 73.6978 288.202 76.579C287.33 79.8241 272.695 95.6577 281.787 91.0429C286.174 90.1769 310.471 79.7594 310.721 73.0943C307.743 65.0472 284.695 67.5645 276.917 69.8807C269.772 71.4954 262.872 74.1981 256.617 78.2182C254.342 79.5635 251.659 84.313 250.842 79.3518C252.133 70.6469 281.576 62.836 291.859 63.2768V63.2366C300.52 63.8069 309.504 63.8628 314.061 73.7031C319.485 83.7952 294.235 92.8885 287.614 94.9125ZM373.268 92.2062C372.839 90.8872 371.13 89.283 366.052 90.1997C360.973 91.1163 354.562 99.3139 354.562 99.3139C354.562 99.3139 356.219 94.3842 356.325 92.78C356.431 91.1758 354.509 90.0282 353.119 89.5122C351.73 88.9961 351.836 89.3372 345.423 96.6199C339.011 103.903 327.745 115.163 327.745 115.163C328.906 110.855 333.398 100.547 334.975 96.7493C336.552 92.9514 337.117 91.3875 335.599 91.1636C334.081 90.9397 332.892 91.8336 329.619 95.0577C326.346 98.2818 316.885 108.232 316.885 108.232C316.885 108.232 321.941 98.6579 324.234 94.3492C326.527 90.0405 326.354 87.4567 325.247 86.5627C324.139 85.6688 322.875 84.4477 317.014 87.9255C313.986 89.7221 311.306 92.6855 308.979 95.3183C309.068 94.6975 309.092 94.0679 309.051 93.4413C309.051 93.4413 309.855 91.5379 308.024 90.7122C306.192 89.8865 305.055 90.7122 305.055 90.7122C299.943 93.5375 297.192 96.7213 297.192 96.7213C289.822 103.992 287.651 112.816 287.519 115.637C287.387 118.459 286.927 122.696 293.705 121.214C300.483 119.733 305.936 104.838 305.936 104.838C306.751 102.837 308.271 98.2975 308.271 98.2975C308.322 98.1488 308.369 98.0036 308.413 97.8584C315.894 89.6784 321.259 87.6771 321.259 87.6771C320.675 89.339 314.899 97.2514 311.801 102.239C308.702 107.226 309.984 112.156 311.587 113.762C313.19 115.368 315.382 115.023 318.909 110.788C322.437 106.553 330.452 97.5453 330.452 97.5453C330.452 97.5453 325.857 108.666 324.146 112.335C322.435 116.003 323.82 118.011 324.894 119.731C325.969 121.451 327.566 120.534 333.285 113.482C339.004 106.43 348.463 95.6525 348.463 95.6525C346.354 100.551 340.821 112.851 340.126 114.915C339.432 116.979 340.66 119.559 342.103 120.418C343.546 121.277 344.722 122.311 346.004 119.789C347.286 117.266 350.174 111.246 356.213 102.533C362.252 93.8191 366.688 92.0977 367.275 92.0977C367.862 92.0977 369.413 92.843 370.91 93.5322C372.407 94.2215 373.695 93.5252 373.268 92.2062ZM301.185 109.313C296.559 117.231 292.183 117.346 291.831 117.186C291.479 117.025 292.359 111.964 297.828 104.775C303.296 97.5873 307.547 94.8373 307.547 94.8373C307.547 94.8373 304.568 103.518 301.181 109.313H301.185Z" fill="black"/>
</svg>
