<?xml version="1.0" encoding="UTF-8"?>
<svg width="30px" height="30px" viewBox="0 0 30 30" version="1.1" xmlns="http://www.w3.org/2000/svg" xmlns:xlink="http://www.w3.org/1999/xlink">
    <title>_brand icons/80x80/Chef recipe Copy</title>
    <defs>
        <filter id="filter-1">
            <feColorMatrix in="SourceGraphic" type="matrix" values="0 0 0 0 0.619608 0 0 0 0 0.521569 0 0 0 0 0.380392 0 0 0 1.000000 0"></feColorMatrix>
        </filter>
    </defs>
    <g id="Symbols" stroke="none" stroke-width="1" fill="none" fill-rule="evenodd">
        <g id="module/newrecipes/card" transform="translate(-227.000000, -11.000000)">
            <g id="_brand-icons/80x80/Chef-recipe-Copy" transform="translate(227.000000, 11.000000)" filter="url(#filter-1)">
                <g id="_brand-icons/80x80/Your-time">
                    <rect id="bounding-box" x="0" y="0" width="29.7811458" height="29.7035358"></rect>
                    <path d="M14.8905729,0.594070716 C22.7877742,0.594070716 29.188501,6.97811715 29.188501,14.8517679 C29.188501,22.7254187 22.7877742,29.1094651 14.8905729,29.1094651 C6.9933716,29.1094651 0.592644802,22.7254187 0.592644802,14.8517679 C0.592644802,6.97811715 6.9933716,0.594070716 14.8905729,0.594070716 Z M14.8096448,1.18907072 L14.8905729,1.18814143 C7.3269619,1.18814143 1.19422395,7.30489741 1.19422395,14.8517679 C1.19422395,22.3986384 7.3269619,28.5153944 14.8905729,28.5153944 C22.3728871,28.5153944 28.4549222,22.5294225 28.5848022,15.094617 L14.8101266,15.0949367 L14.8096448,1.18907072 Z M15.1913625,24.6539347 L15.1913625,27.0302176 L14.5897833,27.0302176 L14.5897833,24.6539347 L15.1913625,24.6539347 Z M19.9315718,23.2708389 L21.0751678,25.2461241 L20.5529178,25.5409815 L19.4093218,23.5656963 L19.9315718,23.2708389 Z M9.62919354,23.2708389 L10.1514435,23.5656963 L9.0078475,25.5409815 L8.48559754,25.2461241 L9.62919354,23.2708389 Z M23.4046554,19.5913169 L25.3851016,20.7319327 L25.082028,21.2451042 L23.1015818,20.1044884 L23.4046554,19.5913169 Z M6.159088,19.5913169 L6.4621616,20.1044884 L4.4817154,21.2451042 L4.1786418,20.7319327 L6.159088,19.5913169 Z M5.06279479,14.5547325 L5.06279479,15.1488033 L2.68030312,15.1488033 L2.68030312,14.5547325 L5.06279479,14.5547325 Z M15.4754866,1.20037719 L15.4746448,14.4300707 L28.5805213,14.4299962 C28.3629979,7.27240805 22.6278744,1.50018165 15.4754866,1.20037719 Z M4.4817154,8.69605994 L6.4621616,9.83667572 L6.159088,10.3498472 L4.1786418,9.20923144 L4.4817154,8.69605994 Z M9.0078475,4.40018264 L10.1514435,6.37546778 L9.62919354,6.67032515 L8.48559754,4.69504002 L9.0078475,4.40018264 Z" id="Combined-Shape" fill="#000000"></path>
                </g>
            </g>
        </g>
    </g>
</svg>