<svg xmlns="http://www.w3.org/2000/svg" viewBox="0 0 468.23 232.93"><defs><style>.cls-1{fill:#1d1d1b;}</style></defs><g id="Capa_2" data-name="Capa 2"><g id="World_Explorations_K" data-name="World Explorations K"><path id="World_Explorations_K-2" data-name="World Explorations K" class="cls-1" d="M203.11,64.41,199.9,69.9q-11.28,19.08-23,37.92A19.3,19.3,0,0,1,172,113.4c-1.89,1.35-5.24,0-7.17-2.34-5-6.15-3.5-13.07-2-19.66,2.87-12.4,8.53-23.87,13-35.75,1.31-3.47,2.67-6.93,4.32-11.18l-14.24,16.3q-15.28,17.5-30.54,35c-2.07,2.39-4.84,3.49-7.58,4.6a3.63,3.63,0,0,1-4-1.34c-1.85-2.2-3.11-4.65-1.83-7.54,2.25-5.09,4.7-10.08,7-15.17,5.54-12.52,12.81-24.16,18.73-36.48,3-6.17,6.43-12.17,7.62-19.06.49-2.82-.55-4.73-3.45-5.4-6.33-1.47-12.36.09-18.22,2.19-16.39,5.88-31.8,13.93-47.34,21.69-8.91,4.45-17.64,9.43-27.67,11.18-6.25,1.1-11.75-2.81-12-8.65,0-.9-.12-2.09.93-2.3A2,2,0,0,1,49.84,41c.71,4.5,3.92,3.63,6.73,3.06,7.11-1.44,13.65-4.49,20.16-7.54,17.7-8.28,35.11-17.25,53.76-23.32,6.59-2.14,13.35-3.74,20.44-2,8.52,2.05,12.5,8.64,10.89,17.22-1.91,10.14-6.56,19.24-10.07,28.78a183,183,0,0,1-8,17.87,23.35,23.35,0,0,0-.72,2.26c4.52-5.06,8.24-9.42,12.16-13.59,11.06-11.77,21.42-24.21,33.47-35a4.86,4.86,0,0,1,3.58-1.25c1,0,2.94-.29,3.34,1a3.09,3.09,0,0,1,0,1.48c-1.16,6.35-4,12.15-6,18.24C185.3,61,181.07,74,177.53,87.19a48.4,48.4,0,0,0-1.28,5.47c0-.27.47-.71.63-.94l.75-1.12,1.42-2.16c.95-1.44,1.89-2.89,2.83-4.33q2.81-4.35,5.59-8.71c3.7-5.81,7.4-11.63,11.2-17.38,8.14-12.31,17.15-24,26-35.77.75-1,9-11.93,10.25-10.31s-1.16,5.23-2.05,6.65c-1.87,2.95-3.89,5.8-5.84,8.7C218.81,39.53,210.57,51.68,203.11,64.41ZM404.8,10.35c-8.18,13.25-14,27.73-21.47,41.35-6,10.88-10.43,22.52-14.42,34.3-1.55,4.57-2.87,9.25-5.19,13.53-1.75,3.2-5.25,3.78-8.09,1.33-5.25-4.52-5.47-5.54-3.35-12.38,1.81-5.85,4.1-11.52,6.18-17.31a71.85,71.85,0,0,1-13.7,12.57c-2.53,1.87-5.72,3.65-8.49,1.64-3.32-2.4-5.74-5.86-5.38-10.51.35-4.43,2.19-8.26,4.4-12a137.42,137.42,0,0,0-14,12.7C314.67,82.25,309.21,90,303,97a19.85,19.85,0,0,1-3.06,3c-2.22,1.59-4.13,2.3-6.87,0-6.35-5.35-5.44-11.6-3.31-18.23,1.29-4.05,2.69-8.06,4.17-12.44-2.58,2-5,4.14-8.73,3.82a.35.35,0,0,1-.2-.61c3.52-3.15,6.63-6.12,10-8.77a17.22,17.22,0,0,0,5-6.33c6.75-14.11,13.76-28.1,23.26-40.61,3.83-5.05,8.18-9.72,14.31-12.18a17.79,17.79,0,0,1,7.5-.77c3.52.17,5.34,5.43,3.46,9.29-5.16,10.61-12.8,19.34-21,27.69-3.84,3.93-7.92,7.58-12,11.24-2.71,2.41-3.61,6.14-5.27,9.31a184.28,184.28,0,0,0-12.9,32.53,11,11,0,0,0,3.8-3C311.2,80.61,321,70,332.07,60.81c9.25-7.68,18.7-15,30.33-18.79,2.43-.81,4.73-1,6.94.35,1.86,1.15,2.78.74,3.79-1.26C379.38,28.8,386,16.68,394,5.43a13.77,13.77,0,0,1,1.69-2.16c1.44-1.32,2.67-4.15,4.85-3C405.21,2.72,406.86,7,404.8,10.35ZM317.25,47.11,326,37.8a128.46,128.46,0,0,0,17.48-23.54c1-1.74,2.25-4.1.37-5.48-1.58-1.17-3,1.12-3.88,2.32-4.63,6-9.36,12-13.06,18.74C323.85,35.33,319.83,40.27,317.25,47.11Zm51.74-2c-.28-.65-.93-.83-2-.72a7.31,7.31,0,0,0-3.19,1.15,72.7,72.7,0,0,0-17.52,16.27,39.8,39.8,0,0,0-8.12,16.53c-.13.62-.5,1.42.15,1.79.36.2,1.12-.13,1.62-.38a30,30,0,0,0,5.86-3.89A100.78,100.78,0,0,0,356.67,65c3.35-3.85,6.64-7.84,9.66-12a27.59,27.59,0,0,0,2.53-3.36A5.24,5.24,0,0,0,369,45.14Zm-80.9,17.18a12.51,12.51,0,0,0,3.74-4.92c.67-1.69.2-2.43-1.52-3a7.67,7.67,0,0,0-6.21.76c-9.74,5.26-17.05,13.34-24.57,21.18-1.39,1.44-2.76,2.9-4.62,4.85,4.87-8.46,9.3-16.3,13.89-24.05,2.15-3.64,1.46-7.58-2.08-10A14.19,14.19,0,0,0,256.08,45c-9.23,1.53-16.28,7.49-24.16,11.78a1.53,1.53,0,0,0-.48,1.39c.94,2.77-.91,4.6-2.21,6.54a112,112,0,0,1-9.71,11.81l-2.39,2.7c-.08,0-.38.43-.44.5l-.45.51-.93,1.06c-.62.7-1.23,1.41-1.85,2.12-1.09,1.25-2.17,2.51-3.27,3.75a2.42,2.42,0,0,1-.33.31.67.67,0,0,1-.39.15.75.75,0,0,1-.67-.43,4,4,0,0,1-.24-1.91c0-.43,0-.87.08-1.3a7.5,7.5,0,0,1,.73-2.5,59.24,59.24,0,0,1,19-22.39c1.23-.85,2.67-1.83,1.8-3.42s-2.48-.85-3.84-.36a29.39,29.39,0,0,0-8.46,4.89c-7.71,6.22-15.37,12.47-16.69,23.41a8.82,8.82,0,0,0,10,9.84,13.34,13.34,0,0,0,6.11-3.08c8.43-6.81,14.91-15.32,20.85-24.26,1.23-1.87,2.53-4,1.94-6.4a2.87,2.87,0,0,1,1.28-3.51c5.63-3.72,11.54-6.88,18.16-8.49.41-.1,1.05-.17,1.29.06.46.44-.07.95-.27,1.39a110.38,110.38,0,0,1-9,15.6c-6.19,9.36-12.62,18.56-16.75,29.12a7.19,7.19,0,0,0,.69,7c3,4.69,8.1,5.73,10.86,2,6.52-8.82,13.4-17.32,20.53-25.65a139.74,139.74,0,0,1,16.41-16.5c1-.82,1.66-1.35,1.92.58S286.4,63.77,288.09,62.32ZM164.43,150.83c5.14-9,10.57-17.73,17.68-25.32a8.35,8.35,0,0,1,1.61-1.36c1.45-1,3.08-2.45,4.7-.93,1.45,1.36.18,3.19-.52,4.61-2.52,5.18-6.37,9.42-10.16,13.68-4.69,5.28-9.81,10.15-14.94,15-.34.32-.75.58-1.76,1.35C162.38,155,163.27,152.86,164.43,150.83Zm24.82,12.09a37.93,37.93,0,0,1-5.07,10.14c-2.91,4.37-4.67,9.64-9.54,12.52l0,0a.84.84,0,0,1-1.25-.92A34.43,34.43,0,0,1,177.91,174c2.84-4.39,5.58-8.9,9.88-12.12.41-.31.76-1,1.33-.59S189.42,162.35,189.25,162.92Zm213.58,22.2A9.74,9.74,0,0,1,399,191a13.62,13.62,0,0,1-3.66,1.92,18.77,18.77,0,0,1-4.38.92h-.05c-.41,0-.83.09-1.24.09a2.21,2.21,0,0,1-1.39-.39,1,1,0,0,1-.34-.36,1.05,1.05,0,0,1-.09-.7,3.83,3.83,0,0,1,.2-.89,6.28,6.28,0,0,1,3-2.91c3.49-1.95,7.42-2.94,11.3-3.91.15,0,.33-.06.41.06A.39.39,0,0,1,402.83,185.12ZM236.5,180.71c-3,2.11-5.69,4.55-8.82,6.42a2.39,2.39,0,0,1-.75.33h-.11a.69.69,0,0,1-.73-.45.9.9,0,0,1,0-.43c.9-4.25,3.78-7.15,6.75-10.11a89.75,89.75,0,0,1,19.22-14.75c.38-.22.71-.26,1,.09s0,.71-.19,1C247.85,169.17,243.26,175.92,236.5,180.71Zm-9.23-14.59c2.4,2.19,3.9.53,5.46-1,1.24-1.24,2.76-2.94,1.73-4.46-1.2-1.79-3.38-.86-5,0A78.31,78.31,0,0,0,218.12,168a80.9,80.9,0,0,0-8.44,8.06c2.44-6.54,6.55-11.63,9.4-17.42,1.38-2.8.34-4.84-1.36-6.57-1.87-1.9-4.08-1.11-6.09.24a92.25,92.25,0,0,0-17.77,15.22c-.38.44-.66,1.09-1.41,1.11a33.18,33.18,0,0,0,.9-3.84c.2-1.62.22-3.32-1.27-4.46-3.34-2.55-4.64-2.53-8-.23a148.91,148.91,0,0,0-12.48,9.9c-6.85,5.84-12.16,13.15-18.48,19.5-2.37,2.39-4.94,4.58-8,7.4.6-2.31.91-3.79,1.36-5.22,2-6.48,5.22-12.48,8-18.66,1.4-3.15,2.14-6.8,4.75-9.17,7.79-7.07,15.74-14,22.78-21.81,5.1-5.67,10.56-11.09,12.84-18.73.78-2.65.11-5-1.95-5.34-3.88-.69-7.35.31-10.8,2.23a33.93,33.93,0,0,0-9.95,8.56,166.29,166.29,0,0,0-22.94,37.37c-1.91,4.39-8.65,11.07-12.66,12.53,2.22-2.35,3.35-5.08,4.87-7.55,1.93-3.15,3.73-6.43,4.25-10.27.58-4.34-1.72-6.5-6-5.41a20.12,20.12,0,0,0-5.9,3c-2.65,1.72-4.88,3.95-7.41,5.87a32.37,32.37,0,0,0,2.77-9.15c.25-1.69,1-3-.32-4.62-2.21-2.71-4.51-2.66-6.1.36-1.92,3.64-3.91,7.25-5.58,11-2.86,6.44-6.07,12.73-9.4,18.94-7.64,14.24-14.14,29-21,43.63a7.94,7.94,0,0,0-.5,5.88A3.57,3.57,0,0,0,89,232.89c1.26.25,2-.6,2.72-1.61,3.41-4.7,5.68-10,8.08-15.2,3.63-7.82,7.17-15.67,11.42-23.18.4-.7.89-1.52,1.73-1,3.36,2.12,6.51.42,9.64-.49,3.63-1.06,6.6-3.47,9.76-5.44,3.37-2.1,6.57-4.48,10.25-7-1.25,2.92-2.39,5.36-3.36,7.86-2.19,5.64-4.23,11.19.63,16.75,1.74,2,3.23,1.76,5.09,1a7,7,0,0,0,2.09-1.52c4.72-4.48,8.65-9.64,12.65-14.74,3.81-4.83,7.44-9.84,12.54-13.93-1.12,2.48-2.08,4.7-3.11,6.88-1.47,3.12-.82,6.07.8,8.83,1.5,2.58,4.27,2.54,7.37.13a52.5,52.5,0,0,0,9.42-10.2c3.91-5.15,8.66-9.68,13.17-14.35a52.67,52.67,0,0,1,10.17-8.25c-.76,1.17-1.12,1.7-1.46,2.25-5,8.21-10.68,16-14.84,24.68-2.28,4.77-3.19,9.19.57,13.76,1.84,2.23,3.27,2.56,5.4.47,1.31-1.29,1.61-3.05,2.63-4.44,3.2-4.36,6.37-8.74,9.6-13.09a69.84,69.84,0,0,1,11.31-12.48C223.92,168,226.48,165.4,227.27,166.12Zm-102.5,19.46a28.84,28.84,0,0,1-8.16,4.47,3.37,3.37,0,0,1-2.48.06c-.54-.2-.91-.52-.41-1.46s1.12-2.06,1.69-3.07a107.09,107.09,0,0,1,6.18-9.81,72.56,72.56,0,0,1,7.4-8.83q2.06-2.07,4.3-3.93c1.35-1.09,2.76-2.1,4.15-3.13.57-.43,1.9-1.82,2.67-1.11a1.39,1.39,0,0,1,.32,1.5,59.06,59.06,0,0,1-5.84,11.65C131.62,176.69,129.17,181.82,124.77,185.58Zm341.83-1.13c-3.58-3.79-8.76-5.66-13.87-6.68-11.9-2.37-24.16-.9-36,.86l-.73.11-.91.13c-1.74.26-1.57.91-1.47-1.38.22-4.78,1.75-9.25,2.63-13.87a10.48,10.48,0,0,1,6.54-7.79c.36-.15.92-.41,1.24-.06s.08,1.54.13,2.08a.75.75,0,0,0,.12.41.64.64,0,0,0,.47.22,3.33,3.33,0,0,0,.54-.07,14.36,14.36,0,0,1,1.61,0,2.09,2.09,0,0,0,2.22-2.08c.27-2.74-2.18-4.61-4.73-4.54a16.74,16.74,0,0,0-6.45,1.93,15.7,15.7,0,0,0-5.73,4.58,4.78,4.78,0,0,1-1.2,1.13c-15.67,9.88-28.24,23.24-41.21,36.82,1.35-5.83,4.12-10.59,6.26-15.6,1.8-4.25,4.76-8.06,4.78-13a2.42,2.42,0,0,0-2.17-2.69c-2.74-.64-4.57,1-6.52,2.28-3.78,2.52-7.08,5.64-11.14,9.18.81-1.46,1.22-2.13,1.57-2.84,2.1-4.29,4-8.44,3.5-13.6a8.05,8.05,0,0,0-8.92-7.17c-6.05.92-11.16,3.92-15.83,7.82-3,2.52-4.07,6.19-5.91,9.39a72,72,0,0,1-16.2,19.19,5.93,5.93,0,0,1-1.26.63,2.48,2.48,0,0,1-.21-.71c.2-3.66.71-7.18,2.8-10.38a53.9,53.9,0,0,1,11.62-12.63c1.88-1.51,3.41-3.45,5.77-4.31,1.3-.48,3-1.14,2.33-2.71a3.6,3.6,0,0,0-4.16-2.26,32.55,32.55,0,0,0-10.12,4.7c-9.62,6.27-17.57,14.49-26,22.19-2.89,2.65-5.82,5.26-8.73,7.89a.2.2,0,0,1-.33-.2c1-3.9,3.32-7,5.45-10.18,1.95-2.92,4.18-5.66,5.15-9.13.76-2.7-.26-5.4-2.62-6-2.63-.7-1.76,2-2.49,3.1-2.92,4.3-5.66,8.75-8.26,13.26-2.45,4.25-5,8.58-1.13,13.48,1.35,1.7,2.75,2.32,4.54,1a65,65,0,0,0,5.07-4.32c4.9-4.62,9.75-9.3,14.95-14.27-.48,1.34-.83,2.25-1.11,3.17-1.37,4.41,1.07,10.87,4.65,13.12,3.35,2.1,9.54.11,11.88-2.49,4.16-4.62,8.81-8.83,11.91-14.3,2.29-4.05,5.33-7.89,4.54-13-.1-.64.33-1,.71-1.37a31,31,0,0,1,10.27-7c1.79-.76,4.16-2.08,5.46-.74s-.15,3.65-.95,5.41c-3.27,7.2-7.75,13.69-11.79,20.44-2.26,3.79-4.53,7.64-4.89,12.11-.2,2.41.54,5.05,3.37,5.82,1.95.53,2.61-1.55,3.55-2.71,3.07-3.78,6-7.69,9-11.48A121.16,121.16,0,0,1,370,172.9a69.78,69.78,0,0,1,5.93-4.62.29.29,0,0,1,.46.29,6.79,6.79,0,0,1-1,2.18,123.28,123.28,0,0,0-10.49,19.46c-.87,2.12-1.77,4.3-1.37,6.62s1.46,4.63,3.9,5.49c1.66.57,3-.83,4.05-1.89,2.05-2,4-4.13,5.91-6.24,6.17-6.69,11.67-14,18.45-20.12a122.85,122.85,0,0,1,13-10.48,131.19,131.19,0,0,0-4.22,15.87,2.31,2.31,0,0,1-1.86,1.92,119.49,119.49,0,0,0-12.29,3.93,15.63,15.63,0,0,0-3.31,1.75,7.46,7.46,0,0,0-1.89,2,4.51,4.51,0,0,0-.75,2.52,3.62,3.62,0,0,0,.22,1.17,6.48,6.48,0,0,0,1.67,2.49,8.3,8.3,0,0,0,1,.85l.55.37c1.06.67,2.21,1.18,3.33,1.74a35.38,35.38,0,0,0,4.94,2.25,8.36,8.36,0,0,0,6.2-.24,17.35,17.35,0,0,0,5-4c3.06-3.31,4.16-7.56,5-11.85a2.21,2.21,0,0,1,1.89-2,84.6,84.6,0,0,1,10.12-1.51c11.38-1.39,23.83-.64,34.77,3,1.22.4,2.42.84,3.6,1.35.62.27,3.8,1.54,4.88,2.63a.26.26,0,0,0,.44-.2A5.36,5.36,0,0,0,466.6,184.45ZM86.07,186.08c-.13-1.19-.15-2.39-.29-3.57-.08-.67.3-1.61-.38-2-.84-.44-1.49.44-2.12.89A178.9,178.9,0,0,0,65.58,196,21.28,21.28,0,0,1,61,199.19a.51.51,0,0,1-.68-.71l1.9-3.1A102.76,102.76,0,0,0,39.38,201c-10.05,3.59-19.64,8.4-29.89,11.46-4.76,1.43-6.35.83-8.8-3.41-1-1.75-.76-3.95-.19-5.88,2.39-8.16,6.9-15.31,11-22.64,6.44-11.53,14-22.34,21.28-33.36l1.63-2.49a79.9,79.9,0,0,0-28.46,8c-3.08,1.56-2.94,1.7-4.07-1.51-.65-1.87,0-2.88,1.65-3.75,9.73-5,20.07-7.6,30.91-9a109.88,109.88,0,0,1,25.75-.46,33.58,33.58,0,0,1,12,3.74c.63.32,1.65.45,1.41,1.49a1.92,1.92,0,0,1-2.13,1.41c-2,0-3.91-.07-5.85-.25-6.64-.64-13.27-1.5-19.94-.38-.61.11-1.24.16-1.33.93-.53,4.41-3,8-5.22,11.62-2.86,4.66-5.92,9.2-9.06,14l9.21-1.42A117.6,117.6,0,0,1,68.07,168c.69.06,1.86-.19,1.94.67s-1.07,1.08-1.81,1.35c-4.88,1.78-10,2.4-15.09,3.08a126.81,126.81,0,0,0-23.26,5.21c-1.56.52-2.87.49-3.51-1.63A324.27,324.27,0,0,0,10.74,207c4.26-1.59,8-2.94,11.7-4.36,13.32-5.09,26.78-9.57,41.18-10.4,2-.12,3-1.54,4.22-2.85s2.59-2.35,3.85-3.56,2.8-2.64,4.24-3.91q3.24-2.85,6.68-5.47a8.26,8.26,0,0,0,2.59-2.36c.65-1.23.3-2.43.26-3.75a67.12,67.12,0,0,0-1-11.49c-.53-2.56.4-3.21,3.23-2.76,4.3.69,5.5,4.11,6.53,7.42.69,2.22,1.12,2.26,2.79.86,3.69-3.1,7.56-6,11.33-9a2.54,2.54,0,0,1,2.54-.69c.9.33,1.06,1.18,1,2s0,1.82-1.17,2.56c-5.19,3.28-9.72,7.44-14.48,11.3a1.58,1.58,0,0,0-.46,1.49c.55,6.94.49,13.95,2.09,20.78a3.15,3.15,0,0,1-.59,2.77c-1.21,1.4-2.77.48-4.16.22C87.71,194.83,86.59,190.66,86.07,186.08Zm213.4-43.86c4.23.15,8.49,0,12.67.45,6.14.72,12.52.87,17.74,5,.28.22.66.54,1,.22s.23-.9,0-1.34a11.58,11.58,0,0,0-5.53-4.89c-7.52-3.79-15.7-4.35-23.91-4.66a11.44,11.44,0,0,1-1.48-.14.53.53,0,0,1-.36-.75c.37-.75.76-1.5,1.16-2.24,1-1.75,1.24-4.32-.06-4.8s-2.77-1.15-4.35,2.37c-.29.64-1.65,2.86-2.81,4.83a1.68,1.68,0,0,1-1.42.64c-13.33.13-26.46,2.5-39.71,3.53-4.33.33-8.69.52-12.92-.9a3.66,3.66,0,0,1-2.77-3.9,36.31,36.31,0,0,0-.14-3.9c0-.3-.4-.57-.62-.85-.19.17-.47.31-.55.53-1.07,3-2,6.13-.08,9.09,2.83,4.41,7.59,5.34,12.21,5.64,9.51.61,18.94-.82,28.39-1.75,4.46-.44,8.92-.85,13.39-1.28a.36.36,0,0,1,.32.58c-12.4,16.15-25.85,31.32-41.83,44.2a39.8,39.8,0,0,1,4.67-10.5c3.15-5.29,5.33-11.14,9.37-15.93a2.47,2.47,0,0,0-.3-3.53c-1.08-.76-2.57-1.89-3.84.09a1.82,1.82,0,0,1-2,1.05c-2.41-.74-4.56,0-6.69,1-8.18,4.07-14.92,10.07-21.49,16.23-3.72,3.49-5.68,7.79-3.63,13.08a2.35,2.35,0,0,0,2.18,1.8c3.16.28,5.24-1.77,7.43-3.48,1.8-1.41,3.46-3,5.25-4.62.44-.14-.09,1.29-.14,1.43a8.66,8.66,0,0,0-.65,3.83,12.63,12.63,0,0,0,.69,3.27,4.79,4.79,0,0,0,4.81,3.43c2.25-.17,3.75-1.91,5.37-3.25,1.78-1.47,3.51-3,5.14-4.64,6.91-7,14.9-12.77,21.93-20.8-4.72,8.7-9.21,16.53-12.44,25-1.5,3.94-.52,7.06,2.07,10a1.28,1.28,0,0,0,1.72.3,7.52,7.52,0,0,0,3.68-4.12c1.82-4,3.35-8.14,5.25-12.1,6.54-13.68,13.22-27.31,19.78-41A3.4,3.4,0,0,1,299.47,142.22ZM306,153c1.94.09,3.6.78,3.79,3,.13,1.61-3.72,5.05-5.5,4.85-1.94-.23-2.45-1.88-2.72-3.33A4.74,4.74,0,0,1,306,153Z"/></g></g></svg>